<?xml version="1.0" encoding="UTF-8" standalone="no"?>
<!-- Created with Inkscape (http://www.inkscape.org/) -->

<svg
   xmlns:dc="http://purl.org/dc/elements/1.1/"
   xmlns:cc="http://creativecommons.org/ns#"
   xmlns:rdf="http://www.w3.org/1999/02/22-rdf-syntax-ns#"
   xmlns:svg="http://www.w3.org/2000/svg"
   xmlns="http://www.w3.org/2000/svg"
   xmlns:sodipodi="http://sodipodi.sourceforge.net/DTD/sodipodi-0.dtd"
   xmlns:inkscape="http://www.inkscape.org/namespaces/inkscape"
   width="240"
   height="160"
   id="svg3249"
   version="1.1"
   inkscape:version="0.48.0 r9654"
   sodipodi:docname="BSL letter B.svg">
  <defs
     id="defs3251" />
  <sodipodi:namedview
     id="base"
     pagecolor="#ffffff"
     bordercolor="#666666"
     borderopacity="1.0"
     inkscape:pageopacity="0.0"
     inkscape:pageshadow="2"
     inkscape:zoom="0.77472527"
     inkscape:cx="105.7305"
     inkscape:cy="240"
     inkscape:current-layer="layer1"
     inkscape:document-units="px"
     showgrid="false"
     inkscape:window-width="1024"
     inkscape:window-height="745"
     inkscape:window-x="-8"
     inkscape:window-y="-8"
     inkscape:window-maximized="1" />
  <metadata
     id="metadata3254">
    <rdf:RDF>
      <cc:Work
         rdf:about="">
        <dc:format>image/svg+xml</dc:format>
        <dc:type
           rdf:resource="http://purl.org/dc/dcmitype/StillImage" />
        <dc:title></dc:title>
      </cc:Work>
    </rdf:RDF>
  </metadata>
  <g
     id="layer1"
     inkscape:label="Layer 1"
     inkscape:groupmode="layer"
     transform="translate(0,-320)">
    <text
       xml:space="preserve"
       style="font-size:40px;font-style:normal;font-weight:normal;line-height:125%;letter-spacing:0px;word-spacing:0px;fill:#000000;fill-opacity:1;stroke:none;font-family:Sans"
       x="172.96454"
       y="23.177303"
       id="text3264"
       sodipodi:linespacing="125%"
       transform="translate(0,320)"><tspan
         sodipodi:role="line"
         id="tspan3266"
         x="172.96454"
         y="23.177303" /></text>
    <text
       xml:space="preserve"
       style="font-size:64px;font-style:normal;font-weight:bold;line-height:125%;letter-spacing:0px;word-spacing:0px;fill:#000000;fill-opacity:1;stroke:none;font-family:Sans;-inkscape-font-specification:Sans Bold"
       x="179.41844"
       y="55.446808"
       id="text3268"
       sodipodi:linespacing="125%"
       transform="translate(0,320)"><tspan
         sodipodi:role="line"
         id="tspan3270"
         x="179.41844"
         y="55.446808" /></text>
    <flowRoot
       xml:space="preserve"
       id="flowRoot3272"
       style="font-size:64px;font-style:normal;font-weight:bold;line-height:125%;letter-spacing:0px;word-spacing:0px;fill:#404040;fill-opacity:1;stroke:none;font-family:Sans;-inkscape-font-specification:Sans Bold"
       transform="translate(16.780142,313.5461)"><flowRegion
         id="flowRegion3274"><rect
           id="rect3276"
           width="73.574471"
           height="67.120567"
           x="160.05673"
           y="15.432623"
           style="fill:#404040;fill-opacity:1" /></flowRegion><flowPara
         id="flowPara3278">C</flowPara></flowRoot>    <path
       id="dp_path063"
       d="M 152.26312,446.12974 C 152.62712,446.77644 152.43812,447.26174 151.71112,447.58574 C 150.84812,447.90844 150.24312,447.74704 149.87912,447.10044 C 149.27212,445.80704 146.76712,441.79244 142.37512,435.05644 C 137.98312,428.32174 135.59911,424.71104 135.23511,424.22574 C 134.87211,423.74174 133.55111,421.63904 131.30211,417.92174 C 129.03911,414.20304 126.14311,409.70444 122.59911,404.42304 C 120.65911,401.83644 117.41411,393.26974 112.90011,378.72044 C 106.31211,375.48704 102.07011,373.57374 100.18311,372.98174 C 98.298108,372.38844 93.380108,369.56044 85.446108,364.49504 L 82.523108,362.71644 C 80.812108,361.63904 79.343112,361.07244 78.131112,361.01904 C 76.906112,360.96574 74.588112,360.56174 71.167112,359.80704 C 65.320112,358.40574 61.710112,357.97474 60.376112,358.51374 C 58.423112,359.26844 52.630112,361.63904 42.984112,365.62574 C 43.847112,367.78174 44.938112,368.69774 46.286112,368.37504 C 47.498112,368.05104 49.734112,367.86304 52.967112,367.80844 C 56.200112,367.75504 58.112112,367.53904 58.732112,367.16174 C 59.339112,366.78444 60.066112,366.59644 60.928112,366.59644 C 62.383112,366.59644 65.252112,367.25644 69.523112,368.56304 C 72.702112,369.65374 74.534112,370.20704 75.019112,370.20704 C 75.626112,369.99104 76.178112,369.99104 76.663112,370.20704 C 77.268112,370.52974 77.767112,371.48574 78.131112,373.08974 C 78.495112,374.69244 78.980112,375.82444 79.586112,376.45774 C 79.963112,376.56444 80.206112,376.78044 80.327112,377.10444 L 80.502112,377.10444 C 84.044108,379.15104 85.810108,381.41504 85.810108,383.89374 C 85.688108,387.44974 86.026108,389.41644 86.820108,389.79374 C 87.615108,390.17104 87.951108,390.68304 87.830108,391.32974 C 87.710108,391.65244 87.588108,391.94974 87.467108,392.21904 C 87.346108,392.48844 86.887108,393.48444 86.092108,395.20974 C 85.298108,396.93374 84.960108,398.33504 85.082108,399.41244 C 85.446108,399.19644 86.119108,399.03504 87.090108,398.92704 L 87.642108,398.76574 L 87.642108,398.60444 C 87.642108,397.09504 88.504108,394.22574 90.202108,390.00974 C 90.458108,389.25504 90.996108,388.98574 91.858108,389.20044 C 92.586108,389.52444 92.828108,390.00974 92.586108,390.65644 C 90.875108,395.19504 90.094108,397.80844 90.215108,398.50974 C 90.336108,399.20974 90.268108,399.72174 90.026108,400.04574 C 87.346108,400.90704 83.870108,402.41644 79.586112,404.58574 C 79.222112,405.01644 77.632112,405.82444 74.831112,407.00974 C 72.635112,407.87244 71.423112,408.41104 71.167112,408.62704 C 70.682112,409.38044 68.916112,409.54304 65.859112,409.11104 C 64.646112,409.00304 63.299112,408.84174 61.831112,408.62704 C 61.710112,408.51904 61.588112,408.46444 61.467112,408.46444 L 56.536112,406.20174 C 54.826112,405.44704 53.358112,405.06974 52.131112,405.06974 C 50.434112,405.06974 48.050112,405.39374 44.992112,406.04044 L 44.452112,406.20174 C 43.348112,406.52444 42.499112,407.00974 41.894112,407.65644 L 47.564112,407.65644 C 49.140112,407.65644 50.056112,408.73374 50.312112,410.88974 C 50.434112,411.85904 50.555112,412.50574 50.676112,412.82974 L 54.516112,413.96044 C 56.227112,415.03904 58.854112,416.38574 62.383112,417.98844 C 70.196112,418.42044 75.019112,419.65904 76.851112,421.70704 C 77.579112,422.56974 81.296108,424.88574 88.006108,428.65774 C 89.231108,428.98174 95.576108,430.75904 107.04011,433.99244 C 107.29611,434.10044 107.53911,434.26174 107.78211,434.47774 L 117.29211,449.82174 C 117.41411,449.92974 117.48011,450.09107 117.48011,450.30707 C 117.48011,450.84574 117.23811,451.22307 116.75411,451.43774 C 116.01211,451.76174 115.40611,451.59907 114.92011,450.95241 L 105.76011,435.93244 L 87.090108,430.75904 C 86.362108,430.54444 84.234108,429.33104 80.691108,427.12304 C 77.147112,424.91374 75.167112,423.56574 74.736112,423.08044 C 74.319112,422.60974 72.702112,422.04444 69.887112,421.39774 C 67.084112,420.75104 64.526112,420.37374 62.208112,420.26574 C 61.346112,420.26574 58.423112,418.91904 53.411112,416.22444 L 41.894112,412.66844 C 41.759112,412.66844 41.704112,412.66844 41.704112,412.66844 C 39.630112,411.69774 38.592112,410.45904 38.592112,408.94974 C 38.592112,406.47104 40.304112,404.85504 43.712112,404.10044 L 44.452112,403.93904 C 47.619112,403.07644 50.178112,402.64574 52.131112,402.64574 C 54.570112,402.64574 56.470112,403.12974 57.816112,404.10044 L 62.572112,406.36304 C 65.980112,406.90174 68.243112,407.11774 69.348112,407.00974 C 69.711112,406.68704 70.870112,406.09374 72.823112,405.23104 C 71.476112,403.30574 68.674112,400.13904 64.404112,395.73504 C 64.162112,395.51904 64.040112,395.24974 64.040112,394.92574 L 64.404112,380.91644 C 64.404112,380.48444 64.646112,380.16174 65.131112,379.94574 C 66.963112,378.97644 68.364112,378.36974 69.348112,378.10044 C 70.318112,377.83104 72.823112,377.42704 76.851112,376.88844 C 76.487112,376.45774 75.990112,375.00174 75.383112,372.53644 C 74.412112,372.64444 72.150112,372.10574 68.607112,370.92044 C 63.851112,369.31774 61.103112,368.67104 60.376112,368.99374 C 59.392112,369.69504 57.318112,370.08574 54.152112,370.19244 C 50.246112,370.28704 47.862112,370.43504 47.012112,370.63774 C 45.302112,370.96044 43.834112,370.61104 42.620112,369.58704 C 41.395112,368.57644 40.600112,367.14844 40.236112,365.31644 C 39.994112,364.79104 40.236112,364.36044 40.978112,364.03644 C 51.094112,359.73904 57.264112,357.22074 59.460112,356.46574 C 61.292112,355.71074 65.442112,356.08874 71.907112,357.59774 C 75.074112,358.35274 77.094112,358.72844 77.943112,358.72844 C 79.775112,358.72844 81.850108,359.48304 84.166108,360.99244 L 86.914108,362.77104 C 90.699108,365.14174 95.387108,367.82174 101.00611,370.83904 C 103.20011,371.59374 107.71411,373.64174 114.55811,376.98304 C 114.92011,377.08974 115.16311,377.30574 115.28411,377.62974 C 119.67611,392.16444 122.84211,400.67904 124.79511,403.15774 C 126.02211,404.77374 128.94411,409.35374 133.59211,416.88444 C 134.68311,418.71644 135.84211,420.65644 137.06711,422.70444 C 137.79512,423.45774 140.35512,427.25774 144.74612,434.10044 C 149.13812,440.93104 151.64312,444.94444 152.26312,446.12974 z M 75.019112,370.15244 z M 84.530108,392.29904 C 82.832108,392.19104 81.243108,392.19104 79.775112,392.29904 L 82.523108,397.79504 C 82.766108,396.17904 83.439108,394.34704 84.530108,392.29904 z M 83.803108,390.03644 C 83.318108,388.63504 83.075108,386.85644 83.075108,384.70174 L 83.075108,383.89374 C 82.698108,382.16844 81.243108,380.44444 78.670112,378.72044 C 73.915112,379.47504 71.139112,379.95904 70.344112,380.17504 C 69.550112,380.39104 68.432112,380.82174 66.963112,381.46844 L 66.599112,394.56304 C 71.112112,399.19644 73.982112,402.42974 75.194112,404.26174 C 76.420112,403.72304 77.175112,403.26444 77.484112,402.88704 C 77.794112,402.51104 79.047112,401.83644 81.243108,400.86704 L 77.767112,393.91644 C 76.178112,395.20974 74.534112,395.74844 72.823112,395.53244 C 71.962112,395.42444 71.598112,394.99374 71.719112,394.23904 C 71.719112,393.48444 72.204112,393.16174 73.187112,393.26974 C 74.156112,393.37644 75.140112,393.00044 76.110112,392.13774 C 73.672112,391.49104 72.028112,390.03644 71.167112,387.77244 C 70.924112,387.12574 71.234112,386.69504 72.083112,386.48044 C 72.944112,386.15644 73.483112,386.37244 73.739112,387.12574 C 74.467112,389.17374 76.056112,390.14444 78.495112,390.03644 C 80.206112,389.92844 81.970108,389.92844 83.803108,390.03644 z M 57.991112,404.26174 L 57.816112,404.10044 L 57.628112,404.10044 C 57.750112,404.20844 57.870112,404.26174 57.991112,404.26174 z M 47.928112,412.02174 L 47.740112,411.21244 C 47.619112,410.56574 47.443112,410.13504 47.187112,409.91904 L 41.894112,409.91904 C 42.136112,410.13504 42.432112,410.35104 42.810112,410.56574 z"
       inkscape:connector-curvature="0"
       style="fill:#000000;stroke:#000000;stroke-width:2.66667008" />
  </g>
</svg>
