<?xml version="1.0" encoding="UTF-8" standalone="no"?>
<!-- Created with Inkscape (http://www.inkscape.org/) -->

<svg
   xmlns:dc="http://purl.org/dc/elements/1.1/"
   xmlns:cc="http://creativecommons.org/ns#"
   xmlns:rdf="http://www.w3.org/1999/02/22-rdf-syntax-ns#"
   xmlns:svg="http://www.w3.org/2000/svg"
   xmlns="http://www.w3.org/2000/svg"
   xmlns:sodipodi="http://sodipodi.sourceforge.net/DTD/sodipodi-0.dtd"
   xmlns:inkscape="http://www.inkscape.org/namespaces/inkscape"
   width="240"
   height="160"
   id="svg3249"
   version="1.1"
   inkscape:version="0.48.0 r9654"
   sodipodi:docname="BSL letter A.svg">
  <defs
     id="defs3251" />
  <sodipodi:namedview
     id="base"
     pagecolor="#ffffff"
     bordercolor="#666666"
     borderopacity="1.0"
     inkscape:pageopacity="0.0"
     inkscape:pageshadow="2"
     inkscape:zoom="0.77472527"
     inkscape:cx="105.7305"
     inkscape:cy="240"
     inkscape:current-layer="layer1"
     inkscape:document-units="px"
     showgrid="false"
     inkscape:window-width="1024"
     inkscape:window-height="745"
     inkscape:window-x="-8"
     inkscape:window-y="-8"
     inkscape:window-maximized="1" />
  <metadata
     id="metadata3254">
    <rdf:RDF>
      <cc:Work
         rdf:about="">
        <dc:format>image/svg+xml</dc:format>
        <dc:type
           rdf:resource="http://purl.org/dc/dcmitype/StillImage" />
        <dc:title></dc:title>
      </cc:Work>
    </rdf:RDF>
  </metadata>
  <g
     id="layer1"
     inkscape:label="Layer 1"
     inkscape:groupmode="layer"
     transform="translate(0,-320)">
    <text
       xml:space="preserve"
       style="font-size:40px;font-style:normal;font-weight:normal;line-height:125%;letter-spacing:0px;word-spacing:0px;fill:#000000;fill-opacity:1;stroke:none;font-family:Sans"
       x="172.96454"
       y="23.177303"
       id="text3264"
       sodipodi:linespacing="125%"
       transform="translate(0,320)"><tspan
         sodipodi:role="line"
         id="tspan3266"
         x="172.96454"
         y="23.177303" /></text>
    <text
       xml:space="preserve"
       style="font-size:64px;font-style:normal;font-weight:bold;line-height:125%;letter-spacing:0px;word-spacing:0px;fill:#000000;fill-opacity:1;stroke:none;font-family:Sans;-inkscape-font-specification:Sans Bold"
       x="179.41844"
       y="55.446808"
       id="text3268"
       sodipodi:linespacing="125%"
       transform="translate(0,320)"><tspan
         sodipodi:role="line"
         id="tspan3270"
         x="179.41844"
         y="55.446808" /></text>
    <flowRoot
       xml:space="preserve"
       id="flowRoot3272"
       style="font-size:64px;font-style:normal;font-weight:bold;line-height:125%;letter-spacing:0px;word-spacing:0px;fill:#404040;fill-opacity:1;stroke:none;font-family:Sans;-inkscape-font-specification:Sans Bold"
       transform="translate(16.780142,313.5461)"><flowRegion
         id="flowRegion3274"><rect
           id="rect3276"
           width="73.574471"
           height="67.120567"
           x="160.05673"
           y="15.432623"
           style="fill:#404040;fill-opacity:1" /></flowRegion><flowPara
         id="flowPara3278">D</flowPara></flowRoot>    <path
       id="dp_path064"
       d="M 166.73251,433.78916 C 166.73251,434.54386 166.36851,434.92116 165.62751,434.92116 C 164.90051,434.92116 164.53651,434.54386 164.53651,433.78916 C 164.53651,432.27986 162.03151,426.19187 157.03251,415.52256 C 154.83751,411.10386 153.73251,408.67857 153.73251,408.24787 C 153.73251,405.55316 152.26451,399.51856 149.34051,390.14257 C 149.21951,389.81856 148.11551,388.87586 146.04051,387.31316 C 143.97951,385.75057 142.80751,384.69986 142.56451,384.16116 C 142.32351,383.62256 141.16451,382.16787 139.08951,379.79716 C 136.04451,376.23986 134.38851,374.03056 134.14551,373.16916 C 133.41751,371.44386 131.82851,368.75057 129.38951,365.08656 C 128.78451,364.22386 127.62551,363.28116 125.91551,362.25716 C 124.20351,361.23316 118.41152,359.85886 108.52352,358.13487 C 107.79552,358.02686 105.89652,357.86486 102.85252,357.64887 L 101.74752,357.97286 C 101.62552,358.08086 101.50452,358.13487 101.38352,358.13487 L 94.796516,358.45887 C 94.553516,358.88886 94.432516,359.26687 94.432516,359.58887 C 94.432516,360.88257 95.159516,361.98787 96.62852,362.90387 C 98.09652,363.81987 99.61952,364.33187 101.20852,364.43987 C 104.00952,364.54656 106.87952,364.81716 109.80352,365.24787 C 111.99952,366.75586 115.05652,368.42656 118.96352,370.25856 C 120.05552,370.58256 121.52352,374.19187 123.35551,381.08916 C 124.32451,384.43057 124.90451,386.26257 125.09251,386.58656 C 125.26851,386.90916 125.57751,387.17857 126.00851,387.39457 C 126.42751,387.60916 126.52051,388.04116 126.27751,388.68786 L 126.27751,388.84916 C 126.52051,389.38786 127.07251,389.87316 127.92151,390.30386 C 128.54151,390.08916 128.95951,390.25057 129.20151,390.78916 C 129.57951,391.32786 129.44451,391.75856 128.83751,392.08256 C 127.74751,392.62116 127.31551,393.85986 127.55751,395.79986 C 127.67951,396.23186 127.55751,396.55456 127.19351,396.77056 C 125.60451,397.73987 123.40851,399.14117 120.60752,400.97317 C 118.41152,402.69716 114.50452,403.88257 108.88752,404.52916 C 104.00952,405.17586 99.98352,404.04517 96.80352,401.13456 C 94.984516,399.51856 93.637516,398.54787 92.788516,398.22516 C 90.336516,397.14786 88.020516,396.77056 85.824516,397.09317 C 83.749516,397.52516 82.348516,397.95586 81.621516,398.38656 L 80.880516,400.00386 C 80.853516,400.21856 80.840516,400.38116 80.840516,400.48787 L 80.880516,400.65056 L 87.292516,402.58916 C 87.656516,402.69716 87.899516,402.91317 88.020516,403.23587 L 88.208516,403.88257 L 91.132516,404.85317 C 92.479516,406.79316 94.741516,409.21716 97.90852,412.12786 C 98.63552,412.55856 99.74052,413.04386 101.20852,413.58256 C 101.32952,413.58256 101.45152,413.58256 101.57252,413.58256 C 101.93552,413.58256 102.17752,413.69057 102.29952,413.90516 C 104.00952,414.55186 105.84152,415.19856 107.79552,415.84516 C 108.15952,415.95316 108.40152,416.11456 108.52352,416.33056 C 109.37252,417.83986 110.28852,419.23987 111.27152,420.53317 C 113.34552,423.44386 115.35352,425.49056 117.30552,426.68917 C 119.98752,428.52256 124.63551,431.37717 131.22151,435.25716 L 131.77551,435.41986 C 133.72851,436.60516 135.27651,438.08656 136.43551,439.86517 C 137.59351,441.64257 139.21151,444.25586 141.28551,447.71857 C 142.14751,449.11987 142.99651,451.9212 143.84451,456.12387 L 143.84451,456.28654 C 143.84451,456.8252 143.54851,457.14787 142.92851,457.25587 C 142.20151,457.36387 141.47351,456.17854 140.73251,453.69986 C 139.88451,450.57457 139.39951,448.90387 139.27751,448.68786 C 138.29551,446.95056 136.77251,444.36386 134.69751,440.91587 C 133.60751,439.40657 132.19251,438.16787 130.48151,437.19716 L 129.94351,436.87456 C 123.35551,432.99456 118.58552,430.08516 115.66352,428.14516 C 112.73952,426.20516 109.74852,422.68917 106.69152,417.62386 C 105.11552,417.19316 103.64752,416.70786 102.29952,416.16916 L 101.74752,419.59056 C 101.50452,421.54386 101.14052,423.83457 100.65652,426.43456 C 100.53552,427.20116 99.25552,428.34657 96.80352,429.86916 C 95.833516,430.51586 94.364516,431.44516 92.411516,432.63057 C 91.320516,433.29056 89.731516,434.31456 87.656516,435.72916 C 86.444516,436.49717 84.665516,438.18116 82.348516,440.79456 C 81.621516,441.65586 80.637516,442.69316 79.425516,443.87856 C 78.684516,444.43186 76.556516,445.46916 73.012516,446.97716 C 72.407516,447.31456 71.760516,447.63716 71.100516,447.96117 C 70.427516,448.28387 68.688516,448.89056 65.873516,449.75316 C 62.828516,452.47319 60.565516,454.85854 59.111516,456.9332 C 58.747516,457.47187 58.248516,457.57987 57.641516,457.25587 C 57.279516,457.03987 57.089516,456.77054 57.089516,456.44787 C 57.089516,455.9092 58.248516,454.4132 60.565516,451.9892 C 62.883516,449.55057 64.351516,448.23056 64.957516,448.01456 C 67.772516,447.13856 69.321516,446.59986 69.632516,446.38516 C 69.941516,446.16916 70.763516,445.79186 72.096516,445.25316 C 75.397516,443.73056 77.351516,442.76117 77.956516,442.33056 C 79.668516,440.39056 82.416516,437.68256 86.201516,434.21986 C 88.141516,433.14257 90.592516,431.67456 93.516516,429.84256 C 93.759516,429.51856 94.432516,429.01986 95.523516,428.37316 C 97.35552,427.29587 98.33952,426.59587 98.46052,426.27187 C 98.70352,424.64257 99.06552,422.43316 99.55152,419.61717 L 100.10352,415.56256 C 98.63552,414.91587 97.47652,414.37717 96.62852,413.94656 C 94.796516,412.96256 92.532516,410.59186 89.852516,406.80656 L 86.928516,405.82257 C 86.685516,405.71457 86.497516,405.49987 86.376516,405.17586 L 86.012516,404.52916 L 79.425516,402.41456 C 78.940516,402.30656 78.684516,402.03716 78.684516,401.60656 C 78.684516,401.49856 78.631516,401.31057 78.509516,401.04116 C 78.388516,400.77187 78.320516,400.52916 78.320516,400.31316 C 78.320516,400.20516 78.388516,400.04386 78.509516,399.82786 L 78.684516,399.50516 C 78.819516,398.52117 79.183516,397.76656 79.788516,397.22786 C 80.880516,394.84387 82.416516,391.66517 84.369516,387.65056 C 85.945516,382.24787 86.928516,379.21716 87.292516,378.57056 C 87.656516,377.92386 88.397516,375.21586 89.488516,370.46117 C 89.852516,366.13716 90.040516,363.69856 90.040516,363.15986 C 90.040516,361.54256 89.919516,360.29087 89.676516,359.42787 L 88.760516,364.43987 C 88.639516,364.97857 88.329516,365.24787 87.844516,365.24787 L 83.264516,365.73316 L 83.076516,365.89457 C 81.741516,369.12786 80.920516,371.09456 80.611516,371.79456 C 80.300516,372.49456 79.909516,373.43856 79.425516,374.62386 C 77.108516,378.50386 75.828516,380.68516 75.572516,381.17056 C 75.329516,381.65586 75.033516,382.54517 74.656516,383.83856 C 74.171516,385.45457 73.875516,386.47857 73.740516,386.90916 L 73.012516,388.20257 C 71.544516,391.00516 69.659516,394.34516 67.341516,398.22516 C 66.357516,399.62656 65.320516,401.02657 64.229516,402.42787 C 63.744516,402.96656 63.192516,403.02117 62.585516,402.58916 C 62.223516,402.37456 62.033516,402.10517 62.033516,401.78116 C 62.155516,401.45856 62.276516,401.21587 62.397516,401.05456 C 62.519516,400.89187 63.004516,400.27316 63.865516,399.19456 C 62.155516,398.97986 61.064516,399.08786 60.565516,399.51856 C 59.595516,400.38116 57.575516,402.80516 54.531516,406.79316 C 49.276516,417.24656 46.420516,422.95856 45.921516,423.92787 C 43.605516,427.91587 40.615516,432.27986 36.964516,437.02256 C 36.708516,437.56116 35.737516,438.69316 34.027516,440.41716 C 29.151516,445.37456 26.645516,448.39187 26.524516,449.46916 C 26.403516,450.11586 25.971516,450.38516 25.244516,450.27856 C 24.516516,450.17057 24.207516,449.79316 24.328516,449.14657 C 24.449516,447.74516 27.076516,444.40387 32.195516,439.12386 C 33.057516,438.26117 34.027516,437.18386 35.132516,435.89056 C 38.661516,431.25716 41.531516,426.94516 43.727516,422.97186 C 46.663516,417.25987 49.587516,411.54787 52.523516,405.83586 L 52.699516,405.67456 C 55.379516,401.36386 57.641516,398.72386 59.475516,397.75316 C 60.808516,396.99987 62.707516,396.89187 65.145516,397.43057 L 65.335516,397.26916 C 66.061516,396.19057 67.893516,392.90387 70.817516,387.40786 L 71.544516,386.11456 C 71.800516,385.79186 72.096516,384.87456 72.460516,383.36656 C 72.716516,382.71986 73.012516,381.85716 73.376516,380.77986 C 73.753516,380.02516 75.087516,377.72256 77.404516,373.84256 C 77.781516,372.44116 78.145516,371.41716 78.509516,370.77056 C 78.993516,369.47716 79.843516,367.59186 81.068516,365.11316 L 81.068516,364.95187 L 81.257516,364.78916 C 81.257516,364.35857 81.432516,364.03587 81.796516,363.81987 L 81.984516,363.49586 L 83.816516,356.22286 C 83.937516,355.68287 84.301516,355.41286 84.908516,355.41286 C 87.723516,355.41286 89.676516,355.89887 90.768516,356.86787 C 91.872516,357.83887 92.411516,359.93987 92.411516,363.17316 C 92.411516,365.96117 92.236516,368.49456 91.872516,370.75716 C 91.252516,374.74516 90.457516,377.60116 89.488516,379.32516 C 88.760516,381.58786 87.723516,384.53856 86.376516,388.20257 C 86.376516,388.41857 85.217516,390.89716 82.900516,395.63856 C 83.628516,395.53056 84.491516,395.36916 85.460516,395.15317 C 88.141516,394.72256 90.889516,395.09986 93.704516,396.28517 C 94.796516,396.82386 96.31752,397.95586 98.27152,399.67986 C 100.83152,401.83586 104.00952,402.80516 107.79552,402.58916 C 107.43252,402.05057 106.93352,401.43186 106.32752,400.71716 C 105.72152,400.01716 104.80552,397.10656 103.57952,392.01456 C 103.43152,391.79986 103.43152,391.58386 103.57952,391.36787 C 107.97152,384.53856 110.71952,380.87456 111.82352,380.38917 C 112.91552,379.89056 115.78452,379.32516 120.41752,378.67857 C 119.32752,374.66386 118.53252,372.44116 118.04752,372.01056 C 116.70052,371.47186 113.70952,369.78786 109.07552,366.95856 C 106.51652,366.52786 103.82152,366.25856 101.01952,366.15056 C 97.35552,366.04256 94.607516,364.46657 92.788516,361.43586 C 92.411516,360.78916 92.236516,360.07486 92.236516,359.31987 C 92.236516,357.36686 92.909516,356.32886 94.243516,356.22286 L 101.01952,355.73686 L 102.29952,355.41286 C 102.42052,355.41286 102.54152,355.41286 102.66352,355.41286 C 105.96352,355.52086 108.03752,355.62886 108.88752,355.73686 C 114.14052,356.70687 120.24352,358.22886 127.19351,360.27686 C 129.14751,361.47587 130.48151,362.60787 131.22151,363.68516 C 133.05351,366.82386 136.28751,371.74116 140.92151,378.44917 L 141.28551,378.78657 C 141.64851,378.78657 141.95951,378.83986 142.20151,378.94786 L 148.61351,381.85716 C 148.97751,382.07316 149.15251,382.28916 149.15251,382.51716 L 151.17251,388.35056 C 151.13251,388.45856 151.13251,388.56656 151.17251,388.67456 C 151.29351,388.99717 151.41551,389.26656 151.53651,389.48256 C 154.21751,398.03716 155.74051,404.19316 156.11651,407.97857 C 156.23751,408.42256 157.20851,410.63186 159.04051,414.63316 C 164.17251,425.66657 166.73251,432.05186 166.73251,433.78916 z M 147.87251,386.10116 L 147.14551,383.67586 L 144.03351,382.22116 C 144.27651,382.65186 144.46451,383.00257 144.58551,383.27187 C 144.70751,383.54116 145.67651,384.37717 147.50851,385.77716 z M 125.17351,386.74787 L 125.17351,386.74787 L 124.99951,386.74787 z M 87.481516,358.78086 C 86.740516,358.35087 86.133516,358.02686 85.648516,357.81186 L 84.369516,363.46916 L 86.740516,363.30787 z M 126.27751,391.75856 C 125.91551,391.54386 125.55151,391.32786 125.17351,391.11186 C 123.71951,394.23717 122.49252,396.01586 121.52352,396.44656 C 121.48352,396.87856 121.48352,397.30917 121.52352,397.73987 C 122.61352,397.09317 123.89351,396.33856 125.36151,395.47716 L 125.36151,395.15317 C 125.36151,393.75316 125.67251,392.62116 126.27751,391.75856 z M 123.71951,388.84916 C 123.59751,388.41857 123.40851,388.09456 123.16551,387.87987 C 122.92452,387.66386 122.24952,385.56256 121.15952,381.57457 L 120.97152,380.76656 C 116.57952,381.41317 113.95252,381.89856 113.10352,382.22116 C 112.12052,382.86787 109.74852,386.15457 105.96352,392.08256 C 107.05552,396.60916 107.91652,399.24916 108.52352,400.00386 C 109.12952,400.75716 109.68152,401.51187 110.16752,402.26656 C 114.31652,401.61987 117.25252,400.70386 118.96352,399.51856 C 119.32752,398.65586 119.38052,397.57856 119.13952,396.28517 C 114.62552,395.53056 112.48352,394.02256 112.73952,391.75856 C 112.73952,391.11186 113.10352,390.84256 113.83152,390.95056 C 114.55752,390.95056 114.93552,391.27457 114.93552,391.92116 L 114.93552,392.08256 C 114.93552,393.05186 116.51152,393.80656 119.69152,394.34516 C 119.81252,394.34516 119.87952,394.29186 119.87952,394.18386 C 120.24352,394.18386 120.53952,394.23717 120.78152,394.34516 C 121.40152,393.59056 122.37152,391.75856 123.71951,388.84916 z"
       inkscape:connector-curvature="0"
       style="fill:#000000;stroke:#000000;stroke-width:2.66667008" />
  </g>
</svg>
