<?xml version="1.0" encoding="UTF-8" standalone="no"?>
<!-- Created with Inkscape (http://www.inkscape.org/) -->

<svg
   xmlns:dc="http://purl.org/dc/elements/1.1/"
   xmlns:cc="http://creativecommons.org/ns#"
   xmlns:rdf="http://www.w3.org/1999/02/22-rdf-syntax-ns#"
   xmlns:svg="http://www.w3.org/2000/svg"
   xmlns="http://www.w3.org/2000/svg"
   xmlns:sodipodi="http://sodipodi.sourceforge.net/DTD/sodipodi-0.dtd"
   xmlns:inkscape="http://www.inkscape.org/namespaces/inkscape"
   width="240"
   height="160"
   id="svg3249"
   version="1.1"
   inkscape:version="0.48.0 r9654"
   sodipodi:docname="BSL letter D.svg">
  <defs
     id="defs3251" />
  <sodipodi:namedview
     id="base"
     pagecolor="#ffffff"
     bordercolor="#666666"
     borderopacity="1.0"
     inkscape:pageopacity="0.0"
     inkscape:pageshadow="2"
     inkscape:zoom="0.77472527"
     inkscape:cx="105.7305"
     inkscape:cy="240"
     inkscape:current-layer="layer1"
     inkscape:document-units="px"
     showgrid="false"
     inkscape:window-width="1024"
     inkscape:window-height="745"
     inkscape:window-x="-8"
     inkscape:window-y="-8"
     inkscape:window-maximized="1" />
  <metadata
     id="metadata3254">
    <rdf:RDF>
      <cc:Work
         rdf:about="">
        <dc:format>image/svg+xml</dc:format>
        <dc:type
           rdf:resource="http://purl.org/dc/dcmitype/StillImage" />
        <dc:title></dc:title>
      </cc:Work>
    </rdf:RDF>
  </metadata>
  <g
     id="layer1"
     inkscape:label="Layer 1"
     inkscape:groupmode="layer"
     transform="translate(0,-320)">
    <text
       xml:space="preserve"
       style="font-size:40px;font-style:normal;font-weight:normal;line-height:125%;letter-spacing:0px;word-spacing:0px;fill:#000000;fill-opacity:1;stroke:none;font-family:Sans"
       x="172.96454"
       y="23.177303"
       id="text3264"
       sodipodi:linespacing="125%"
       transform="translate(0,320)"><tspan
         sodipodi:role="line"
         id="tspan3266"
         x="172.96454"
         y="23.177303" /></text>
    <text
       xml:space="preserve"
       style="font-size:64px;font-style:normal;font-weight:bold;line-height:125%;letter-spacing:0px;word-spacing:0px;fill:#000000;fill-opacity:1;stroke:none;font-family:Sans;-inkscape-font-specification:Sans Bold"
       x="179.41844"
       y="55.446808"
       id="text3268"
       sodipodi:linespacing="125%"
       transform="translate(0,320)"><tspan
         sodipodi:role="line"
         id="tspan3270"
         x="179.41844"
         y="55.446808" /></text>
    <flowRoot
       xml:space="preserve"
       id="flowRoot3272"
       style="font-size:64px;font-style:normal;font-weight:bold;line-height:125%;letter-spacing:0px;word-spacing:0px;fill:#404040;fill-opacity:1;stroke:none;font-family:Sans;-inkscape-font-specification:Sans Bold"
       transform="translate(16.780142,313.5461)"><flowRegion
         id="flowRegion3274"><rect
           id="rect3276"
           width="73.574471"
           height="67.120567"
           x="160.05673"
           y="15.432623"
           style="fill:#404040;fill-opacity:1" /></flowRegion><flowPara
         id="flowPara3278">E</flowPara></flowRoot>    <path
       id="dp_path066"
       d="M 195.19097,448.00897 C 195.19097,448.33297 195.01597,448.60297 194.65197,448.81697 C 194.03197,449.35597 193.47997,449.30297 192.99497,448.65597 C 190.92197,446.39297 187.75497,441.86697 183.48397,435.07697 C 183.33597,434.86097 183.33597,434.59197 183.48397,434.26897 L 183.29597,434.43097 C 183.41797,433.45997 182.86597,429.90397 181.65197,423.76097 C 180.42697,418.04897 179.51097,414.22397 178.90397,412.28397 C 178.66197,411.31297 177.96197,409.77897 176.80297,407.67597 C 175.64397,405.57497 174.78297,404.33597 174.24297,403.95897 C 173.69097,403.58097 173.11197,402.69197 172.49197,401.29097 L 171.95397,399.99897 C 171.45497,398.91997 170.79497,398.48897 169.93197,398.70497 C 168.96297,399.35197 167.49497,399.40497 165.54197,398.86697 C 164.07197,398.43597 163.22397,397.84297 162.98197,397.08797 C 162.37497,395.57997 161.14997,394.55597 159.31797,394.01727 C 158.22697,393.69327 156.70397,393.74797 154.75097,394.17867 C 154.25197,394.17867 153.88797,394.07067 153.64597,393.85467 C 152.91897,393.31597 151.63897,392.50797 149.80697,391.43067 L 147.97497,390.62267 C 146.50697,389.97597 145.41497,389.65197 144.67397,389.65197 L 143.94697,389.65197 C 144.91597,391.37597 145.41497,392.23867 145.41497,392.23867 C 145.41497,392.77727 145.15897,393.10127 144.67397,393.20797 C 143.82597,393.53197 143.24697,393.39727 142.93597,392.80397 C 142.62697,392.21197 142.11497,391.32267 141.38697,390.13727 C 140.76797,390.02927 139.73097,389.22127 138.27497,387.71197 C 137.29197,385.87997 135.52697,384.34397 132.96797,383.10527 C 130.39497,381.86527 128.81897,380.38397 128.19897,378.65997 C 128.07797,378.55197 127.47097,378.01327 126.37997,377.04267 L 123.80697,374.61867 C 123.44397,374.29467 121.73196,373.27067 118.68796,371.54667 C 117.95996,371.11597 116.61396,370.19997 114.65996,368.79867 C 113.55596,368.47597 112.09996,367.61327 110.26796,366.21197 C 109.90596,365.56527 108.31496,364.21867 105.51366,362.17067 C 105.39226,362.17067 105.01496,362.06267 104.40826,361.84797 C 103.56026,361.63197 102.94026,361.79327 102.57626,362.33197 L 102.40166,362.65597 C 101.41766,364.37997 100.93366,365.56527 100.93366,366.21197 C 100.93366,367.18267 102.28026,368.58267 104.96166,370.41467 C 105.80966,371.06127 106.84696,372.03197 108.07396,373.32527 C 108.55796,374.07997 110.24196,375.74927 113.09796,378.33597 C 115.96696,380.92267 117.89396,382.43197 118.87596,382.86267 C 121.67896,384.15597 123.87497,386.90397 125.46397,391.10667 L 125.63897,391.59197 C 125.75997,391.91467 126.74397,393.58527 128.57597,396.60267 C 129.30397,397.78897 129.90997,399.40497 130.39497,401.45297 L 131.68797,406.46397 C 131.93097,407.54097 132.29397,408.72797 132.77897,410.01997 C 133.50697,410.23597 133.88397,410.66697 133.88397,411.31297 C 133.88397,412.28397 133.33097,413.73897 132.22697,415.67897 C 131.13597,417.94097 130.09897,418.85697 129.11497,418.42697 C 128.75097,418.21097 128.57597,417.88797 128.57597,417.45697 C 128.57597,417.24097 128.96697,416.37897 129.76197,414.87097 C 130.55597,413.36097 131.01497,412.33697 131.13597,411.79897 C 130.52997,411.36797 129.85597,409.69697 129.11497,406.78797 L 129.11497,406.62497 C 126.31397,409.64397 124.54797,411.31297 123.80697,411.63697 L 123.26797,411.95997 C 122.52696,412.39197 122.16396,412.66097 122.16396,412.76897 L 122.16396,412.93097 C 122.28596,413.89997 122.52696,415.19297 122.89096,416.81097 L 122.89096,416.81097 C 123.99597,421.44397 125.34297,426.34797 126.91897,431.52097 L 128.02397,432.49097 C 141.68397,442.83597 149.32197,448.14397 150.89797,448.41297 C 152.48697,448.68297 154.49497,450.46097 156.94697,453.74797 C 159.38397,457.03497 160.66397,459.32497 160.78597,460.61897 L 160.78597,460.77997 C 160.78597,461.42697 160.42197,461.80397 159.68197,461.91197 C 158.83197,462.01997 158.34697,461.75097 158.22697,461.10397 C 157.98397,459.91897 156.82597,457.92397 154.75097,455.12297 C 152.67597,452.31997 151.13997,450.81197 150.17097,450.59597 C 148.33897,450.27197 140.40397,444.77597 126.37997,434.10697 L 125.09997,433.13697 C 124.11797,432.38297 122.59496,427.10297 120.51996,417.29497 C 119.91396,414.38497 119.60396,412.87597 119.60396,412.76897 C 119.60396,411.69097 120.39896,410.77497 121.97496,410.01997 L 122.52696,409.69697 C 123.14697,409.37297 125.08697,407.37997 128.38697,403.71597 L 128.02397,401.93697 C 127.78197,401.07597 127.22997,399.67497 126.37997,397.73497 C 124.54797,394.93327 123.51097,393.10127 123.25497,392.23867 L 123.07997,391.91467 C 121.73196,388.14397 119.96796,385.77197 117.77196,384.80267 C 116.42596,384.26397 114.22996,382.61997 111.18396,379.87197 C 108.12696,377.12397 106.36166,375.26527 105.87766,374.29467 C 104.40826,373.10927 102.52296,371.60127 100.20566,369.76797 C 99.101658,368.79867 98.548258,367.66667 98.548258,366.37327 C 98.548258,365.29597 99.101658,363.73327 100.20566,361.68527 L 100.38026,361.36267 C 101.36426,359.74667 102.94026,359.20667 105.13626,359.74667 L 106.42966,360.06927 C 106.91496,360.17727 107.95196,360.90397 109.54196,362.25197 C 111.11796,363.59867 112.09996,364.48797 112.46396,364.91867 C 113.43496,365.45727 114.78196,366.21197 116.49196,367.18267 C 117.34196,367.93597 118.59396,368.66397 120.23796,369.36397 C 121.89496,370.06527 123.68597,371.27727 125.63897,373.00127 L 128.21197,375.42667 C 128.93997,376.07327 129.69497,376.85467 130.48997,377.77067 C 131.28397,378.68667 132.60397,379.84527 134.42297,381.24667 C 137.35897,382.64667 139.43397,384.47867 140.64697,386.74267 C 140.90297,387.28127 141.19897,387.60397 141.56297,387.71197 C 142.42397,387.49727 143.46197,387.38927 144.67397,387.38927 C 145.89997,387.38927 147.42297,387.81997 149.25497,388.68267 L 150.72297,389.32927 C 152.17797,389.97597 153.52397,390.78397 154.75097,391.75327 C 157.06797,391.53867 158.83197,391.59197 160.05897,391.91467 C 162.73897,392.66927 164.50397,394.12397 165.36597,396.27997 C 166.09397,397.03497 167.13097,397.24897 168.47797,396.92667 C 169.20597,396.49597 170.05397,396.38797 171.03797,396.60267 C 172.50597,396.92667 173.54297,397.73497 174.14997,399.02797 L 174.87597,400.48297 C 174.99797,400.91497 175.36197,401.39897 175.98197,401.93697 C 176.58697,402.47697 177.59797,403.98497 178.99897,406.46397 C 180.39997,408.94297 181.22197,410.72097 181.46397,411.79897 C 184.39997,423.65297 185.85597,431.14397 185.85597,434.26897 C 190.12597,440.84297 193.11597,445.20797 194.82797,447.36297 C 195.06997,447.47097 195.19097,447.68697 195.19097,448.00897 z M 98.373658,366.37327 C 98.373658,368.09867 97.632258,369.41867 96.177658,370.33467 C 94.709658,371.25067 92.702958,372.57067 90.129658,374.29467 C 90.129658,374.40267 90.074958,374.45597 89.953658,374.45597 L 85.562958,376.07327 C 81.53496,379.30667 78.78696,381.35327 77.31766,382.21597 C 75.36426,383.72527 72.44166,385.87997 68.53496,388.68267 C 68.65626,390.19067 68.72296,391.75327 68.72296,393.37067 C 68.72296,394.33997 68.48166,395.31067 67.98296,396.27997 L 67.80696,396.76527 C 68.41366,400.64397 68.77766,403.55497 68.89896,405.49497 C 69.26296,410.12797 69.02026,415.40897 68.17096,421.33597 C 67.68566,422.30697 67.18826,423.86897 66.70296,426.02397 C 66.58166,426.67097 66.52826,428.17997 66.52826,430.55097 C 66.64966,433.99997 66.52826,436.20897 66.16426,437.17897 C 65.54426,438.68797 61.34166,445.20797 53.52826,456.73897 C 53.16426,457.38497 52.61226,457.54697 51.88426,457.22397 C 51.14296,456.79297 51.02296,456.25297 51.52026,455.60697 C 59.19896,444.29197 63.29496,437.93297 63.77896,436.53197 C 64.02166,435.77697 64.08966,433.78397 63.95496,430.55097 C 63.95496,428.17997 64.07626,426.50897 64.33226,425.53997 C 64.57496,424.56897 64.99226,423.06097 65.61226,421.01297 C 66.46026,415.19297 66.76966,410.01997 66.52826,405.49497 C 66.40696,404.73997 66.21766,403.60797 65.97496,402.09997 L 65.94826,402.09997 L 65.97496,402.26097 C 65.85366,403.12397 65.36966,403.98497 64.50696,404.84797 C 64.38566,405.27897 64.33226,405.81697 64.33226,406.46397 C 64.30566,406.78797 64.30566,407.11097 64.33226,407.43497 C 64.45366,408.83497 64.50696,413.84697 64.50696,422.46797 C 64.50696,423.22297 64.08966,423.59997 63.22696,423.59997 C 62.37896,423.59997 61.94696,423.22297 61.94696,422.46797 C 61.94696,413.95497 61.88026,408.99697 61.75896,407.59597 C 61.63766,406.19497 61.75896,405.00897 62.13626,404.03997 C 62.50026,403.71597 62.98426,402.96097 63.59096,401.77597 C 64.07626,399.29697 64.62826,397.35697 65.23496,395.95597 L 65.78696,395.31067 C 66.27226,394.44797 66.33896,392.66927 65.97496,389.97597 L 65.97496,389.16667 C 65.73226,388.95197 65.61226,388.68267 65.61226,388.35867 C 65.61226,388.14397 65.66566,387.98127 65.78696,387.87327 C 65.54426,387.01197 65.05896,386.44527 64.33226,386.17597 C 63.59096,385.90667 62.86296,385.66397 62.13626,385.44927 C 61.75896,385.23327 61.15226,385.34127 60.30426,385.77197 C 59.44166,386.20397 59.02426,386.41867 59.02426,386.41867 C 58.76826,387.71197 58.47226,389.16667 58.10826,390.78397 L 52.06026,400.15997 C 50.84696,404.03997 50.22696,406.35597 50.22696,407.11097 C 50.22696,408.29597 49.56696,409.26697 48.22026,410.01997 C 45.90296,413.36097 44.67766,415.67897 44.55626,416.97197 C 44.43496,417.72697 43.94966,418.04897 43.10166,417.94097 C 42.36026,417.94097 41.99626,417.56397 41.99626,416.81097 L 41.99626,416.81097 C 41.99626,415.19297 43.39766,412.44497 46.20026,408.56497 C 46.33496,408.45697 46.60426,408.29597 47.03496,408.08097 C 47.45226,407.86497 47.66826,407.54097 47.66826,407.11097 C 47.66826,406.24897 48.22026,403.93197 49.31096,400.15997 L 46.57626,400.15997 C 44.74426,400.15997 43.70696,399.40497 43.46566,397.89597 C 43.34426,397.14297 43.70696,396.71067 44.55626,396.60267 C 45.17626,396.49597 45.59366,396.68397 45.83626,397.16897 C 46.07896,397.65497 46.33496,397.89597 46.57626,397.89597 L 50.60426,397.89597 L 55.72426,389.81327 C 55.96696,388.08927 56.15496,387.06527 56.27626,386.74267 C 56.64026,385.23327 57.19226,384.47867 57.91896,384.47867 C 59.26696,383.50927 60.54696,383.02397 61.75896,383.02397 C 61.75896,383.02397 62.62166,383.26667 64.33226,383.75197 C 66.02966,384.23727 67.18826,385.12527 67.80696,386.41867 C 69.51896,384.91067 72.19896,382.86267 75.86296,380.27597 C 77.19626,379.52127 79.87766,377.52797 83.90566,374.29467 C 84.02696,374.18667 84.16166,374.13327 84.28296,374.13327 L 88.849658,372.51727 C 91.288258,370.79197 93.186958,369.49867 94.520258,368.63727 C 95.382958,368.09867 95.813658,367.34397 95.813658,366.37327 C 95.813658,365.83467 95.678958,365.02667 95.437658,363.94927 C 95.194958,363.41067 94.345658,362.92527 92.877658,362.49467 L 86.101658,366.37327 C 85.858958,366.48127 85.616258,366.53597 85.373658,366.53597 C 84.40426,366.53597 83.44696,366.85867 82.53096,367.50527 C 81.61496,368.15197 78.93496,369.41867 74.48966,371.30397 C 70.02966,373.19067 67.32296,374.24127 66.33896,374.45597 C 64.26426,374.99597 62.37896,376.01867 60.66826,377.52797 C 59.44166,378.60527 51.64166,382.91597 37.24166,390.45997 C 36.74296,396.17197 36.50026,400.26797 36.50026,402.74697 C 36.50026,403.06897 36.56826,403.55497 36.68966,404.20097 C 36.67496,404.73997 36.67496,405.17097 36.68966,405.49497 C 36.68966,406.35597 36.50026,408.24297 36.13626,411.15197 C 35.16696,416.75597 34.68166,423.27597 34.68166,430.71197 C 34.68166,430.92797 34.73626,431.68297 34.85626,432.97597 L 34.85626,433.45997 C 34.97766,437.87897 32.17626,443.32097 26.43766,449.78797 C 25.95226,450.32697 25.40026,450.37997 24.79366,449.94897 C 24.42966,449.73297 24.24166,449.46397 24.24166,449.14097 C 24.24166,448.81697 24.30826,448.60297 24.42966,448.49497 C 29.79226,442.13597 32.41896,437.17897 32.29766,433.62297 L 32.29766,433.13697 C 32.17626,431.73597 32.10826,430.92797 32.10826,430.71197 C 32.10826,423.59997 32.59366,416.97197 33.57766,410.82897 C 34.06166,407.81097 34.30426,406.03297 34.30426,405.49497 C 34.30426,405.17097 34.25096,404.68697 34.12966,404.03997 C 34.11626,403.49997 34.11626,403.06897 34.12966,402.74697 C 34.12966,399.94397 34.37226,395.63327 34.85626,389.81327 C 34.85626,389.38267 35.04566,389.05997 35.40966,388.84397 C 37.60566,387.76667 39.85496,386.58127 42.18566,385.28797 C 42.42826,383.67067 43.76166,379.14397 46.20026,371.70797 L 46.94026,369.44527 C 47.91096,366.21197 49.01496,363.67997 50.22696,361.84797 C 50.72566,360.98527 52.61226,359.09997 55.91226,356.18927 C 56.51896,354.35727 57.55626,352.52527 59.01096,350.69327 C 60.47896,348.86127 61.70566,347.51467 62.67496,346.65197 L 65.05896,341.31727 C 65.42296,340.67067 65.97496,340.45467 66.70296,340.67067 C 66.82426,340.77867 66.89096,340.83197 66.89096,340.83197 C 69.93626,340.29327 71.83496,341.26397 72.56296,343.74267 L 72.73766,344.23997 C 72.99366,345.10267 73.28966,346.44927 73.65366,348.28267 C 73.65366,348.49727 73.72166,348.65867 73.84296,348.76667 C 74.20696,350.38397 74.39496,351.94667 74.39496,353.46797 C 74.39496,354.22267 74.32696,354.86927 74.20696,355.40797 C 75.91766,356.16267 76.64426,357.29467 76.40166,358.80267 C 75.43226,363.01997 74.08566,365.76797 72.37366,367.07467 C 71.88966,367.39727 71.45766,368.47597 71.09496,370.30797 C 76.71226,368.03067 79.94566,366.57597 80.79366,365.91597 C 82.26166,364.94527 83.66296,364.40667 85.009658,364.29867 L 91.422958,360.55467 C 91.785658,360.44667 92.122958,360.33867 92.418958,360.23067 C 92.729658,360.12267 93.065658,360.12267 93.429658,360.23067 C 95.989658,360.87727 97.457658,361.87467 97.821658,363.22127 C 98.185658,364.56927 98.373658,365.61997 98.373658,366.37327 z M 168.47797,396.92667 z M 185.85597,434.59197 z M 73.84296,358.29067 C 73.96426,358.07597 73.84296,357.85997 73.47896,357.64397 C 70.91896,363.03327 68.77766,366.42797 67.06696,367.82927 C 66.94566,368.04397 66.89096,368.58267 66.89096,369.44527 C 66.89096,370.19997 66.94566,371.00797 67.06696,371.87067 L 68.36026,371.38527 C 68.33226,371.27727 68.33226,371.16927 68.36026,371.06127 C 68.84426,368.04397 69.66696,366.10397 70.82566,365.24267 C 71.98296,364.37997 72.99366,362.06267 73.84296,358.29067 z M 72.01096,353.60267 C 68.34696,359.63867 65.85366,363.19467 64.50696,364.27197 C 64.38566,364.48797 64.14296,365.45727 63.77896,367.18267 C 63.29496,369.55327 62.55366,371.81597 61.58426,373.97197 C 62.67496,373.43327 63.71226,373.00127 64.69626,372.67867 C 64.21096,369.12127 64.45366,366.96667 65.42296,366.21197 C 65.90826,365.88927 66.91896,364.40667 68.44026,361.76667 C 69.96296,359.12667 71.04026,357.10527 71.64696,355.70397 C 71.76826,355.16527 71.88966,354.46527 72.01096,353.60267 z M 70.36696,351.33997 C 71.09496,349.83067 71.04026,347.67597 70.17896,344.87327 L 70.00296,344.22667 C 69.76026,343.14927 68.89896,342.77197 67.44426,343.09597 C 67.32296,343.09597 67.18826,343.09597 67.06696,343.09597 L 64.87096,347.78397 C 64.74966,347.89197 64.57496,348.05327 64.33226,348.26797 C 64.07626,348.48397 63.03896,349.66927 61.22026,351.82527 C 59.87226,353.54927 58.83626,355.32797 58.10826,357.15997 C 56.51896,358.55997 54.61896,360.49997 52.42296,362.97867 C 51.33226,364.59597 50.29496,366.91327 49.31096,369.93067 L 48.58426,372.35467 C 47.73496,375.04927 46.57626,378.82127 45.10826,383.67067 C 51.57496,380.22267 55.79096,377.90527 57.73096,376.71997 C 59.07766,373.80927 60.06166,371.49327 60.66826,369.76797 C 60.90966,367.82927 61.63766,365.51197 62.86296,362.81727 C 64.81626,360.98527 67.30966,357.15997 70.36696,351.33997 z"
       inkscape:connector-curvature="0"
       style="fill:#000000;stroke:#000000;stroke-width:2.66667008" />
  </g>
</svg>
