<?xml version="1.0" encoding="UTF-8" standalone="no"?>
<!-- Created with Inkscape (http://www.inkscape.org/) -->

<svg
   xmlns:dc="http://purl.org/dc/elements/1.1/"
   xmlns:cc="http://creativecommons.org/ns#"
   xmlns:rdf="http://www.w3.org/1999/02/22-rdf-syntax-ns#"
   xmlns:svg="http://www.w3.org/2000/svg"
   xmlns="http://www.w3.org/2000/svg"
   xmlns:sodipodi="http://sodipodi.sourceforge.net/DTD/sodipodi-0.dtd"
   xmlns:inkscape="http://www.inkscape.org/namespaces/inkscape"
   width="240"
   height="160"
   id="svg3249"
   version="1.1"
   inkscape:version="0.48.0 r9654"
   sodipodi:docname="BSL letter G.svg">
  <defs
     id="defs3251" />
  <sodipodi:namedview
     id="base"
     pagecolor="#ffffff"
     bordercolor="#666666"
     borderopacity="1.0"
     inkscape:pageopacity="0.0"
     inkscape:pageshadow="2"
     inkscape:zoom="0.77472527"
     inkscape:cx="105.7305"
     inkscape:cy="240"
     inkscape:current-layer="layer1"
     inkscape:document-units="px"
     showgrid="false"
     inkscape:window-width="1024"
     inkscape:window-height="745"
     inkscape:window-x="-8"
     inkscape:window-y="-8"
     inkscape:window-maximized="1" />
  <metadata
     id="metadata3254">
    <rdf:RDF>
      <cc:Work
         rdf:about="">
        <dc:format>image/svg+xml</dc:format>
        <dc:type
           rdf:resource="http://purl.org/dc/dcmitype/StillImage" />
        <dc:title></dc:title>
      </cc:Work>
    </rdf:RDF>
  </metadata>
  <g
     id="layer1"
     inkscape:label="Layer 1"
     inkscape:groupmode="layer"
     transform="translate(0,-320)">
    <text
       xml:space="preserve"
       style="font-size:40px;font-style:normal;font-weight:normal;line-height:125%;letter-spacing:0px;word-spacing:0px;fill:#000000;fill-opacity:1;stroke:none;font-family:Sans"
       x="172.96454"
       y="23.177303"
       id="text3264"
       sodipodi:linespacing="125%"
       transform="translate(0,320)"><tspan
         sodipodi:role="line"
         id="tspan3266"
         x="172.96454"
         y="23.177303" /></text>
    <text
       xml:space="preserve"
       style="font-size:64px;font-style:normal;font-weight:bold;line-height:125%;letter-spacing:0px;word-spacing:0px;fill:#000000;fill-opacity:1;stroke:none;font-family:Sans;-inkscape-font-specification:Sans Bold"
       x="179.41844"
       y="55.446808"
       id="text3268"
       sodipodi:linespacing="125%"
       transform="translate(0,320)"><tspan
         sodipodi:role="line"
         id="tspan3270"
         x="179.41844"
         y="55.446808" /></text>
    <flowRoot
       xml:space="preserve"
       id="flowRoot3272"
       style="font-size:64px;font-style:normal;font-weight:bold;line-height:125%;letter-spacing:0px;word-spacing:0px;fill:#404040;fill-opacity:1;stroke:none;font-family:Sans;-inkscape-font-specification:Sans Bold"
       transform="translate(16.780142,313.5461)"><flowRegion
         id="flowRegion3274"><rect
           id="rect3276"
           width="73.574471"
           height="67.120567"
           x="160.05673"
           y="15.432623"
           style="fill:#404040;fill-opacity:1" /></flowRegion><flowPara
         id="flowPara3278">H</flowPara></flowRoot>    <path
       id="dp_path069"
       d="M 161.35572,448.84276 C 160.85672,449.38176 160.31872,449.48976 159.69872,449.16576 C 157.74472,448.08876 155.25272,445.39375 152.19472,441.08276 C 151.71072,440.43676 149.82372,438.55075 146.52372,435.42575 C 144.20672,433.16175 142.71172,430.79075 142.03672,428.31275 C 141.36372,425.83375 137.30872,419.96076 129.87272,410.69275 C 127.79872,408.10575 126.57272,406.54275 126.20872,406.00475 C 125.22472,404.49475 121.75072,401.15475 115.76872,395.98176 L 115.59272,395.65776 L 114.31472,394.52706 C 113.20872,393.34175 111.80772,392.04845 110.09672,390.64705 C 107.53872,389.35375 105.77272,387.84575 104.78872,386.12045 C 103.94072,385.04305 102.47272,384.07376 100.39872,383.21105 C 99.306722,382.67246 98.268722,382.45646 97.286722,382.56446 L 97.111722,382.72575 C 96.491722,383.37246 96.194722,384.12705 96.194722,384.98976 C 96.140722,385.31245 96.140722,385.63646 96.194722,385.95905 L 98.566722,388.22175 C 99.791722,389.40846 101.13872,390.64705 102.59472,391.94045 C 102.83572,392.15645 104.37172,393.71905 107.17472,396.62845 C 111.92872,401.58576 114.55572,404.22575 115.04072,404.54976 L 114.86672,404.54976 C 115.59272,404.76475 115.83572,405.19675 115.59272,405.84276 C 115.47172,406.38175 115.04072,406.59675 114.31472,406.48976 C 113.69472,406.38175 110.71672,403.52576 105.34272,397.92175 C 104.11572,396.52045 102.71572,395.06575 101.13872,393.55645 C 100.76272,393.23375 99.360722,391.94045 96.922722,389.67775 C 93.136722,386.12045 91.008722,384.18045 90.523722,383.85775 L 89.607722,383.21105 C 88.987722,382.78045 87.775722,382.07905 85.943722,381.10976 C 85.080722,380.78575 84.232722,380.62446 83.383722,380.62446 C 82.522722,380.73245 81.915722,380.84046 81.551722,380.94845 C 81.187722,381.05505 80.810722,381.32445 80.447722,381.75645 L 79.894722,382.56446 C 79.772722,382.78045 79.840722,383.48046 80.083722,384.66575 C 81.794722,386.06705 83.383722,387.19905 84.838722,388.06045 C 86.670722,389.35375 88.812722,391.34706 91.251722,394.04175 C 93.204722,396.19775 95.158722,398.35275 97.111722,400.50876 C 97.474722,400.93876 98.390722,402.07075 99.846722,403.90276 L 101.50272,405.84276 C 103.07872,407.78276 104.23672,409.07475 104.97872,409.72175 C 105.22072,409.93775 105.34272,410.20675 105.34272,410.53075 C 105.34272,410.74575 105.22072,410.96175 104.97872,411.17775 C 104.49272,411.71675 103.94072,411.71675 103.32072,411.17775 C 102.47272,410.42275 101.19272,409.02175 99.482722,406.97375 L 98.027722,405.19675 C 97.407722,404.33375 96.491722,403.25675 95.278722,401.96276 C 92.463722,398.94575 90.631722,396.95075 89.782722,395.98176 C 87.707722,393.28706 85.579722,391.24045 83.383722,389.83905 C 80.447722,387.79105 78.278722,386.04046 76.876722,384.58445 C 75.475722,383.12975 74.047722,382.02576 72.579722,381.27105 C 71.974722,380.94845 71.178722,381.05505 70.195722,381.59506 L 69.831722,381.75645 C 68.983722,382.40305 68.551722,382.99505 68.551722,383.53375 C 68.551722,384.39646 68.983722,385.47375 69.831722,386.76705 C 71.058722,388.38446 71.731722,389.30045 71.852722,389.51505 C 73.307722,390.48575 75.139722,392.18305 77.335722,394.60706 C 79.531722,397.03276 81.214722,398.67676 82.372722,399.53776 C 83.531722,400.40076 85.202722,402.23275 87.411722,405.03375 L 88.139722,405.84276 C 88.502722,406.27375 89.418722,407.24275 90.887722,408.75275 C 92.840722,410.58475 93.999722,411.82475 94.362722,412.47075 C 96.558722,414.40976 99.427722,417.05075 102.95672,420.39076 C 103.45572,420.93075 103.38872,421.41476 102.78272,421.84675 C 102.17572,422.27775 101.62372,422.22276 101.13872,421.68475 C 98.444722,418.77475 96.612722,417.10475 95.642722,416.67375 C 94.295722,416.02675 93.204722,414.89475 92.342722,413.27875 C 90.766722,411.76975 88.691722,409.66875 86.118722,406.97375 L 85.579722,406.16575 C 84.475722,404.87275 82.952722,403.20175 80.999722,401.15475 C 78.075722,398.89076 75.934722,396.78976 74.600722,394.84975 C 73.616722,393.55645 71.906722,392.10175 69.467722,390.48575 C 68.363722,390.05375 67.514722,390.05375 66.908722,390.48575 C 65.803722,391.24045 65.264722,391.72445 65.264722,391.94045 L 65.439722,392.58705 C 65.560722,393.55645 66.114722,394.95776 67.083722,396.78976 C 69.158722,399.05375 71.663722,402.34075 74.600722,406.65076 C 75.448722,407.94475 76.971722,409.93775 79.167722,412.63275 C 81.847722,415.75775 83.652722,417.56275 84.568722,418.04675 C 85.484722,418.53276 87.155722,420.28476 89.607722,423.30175 L 89.971722,423.78575 C 90.698722,424.97276 91.978722,426.64175 93.810722,428.79775 C 94.295722,429.33675 95.090722,430.14475 96.194722,431.22276 L 97.650722,432.83875 C 98.147722,433.37775 98.080722,433.86275 97.474722,434.29375 C 96.855722,434.72475 96.315722,434.67075 95.818722,434.13275 L 94.362722,432.51475 C 93.379722,431.54575 91.924722,429.87475 89.971722,427.50475 C 89.728722,427.50475 89.230722,427.39675 88.502722,427.18075 L 87.586722,427.01875 C 85.511722,426.48075 84.299722,425.99475 83.922722,425.56475 C 82.224722,423.84075 80.083722,422.60075 77.523722,421.84675 C 73.859722,420.87676 71.178722,420.44575 69.467722,420.55376 C 69.104722,420.55376 68.619722,420.87676 67.999722,421.52275 C 70.316722,422.27775 71.731722,422.86975 72.215722,423.30175 C 73.307722,424.16276 73.927722,425.25475 74.047722,426.54875 C 74.047722,426.97875 73.980722,427.35676 73.859722,427.67876 C 74.964722,428.43376 75.934722,429.18876 76.782722,429.94275 C 77.280722,430.69675 78.130722,431.82875 79.355722,433.35075 L 79.894722,433.99775 C 80.271722,434.32075 80.810722,434.69775 81.551722,435.12975 C 82.279722,435.56075 84.299722,436.47675 87.586722,437.87775 C 87.707722,437.98476 87.828722,438.09276 87.950722,438.20075 L 90.523722,440.94876 C 91.856722,441.81075 93.743722,443.33276 96.194722,445.48875 C 102.16272,446.99776 105.77272,448.07476 106.98472,448.72176 C 111.75472,451.53676 114.91972,452.93776 116.50872,452.93776 C 117.23672,452.93776 117.60072,453.26176 117.60072,453.90876 C 117.60072,454.55476 117.23672,454.87776 116.50872,454.87776 C 114.43572,454.87776 110.83872,453.42276 105.70672,450.50076 C 102.16272,449.63776 98.444722,448.45276 94.538722,446.92976 C 93.204722,445.96076 91.251722,444.39775 88.691722,442.24176 L 86.307722,439.64175 C 83.262722,438.24075 81.363722,437.40575 80.635722,437.13675 C 79.894722,436.86676 79.112722,436.24676 78.251722,435.26475 C 77.887722,434.94075 77.698722,434.77875 77.698722,434.77875 C 77.335722,434.45475 77.038722,434.02475 76.782722,433.48575 C 75.448722,433.91675 74.250722,434.50975 73.212722,435.26475 C 72.175722,436.01775 70.316722,437.90476 67.635722,440.92175 L 65.992722,442.70075 C 63.918722,445.39375 60.738722,448.68176 56.468722,452.56076 C 55.740722,452.88476 55.188722,452.77676 54.824722,452.23776 C 54.460722,451.69876 54.582722,451.24076 55.188722,450.86276 C 55.807722,450.48576 58.784722,447.33376 64.160722,441.40675 L 65.803722,439.62875 C 67.151722,438.11875 69.104722,436.18075 71.663722,433.80876 C 72.890722,432.94675 74.168722,432.24575 75.503722,431.70675 L 75.139722,431.38475 C 74.168722,430.41375 73.064722,429.60575 71.852722,428.95875 C 71.731722,428.85075 71.596722,428.77076 71.475722,428.71675 C 71.354722,428.66276 70.936722,428.42075 70.195722,427.98976 C 69.467722,427.55775 67.635722,426.53476 64.712722,424.91775 C 64.348722,424.70175 64.160722,424.43275 64.160722,424.10976 C 64.160722,423.89375 64.227722,423.73275 64.348722,423.62475 C 64.227722,422.86975 64.807722,421.84675 66.086722,420.55376 C 67.366722,419.26076 68.430722,418.55876 69.279722,418.45075 C 71.232722,418.34475 74.223722,418.82875 78.251722,419.90675 C 81.551722,420.87676 84.043722,422.33076 85.754722,424.27076 C 85.875722,424.37875 86.738722,424.64875 88.314722,425.07875 L 88.139722,424.91775 L 87.775722,424.43275 C 86.670722,423.03276 85.148722,421.46975 83.195722,419.74475 C 82.224722,419.20576 80.271722,417.21276 77.335722,413.76275 C 75.260722,411.39275 73.671722,409.39875 72.579722,407.78276 C 69.778722,403.47075 67.326722,400.23875 65.251722,398.08276 C 64.160722,396.89775 63.432722,395.17375 63.055722,392.90976 L 63.055722,392.42575 C 62.812722,391.24045 63.675722,390.05375 65.628722,388.86845 C 66.234722,388.32975 67.083722,388.11505 68.187722,388.22175 C 67.083722,386.60575 66.410722,385.31245 66.167722,384.34305 C 65.924722,382.72575 66.666722,381.32445 68.363722,380.13905 L 68.915722,379.97775 C 70.626722,378.90045 72.270722,378.73906 73.859722,379.49246 C 74.964722,380.03245 76.176722,380.94845 77.523722,382.24045 C 77.644722,381.91775 77.819722,381.59506 78.062722,381.27105 L 78.615722,380.62446 C 78.856722,380.30176 79.476722,379.81646 80.447722,379.16976 C 80.810722,379.06176 81.551722,378.90045 82.642722,378.68446 C 84.595722,377.28305 85.727722,376.39506 86.038722,376.01775 C 86.334722,375.64045 87.802722,374.32045 90.428722,372.05645 C 93.042722,369.79375 94.659722,368.50045 95.278722,368.17775 C 95.520722,367.96175 96.154722,367.20705 97.191722,365.91375 C 98.228722,364.62045 98.970722,363.83905 99.387722,363.56975 C 99.818722,363.30045 101.19272,361.81905 103.51072,359.12446 L 104.78872,357.66976 L 106.25872,356.21506 C 106.20372,356.10706 106.20372,355.99905 106.25872,355.89105 C 106.62272,354.70576 105.94772,353.57376 104.23672,352.49645 L 103.87272,352.17375 C 102.66072,351.31106 101.13872,351.52705 99.306722,352.82045 L 98.202722,353.62845 C 96.370722,354.81376 94.362722,356.37645 92.167722,358.31645 C 91.668722,359.17775 89.998722,360.71375 87.128722,362.92305 C 84.259722,365.13245 82.211722,366.50705 80.999722,367.04575 C 75.746722,371.57245 69.899722,376.63646 63.432722,382.24045 C 63.918722,383.53375 64.160722,384.44975 64.160722,384.98976 C 64.160722,385.95905 63.675722,386.33645 62.691722,386.12045 C 61.964722,386.01245 61.654722,385.63646 61.775722,384.98976 L 61.775722,384.98976 C 61.775722,384.55775 61.411722,383.15776 60.684722,380.78575 L 59.943722,379.00845 C 59.216722,376.74446 58.974722,375.39775 59.216722,374.96705 L 59.216722,374.64306 C 59.458722,374.10445 59.768722,373.24176 60.132722,372.05645 C 60.132722,371.62575 59.890722,369.84706 59.404722,366.72175 L 59.040722,365.10575 C 58.906722,364.13505 57.815722,363.27375 55.740722,362.51905 C 55.983722,365.86045 56.171722,367.69245 56.292722,368.01505 C 56.656722,369.30845 56.226722,370.17105 55.012722,370.60175 C 54.756722,370.70975 53.975722,370.81775 52.628722,370.92575 C 52.386722,373.18845 52.143722,374.85906 51.900722,375.93645 C 51.780722,376.58305 51.282722,377.92975 50.432722,379.97775 C 49.328722,382.56446 48.722722,384.23505 48.600722,384.98976 C 48.236722,387.57506 48.048722,391.88705 48.048722,397.92175 C 48.008722,398.24475 47.980722,398.78276 47.980722,399.53776 C 47.980722,400.29275 47.980722,400.93876 47.980722,401.47775 C 47.980722,402.01675 47.980722,403.04075 47.980722,404.54976 C 47.980722,406.05775 48.008722,407.13675 48.048722,407.78276 C 48.048722,410.80075 48.170722,412.52475 48.426722,412.95475 C 49.395722,415.32575 50.068722,416.78175 50.432722,417.32075 C 51.160722,418.28976 52.628722,419.52976 54.824722,421.03776 C 55.067722,421.14576 55.188722,421.36176 55.188722,421.68475 C 55.188722,422.11676 55.012722,422.43876 54.635722,422.65476 C 54.151722,422.86975 53.719722,422.81675 53.356722,422.49275 C 49.947722,420.22975 47.806722,418.28976 46.958722,416.67375 C 43.414722,419.47475 41.098722,421.46975 40.006722,422.65476 C 39.507722,423.19376 38.295722,424.37875 36.342721,426.21076 C 34.874721,427.72075 33.284721,429.33675 31.587721,431.06075 L 31.762721,430.89875 C 31.398721,431.54575 30.912721,431.76175 30.294721,431.54575 C 29.566721,431.32975 29.323721,430.89875 29.566721,430.25275 C 29.687721,429.92975 31.398721,428.15076 34.684721,424.91775 C 35.668721,423.94876 36.827721,422.73476 38.174722,421.28075 C 39.507722,419.82575 42.067722,417.69775 45.852722,414.89475 C 46.095722,414.78675 46.283722,414.68075 46.404722,414.57275 L 46.404722,414.57275 C 46.283722,414.14076 46.135722,413.44075 45.947722,412.47075 C 45.758722,411.50075 45.678722,409.99275 45.678722,407.94475 C 45.623722,407.18975 45.623722,406.05775 45.678722,404.54976 C 45.799722,403.04075 45.852722,401.96276 45.852722,401.31675 C 45.852722,400.88576 45.799722,400.29275 45.678722,399.53776 C 45.623722,398.78276 45.623722,398.19075 45.678722,397.76076 C 45.678722,391.72445 45.920722,387.36045 46.404722,384.66575 C 46.526722,383.69646 47.132722,381.86446 48.236722,379.16976 C 49.086722,377.33776 49.571722,376.15245 49.706722,375.61375 C 49.827722,374.53505 50.068722,372.70306 50.432722,370.11645 C 50.432722,369.79375 50.554722,369.57775 50.796722,369.46975 L 50.796722,369.30845 C 50.311722,366.18305 50.068722,363.59645 50.068722,361.54976 C 50.068722,360.90305 50.432722,360.57905 51.160722,360.57905 C 51.282722,360.57905 51.403722,360.57905 51.524722,360.57905 C 51.659722,360.47105 51.780722,360.41775 51.900722,360.41775 C 53.854722,360.20175 55.431722,360.25646 56.656722,360.57905 C 59.458722,361.54976 61.048722,363.00446 61.411722,364.94446 L 61.600722,366.39905 C 62.086722,369.30845 62.327722,371.08705 62.327722,371.73375 C 62.327722,372.48845 62.018722,373.67375 61.411722,375.28976 L 61.411722,375.45105 C 61.411722,375.77506 61.654722,376.74446 62.152722,378.36176 L 62.691722,379.97775 C 72.822722,370.70975 78.615722,365.75245 80.083722,365.10575 C 81.066722,364.67505 82.926722,363.40846 85.660722,361.30705 C 88.408722,359.20576 89.971722,357.83105 90.335722,357.18446 C 90.698722,356.53776 92.840722,354.81376 96.734722,352.01105 L 97.838722,351.20306 C 99.306722,350.23375 100.82872,349.74845 102.41872,349.74845 C 103.51072,349.74845 104.49272,350.01775 105.34272,350.55645 L 105.70672,350.88045 C 106.44672,351.41906 107.36272,352.38845 108.45472,353.78976 C 109.55872,352.71245 111.25572,351.84976 113.57272,351.20306 C 114.67672,350.88045 116.14672,351.04175 117.97872,351.68845 C 118.09972,351.79645 118.22072,351.90445 118.34272,352.01105 C 119.43272,352.98175 120.10672,354.00575 120.34872,355.08305 L 123.28472,352.01105 L 119.79672,349.42575 C 119.43272,349.20975 119.25872,348.94045 119.25872,348.61645 C 119.25872,347.96975 119.67572,347.64705 120.53672,347.64705 L 132.24372,348.29375 C 132.86372,348.40175 133.22772,348.67105 133.34872,349.10175 L 135.54472,357.83105 C 135.66472,358.26175 135.47672,358.58576 134.99172,358.80176 C 134.62872,359.12446 134.19672,359.12446 133.71272,358.80176 L 129.87272,356.69905 L 123.28472,363.81245 C 124.86272,364.24305 125.65672,365.59105 125.65672,367.85375 C 125.61572,368.06975 125.61572,368.28445 125.65672,368.50045 C 125.29272,369.57775 124.37672,371.14045 122.90872,373.18845 C 124.13472,373.40445 125.05072,373.96975 125.65672,374.88576 C 126.26272,375.80176 126.45172,376.74446 126.20872,377.71506 C 125.96672,378.36176 125.22472,379.76175 124.01272,381.91775 L 123.64872,382.56446 L 123.46072,382.88705 C 122.85472,384.07376 121.99272,385.42046 120.90072,386.92845 L 119.43272,389.03105 C 117.72272,391.40175 116.63072,392.80305 116.14672,393.23375 L 117.23672,394.20306 L 117.42472,394.36575 C 123.52772,399.75376 127.12472,403.30975 128.21572,405.03375 C 128.47172,405.46575 129.63072,406.97375 131.70472,409.56075 C 139.38372,419.04476 143.59972,425.18676 144.32772,427.98976 C 144.93472,430.14475 146.40272,432.30075 148.71972,434.45475 C 151.77672,437.47276 153.54272,439.30575 154.02672,439.95276 C 156.96372,443.93876 159.28072,446.41776 160.97872,447.38876 C 161.59872,447.71076 161.71972,448.19676 161.35572,448.84276 z M 132.62072,355.72976 L 131.15272,350.39506 L 124.01272,349.90975 L 125.65672,351.04175 C 125.89972,351.25775 126.01972,351.52705 126.01972,351.84976 C 126.01972,352.17375 125.96672,352.38845 125.84472,352.49645 L 99.118722,380.78575 C 99.859722,380.89375 100.58672,381.10976 101.31472,381.43246 C 101.67872,381.54046 102.23072,381.80975 102.95672,382.24045 L 119.62072,364.45905 C 119.74272,364.13505 119.98472,363.92046 120.34872,363.81245 L 128.76872,354.59776 C 129.25272,354.16706 129.80672,354.11375 130.42472,354.43645 z M 123.46072,367.85375 C 123.46072,366.99105 123.28472,366.34445 122.90872,365.91375 C 122.66672,365.80575 122.18072,365.75245 121.45272,365.75245 L 104.78872,383.53375 C 105.53072,384.18045 106.56772,385.15105 107.90072,386.44446 C 108.02272,386.33645 108.14372,386.28305 108.26472,386.28305 L 108.09072,386.28305 C 109.30272,385.63646 111.13472,383.69646 113.57272,380.46305 C 116.02472,377.22976 117.72272,375.12845 118.70472,374.15776 L 118.88072,373.99645 C 119.49972,373.45775 120.05272,373.02706 120.53672,372.70306 C 122.49072,370.87106 123.46072,369.25505 123.46072,367.85375 z M 118.15272,355.89105 C 118.15272,355.24446 117.72272,354.48976 116.87272,353.62845 C 115.64772,353.19775 114.74472,353.03505 114.12472,353.14306 C 112.41472,353.57376 111.13472,354.22046 110.28672,355.08305 C 110.16472,355.29906 109.24872,356.26846 107.53872,357.99246 L 106.62272,358.96305 L 105.34272,360.41775 C 103.87272,361.92705 101.74472,364.18975 98.943722,367.20705 C 97.838722,368.60845 97.043722,369.46975 96.558722,369.79375 C 93.500722,371.51775 90.644722,374.05106 87.950722,377.39105 C 87.586722,377.60706 86.912722,378.14576 85.943722,379.00845 C 87.290722,379.33105 88.987722,380.19376 91.062722,381.59506 L 91.803722,382.07905 C 92.167722,382.29505 92.840722,382.88705 93.810722,383.85775 L 93.999722,383.37246 C 94.120722,382.83375 94.604722,382.13376 95.454722,381.27105 L 95.831722,381.10976 C 95.952722,381.00176 96.032722,380.89375 96.100722,380.78575 C 96.154722,380.67775 96.248722,380.62446 96.370722,380.62446 L 117.60072,357.99246 C 117.47972,357.88576 117.54672,357.58846 117.78872,357.10445 C 118.03172,356.61906 118.15272,356.21506 118.15272,355.89105 z M 124.01272,377.22976 C 124.25572,376.15245 123.82472,375.50575 122.73272,375.28976 C 122.24772,375.07376 121.81672,375.02045 121.45272,375.12845 C 121.09072,375.23645 120.83472,375.28976 120.71272,375.28976 L 120.53672,375.45105 C 117.85672,378.68446 116.14672,380.78575 115.40472,381.75645 C 114.19272,383.37246 112.29272,385.42046 109.73272,387.89905 C 110.83872,388.65375 112.48272,389.94705 114.67672,391.77905 C 114.91972,391.45506 115.83572,390.16175 117.42472,387.89905 L 118.88072,385.79775 C 119.86372,384.39646 120.65872,383.15776 121.26472,382.07905 L 121.45272,381.59506 L 121.99272,380.94845 C 122.49072,379.97775 123.16472,378.73906 124.01272,377.22976 z M 54.096722,368.44705 C 53.975722,368.02846 53.787722,365.99505 53.544722,362.35775 C 53.180722,362.35775 52.816722,362.35775 52.440722,362.35775 C 52.575722,363.96045 52.750722,366.15645 52.992722,368.93106 C 53.356722,368.82306 53.639722,368.71645 53.814722,368.60845 C 54.003722,368.50045 54.096722,368.44705 54.096722,368.44705 z M 71.663722,426.21076 C 71.420722,425.67275 71.111722,425.24176 70.747722,424.91775 C 70.383722,424.59475 69.104722,424.05475 66.908722,423.30175 L 66.719722,423.62475 C 69.036722,424.91775 70.626722,425.78075 71.475722,426.21076 z"
       inkscape:connector-curvature="0"
       style="fill:#000000;stroke:#000000;stroke-width:2.66667008" />
  </g>
</svg>
