<?xml version="1.0" encoding="UTF-8" standalone="no"?>
<!-- Created with Inkscape (http://www.inkscape.org/) -->

<svg
   xmlns:dc="http://purl.org/dc/elements/1.1/"
   xmlns:cc="http://creativecommons.org/ns#"
   xmlns:rdf="http://www.w3.org/1999/02/22-rdf-syntax-ns#"
   xmlns:svg="http://www.w3.org/2000/svg"
   xmlns="http://www.w3.org/2000/svg"
   xmlns:sodipodi="http://sodipodi.sourceforge.net/DTD/sodipodi-0.dtd"
   xmlns:inkscape="http://www.inkscape.org/namespaces/inkscape"
   width="240"
   height="160"
   id="svg3249"
   version="1.1"
   inkscape:version="0.48.0 r9654"
   sodipodi:docname="BSL letter H.svg">
  <defs
     id="defs3251" />
  <sodipodi:namedview
     id="base"
     pagecolor="#ffffff"
     bordercolor="#666666"
     borderopacity="1.0"
     inkscape:pageopacity="0.0"
     inkscape:pageshadow="2"
     inkscape:zoom="0.77472527"
     inkscape:cx="105.7305"
     inkscape:cy="240"
     inkscape:current-layer="layer1"
     inkscape:document-units="px"
     showgrid="false"
     inkscape:window-width="1024"
     inkscape:window-height="745"
     inkscape:window-x="-8"
     inkscape:window-y="-8"
     inkscape:window-maximized="1" />
  <metadata
     id="metadata3254">
    <rdf:RDF>
      <cc:Work
         rdf:about="">
        <dc:format>image/svg+xml</dc:format>
        <dc:type
           rdf:resource="http://purl.org/dc/dcmitype/StillImage" />
        <dc:title></dc:title>
      </cc:Work>
    </rdf:RDF>
  </metadata>
  <g
     id="layer1"
     inkscape:label="Layer 1"
     inkscape:groupmode="layer"
     transform="translate(0,-320)">
    <text
       xml:space="preserve"
       style="font-size:40px;font-style:normal;font-weight:normal;line-height:125%;letter-spacing:0px;word-spacing:0px;fill:#000000;fill-opacity:1;stroke:none;font-family:Sans"
       x="172.96454"
       y="23.177303"
       id="text3264"
       sodipodi:linespacing="125%"
       transform="translate(0,320)"><tspan
         sodipodi:role="line"
         id="tspan3266"
         x="172.96454"
         y="23.177303" /></text>
    <text
       xml:space="preserve"
       style="font-size:64px;font-style:normal;font-weight:bold;line-height:125%;letter-spacing:0px;word-spacing:0px;fill:#000000;fill-opacity:1;stroke:none;font-family:Sans;-inkscape-font-specification:Sans Bold"
       x="179.41844"
       y="55.446808"
       id="text3268"
       sodipodi:linespacing="125%"
       transform="translate(0,320)"><tspan
         sodipodi:role="line"
         id="tspan3270"
         x="179.41844"
         y="55.446808" /></text>
    <flowRoot
       xml:space="preserve"
       id="flowRoot3272"
       style="font-size:64px;font-style:normal;font-weight:bold;line-height:125%;letter-spacing:0px;word-spacing:0px;fill:#404040;fill-opacity:1;stroke:none;font-family:Sans;-inkscape-font-specification:Sans Bold"
       transform="translate(16.780142,313.5461)"><flowRegion
         id="flowRegion3274"><rect
           id="rect3276"
           width="73.574471"
           height="67.120567"
           x="160.05673"
           y="15.432623"
           style="fill:#404040;fill-opacity:1" /></flowRegion><flowPara
         id="flowPara3278"> I</flowPara></flowRoot>    <path
       id="dp_path071"
       d="M 190.972,400.29912 L 189.679,399.16712 C 186.392,396.47312 181.016,392.59312 173.58,387.52812 C 169.674,385.15712 166.683,383.37912 164.608,382.19312 L 163.518,381.54712 C 161.187,380.36112 158.075,379.98412 154.182,380.41512 C 152.714,380.63112 150.882,380.44312 148.686,379.84912 C 146.49,379.25612 145.048,378.71712 144.388,378.23313 C 143.715,377.74812 141.062,376.75112 136.427,375.24312 C 135.202,374.91912 133.611,374.43312 131.658,373.78712 C 130.324,373.35612 128.667,372.65613 126.727,371.68513 C 125.259,370.17712 122.82,369.20712 119.399,368.77612 C 117.931,368.56013 116.53,368.18312 115.196,367.64413 L 113,366.83613 C 110.67,366.08112 107.195,364.57312 102.56,362.30912 C 102.196,362.09512 101.832,362.04012 101.47,362.14812 L 100.728,362.47212 L 94.139999,359.40012 C 93.897999,359.29212 93.587999,359.23912 93.223999,359.23912 C 91.028299,359.66912 89.694999,360.74712 89.196299,362.47212 C 88.833699,362.36412 88.401699,362.30912 87.917699,362.30912 C 87.674999,362.30912 87.432299,362.41712 87.189699,362.63312 L 81.517699,366.18912 C 81.020299,365.97312 80.534999,365.97312 80.049699,366.18912 L 79.685699,366.35113 C 79.806999,366.13612 80.238999,365.16512 80.965699,363.44112 L 82.245699,360.85512 C 83.470999,357.94512 82.245699,355.68112 78.581699,354.06513 C 77.369699,353.52712 76.332299,353.41912 75.469699,353.74312 C 74.620299,354.06513 74.136299,354.60412 74.001699,355.35912 L 74.001699,355.35912 C 72.909699,357.94512 71.145699,360.31612 68.693699,362.47212 C 67.117699,363.87212 65.217699,366.94412 63.021699,371.68513 C 62.294999,373.08712 61.864299,374.43312 61.742999,375.72712 L 59.910999,376.69713 C 57.957699,377.88312 56.798999,378.90712 56.434999,379.76812 C 55.828299,381.06112 55.276299,381.92412 54.790999,382.35512 C 54.306999,382.78712 53.322999,384.02512 51.854999,386.07312 C 50.762999,387.58112 49.658999,389.52112 48.566999,391.89213 L 47.840299,385.42712 C 47.098999,382.73212 46.129699,378.67712 44.902999,373.28912 C 44.781699,372.53512 44.902999,371.34912 45.266999,369.73212 C 45.496299,368.43912 45.496299,367.57713 45.266999,367.14512 C 45.266999,366.93112 45.334999,366.17612 45.456299,364.88312 C 45.576299,360.89512 45.388299,357.97212 44.902999,356.14012 C 43.812299,352.04512 42.222999,349.51213 40.148299,348.54313 C 39.420299,348.21912 38.625699,348.05712 37.764299,348.05712 C 36.308299,348.05712 34.840299,348.64913 33.372299,349.84912 C 33.008299,350.07713 32.820299,350.34812 32.820299,350.67112 L 32.820299,350.67112 L 33.372299,357.78412 C 31.176299,362.41712 30.085699,368.77612 30.085699,376.85912 C 30.085699,380.52312 30.745699,384.88812 32.092299,389.95312 C 32.456299,391.13913 32.644299,391.83913 32.644299,392.05513 C 30.812299,394.64112 29.842999,397.87312 29.721699,401.75312 C 28.980299,400.78412 28.132299,398.73612 27.148299,395.61112 L 26.973699,394.47912 C 26.717699,393.07912 25.868299,391.13913 24.400299,388.66012 C 22.446999,385.74912 20.628299,384.13312 18.917699,383.80912 C 16.842999,383.48712 14.889699,383.64812 13.057699,384.29512 C 12.936299,384.29512 12.814999,384.34912 12.693699,384.45612 L 11.965699,385.10312 C 10.618999,385.42712 9.9456991,385.96512 9.9456991,386.72012 C 9.9456991,386.93513 10.040299,387.17712 10.214999,387.44713 C 10.402999,387.71613 11.534999,389.52112 13.609699,392.86313 L 13.245699,393.83212 C 13.218999,393.94013 13.218999,394.04813 13.245699,394.15613 C 13.245699,394.47912 13.393699,395.09912 13.704299,396.01512 C 14.000299,396.93112 14.161699,397.65912 14.161699,398.19713 C 14.161699,398.62812 14.068299,399.19312 13.878999,399.89512 C 13.704299,400.59512 13.609699,401.16113 13.609699,401.59212 C 13.609699,403.31612 14.026999,404.55612 14.889699,405.30912 C 15.010999,405.52512 15.064299,405.84912 15.064299,406.28012 C 15.064299,407.03512 15.010999,407.84312 14.889699,408.70512 C 14.525699,411.50712 14.337699,413.98513 14.337699,416.14112 C 14.337699,418.40413 14.485699,419.88512 14.794999,420.58712 C 15.105699,421.28712 15.441699,422.17612 15.805699,423.25312 L 16.169699,424.38512 C 16.290999,424.49312 16.478999,424.97712 16.721699,425.84012 C 17.690999,429.61212 18.674999,432.03712 19.644299,433.11513 C 20.250999,433.76112 20.560299,434.24712 20.560299,434.56912 C 20.546999,434.67712 20.533699,434.73112 20.533699,434.73112 L 20.560299,435.37712 C 20.560299,436.02413 21.234999,438.23312 22.581699,442.00513 C 24.157699,446.20812 25.382999,448.68713 26.232299,449.44113 C 26.110999,449.54913 25.746999,451.05913 25.141699,453.96813 C 24.521699,456.87713 24.225699,458.44013 24.225699,458.65613 C 24.225699,459.30313 24.588299,459.68013 25.316299,459.78813 C 26.178999,460.00313 26.662999,459.73313 26.784299,458.97913 C 27.026999,458.54813 27.633699,455.80013 28.616299,450.73513 C 28.980299,450.52013 29.169699,450.14313 29.169699,449.60313 C 29.169699,449.06413 28.858999,448.49913 28.252299,447.90513 C 27.633699,447.31313 26.662999,445.23912 25.316299,441.68312 C 24.104299,438.44912 23.362999,436.34812 23.120299,435.37712 L 23.120299,435.21613 C 23.241699,435.00013 23.309699,434.78512 23.309699,434.56912 C 23.309699,433.81513 22.824299,432.84512 21.840299,431.66012 C 21.113699,430.90512 20.250999,428.74912 19.281699,425.19312 C 18.917699,424.22412 18.728299,423.63112 18.728299,423.41512 L 18.365699,422.60712 C 17.394999,419.58913 16.896299,417.48813 16.896299,416.30313 C 16.896299,413.60812 17.085699,411.18412 17.449699,409.02812 C 17.569699,408.05912 17.637699,407.19612 17.637699,406.44112 C 17.637699,405.04012 17.394999,404.12412 16.896299,403.69312 C 16.412299,403.26312 16.169699,402.56112 16.169699,401.59212 C 16.169699,401.16113 16.290999,400.59512 16.533699,399.89512 C 16.774999,399.19312 16.896299,398.62812 16.896299,398.19713 C 16.896299,397.01213 16.600299,395.61112 15.980299,393.99513 L 15.980299,393.67112 C 17.690999,393.77913 18.553699,392.59312 18.553699,390.11513 C 18.553699,390.00713 18.486999,389.84512 18.365699,389.62912 C 17.516299,388.01312 16.653699,386.82812 15.805699,386.07312 C 16.653699,385.96512 17.516299,385.96512 18.365699,386.07312 C 19.348299,386.28813 20.560299,387.52812 22.029699,389.79113 C 23.484299,392.05513 24.278999,393.72512 24.400299,394.80313 L 24.588299,395.77212 C 24.709699,396.85113 25.194999,398.46712 26.057699,400.62112 C 28.010999,403.74712 29.410999,406.44112 30.260299,408.70512 C 30.624299,409.45913 31.176299,409.78312 31.904299,409.67512 C 32.765699,409.45913 33.061699,408.86712 32.820299,407.89612 C 31.606999,401.64512 32.334999,396.74312 35.014999,393.18513 C 35.392299,392.75513 35.270999,391.46113 34.652299,389.30712 C 33.076299,383.27112 32.456299,378.15212 32.820299,373.94912 C 33.681699,365.65112 34.718999,360.53212 35.930999,358.59212 L 35.930999,358.59212 C 36.052299,358.37612 36.120299,358.16012 36.120299,357.94512 L 36.120299,357.94512 L 35.568299,351.15613 C 36.793699,350.40113 37.884299,350.24013 38.868299,350.67112 C 40.700299,351.53312 41.980299,353.95712 42.706999,357.94512 C 42.828299,358.91512 42.896299,360.04712 42.896299,361.34012 C 42.896299,361.98712 42.828299,362.90312 42.706999,364.08812 C 42.693699,365.16512 42.680299,366.02812 42.680299,366.67512 C 42.680299,366.89112 42.693699,367.16012 42.706999,367.48313 C 42.828299,367.80712 42.896299,368.02112 42.896299,368.12912 C 42.896299,368.23712 42.828299,368.66813 42.706999,369.42313 C 42.465699,370.71613 42.344299,371.68513 42.344299,372.33212 C 42.344299,373.08712 42.774999,375.24312 43.622999,378.79912 C 44.108299,380.73912 44.660299,383.00112 45.266999,385.58812 L 46.182999,394.15613 C 46.182999,394.47912 46.304299,394.74812 46.546999,394.96413 L 46.546999,396.25713 C 46.546999,396.90413 46.924299,397.28113 47.650999,397.38913 C 48.378999,397.49612 48.864299,397.22712 49.120299,396.58012 C 49.968299,394.74812 51.612299,391.62312 54.050999,387.20412 C 55.154999,386.12712 56.501699,384.29512 58.077699,381.70812 C 58.198999,381.27712 59.304299,380.25312 61.378999,378.63713 L 63.574999,377.34412 C 63.696299,377.34412 63.817699,377.28912 63.937699,377.18312 C 70.161699,373.73313 73.704299,371.87513 74.553699,371.60512 C 75.416299,371.33613 76.453699,370.76913 77.665699,369.90812 L 80.777699,368.45213 C 81.261699,368.88412 81.814999,368.93713 82.420299,368.61513 L 88.280299,364.73512 C 89.142999,364.84312 89.749699,365.05712 90.112299,365.38112 C 90.718999,366.24412 91.028299,367.10512 91.028299,367.96812 C 91.028299,369.04512 90.422999,370.17712 89.196299,371.36313 C 86.394999,374.27212 84.562999,375.88913 83.713699,376.21212 L 83.713699,376.21212 L 83.525699,376.21212 L 83.525699,376.21212 C 82.918999,376.42813 81.936299,377.07512 80.601699,378.15212 C 79.861699,378.79912 79.376299,379.17612 79.133699,379.28412 C 78.406999,379.06812 77.732299,379.12112 77.113699,379.44512 C 76.506999,379.76812 76.048299,380.30812 75.752299,381.06112 C 75.442999,381.81612 74.136299,383.21712 71.805699,385.26512 C 71.684299,385.37212 71.562999,385.53512 71.441699,385.74912 C 69.002999,387.79712 67.413699,388.87513 66.686999,388.98313 C 66.322999,388.98313 65.958999,388.98313 65.581699,388.98313 C 64.248299,388.76713 63.574999,389.14413 63.574999,390.11513 C 63.561699,390.22312 63.561699,390.43713 63.574999,390.76112 C 63.696299,390.97613 63.762999,391.08413 63.762999,391.08413 C 63.762999,391.73112 63.305699,393.05112 62.389699,395.04512 C 61.473699,397.03912 60.772299,398.19713 60.273699,398.52012 L 60.273699,398.52012 C 59.546999,398.84412 59.357699,399.32912 59.734999,399.97512 C 60.098999,400.72912 60.650999,400.94512 61.378999,400.62112 C 62.348299,400.29912 63.385699,399.03212 64.490999,396.82312 C 65.581699,394.61313 66.201699,392.80812 66.322999,391.40812 C 66.444299,391.40812 66.632299,391.40812 66.874999,391.40812 C 67.724299,391.40812 69.245699,390.60012 71.441699,388.98313 C 71.441699,390.70712 70.593699,393.02413 68.881699,395.93312 L 68.706999,396.25713 C 68.450999,396.79612 67.844299,398.14312 66.874999,400.29912 C 66.632299,401.05313 66.874999,401.53712 67.602999,401.75312 C 68.450999,402.07713 69.070999,401.86112 69.434999,401.10712 C 70.282999,399.05912 70.834999,397.82012 71.077699,397.38913 L 71.266999,397.06513 C 71.993699,395.77212 72.842999,393.83212 73.825699,391.24513 C 74.068299,389.95312 74.136299,388.49712 74.001699,386.88112 C 75.348299,385.69612 76.870999,383.91712 78.581699,381.54712 C 79.442999,381.76312 80.898999,381.06112 82.973699,379.44512 C 83.094999,380.63112 83.040299,381.54712 82.797699,382.19312 C 81.329699,386.39612 80.049699,389.52112 78.945699,391.56912 C 78.338999,392.64712 77.301699,395.77212 75.833699,400.94512 C 74.378999,406.11912 73.637699,409.40512 73.637699,410.80713 C 73.637699,412.63913 72.721699,418.94312 70.902999,429.72012 L 70.902999,430.52812 C 70.404299,433.00712 69.150999,436.50913 67.144299,441.03613 C 65.124299,445.56112 63.696299,448.25613 62.846999,449.11913 C 61.984299,449.98013 61.378999,452.62113 61.014999,457.04013 C 60.893699,459.08713 60.826999,460.27213 60.826999,460.59613 L 61.014999,460.27213 C 60.650999,460.91913 60.705699,461.45713 61.189699,461.88913 C 61.809699,462.32013 62.348299,462.32013 62.846999,461.88913 C 63.210999,461.56513 63.506999,460.05713 63.762999,457.36313 C 64.126999,456.50013 64.301699,455.31513 64.301699,453.80713 L 64.301699,453.16013 C 64.301699,451.86713 64.490999,451.00413 64.853699,450.57313 C 65.958999,449.49613 67.534999,446.58512 69.609699,441.84412 C 71.684299,437.10312 72.964299,433.43713 73.462999,430.85212 L 73.462999,430.20512 C 75.416299,419.21212 76.385699,412.74712 76.385699,410.80713 C 76.385699,409.62112 77.085699,406.49612 78.486999,401.43112 C 79.888299,396.36513 80.777699,393.45512 81.141699,392.70112 C 82.488299,390.43713 83.889699,387.20412 85.357699,383.00112 C 85.600299,382.24712 85.721699,381.38512 85.721699,380.41512 C 85.721699,379.66113 85.653699,378.85212 85.532299,377.99112 C 87.242999,376.80513 89.142999,375.08012 91.217699,372.81713 C 91.944299,372.17112 92.497699,371.52413 92.859999,370.87712 C 94.329999,372.06312 95.609999,372.76413 96.699999,372.97912 C 97.803999,373.84113 99.326999,374.86513 101.28,376.05112 C 104.324,377.55912 109.579,379.87612 117.015,383.00112 C 118.604,383.64812 120.626,385.15712 123.063,387.52812 C 119.884,391.73112 118.187,394.15613 117.931,394.80313 C 116.96,396.74312 117.514,400.19112 119.588,405.14812 C 119.211,405.58012 118.794,406.11912 118.308,406.76512 C 117.082,408.70512 116.84,410.80713 117.567,413.06912 C 117.688,413.39213 117.931,414.41613 118.308,416.14112 C 119.156,420.66712 119.858,423.09212 120.41,423.41512 C 120.962,423.73912 122.08,424.06112 123.791,424.38512 L 124.343,424.38512 C 125.192,424.60113 127.698,425.35513 131.847,426.64812 C 136.723,428.04912 140.024,429.23513 141.735,430.20512 C 147.958,433.33113 151.986,434.78512 153.804,434.56912 C 154.182,434.56912 155.704,434.62312 158.386,434.73112 C 164.003,435.05512 167.29,435.05512 168.272,434.73112 C 169.364,434.40813 170.766,434.24712 172.476,434.24712 C 173.338,434.24712 173.756,433.81513 173.756,432.95312 C 173.756,432.19912 173.338,431.82112 172.476,431.82112 C 170.523,431.82112 168.812,432.03712 167.356,432.46812 C 166.751,432.68412 163.814,432.68412 158.574,432.46812 C 155.636,432.25212 153.926,432.19912 153.442,432.30713 L 153.442,432.30713 C 152.107,432.41512 148.686,431.01312 143.19,428.10312 C 141.236,427.13312 137.76,425.89312 132.763,424.38512 C 128.492,423.09212 125.866,422.33712 124.895,422.12312 L 124.155,421.96012 C 123.67,421.96012 123.063,421.85212 122.323,421.63713 C 122.08,420.99112 121.622,419.10412 120.962,415.97912 C 120.288,412.85312 119.951,411.23712 119.951,411.12912 C 119.951,409.72812 120.248,408.59712 120.867,407.73513 C 122.7,410.75212 125.071,412.53112 128.007,413.06912 C 127.63,413.39213 127.388,413.60812 127.267,413.71613 L 127.267,413.71613 C 126.539,414.03912 126.351,414.57912 126.714,415.33212 C 127.212,415.97912 127.819,416.14112 128.546,415.81713 C 128.91,415.60113 130.015,414.57912 131.847,412.74712 C 132.574,411.99212 133.611,411.02112 134.959,409.83613 C 135.807,409.08112 136.75,407.89612 137.787,406.28012 C 138.824,404.66313 139.35,403.53212 139.35,402.88512 C 139.35,399.00513 138.246,395.66412 136.05,392.86313 C 136.036,392.75513 136.036,392.59312 136.05,392.37712 C 135.928,391.94713 135.564,391.67712 134.959,391.56912 C 133.248,389.84512 131.779,388.98313 130.567,388.98313 C 129.462,388.33613 128.062,387.68912 126.351,387.04313 C 123.184,383.91712 120.436,381.87112 118.119,380.90012 C 114.091,379.39112 108.972,377.12812 102.748,374.11112 C 100.674,372.17112 98.841999,371.03912 97.251999,370.71613 C 96.403999,370.60813 95.231999,369.80012 93.777999,368.29113 C 93.762999,368.18312 93.762999,368.07612 93.777999,367.96812 C 93.777999,366.78312 93.223999,365.43513 92.133699,363.92712 C 91.890999,363.71113 91.756299,363.49513 91.756299,363.28012 C 91.756299,362.63312 92.308299,362.09512 93.413999,361.66313 L 99.999999,364.73512 C 100.243,364.84312 100.554,364.84312 100.916,364.73512 L 101.832,364.57312 C 105.982,366.62013 109.336,368.12912 111.896,369.09912 L 114.091,369.90812 C 115.682,370.44713 117.324,370.82412 119.035,371.03912 C 121.716,371.36313 123.616,372.06312 124.707,373.14012 C 124.95,373.46413 126.97,374.38013 130.755,375.88913 C 131.362,376.10412 132.938,376.64312 135.511,377.50513 C 137.707,378.15212 140.078,378.96012 142.651,379.93112 C 143.62,380.68412 145.386,381.38512 147.958,382.03212 C 150.518,382.67912 152.714,382.94812 154.546,382.84012 C 157.954,382.40912 160.459,382.67912 162.05,383.64812 L 163.14,384.29512 C 164.244,384.83312 167.235,386.55712 172.112,389.46812 C 176.019,391.73112 181.259,395.50312 187.86,400.78412 L 189.14,401.91512 C 189.867,402.45512 190.474,402.45512 190.972,401.91512 C 191.564,401.26812 191.564,400.72912 190.972,400.29912 z M 15.805699,391.40812 z M 15.616299,391.40812 C 14.646999,389.68312 13.852299,388.33613 13.245699,387.36712 C 13.852299,387.36712 14.700299,388.39112 15.805699,390.43713 C 15.805699,390.86912 15.737699,391.19213 15.616299,391.40812 z M 73.273699,369.40912 C 72.546999,369.61112 69.730999,371.12013 64.853699,373.92112 C 66.322999,369.50412 68.249699,366.25713 70.620299,364.15613 C 73.004299,362.05313 74.984299,359.34712 76.573699,356.00513 C 77.058999,355.89712 77.853699,356.22113 78.945699,356.97512 C 80.049699,357.72912 80.292299,358.70012 79.685699,359.87212 L 78.581699,362.62013 C 77.853699,364.12812 76.992299,365.96012 76.021699,368.11612 C 74.917699,368.76312 74.001699,369.18013 73.273699,369.40912 z M 136.427,403.53212 C 135.928,402.66912 135.202,401.75312 134.231,400.78412 C 134.231,400.35212 134.716,399.27512 135.686,397.55112 C 136.427,399.27512 136.791,400.99912 136.791,402.72412 C 136.67,402.93912 136.548,403.20812 136.427,403.53212 z M 130.015,391.56912 C 130.378,391.89213 130.81,392.00013 131.295,391.89213 C 132.156,392.43212 132.938,393.07912 133.679,393.83212 C 133.666,394.15613 133.666,394.53312 133.679,394.96413 C 133.679,395.61112 133.368,396.50013 132.763,397.63112 C 132.156,398.76312 131.792,399.59912 131.658,400.13713 C 130.203,400.13713 129.287,399.54412 128.923,398.35912 C 128.667,397.60412 128.128,397.38913 127.267,397.71212 C 126.418,397.92813 126.108,398.35912 126.351,399.00513 C 127.212,401.59212 129.166,402.72412 132.211,402.40012 C 133.072,403.47712 133.988,404.66313 134.959,405.95612 C 133.854,407.14312 132.211,408.86712 130.015,411.12912 C 128.183,410.69912 127.091,410.37513 126.727,410.16012 C 125.987,409.83613 125.138,409.08112 124.155,407.89612 C 121.595,405.09512 120.315,401.21512 120.315,396.25713 C 120.302,396.04113 120.302,395.82713 120.315,395.61112 C 120.679,395.07213 122.268,392.91613 125.071,389.14413 C 127.63,390.11513 129.287,390.92313 130.015,391.56912 z M 58.077699,450.57313 C 56.124299,450.35713 54.050999,449.33313 51.854999,447.50113 C 51.369699,446.96313 50.817699,446.90913 50.210999,447.34013 C 49.241699,447.87913 47.650999,448.74113 45.456299,449.92713 C 44.728299,450.24913 43.260299,449.76513 41.064299,448.47213 C 40.821699,448.25613 40.512299,448.20313 40.148299,448.31113 L 33.008299,449.44113 C 32.158999,449.54913 31.849699,449.98013 32.092299,450.73513 C 32.213699,451.48913 32.698999,451.81213 33.560299,451.70513 L 40.148299,450.57313 C 42.949699,452.18913 45.145699,452.67513 46.734999,452.02813 C 47.705699,451.59713 49.052299,450.84313 50.762999,449.76513 C 53.201699,451.70513 55.585699,452.72813 57.902999,452.83613 C 58.752299,452.94413 59.236299,452.62113 59.357699,451.86713 C 59.357699,451.11213 58.940299,450.68113 58.077699,450.57313 z"
       inkscape:connector-curvature="0"
       style="fill:#000000;stroke:#000000;stroke-width:2.66667008" />
  </g>
</svg>
