<?xml version="1.0" encoding="UTF-8" standalone="no"?>
<!-- Created with Inkscape (http://www.inkscape.org/) -->

<svg
   xmlns:dc="http://purl.org/dc/elements/1.1/"
   xmlns:cc="http://creativecommons.org/ns#"
   xmlns:rdf="http://www.w3.org/1999/02/22-rdf-syntax-ns#"
   xmlns:svg="http://www.w3.org/2000/svg"
   xmlns="http://www.w3.org/2000/svg"
   xmlns:sodipodi="http://sodipodi.sourceforge.net/DTD/sodipodi-0.dtd"
   xmlns:inkscape="http://www.inkscape.org/namespaces/inkscape"
   width="240"
   height="160"
   id="svg3249"
   version="1.1"
   inkscape:version="0.48.0 r9654"
   sodipodi:docname="BSL letter I.svg">
  <defs
     id="defs3251" />
  <sodipodi:namedview
     id="base"
     pagecolor="#ffffff"
     bordercolor="#666666"
     borderopacity="1.0"
     inkscape:pageopacity="0.0"
     inkscape:pageshadow="2"
     inkscape:zoom="0.77472527"
     inkscape:cx="105.7305"
     inkscape:cy="240"
     inkscape:current-layer="layer1"
     inkscape:document-units="px"
     showgrid="false"
     inkscape:window-width="1024"
     inkscape:window-height="745"
     inkscape:window-x="-8"
     inkscape:window-y="-8"
     inkscape:window-maximized="1" />
  <metadata
     id="metadata3254">
    <rdf:RDF>
      <cc:Work
         rdf:about="">
        <dc:format>image/svg+xml</dc:format>
        <dc:type
           rdf:resource="http://purl.org/dc/dcmitype/StillImage" />
        <dc:title></dc:title>
      </cc:Work>
    </rdf:RDF>
  </metadata>
  <g
     id="layer1"
     inkscape:label="Layer 1"
     inkscape:groupmode="layer"
     transform="translate(0,-320)">
    <text
       xml:space="preserve"
       style="font-size:40px;font-style:normal;font-weight:normal;line-height:125%;letter-spacing:0px;word-spacing:0px;fill:#000000;fill-opacity:1;stroke:none;font-family:Sans"
       x="172.96454"
       y="23.177303"
       id="text3264"
       sodipodi:linespacing="125%"
       transform="translate(0,320)"><tspan
         sodipodi:role="line"
         id="tspan3266"
         x="172.96454"
         y="23.177303" /></text>
    <text
       xml:space="preserve"
       style="font-size:64px;font-style:normal;font-weight:bold;line-height:125%;letter-spacing:0px;word-spacing:0px;fill:#000000;fill-opacity:1;stroke:none;font-family:Sans;-inkscape-font-specification:Sans Bold"
       x="179.41844"
       y="55.446808"
       id="text3268"
       sodipodi:linespacing="125%"
       transform="translate(0,320)"><tspan
         sodipodi:role="line"
         id="tspan3270"
         x="179.41844"
         y="55.446808" /></text>
    <flowRoot
       xml:space="preserve"
       id="flowRoot3272"
       style="font-size:64px;font-style:normal;font-weight:bold;line-height:125%;letter-spacing:0px;word-spacing:0px;fill:#404040;fill-opacity:1;stroke:none;font-family:Sans;-inkscape-font-specification:Sans Bold"
       transform="translate(16.780142,313.5461)"><flowRegion
         id="flowRegion3274"><rect
           id="rect3276"
           width="73.574471"
           height="67.120567"
           x="160.05673"
           y="15.432623"
           style="fill:#404040;fill-opacity:1" /></flowRegion><flowPara
         id="flowPara3278">J</flowPara></flowRoot>    <path
       id="dp_path072"
       d="M 174.10727,432.62199 C 174.22727,433.37698 173.86427,433.80798 173.01527,433.91598 C 169.59427,434.13198 164.93227,433.94198 159.01927,433.34998 C 153.09127,432.75698 149.40027,431.97598 147.94627,431.00599 C 147.20427,430.57399 146.35627,430.41298 145.37227,430.52099 C 144.16027,430.73699 142.93427,430.89798 141.72227,431.00599 C 138.90627,431.11398 136.41427,430.73699 134.21827,429.87398 C 133.23527,429.55198 132.75027,429.38898 132.75027,429.38898 C 131.76727,428.52798 129.88027,427.39599 127.07927,425.99398 C 125.48827,425.67198 123.17227,423.78499 120.11427,420.33698 C 119.26627,419.36598 118.29527,418.39698 117.19127,417.42598 C 116.46327,417.21198 115.72227,416.56498 114.99527,415.48798 C 114.26727,414.40898 113.95827,413.43998 114.07927,412.57698 C 114.20027,409.77598 114.80627,407.88898 115.91127,406.91999 C 116.39627,406.48798 117.19127,406.21799 118.29527,406.11199 C 116.58427,402.66198 116.03227,399.10598 116.63827,395.44198 C 117.00227,393.50198 118.28227,391.88498 120.47827,390.59198 C 121.33927,390.05298 122.43127,389.72999 123.77827,389.62199 C 118.53827,384.98798 115.35927,381.86199 114.25427,380.24598 L 113.89027,379.76099 C 113.52627,379.11398 112.43527,378.30598 110.60327,377.33698 C 106.09027,376.15198 102.91127,374.48098 101.07927,372.32498 C 100.95827,372.10999 100.59427,371.94798 99.98827,371.83998 L 98.88327,371.67798 L 96.32327,371.03198 C 94.248272,370.38498 91.743272,369.73798 88.820272,369.09198 C 87.594272,368.87698 86.556272,368.01398 85.708272,366.50598 C 81.195272,381.70099 77.100272,394.95698 73.450272,406.27298 L 73.450272,406.27298 C 74.176272,406.91999 74.662272,407.13399 74.904272,406.91999 C 75.282272,406.59598 75.860272,405.51798 76.642272,403.68598 C 77.436272,401.85398 78.447272,400.23699 79.659272,398.83698 C 80.279272,398.29798 81.007272,397.43598 81.868272,396.24998 L 84.428272,390.91598 C 85.156272,388.54499 85.951272,387.19698 86.799272,386.87398 C 87.055272,386.65799 88.026272,385.20398 89.736272,382.50899 L 90.827272,381.05398 C 91.204272,380.40799 91.595272,379.14198 92.026272,377.25599 C 92.444272,375.36998 93.643272,374.21198 95.596272,373.77998 C 98.15527,373.24098 99.86727,373.67298 100.71527,375.07298 L 100.90427,375.39698 C 101.51027,376.15198 101.82027,377.65999 101.82027,379.92398 C 101.82027,384.01798 100.90427,387.14398 99.07227,389.29999 L 97.96727,390.75399 C 94.923272,400.12998 92.848272,405.51798 91.743272,406.91999 C 91.259272,407.67398 90.774272,408.21299 90.288272,408.53598 C 89.911272,410.04499 89.547272,411.39198 89.184272,412.57698 C 90.167272,411.82198 91.690272,410.52898 93.764272,408.69698 C 93.643272,408.58998 93.575272,408.48199 93.575272,408.37398 C 93.588272,408.26599 93.588272,408.15799 93.575272,408.04999 C 93.696272,407.61998 94.128272,407.24199 94.855272,406.91999 C 96.93027,406.27298 98.73527,405.05998 100.25827,403.28198 C 101.77927,401.50399 102.97927,400.12998 103.82727,399.15999 L 107.30327,396.08898 C 107.42427,395.98098 107.54627,395.92598 107.66627,395.92598 C 109.25627,395.27999 110.72427,396.03398 112.05827,398.18998 C 112.67827,399.15999 112.97427,400.12998 112.97427,401.09999 C 112.97427,402.71698 112.00427,404.92499 110.05127,407.72798 L 107.30327,411.28398 C 106.81827,411.92998 106.14427,412.76599 105.29527,413.78999 C 104.43427,414.81298 101.14627,418.23598 95.407272,424.05399 L 85.344272,441.99798 C 84.738272,443.07598 82.408272,445.95799 78.394272,450.64599 C 74.366272,455.33399 71.982272,457.97599 71.254272,458.56799 C 70.512272,459.16099 69.839272,460.91199 69.232272,463.82199 C 68.870272,465.97699 68.195272,466.94799 67.226272,466.73199 C 66.484272,466.51599 66.122272,466.13799 66.122272,465.59999 C 66.122272,465.70799 66.310272,464.92599 66.674272,463.25599 C 67.038272,461.58499 67.347272,460.37299 67.590272,459.61799 C 67.954272,458.32499 68.532272,457.40899 69.327272,456.86999 C 70.122272,456.33199 72.466272,453.79999 76.372272,449.27298 C 80.279272,444.74598 82.530272,441.99798 83.148272,441.02898 C 83.270272,440.59698 85.344272,436.71799 89.372272,429.38898 L 93.023272,422.76099 C 93.144272,422.76099 93.212272,422.70799 93.212272,422.59998 C 96.13527,419.68998 99.43527,416.34898 103.09927,412.57698 C 103.46327,412.14599 104.13627,411.28398 105.10727,409.98998 L 107.85527,406.43399 C 109.56627,404.06399 110.41527,402.28499 110.41527,401.09999 C 110.41527,399.80598 109.86227,398.83698 108.77127,398.18998 L 105.83427,400.77698 C 104.01527,402.71698 102.85827,404.00899 102.35927,404.65598 C 100.90427,406.27298 98.95127,407.67398 96.49927,408.85999 C 96.37827,409.50599 95.839272,410.20599 94.855272,410.96099 C 93.266272,412.25399 91.016272,414.24798 88.079272,416.94198 C 87.958272,417.04999 87.783272,417.15698 87.540272,417.26498 C 85.708272,417.80399 84.792272,417.37298 84.792272,415.97198 C 84.792272,415.54098 85.062272,414.94798 85.614272,414.19399 C 86.166272,413.43998 86.920272,411.12199 87.904272,407.24199 C 88.026272,406.81199 88.390272,406.54198 88.995272,406.43399 C 89.130272,406.21799 89.306272,405.94899 89.547272,405.62598 C 90.410272,404.44098 92.242272,399.59198 95.044272,391.07698 C 95.058272,390.96898 95.058272,390.86098 95.044272,390.75399 C 95.044272,390.10798 95.407272,389.51398 96.13527,388.97598 L 96.87627,388.00599 C 98.33127,386.28098 99.07227,383.58799 99.07227,379.92398 C 99.07227,378.08998 98.95127,376.95998 98.70827,376.52799 L 98.51927,376.20498 C 98.27627,375.98898 98.15527,375.88099 98.15527,375.88099 C 97.79227,375.77398 97.14627,375.82798 96.23027,376.04398 C 95.314272,376.25798 94.802272,376.85198 94.680272,377.82098 C 94.182272,379.76099 93.643272,381.26998 93.036272,382.34799 L 92.120272,383.64099 C 90.046272,386.87398 88.699272,388.59799 88.092272,388.81399 C 87.971272,389.02898 87.594272,389.94498 86.988272,391.56199 L 86.988272,391.72398 L 84.240272,397.05798 C 83.027272,398.35198 81.316272,400.82998 79.120272,404.49398 C 78.636272,405.67998 77.774272,407.08099 76.562272,408.69698 C 75.335272,409.55998 74.055272,409.55998 72.708272,408.69698 C 68.438272,421.52198 65.394272,429.87398 63.562272,433.75399 C 60.503272,440.11298 56.179272,443.39999 50.562272,443.61398 C 46.534272,443.72198 43.300272,442.96898 40.863272,441.35199 L 40.310272,440.86598 C 37.023272,438.60398 35.380272,435.53198 35.380272,431.65298 L 35.380272,431.32898 C 35.500272,428.95799 35.743272,426.69598 36.107272,424.53999 L 32.443272,423.73199 C 31.836272,423.62398 31.474272,423.30098 31.352272,422.76099 L 31.352272,422.59998 C 31.352272,422.16898 31.595272,421.84498 32.079272,421.62998 L 42.695272,415.80998 C 43.059272,415.59398 43.422272,415.54098 43.799272,415.64898 C 44.163272,415.75698 44.406272,415.97198 44.527272,416.29598 L 50.198272,426.15598 C 50.440272,426.58799 50.387272,426.99199 50.023272,427.36898 C 49.646272,427.74598 49.160272,427.88099 48.555272,427.77298 L 43.975272,426.47999 C 43.368272,429.28098 43.179272,431.22098 43.422272,432.29999 C 43.920272,434.23798 45.012272,435.53198 46.723272,436.17798 C 48.070272,436.82498 49.592272,436.77198 51.303272,436.01698 C 52.151272,435.58599 53.067272,434.93998 54.038272,434.07698 C 58.066272,430.52099 66.552272,405.57198 79.484272,359.23198 C 79.120272,359.87798 78.758272,360.57798 78.380272,361.33299 C 77.288272,364.78098 76.440272,367.25998 75.820272,368.76898 C 75.578272,369.30798 75.214272,370.38498 74.730272,372.00198 C 74.110272,374.15698 73.692272,375.44998 73.450272,375.88099 C 72.830272,376.95998 71.066272,381.32399 68.142272,388.97598 C 67.400272,390.91598 65.636272,395.44198 62.820272,402.55399 C 62.699272,402.87798 62.456272,403.09299 62.094272,403.20099 L 61.178272,403.52498 C 60.207272,403.73998 59.655272,403.41698 59.534272,402.55399 C 59.304272,401.26099 59.304272,400.23699 59.534272,399.48398 C 59.655272,399.15999 59.776272,397.32798 59.898272,393.98598 C 60.140272,390.96898 60.262272,389.13698 60.262272,388.48998 C 61.002272,383.64099 61.056272,380.08498 60.450272,377.82098 C 60.086272,376.85198 60.383272,375.01998 61.366272,372.32498 C 62.591272,368.22999 62.834272,365.04999 62.094272,362.78798 C 61.851272,362.14099 61.056272,361.60198 59.722272,361.17199 L 58.982272,361.00899 C 58.618272,360.90098 58.308272,360.90098 58.066272,361.00899 C 58.066272,361.22499 57.944272,361.65598 57.702272,362.30199 C 56.355272,364.56598 54.415272,371.08599 51.842272,381.86199 C 49.888272,390.16098 48.918272,394.68798 48.918272,395.44198 C 48.918272,396.51998 48.191272,398.62098 46.723272,401.74598 L 46.170272,402.87798 C 45.686272,404.70998 44.836272,406.86498 43.611272,409.34398 C 43.004272,409.88399 41.603272,410.96099 39.394272,412.57698 C 39.031272,412.79298 38.667272,412.90098 38.303272,412.90098 C 37.939272,412.79298 37.630272,412.63198 37.387272,412.41598 C 35.555272,410.04499 33.359272,407.02799 30.799272,403.36199 L 30.436272,402.55399 C 29.452272,400.50798 27.620272,397.70498 24.939272,394.14898 C 22.986272,392.42398 21.032272,391.88498 19.079272,392.53198 C 21.518272,393.50198 23.054272,395.33398 23.660272,398.02898 C 23.902272,399.21398 23.660272,400.34498 22.932272,401.42398 C 22.676272,401.85398 22.259272,402.01599 21.639272,401.90799 C 22.623272,404.17198 23.228272,406.21799 23.471272,408.04999 C 23.471272,409.02099 23.350272,409.98998 23.107272,410.96099 C 22.864272,411.92998 22.744272,412.63198 22.744272,413.06199 L 22.771272,414.51698 C 22.771272,415.37998 22.758272,416.13399 22.744272,416.77999 C 22.864272,417.21198 23.107272,418.01998 23.471272,419.20498 C 24.212272,421.57598 24.455272,423.02999 24.212272,423.56998 C 24.698272,424.64798 25.303272,425.94098 26.044272,427.44899 C 27.499272,430.57399 29.156272,435.15598 30.975272,441.18998 C 31.231272,443.12998 32.752272,445.06998 35.555272,447.00998 C 35.919272,447.33299 36.592272,447.89798 37.575272,448.70799 C 38.546272,449.51599 39.528272,450.29698 40.499272,451.05198 C 41.846272,452.12899 42.331272,452.93699 41.967272,453.47598 C 41.603272,454.12199 41.051272,454.28399 40.310272,453.96099 C 39.462272,453.52999 37.994272,452.39798 35.919272,450.56598 L 35.555272,450.40499 C 35.191272,452.02099 34.827272,453.26099 34.464272,454.12199 C 34.584272,455.21399 34.154272,456.99199 33.184272,459.46999 C 32.564272,460.22499 31.474272,462.05699 29.883272,464.97999 L 29.143272,466.11199 C 28.779272,466.64999 28.536272,467.02799 28.415272,467.24399 C 27.930272,467.88999 27.324272,467.99799 26.583272,467.56599 C 25.855272,467.13599 25.735272,466.59699 26.219272,465.94999 C 26.340272,465.84199 26.771272,465.14199 27.499272,463.84899 C 29.210272,460.93799 30.368272,459.05299 30.975272,458.18999 C 30.975272,457.11299 31.352272,455.44199 32.079272,453.17998 C 32.443272,452.31698 32.874272,450.75399 33.359272,448.47798 C 30.315272,446.10798 28.658272,443.73598 28.415272,441.36498 C 28.294272,440.28798 27.256272,437.48499 25.303272,432.95998 C 24.334272,430.48098 23.727272,428.86398 23.471272,428.10898 C 23.471272,428.00198 23.054272,427.13998 22.191272,425.52398 C 21.707272,424.44498 21.518272,423.63698 21.639272,423.09799 L 21.639272,422.93699 C 21.639272,422.61298 21.370272,421.53598 20.818272,419.70398 C 20.279272,417.87199 19.995272,416.46998 19.995272,415.50098 C 19.995272,415.50098 20.063272,415.06899 20.184272,414.20799 L 20.184272,413.07599 C 20.184272,412.64498 20.279272,412.05199 20.454272,411.28398 C 20.642272,410.52898 20.736272,409.93699 20.736272,409.50599 C 20.736272,406.59598 19.942272,403.68598 18.352272,400.77698 L 15.052272,395.44198 C 14.567272,394.79598 14.324272,394.14898 14.324272,393.50198 C 14.324272,392.20898 15.119272,391.29298 16.708272,390.75399 C 18.284272,390.21598 19.699272,389.94498 20.911272,389.94498 C 22.864272,389.94498 24.846272,390.80798 26.866272,392.53198 C 28.874272,394.25698 30.920272,397.32798 32.995272,401.74598 L 33.184272,402.39298 C 33.668272,403.36199 35.500272,405.89599 38.667272,409.98998 C 39.515272,409.45198 40.499272,408.69698 41.590272,407.72798 C 41.846272,407.61998 42.142272,406.86498 42.506272,405.46498 C 42.748272,404.70998 43.179272,403.52498 43.799272,401.90799 L 44.338272,400.77698 C 45.686272,397.97398 46.359272,396.16898 46.359272,395.36098 C 46.359272,394.55298 47.328272,389.89198 49.282272,381.37798 C 51.478272,371.56998 53.499272,364.94399 55.318272,361.49398 C 55.318272,360.41698 55.722272,359.60898 56.516272,359.06899 C 57.311272,358.52998 58.375272,358.42199 59.722272,358.74598 L 60.450272,358.90799 C 61.796272,359.33998 62.740272,359.71598 63.292272,360.03999 C 63.831272,360.36199 64.288272,361.06399 64.652272,362.14099 C 65.515272,364.83599 65.206272,368.44498 63.750272,372.97198 C 63.010272,375.23598 62.712272,376.63599 62.834272,377.17398 C 63.076272,377.71398 63.198272,379.49199 63.198272,382.50899 C 63.198272,383.58799 63.010272,387.46598 62.646272,394.14898 L 62.456272,396.73598 L 65.758272,388.32898 C 68.680272,380.46198 70.459272,375.98898 71.066272,374.91198 C 71.186272,374.58898 71.618272,373.40198 72.344272,371.35598 C 72.587272,370.49298 72.924272,369.41598 73.355272,368.12199 C 73.786272,366.82898 74.662272,364.29699 76.008272,360.52498 C 77.222272,357.07599 78.932272,355.35198 81.128272,355.35198 C 82.475272,355.35198 83.755272,355.78198 84.980272,356.64498 C 85.587272,356.96799 85.762272,357.39998 85.519272,357.93798 L 86.799272,358.26099 L 94.491272,360.36199 C 94.855272,359.93199 95.354272,359.71598 95.960272,359.71598 C 105.59227,361.33299 111.21027,362.40999 112.79927,362.94899 C 113.52627,363.05699 114.68427,363.21799 116.27527,363.43399 C 117.24427,363.64998 118.47027,364.45799 119.93927,365.85999 C 122.13527,366.61298 124.08827,367.47598 125.79927,368.44498 C 126.52627,369.41598 127.73927,370.43998 129.45027,371.51698 C 129.81427,371.51698 130.12327,371.51698 130.36627,371.51698 C 131.10627,371.30098 132.22427,371.67798 133.76027,372.64898 C 135.28227,373.61798 137.02027,374.69598 138.97427,375.88099 C 139.33827,375.88099 139.76827,375.93598 140.25427,376.04398 C 148.06727,376.47398 152.79527,376.85198 154.43927,377.17398 C 156.08227,377.49798 157.57827,378.41398 158.92427,379.92398 C 167.22327,383.26398 171.79027,385.41999 172.65127,386.38898 C 172.89427,386.60499 173.01527,386.81998 173.01527,387.03598 C 173.01527,387.46598 172.82727,387.78999 172.46327,388.00599 C 171.85627,388.43699 171.21027,388.32898 170.55027,387.68199 C 169.87627,387.03598 167.55927,385.95799 163.58627,384.44899 C 159.62427,382.94098 157.43027,381.94399 156.99827,381.45799 C 156.56727,380.97398 155.50327,380.29999 153.79227,379.43798 C 152.70027,379.22198 149.58827,378.95298 144.45627,378.62998 C 144.59127,379.06098 144.45627,379.38399 144.09227,379.59999 C 143.48627,380.13798 142.88027,380.13798 142.26027,379.59999 C 141.41227,378.84498 140.49627,378.46799 139.52627,378.46799 C 139.27027,378.46799 139.09527,378.36098 138.97427,378.14498 L 138.61027,378.14498 C 137.14227,377.28198 135.13427,376.09698 132.56227,374.58898 C 131.71227,374.15698 131.16027,373.88798 130.91827,373.77998 C 130.31127,373.88798 129.57127,373.88798 128.72227,373.77998 C 127.73927,373.56498 126.95827,373.07998 126.33827,372.32498 C 125.36727,371.35598 124.69427,370.70898 124.33027,370.38498 C 122.74027,369.52398 120.85527,368.71398 118.65927,367.96099 C 118.29527,367.85298 117.77027,367.42199 117.09627,366.66798 C 116.42327,365.91298 115.69527,365.56199 114.90027,365.61699 C 114.10627,365.66999 113.10827,365.50899 111.88327,365.13198 C 110.65627,364.75399 105.78027,363.81199 97.23927,362.30199 C 97.11927,362.62598 96.93027,362.84098 96.68727,362.94899 C 95.475272,363.48798 93.454272,364.24199 90.652272,365.21299 C 89.790272,365.42798 88.820272,365.31998 87.715272,364.88898 C 88.214272,366.07399 88.752272,366.72098 89.372272,366.82898 C 89.979272,366.93699 92.538272,367.58398 97.05127,368.76898 L 99.43527,369.41598 L 100.35127,369.41598 C 100.95827,369.52398 101.94227,370.00798 103.27527,370.86998 C 104.74327,372.70198 107.42427,374.10398 111.33127,375.07298 C 113.28427,375.61199 114.92727,376.79798 116.27527,378.62998 L 116.46327,378.95298 C 117.07027,379.92398 119.31927,382.23998 123.22627,385.90398 C 127.86027,390.10798 131.09227,392.58599 132.92427,393.34098 C 133.30227,393.44798 133.54427,393.71698 133.66627,394.14898 C 134.15127,396.30399 134.70327,398.24398 135.31027,399.96799 C 136.03627,400.18399 136.34727,400.61398 136.22627,401.26099 C 136.23927,401.36898 136.23927,401.52999 136.22627,401.74598 C 136.22627,401.85398 136.27927,401.96198 136.41427,402.06998 C 137.38427,402.71698 137.69427,403.84799 137.31627,405.46498 C 136.59027,408.04999 135.12027,409.55998 132.92427,409.98998 C 131.10627,410.31399 128.29127,409.93699 124.50627,408.85999 L 123.96727,408.69698 C 120.90827,407.72798 118.83427,407.72798 117.74327,408.69698 C 117.24427,409.12899 116.88027,410.47598 116.63827,412.73798 C 117.00227,414.24798 117.52727,415.10999 118.20027,415.32498 C 118.86027,415.54098 120.18227,416.72598 122.13527,418.88198 C 123.46827,420.38998 125.30027,422.00798 127.61827,423.73199 C 129.32827,424.16198 131.16027,425.13298 133.11427,426.64099 C 133.47827,426.96498 133.69227,427.15298 133.76027,427.20799 C 133.81427,427.26099 134.33927,427.44899 135.31027,427.77298 C 137.14227,428.52798 139.27027,428.84998 141.72227,428.74199 C 142.69127,428.63399 143.79627,428.47299 145.00827,428.25798 C 146.71927,427.93399 148.24227,428.25798 149.58827,429.22798 C 150.55927,429.87398 153.83227,430.49398 159.38327,431.08599 C 164.93227,431.67998 169.35127,431.81399 172.65127,431.48998 C 173.50027,431.48998 173.98627,431.86798 174.10727,432.62199 z M 92.295272,362.14099 L 87.352272,360.84799 L 87.176272,361.65598 C 88.268272,362.62598 89.251272,363.05699 90.100272,362.94899 C 90.706272,362.84098 91.447272,362.57198 92.295272,362.14099 z M 134.75627,403.84799 C 134.63627,403.73998 134.51527,403.63298 134.39427,403.52498 C 133.66627,403.95599 132.80327,404.27999 131.83427,404.49398 C 132.31927,405.78798 132.50727,406.86498 132.38627,407.72798 C 133.23527,407.51198 133.90827,406.81199 134.39427,405.62598 C 134.87827,404.76398 134.99927,404.17198 134.75627,403.84799 z M 133.11427,401.42398 C 132.50727,399.91398 131.83427,397.81298 131.09227,395.11798 C 129.88027,394.47198 128.29127,393.39398 126.33827,391.88498 C 125.36727,391.77799 123.89927,391.99298 121.94627,392.53198 C 120.35627,393.39398 119.44027,394.47198 119.19827,395.76498 C 119.07627,396.84198 119.23827,398.64798 119.65627,401.18098 C 120.08727,403.71299 120.61227,405.30199 121.21927,405.94899 C 122.80827,406.05699 124.02027,406.21799 124.88327,406.43399 L 125.42227,406.59598 C 127.25427,407.13399 128.72227,407.51198 129.81427,407.72798 C 129.84027,407.61998 129.84027,407.51198 129.81427,407.40398 C 129.81427,406.75798 129.57127,405.78798 129.08627,404.49398 C 126.89027,404.17198 124.69427,403.25599 122.49827,401.74598 C 121.77127,401.20799 121.65027,400.66898 122.13527,400.12998 C 122.74027,399.48398 123.41427,399.42899 124.14227,399.96799 C 126.09527,401.26099 127.99527,402.01599 129.81427,402.23199 C 129.94827,402.23199 130.12327,402.23199 130.36627,402.23199 C 131.59127,402.23199 132.50727,401.96198 133.11427,401.42398 z M 84.792272,360.20099 L 82.044272,359.71598 C 68.991272,406.59598 60.262272,431.97598 55.870272,435.85598 C 54.778272,436.82498 53.620272,437.57998 52.394272,438.11798 C 49.955272,439.19698 47.692272,439.30399 45.618272,438.44198 C 43.059272,437.36398 41.468272,435.47798 40.863272,432.78398 C 40.634272,431.59799 40.634272,429.87398 40.863272,427.61199 C 41.226272,424.70098 42.022272,423.46198 43.247272,423.89298 L 43.422272,423.89298 L 46.359272,424.70098 L 42.883272,418.39698 L 36.107272,422.11398 L 38.115272,422.59998 C 38.734272,422.70799 39.031272,423.08498 39.031272,423.73199 C 39.031272,424.48598 38.882272,425.75198 38.572272,427.52999 C 38.276272,429.30899 38.115272,430.62899 38.115272,431.48998 L 38.115272,431.65298 C 38.115272,434.77798 39.340272,437.20198 41.779272,438.92598 L 42.695272,439.57298 C 44.527272,440.86598 47.086272,441.45998 50.387272,441.35199 C 54.899272,441.13599 58.496272,438.28098 61.178272,432.78398 C 64.963272,424.91698 72.830272,400.72198 84.792272,360.20099 z M 21.100272,398.51298 C 20.615272,396.24998 19.390272,394.90398 17.436272,394.47198 L 20.736272,399.96799 C 21.100272,399.42899 21.222272,398.94498 21.100272,398.51298 z"
       inkscape:connector-curvature="0"
       style="fill:#000000;stroke:#000000;stroke-width:2.66667008" />
  </g>
</svg>
