<?xml version="1.0" encoding="UTF-8" standalone="no"?>
<!-- Created with Inkscape (http://www.inkscape.org/) -->

<svg
   xmlns:dc="http://purl.org/dc/elements/1.1/"
   xmlns:cc="http://creativecommons.org/ns#"
   xmlns:rdf="http://www.w3.org/1999/02/22-rdf-syntax-ns#"
   xmlns:svg="http://www.w3.org/2000/svg"
   xmlns="http://www.w3.org/2000/svg"
   xmlns:sodipodi="http://sodipodi.sourceforge.net/DTD/sodipodi-0.dtd"
   xmlns:inkscape="http://www.inkscape.org/namespaces/inkscape"
   width="240"
   height="160"
   id="svg3249"
   version="1.1"
   inkscape:version="0.48.0 r9654"
   sodipodi:docname="BSL letter J.svg">
  <defs
     id="defs3251" />
  <sodipodi:namedview
     id="base"
     pagecolor="#ffffff"
     bordercolor="#666666"
     borderopacity="1.0"
     inkscape:pageopacity="0.0"
     inkscape:pageshadow="2"
     inkscape:zoom="0.77472527"
     inkscape:cx="105.7305"
     inkscape:cy="240"
     inkscape:current-layer="layer1"
     inkscape:document-units="px"
     showgrid="false"
     inkscape:window-width="1024"
     inkscape:window-height="745"
     inkscape:window-x="-8"
     inkscape:window-y="-8"
     inkscape:window-maximized="1" />
  <metadata
     id="metadata3254">
    <rdf:RDF>
      <cc:Work
         rdf:about="">
        <dc:format>image/svg+xml</dc:format>
        <dc:type
           rdf:resource="http://purl.org/dc/dcmitype/StillImage" />
        <dc:title></dc:title>
      </cc:Work>
    </rdf:RDF>
  </metadata>
  <g
     id="layer1"
     inkscape:label="Layer 1"
     inkscape:groupmode="layer"
     transform="translate(0,-320)">
    <text
       xml:space="preserve"
       style="font-size:40px;font-style:normal;font-weight:normal;line-height:125%;letter-spacing:0px;word-spacing:0px;fill:#000000;fill-opacity:1;stroke:none;font-family:Sans"
       x="172.96454"
       y="23.177303"
       id="text3264"
       sodipodi:linespacing="125%"
       transform="translate(0,320)"><tspan
         sodipodi:role="line"
         id="tspan3266"
         x="172.96454"
         y="23.177303" /></text>
    <text
       xml:space="preserve"
       style="font-size:64px;font-style:normal;font-weight:bold;line-height:125%;letter-spacing:0px;word-spacing:0px;fill:#000000;fill-opacity:1;stroke:none;font-family:Sans;-inkscape-font-specification:Sans Bold"
       x="179.41844"
       y="55.446808"
       id="text3268"
       sodipodi:linespacing="125%"
       transform="translate(0,320)"><tspan
         sodipodi:role="line"
         id="tspan3270"
         x="179.41844"
         y="55.446808" /></text>
    <flowRoot
       xml:space="preserve"
       id="flowRoot3272"
       style="font-size:64px;font-style:normal;font-weight:bold;line-height:125%;letter-spacing:0px;word-spacing:0px;fill:#404040;fill-opacity:1;stroke:none;font-family:Sans;-inkscape-font-specification:Sans Bold"
       transform="translate(16.780142,313.5461)"><flowRegion
         id="flowRegion3274"><rect
           id="rect3276"
           width="73.574471"
           height="67.120567"
           x="160.05673"
           y="15.432623"
           style="fill:#404040;fill-opacity:1" /></flowRegion><flowPara
         id="flowPara3278">K</flowPara></flowRoot>    <path
       id="dp_path073"
       d="M 157.58967,377.25229 C 155.02967,375.20429 151.60867,373.3193 147.33767,371.59429 C 143.67367,370.0863 141.11367,368.4683 139.64567,366.74429 L 139.10767,366.2593 C 138.24467,365.2903 135.49667,364.3743 130.86167,363.51129 C 126.71367,362.65029 123.72367,362.2183 121.90467,362.2183 C 120.79967,362.2183 118.41567,361.89529 114.76467,361.24829 L 106.15667,359.63229 C 99.811674,358.44729 91.701674,357.90729 81.813674,358.01529 L 80.708674,358.01529 C 78.512674,358.01529 77.112674,358.50029 76.505674,359.47029 L 75.953674,359.95529 C 75.711674,360.3863 74.861674,361.08729 73.393674,362.05629 L 72.113674,362.86429 L 69.919674,364.1583 C 68.692674,365.02029 67.048674,366.0983 64.975674,367.3913 L 54.548674,374.66629 C 54.292674,374.88229 53.752674,375.3123 52.891674,375.95929 C 53.255674,374.55829 53.752674,371.4873 54.359674,366.74429 C 54.965674,362.3263 55.275674,359.60429 55.275674,358.58229 C 55.275674,357.55829 55.396674,356.18329 55.639674,354.45929 L 55.625674,352.84229 C 55.625674,352.62729 55.639674,352.41129 55.639674,352.19629 C 55.639674,350.36329 55.127674,349.1243 54.089674,348.47829 C 53.052674,347.8313 51.920674,347.23829 50.695674,346.6993 C 49.361674,345.7303 47.947674,345.7303 46.492674,346.6993 C 46.249674,346.8073 46.115674,347.0233 46.115674,347.34629 L 45.023674,353.32729 L 44.835674,353.32729 C 44.107674,353.43529 43.744674,353.8123 43.744674,354.45929 C 43.729674,354.45929 43.729674,354.51229 43.729674,354.62029 L 43.744674,354.78229 C 43.623674,354.89029 43.501674,354.99829 43.380674,355.10629 C 39.716674,366.53029 37.884674,373.10329 37.884674,374.82729 C 37.884674,376.12029 37.763674,377.19829 37.520674,378.06029 C 37.507674,378.16829 37.507674,378.2763 37.507674,378.3843 L 37.520674,378.3843 C 38.247674,389.8073 38.611674,395.8433 38.611674,396.49029 C 38.611674,396.9203 38.368674,397.72829 37.884674,398.91429 L 35.135674,402.4703 C 34.651674,403.54829 33.856674,404.89529 32.764674,406.51129 C 31.660674,407.2663 31.108674,408.93629 31.108674,411.5233 L 31.108674,412.49229 C 31.108674,413.03229 31.296674,414.54029 31.660674,417.01929 C 32.885674,427.79629 33.181674,434.20829 32.576674,436.25629 C 31.969674,439.16629 31.228674,443.26229 30.380674,448.5423 C 30.259674,449.1883 30.568674,449.5663 31.296674,449.6743 C 32.024674,449.7823 32.455674,449.5123 32.576674,448.8663 C 32.940674,446.2793 33.680674,442.23829 34.772674,436.74229 C 35.377674,434.37029 35.081674,427.74229 33.856674,416.85829 C 33.492674,414.3793 33.303674,412.92429 33.303674,412.49229 L 33.303674,411.5233 C 33.303674,409.79929 33.545674,408.61429 34.044674,407.96729 C 35.015674,406.99629 35.661674,406.10729 35.957674,405.29929 C 36.267674,404.49129 36.536674,403.92629 36.779674,403.60229 L 37.695674,402.63229 C 37.573674,404.14029 37.452674,405.05629 37.331674,405.38029 L 37.331674,405.38029 C 36.968674,405.91929 37.088674,406.40429 37.708674,406.83529 C 38.315674,407.1583 38.867674,406.9703 39.352674,406.27029 C 39.837674,405.56829 40.079674,403.33229 40.079674,399.56029 C 40.564674,398.15929 40.820674,397.13629 40.820674,396.49029 C 40.820674,395.8433 40.443674,389.8073 39.716674,378.3843 C 39.959674,377.41429 40.079674,376.20229 40.079674,374.7473 C 40.079674,373.29129 41.912674,366.96029 45.576674,355.75229 L 45.939674,355.42829 L 47.583674,355.42829 C 47.947674,355.42829 48.256674,355.21429 48.499674,354.78229 L 51.611674,349.28629 C 52.957674,349.9323 53.564674,351.0643 53.443674,352.68029 L 53.255674,354.29829 C 53.133674,356.02229 53.079674,357.47629 53.079674,358.66229 C 53.079674,359.84729 52.743674,362.8383 52.068674,367.6343 C 51.395674,372.43029 50.883674,375.09629 50.520674,375.63529 L 50.695674,375.63529 C 50.573674,376.28229 50.264674,377.14429 49.779674,378.22229 C 49.536674,378.43829 49.415674,378.70729 49.415674,379.03129 C 49.415674,379.24629 49.415674,379.40729 49.415674,379.51529 C 50.156674,380.80829 50.520674,381.96729 50.520674,382.99129 C 50.520674,384.01529 51.180674,385.60429 52.527674,387.76029 C 53.012674,390.13129 53.617674,393.1483 54.359674,396.8123 C 54.237674,396.8123 54.171674,396.86629 54.171674,396.97429 C 54.292674,396.7593 54.427674,397.0283 54.548674,397.78229 L 54.911674,400.20729 C 54.911674,400.31529 54.965674,400.36829 55.087674,400.36829 C 58.144674,407.59029 60.771674,411.7393 62.967674,412.8163 C 63.695674,413.03229 64.785674,413.51629 66.253674,414.2713 C 69.555674,415.99529 71.629674,416.85829 72.477674,416.85829 C 73.704674,416.85829 75.159674,416.3723 76.869674,415.4033 C 77.112674,415.1873 77.233674,414.97129 77.233674,414.75629 C 77.596674,413.2473 78.149674,411.0383 78.889674,408.12829 L 82.365674,408.77529 L 84.736674,413.94829 C 84.736674,414.1633 84.683674,414.5953 84.561674,415.24229 C 84.440674,415.88729 84.372674,416.4273 84.372674,416.85829 L 84.372674,417.01929 L 82.177674,433.17129 C 74.983674,442.31829 70.471674,447.8153 68.639674,449.6473 C 68.396674,449.8623 68.275674,450.0783 68.275674,450.2943 C 68.275674,450.6163 68.396674,450.8863 68.639674,451.1023 C 69.244674,451.5323 69.797674,451.4793 70.281674,450.9403 C 72.356674,449.0003 76.991674,443.41029 84.197674,434.14229 C 84.319674,434.03429 84.372674,433.8723 84.372674,433.65629 L 85.841674,423.00029 C 87.309674,423.86329 88.589674,424.40229 89.680674,424.61629 C 90.165674,424.72429 90.596674,424.61629 90.960674,424.29429 L 94.813674,418.63629 L 95.540674,418.47429 C 95.783674,418.36729 95.972674,418.20429 96.092674,417.99029 C 97.063674,416.1583 97.857674,415.0263 98.464674,414.5953 L 99.380674,413.94829 C 99.501674,413.8403 99.689674,413.6243 99.932674,413.3023 C 101.52167,414.1633 102.92367,414.54029 104.14867,414.4323 C 105.11967,414.3243 105.91367,413.89429 106.51967,413.1393 L 106.88367,412.49229 C 108.23167,410.87629 108.90467,409.53029 108.90467,408.4513 C 108.90467,407.48229 108.59367,406.45829 107.98867,405.38029 C 109.69967,405.48829 110.73667,405.11129 111.10067,404.24829 C 111.34367,403.71029 111.70567,402.52429 112.19167,400.69229 C 112.31267,400.47629 112.31267,400.26229 112.19167,400.04629 C 116.71767,399.83029 119.95167,399.13029 121.90467,397.9443 C 123.48067,396.7593 126.17367,395.7353 129.94567,394.8723 C 133.00467,396.49029 134.83667,397.51229 135.44367,397.9443 C 137.51667,399.56029 140.87167,401.87829 145.50567,404.89529 C 146.12567,405.21929 146.66467,405.11129 147.16167,404.57229 C 147.52567,403.92629 147.33767,403.44029 146.60967,403.11629 C 144.53567,401.50029 141.23567,399.23829 136.72167,396.32729 C 135.87367,395.7883 133.85267,394.65629 130.68767,392.9323 C 130.44467,392.8243 130.13567,392.8243 129.77167,392.9323 C 125.74367,393.7953 122.63167,394.9273 120.43567,396.32729 C 119.45267,396.97429 116.09767,397.56729 110.37267,398.10629 C 109.99567,397.99829 109.63167,398.02429 109.26867,398.1873 C 108.90467,398.3483 108.35267,398.6993 107.62467,399.23829 L 106.70867,399.8843 C 105.72467,400.63829 105.06467,401.71629 104.68767,403.11629 L 104.51267,403.76329 C 104.39167,404.08729 103.71767,405.38029 102.49267,407.6433 C 101.64367,408.1823 100.60567,409.26029 99.380674,410.87629 C 98.773674,410.98429 98.464674,411.3073 98.464674,411.84629 C 98.464674,411.84629 98.221674,412.0623 97.736674,412.49229 L 97.008674,413.1393 C 96.268674,413.67929 95.352674,414.8643 94.260674,416.6963 L 93.708674,416.85829 C 93.465674,416.96629 93.223674,417.12729 92.981674,417.3433 L 90.596674,420.89929 L 90.596674,420.89929 L 89.505674,422.51529 C 87.309674,421.76229 86.205674,421.06029 86.205674,420.41429 C 86.205674,420.1993 86.272674,419.82229 86.393674,419.2833 C 86.515674,418.74329 86.568674,418.3123 86.568674,417.99029 C 86.568674,417.77429 86.568674,417.5043 86.568674,417.18029 L 86.757674,415.56429 C 86.879674,415.0263 87.243674,414.00229 87.848674,412.49229 L 88.400674,411.1993 C 88.400674,411.09229 88.468674,410.98429 88.589674,410.87629 C 89.316674,410.87629 89.627674,410.4993 89.505674,409.7443 C 89.748674,409.63629 90.044674,409.55629 90.421674,409.50229 C 90.785674,409.44829 90.960674,409.15229 90.960674,408.61429 L 90.960674,408.4513 C 90.960674,408.34429 90.960674,408.1823 90.960674,407.96729 C 90.960674,406.13529 91.755674,404.35629 93.344674,402.63229 C 93.587674,402.52429 93.708674,402.30829 93.708674,401.98629 L 93.708674,399.39929 C 93.708674,399.07529 94.019674,398.4563 94.624674,397.5403 C 95.231674,396.6243 95.540674,395.95029 95.540674,395.51929 C 95.540674,395.08829 95.297674,394.1463 94.813674,392.69029 C 94.315674,391.2353 94.072674,390.3193 94.072674,389.94229 C 94.072674,389.5643 93.655674,388.6223 92.792674,387.11429 C 92.913674,386.6823 92.819674,386.30429 92.523674,385.98229 C 92.213674,385.6583 91.876674,385.17429 91.512674,384.52729 C 89.559674,383.23429 86.515674,381.23929 82.365674,378.54629 L 82.177674,376.92829 C 82.056674,376.28229 81.624674,376.01229 80.897674,376.12029 C 80.169674,376.22829 79.792674,376.55129 79.792674,377.09129 C 79.792674,377.09129 79.860674,377.14429 79.981674,377.25229 L 80.169674,378.3843 L 74.861674,379.67629 C 73.272674,379.78429 71.925674,380.32329 70.835674,381.29429 C 70.215674,381.94029 68.571674,382.47929 65.891674,382.91029 C 65.163674,382.26329 63.573674,381.72429 61.135674,381.29429 C 60.272674,381.18629 59.855674,381.51029 59.855674,382.26329 C 59.855674,382.8023 60.152674,383.12629 60.757674,383.23429 C 62.589674,383.55629 63.748674,383.88029 64.247674,384.20329 C 64.732674,386.8983 65.769674,389.6993 67.359674,392.6103 C 66.375674,392.6103 65.041674,392.6633 63.331674,392.7713 C 62.589674,392.8793 62.293674,393.25629 62.415674,393.9033 C 62.415674,394.5503 62.845674,394.8723 63.695674,394.8723 C 66.496674,394.5503 68.153674,394.44229 68.639674,394.5503 C 69.729674,394.5503 71.076674,395.5743 72.667674,397.62029 C 73.393674,398.6993 73.945674,400.53129 74.309674,403.11629 L 72.841674,405.38029 L 67.533674,402.14729 C 67.291674,402.03929 67.048674,401.98629 66.807674,401.98629 L 65.527674,401.98629 C 63.937674,401.44729 62.832674,400.71929 62.225674,399.80329 C 61.620674,398.88729 60.515674,396.7593 58.939674,393.41829 C 58.925674,393.41829 58.925674,393.36429 58.939674,393.25629 C 57.228674,391.1003 55.760674,389.0523 54.533674,387.11429 C 53.807674,385.17429 52.957674,382.53229 51.975674,379.19229 C 52.957674,378.43829 54.292674,377.41429 56.003674,376.12029 L 66.443674,369.00829 C 67.169674,368.4683 68.760674,367.3913 71.197674,365.77529 L 74.673674,363.67429 C 75.401674,363.2423 76.439674,362.43429 77.785674,361.24829 L 78.337674,360.44029 C 78.459674,360.33229 78.607674,360.22429 78.796674,360.11629 C 78.971674,360.01029 79.617674,359.95529 80.708674,359.95529 L 82.001674,359.95529 C 91.633674,359.95529 99.568674,360.49429 105.79267,361.5713 L 114.38767,363.18829 C 118.17267,363.94329 120.67767,364.32029 121.88967,364.32029 C 123.72367,364.32029 126.65967,364.72429 130.68767,365.53229 C 134.71567,366.34029 136.96467,367.0143 137.44967,367.5523 L 137.82767,367.87629 C 138.67567,368.95429 139.52467,369.76229 140.38567,370.3023 C 141.72067,371.2713 143.74067,372.2953 146.42167,373.3723 C 150.20767,374.88229 153.44067,376.65929 156.12067,378.70729 C 156.74067,379.13829 157.27967,379.13829 157.77767,378.70729 C 158.26367,378.16829 158.19567,377.68329 157.58967,377.25229 z M 37.884674,399.39929 C 37.884674,399.39929 37.884674,399.39929 37.884674,399.39929 L 37.884674,399.39929 C 37.884674,399.39929 37.884674,399.39929 37.884674,399.39929 z M 37.884674,399.15629 C 37.884674,399.10329 37.884674,399.10329 37.884674,399.15629 C 37.884674,399.21029 37.884674,399.21029 37.884674,399.15629 z M 47.408674,352.35829 L 48.135674,348.15429 C 48.620674,347.9393 49.105674,347.9923 49.604674,348.31629 z M 108.17667,401.50029 L 109.07967,400.69229 C 109.20067,400.58429 109.38967,400.47629 109.63167,400.36829 L 109.99567,400.53129 C 109.50967,401.8243 109.20067,402.79429 109.07967,403.44029 C 108.59367,403.44029 107.86767,403.38729 106.88367,403.27929 C 107.13967,402.52429 107.55667,401.93129 108.17667,401.50029 z M 104.32467,408.77529 C 104.92967,407.69829 105.42867,406.72729 105.79267,405.86629 C 106.27767,406.51129 106.58767,407.1583 106.70867,407.80429 C 106.82967,408.6673 106.27767,409.85229 105.05167,411.36229 L 104.68767,412.00829 C 104.44567,412.2233 104.14867,412.38629 103.77167,412.49229 C 103.16567,412.49229 102.37167,412.2783 101.40067,411.84629 C 102.24967,410.87629 103.23267,409.85229 104.32467,408.77529 z M 86.205674,410.55429 L 86.016674,411.36229 L 85.289674,409.7443 L 86.393674,410.2303 C 86.393674,410.33829 86.325674,410.4463 86.205674,410.55429 z M 81.085674,380.16229 C 81.813674,380.59429 82.877674,381.18629 84.279674,381.94029 C 85.693674,382.69529 87.484674,383.98829 89.680674,385.82029 C 89.923674,386.1433 90.112674,386.41229 90.232674,386.62829 C 88.885674,387.5983 87.969674,388.2713 87.484674,388.6483 C 87.000674,389.0263 86.205674,389.1343 85.113674,388.97229 C 84.009674,388.81129 83.403674,388.9993 83.281674,389.5383 C 83.039674,390.18429 83.281674,390.61529 84.009674,390.8313 C 86.205674,391.37029 87.795674,391.15529 88.764674,390.18429 C 89.263674,389.86229 90.044674,389.32329 91.148674,388.56829 C 91.512674,389.43029 91.701674,389.9703 91.701674,390.18429 L 91.701674,390.18429 C 91.701674,390.61529 91.971674,391.55929 92.523674,393.0143 C 93.075674,394.4683 93.344674,395.30329 93.344674,395.51929 C 93.223674,395.7353 92.981674,396.11229 92.617674,396.6513 C 91.755674,397.8363 91.337674,398.75229 91.337674,399.39929 L 91.337674,400.69229 C 88.037674,398.21429 84.252674,395.25029 79.981674,391.8023 C 79.011674,390.9393 78.944674,387.16729 79.792674,380.48629 z M 69.365674,392.6103 C 69.487674,392.39429 69.487674,392.1243 69.365674,391.8023 C 68.019674,388.56829 67.116674,386.19829 66.617674,384.68829 C 69.555674,384.15029 71.440674,383.53029 72.289674,382.83029 C 73.151674,382.12829 74.067674,381.72429 75.037674,381.61629 C 75.159674,381.61629 75.280674,381.61629 75.415674,381.61629 L 77.421674,381.13229 C 76.695674,387.9223 76.991674,391.9083 78.337674,393.09429 C 79.684674,394.28029 83.645674,397.40629 90.232674,402.4703 C 90.353674,402.57829 90.475674,402.63229 90.596674,402.63229 C 89.384674,404.35629 88.764674,406.13529 88.764674,407.96729 C 88.400674,408.0743 88.037674,408.2903 87.673674,408.61429 L 83.645674,406.99629 C 83.645674,406.99629 83.577674,406.99629 83.456674,406.99629 L 83.456674,406.99629 L 79.065674,406.18829 C 78.580674,403.71029 77.664674,402.14729 76.317674,401.50029 C 75.832674,399.23829 75.225674,397.56729 74.499674,396.49029 C 72.788674,394.33429 71.076674,393.0403 69.365674,392.6103 z M 64.975674,403.92629 C 65.095674,403.92629 65.216674,403.92629 65.337674,403.92629 L 66.443674,403.92629 L 71.751674,407.1583 C 72.113674,407.05129 72.545674,407.05129 73.029674,407.1583 C 73.636674,407.48229 74.121674,407.3743 74.499674,406.83529 L 75.953674,404.41029 C 76.559674,405.48829 76.869674,406.2423 76.869674,406.67429 L 76.869674,406.67429 C 76.627674,407.53529 76.075674,409.96029 75.225674,413.94829 C 74.000674,414.5953 73.084674,414.91829 72.477674,414.91829 C 71.992674,414.91829 70.281674,414.1633 67.359674,412.65529 L 66.617674,412.1703 L 67.169674,409.4223 C 67.291674,408.77529 66.981674,408.3983 66.253674,408.2903 C 65.527674,408.1823 65.095674,408.4513 64.975674,409.0983 L 64.611674,411.1993 C 62.536674,410.2303 60.031674,406.40429 57.107674,399.72229 C 57.107674,399.50729 57.040674,399.07529 56.919674,398.42829 L 58.751674,398.75229 C 58.872674,398.75229 58.993674,398.75229 59.115674,398.75229 C 59.599674,399.72229 60.031674,400.42329 60.393674,400.85429 C 61.256674,402.14729 62.779674,403.17129 64.975674,403.92629 z M 56.919674,394.22629 C 57.283674,394.9803 57.659674,395.7353 58.023674,396.49029 L 56.365674,396.32729 L 55.827674,392.6103 C 56.191674,393.25629 56.555674,393.7953 56.919674,394.22629 z"
       inkscape:connector-curvature="0"
       style="fill:#000000;stroke:#000000;stroke-width:2.66667008" />
  </g>
</svg>
