<?xml version="1.0" encoding="UTF-8" standalone="no"?>
<!-- Created with Inkscape (http://www.inkscape.org/) -->

<svg
   xmlns:dc="http://purl.org/dc/elements/1.1/"
   xmlns:cc="http://creativecommons.org/ns#"
   xmlns:rdf="http://www.w3.org/1999/02/22-rdf-syntax-ns#"
   xmlns:svg="http://www.w3.org/2000/svg"
   xmlns="http://www.w3.org/2000/svg"
   xmlns:sodipodi="http://sodipodi.sourceforge.net/DTD/sodipodi-0.dtd"
   xmlns:inkscape="http://www.inkscape.org/namespaces/inkscape"
   width="240"
   height="160"
   id="svg3249"
   version="1.1"
   inkscape:version="0.48.0 r9654"
   sodipodi:docname="BSL letter M.svg">
  <defs
     id="defs3251" />
  <sodipodi:namedview
     id="base"
     pagecolor="#ffffff"
     bordercolor="#666666"
     borderopacity="1.0"
     inkscape:pageopacity="0.0"
     inkscape:pageshadow="2"
     inkscape:zoom="0.77472527"
     inkscape:cx="105.7305"
     inkscape:cy="240"
     inkscape:current-layer="layer1"
     inkscape:document-units="px"
     showgrid="false"
     inkscape:window-width="1024"
     inkscape:window-height="745"
     inkscape:window-x="-8"
     inkscape:window-y="-8"
     inkscape:window-maximized="1" />
  <metadata
     id="metadata3254">
    <rdf:RDF>
      <cc:Work
         rdf:about="">
        <dc:format>image/svg+xml</dc:format>
        <dc:type
           rdf:resource="http://purl.org/dc/dcmitype/StillImage" />
        <dc:title></dc:title>
      </cc:Work>
    </rdf:RDF>
  </metadata>
  <g
     id="layer1"
     inkscape:label="Layer 1"
     inkscape:groupmode="layer"
     transform="translate(0,-320)">
    <text
       xml:space="preserve"
       style="font-size:40px;font-style:normal;font-weight:normal;line-height:125%;letter-spacing:0px;word-spacing:0px;fill:#000000;fill-opacity:1;stroke:none;font-family:Sans"
       x="172.96454"
       y="23.177303"
       id="text3264"
       sodipodi:linespacing="125%"
       transform="translate(0,320)"><tspan
         sodipodi:role="line"
         id="tspan3266"
         x="172.96454"
         y="23.177303" /></text>
    <text
       xml:space="preserve"
       style="font-size:64px;font-style:normal;font-weight:bold;line-height:125%;letter-spacing:0px;word-spacing:0px;fill:#000000;fill-opacity:1;stroke:none;font-family:Sans;-inkscape-font-specification:Sans Bold"
       x="179.41844"
       y="55.446808"
       id="text3268"
       sodipodi:linespacing="125%"
       transform="translate(0,320)"><tspan
         sodipodi:role="line"
         id="tspan3270"
         x="179.41844"
         y="55.446808" /></text>
    <flowRoot
       xml:space="preserve"
       id="flowRoot3272"
       style="font-size:64px;font-style:normal;font-weight:bold;line-height:125%;letter-spacing:0px;word-spacing:0px;fill:#404040;fill-opacity:1;stroke:none;font-family:Sans;-inkscape-font-specification:Sans Bold"
       transform="translate(16.780142,313.5461)"><flowRegion
         id="flowRegion3274"><rect
           id="rect3276"
           width="73.574471"
           height="67.120567"
           x="160.05673"
           y="15.432623"
           style="fill:#404040;fill-opacity:1" /></flowRegion><flowPara
         id="flowPara3278">N</flowPara></flowRoot>    <path
       id="dp_path077"
       d="M 159.20545,431.31247 C 159.20545,431.74347 158.96345,432.06547 158.46445,432.28147 C 157.97945,432.49747 157.54845,432.44347 157.18445,432.12047 C 155.23145,430.50347 153.34545,426.51647 151.51345,420.15747 C 150.78545,417.35647 148.52345,414.66147 144.73745,412.07547 C 143.76745,410.78147 142.24445,409.08447 140.16945,406.98347 C 138.09645,404.88147 136.19645,402.75247 134.49945,400.59747 C 134.49945,400.59747 132.90945,399.30447 129.72945,396.71747 C 128.51745,395.64047 126.73945,394.18547 124.42345,392.35347 C 123.45245,391.49147 122.05145,390.52147 120.21945,389.44347 C 119.35745,389.22847 118.14445,389.38947 116.55545,389.92847 C 115.46445,390.25147 114.91245,390.89747 114.91245,391.86847 C 114.92545,391.97647 114.92545,392.13747 114.91245,392.35347 C 115.39645,392.78447 115.70745,393.16147 115.82845,393.48447 C 116.91945,395.42447 118.26545,396.77147 119.85645,397.52547 C 120.34045,397.74147 120.58345,398.06447 120.58345,398.49647 C 120.58345,399.57347 119.97645,399.84347 118.75145,399.30447 C 116.67645,398.44147 114.96545,396.82547 113.63245,394.45547 C 113.26845,393.59247 112.52745,392.83747 111.43645,392.19147 C 109.96845,391.32947 109.11945,390.79147 108.86345,390.57547 C 108.13645,389.82047 106.90945,389.92847 105.21245,390.89747 L 104.10845,391.54447 C 102.89545,392.19147 102.39645,393.37647 102.63945,395.10147 C 102.63945,395.64047 102.77345,396.09747 103.01645,396.47547 C 103.25945,396.85247 103.62345,397.41747 104.10845,398.17247 C 105.21245,398.92747 106.30345,399.84347 107.40845,400.92047 C 107.52945,401.02847 107.94745,401.45947 108.68845,402.21347 L 110.69545,404.31547 C 112.64845,406.14747 113.68545,407.44047 113.80745,408.19547 C 114.04945,408.84147 113.80745,409.27247 113.07945,409.48847 C 112.33945,409.70447 111.82745,409.48847 111.51645,408.84147 C 111.22045,408.19547 110.39945,407.11747 109.05245,405.60847 L 107.04445,403.66847 C 106.90945,403.66847 106.85645,403.61547 106.85645,403.50747 L 106.66745,403.34547 C 106.54545,403.23747 106.18345,402.94147 105.57645,402.45647 C 104.95645,401.97147 103.91945,401.02847 102.46445,399.62747 C 101.72345,398.98047 101.18445,398.33347 100.82045,397.68847 L 100.08045,396.87947 C 97.76345,394.40047 95.081449,391.70747 92.024449,388.79647 C 91.539449,388.47347 90.192449,387.28847 87.996449,385.24047 C 86.663449,384.05547 85.193449,382.76147 83.604449,381.36047 L 83.604449,381.36047 C 82.635449,381.03747 81.840449,380.28347 81.233449,379.09747 L 81.045449,378.61247 C 80.439449,377.53547 79.333449,376.83347 77.757449,376.51147 C 77.757449,376.51147 76.599449,377.04947 74.283449,378.12747 C 74.027449,378.45147 73.851449,378.77347 73.729449,379.09747 C 73.729449,379.52847 74.215449,380.44447 75.185449,381.84547 C 76.168449,383.24747 76.841449,384.32447 77.205449,385.07947 C 78.176449,385.94047 79.159449,386.88447 80.129449,387.90747 C 81.112449,388.93147 82.688449,390.41347 84.884449,392.35347 C 86.231449,393.64547 87.457449,395.10147 88.548449,396.71747 C 88.912449,397.14847 89.437449,397.66047 90.111449,398.25347 C 90.784449,398.84547 91.243449,399.30447 91.485449,399.62747 C 92.333449,400.92047 94.165449,402.91547 96.968449,405.60847 L 97.52045,406.09347 C 100.94145,409.54347 102.63945,411.85947 102.63945,413.04447 C 102.63945,413.58447 102.34345,413.90747 101.72345,414.01547 C 100.99645,414.12347 100.53745,413.77247 100.36345,412.96447 C 100.17345,412.15647 98.62545,410.35147 95.688449,407.54847 L 95.136449,407.06347 C 92.333449,404.15347 90.448449,402.05247 89.464449,400.75947 C 88.859449,400.11247 87.969449,399.08847 86.811449,397.68847 C 85.652449,396.28747 84.399449,394.99347 83.065449,393.80847 C 81.840449,392.94547 80.196449,391.43747 78.121449,389.28147 C 77.501449,388.52747 76.841449,387.82747 76.101449,387.18047 C 75.859449,387.18047 75.373449,387.07247 74.645449,386.85647 C 73.905449,386.64147 73.420449,386.53347 73.177449,386.53347 C 72.935449,386.64147 72.625449,386.82947 72.261449,387.09947 C 71.897449,387.36847 71.561449,387.69247 71.251449,388.06947 C 70.955449,388.44747 70.793449,388.74347 70.793449,388.95947 C 70.793449,390.14447 71.224449,391.06047 72.073449,391.70747 C 72.935449,392.35347 74.148449,393.91647 75.737449,396.39547 C 76.101449,397.14847 76.653449,397.95747 77.380449,398.81947 C 77.757449,399.25147 78.296449,400.27347 79.037449,401.89147 C 79.765449,403.83147 80.317449,405.01647 80.681449,405.44747 C 84.103449,408.46447 87.147449,412.45247 89.828449,417.40947 C 90.448449,418.59547 92.267449,420.69647 95.324449,423.71347 C 95.809449,424.25247 98.36945,426.16547 103.01645,429.45247 C 107.65145,432.74047 110.54745,434.62547 111.70545,435.11147 C 112.86445,435.59647 116.79745,437.99347 123.50745,442.30447 C 129.85145,446.39947 133.48845,448.77147 134.40445,449.41747 C 135.32045,450.06447 136.69545,451.14147 138.52745,452.64947 C 140.84445,455.45247 143.09345,457.39247 145.28945,458.46947 C 145.65345,458.68547 145.84145,459.00847 145.84145,459.44047 C 145.84145,460.62547 145.23545,460.94847 144.00945,460.40947 C 141.57145,459.11647 139.13245,456.90747 136.69545,453.78147 C 135.71145,453.13547 134.30945,452.16547 132.47745,450.87247 C 131.87245,450.33347 128.32945,447.98947 121.86345,443.84047 C 115.39645,439.69147 111.58445,437.37347 110.42545,436.88847 C 109.26745,436.40447 106.30345,434.46447 101.54845,431.06947 C 96.792449,427.67547 94.099449,425.65347 93.492449,425.00747 C 93.249449,424.68447 92.576449,423.98347 91.485449,422.90547 C 89.155449,424.73747 86.999449,425.92347 84.979449,426.46147 C 82.971449,427.00147 78.916449,428.50947 72.813449,430.98847 C 67.681449,438.74847 64.785449,442.97747 64.112449,443.67947 C 63.437449,444.37947 62.805449,444.51347 62.199449,444.08347 C 61.579449,443.65147 61.525449,443.16747 62.009449,442.62847 C 64.812449,438.31647 67.991449,433.89947 71.535449,429.37247 C 77.879449,426.67747 82.149449,425.06147 84.345449,424.52347 C 86.056449,424.09147 88.009449,423.01347 90.205449,421.28947 C 89.464449,420.42747 88.669449,419.45747 87.821449,418.37947 L 87.268449,417.40947 C 86.541449,416.11647 85.625449,414.66147 84.520449,413.04447 C 84.156449,412.72147 83.268449,411.72447 81.867449,410.05347 C 80.465449,408.38447 79.496449,407.27947 78.943449,406.74047 C 78.391449,406.20147 77.636449,404.80047 76.653449,402.53747 C 76.168449,401.24447 75.859449,400.54347 75.737449,400.43647 L 75.737449,400.43647 C 75.373449,400.11247 74.645449,399.14347 73.541449,397.52547 C 72.073449,395.15547 71.103449,393.75347 70.619449,393.32347 C 68.665449,391.81347 67.991449,389.98147 68.597449,387.82747 C 68.840449,387.07247 69.608449,386.29147 70.888449,385.48347 C 72.167449,384.67547 73.299449,384.37747 74.283449,384.59347 C 72.329449,381.36047 71.345449,379.52847 71.345449,379.09747 C 71.345449,377.91247 71.897449,377.04947 72.989449,376.51147 C 74.943449,374.78747 76.720449,374.08547 78.296449,374.40947 C 80.613449,374.94847 82.203449,376.02547 83.065449,377.64347 L 83.429449,378.12747 C 85.019449,379.63647 87.053449,381.49547 89.559449,383.70447 C 92.064449,385.91347 95.567449,389.22847 100.08045,393.64547 C 100.20145,392.02947 101.18445,390.73647 103.01645,389.76747 L 103.93245,389.12047 C 106.49245,387.61147 108.68845,387.61147 110.52045,389.12047 C 111.12545,389.33547 111.85345,389.76747 112.71645,390.41347 C 113.20045,389.33547 114.04945,388.58147 115.27545,388.14947 L 115.82845,387.01947 C 115.82845,386.91147 115.92145,386.77647 116.09745,386.61547 C 116.28545,386.45247 116.86545,385.61747 117.83545,384.10847 L 118.75145,382.49247 C 119.11545,381.73747 119.66745,380.82147 120.39545,379.74447 C 123.08845,375.75647 124.42345,373.38547 124.42345,372.63147 C 124.44945,372.30847 124.44945,372.03947 124.42345,371.82347 C 124.18045,370.96047 123.74845,370.36847 123.14345,370.04447 C 123.02145,370.04447 122.41545,369.99147 121.31145,369.88347 C 120.58345,370.63747 120.03145,371.28447 119.66745,371.82347 C 117.59245,374.08547 116.24545,375.97247 115.63945,377.48047 C 114.66945,380.06747 112.95945,381.95347 110.52045,383.13947 C 109.41545,383.78547 108.86345,383.51647 108.86345,382.33147 C 108.86345,381.89947 109.05245,381.57647 109.41545,381.36047 C 111.36845,380.39147 112.71645,378.88147 113.44345,376.83347 C 114.04945,375.10947 115.45145,373.00847 117.66045,370.52947 C 118.50845,369.56047 119.66745,368.32047 121.13545,366.81147 C 121.62045,365.84147 122.10545,365.08747 122.58945,364.54847 C 122.84545,364.33247 123.50745,362.98547 124.61145,360.50747 L 125.33945,358.89147 C 125.46045,358.56747 125.52745,358.18947 125.52745,357.75947 C 125.52745,357.00447 125.21745,356.14347 124.61145,355.17247 C 124.36845,354.74147 123.38545,354.47247 121.67345,354.36447 L 120.75745,355.33347 C 119.66745,356.95147 117.83545,359.26847 115.27545,362.28547 L 114.35945,363.09347 C 113.75345,363.74047 113.01245,364.54847 112.16345,365.51947 C 112.04345,366.27247 108.98445,370.04447 103.00345,376.83347 C 102.51745,377.37347 101.97945,377.42747 101.36045,376.99647 C 100.99645,376.78047 100.82045,376.51147 100.82045,376.18747 C 100.82045,375.97247 100.87545,375.75647 100.99645,375.54147 C 106.24945,369.72147 109.17245,366.27247 109.77945,365.19547 C 109.90045,364.65647 110.88445,363.47147 112.71645,361.63947 L 113.44345,360.99247 C 114.54845,359.37547 116.36745,357.00447 118.93945,353.87947 L 120.21945,352.74847 C 120.46145,352.31647 121.18945,351.13147 122.41545,349.19147 C 122.53645,348.86847 122.58945,348.54447 122.58945,348.22147 C 122.58945,347.57547 121.98445,346.87347 120.75745,346.12047 L 120.39545,345.79647 C 119.06045,344.93547 117.83545,344.71947 116.74445,345.14947 C 116.24545,345.47347 114.72345,346.44347 112.16345,348.06047 C 111.67945,349.35247 111.19345,350.48447 110.69545,351.45547 C 108.62045,355.76547 106.54545,358.45947 104.47145,359.53747 C 104.10845,359.75247 103.86545,359.96847 103.74445,360.18447 L 103.74445,360.50747 C 103.50145,361.04547 102.27645,362.71647 100.08045,365.51947 C 97.52045,368.64447 95.635449,370.42147 94.408449,370.85347 C 93.801449,371.06847 93.304449,370.85347 92.940449,370.20747 C 92.697449,369.66747 92.913449,369.26347 93.587449,368.99347 C 94.260449,368.72447 95.688449,367.24347 97.88445,364.54847 C 99.83745,362.17747 101.06345,360.56147 101.54845,359.69947 L 101.54845,359.53747 C 101.79145,358.78347 102.39645,358.18947 103.38045,357.75947 L 103.38045,357.75947 C 105.09145,356.78947 106.78845,354.41747 108.49945,350.64547 C 108.98445,349.78447 109.48345,348.70547 109.96845,347.41347 C 109.48345,345.90447 108.90345,344.90747 108.22945,344.42347 C 107.55645,343.93747 106.49245,343.85647 105.02445,344.18047 C 103.79745,344.82747 103.01645,345.28447 102.63945,345.55347 C 102.27645,345.82347 100.56445,347.30547 97.52045,349.99947 L 96.416449,351.29247 C 96.295449,351.40047 96.240449,351.50847 96.240449,351.61647 C 94.651449,352.80147 92.697449,354.20347 90.380449,355.81947 C 89.033449,357.54347 87.389449,359.32147 85.436449,361.15347 C 84.588449,361.36947 83.981449,361.69247 83.604449,362.12347 L 81.961449,363.74047 C 80.991449,364.49547 79.953449,365.41147 78.849449,366.48847 C 78.728449,366.70447 78.296449,367.08147 77.569449,367.62047 L 77.205449,367.94347 C 76.720449,368.26747 76.047449,368.80547 75.185449,369.56047 C 72.868449,372.14547 70.308449,374.84047 67.507449,377.64347 L 65.311449,378.45147 C 65.189449,378.55947 65.055449,378.61247 64.947449,378.61247 L 62.925449,379.09747 C 62.940449,379.09747 62.953449,379.12447 62.953449,379.17747 C 62.953449,379.23247 62.940449,379.25947 62.925449,379.25947 C 62.925449,379.90547 62.616449,380.28347 62.009449,380.39147 C 61.161449,380.39147 60.731449,380.06747 60.731449,379.42047 C 60.124449,378.34347 59.451449,376.78047 58.723449,374.73247 C 58.467449,373.43947 58.345449,372.30847 58.345449,371.33747 C 58.345449,366.59647 57.497449,363.09347 55.787449,360.83147 L 54.871449,359.69947 C 54.264449,358.83647 53.469449,358.40547 52.499449,358.40547 C 53.348449,361.42347 53.536449,363.57947 53.039449,364.87247 C 52.796449,365.62547 51.880449,366.05747 50.304449,366.16547 C 50.317449,366.70447 50.317449,367.24347 50.304449,367.78147 C 50.304449,368.53647 50.169449,369.61347 49.927449,371.01547 C 49.684449,372.41647 49.508449,373.38547 49.388449,373.92447 L 49.024449,379.09747 C 48.768449,379.95947 48.525449,381.25247 48.283449,382.97747 C 48.283449,383.62447 48.404449,384.62047 48.647449,385.96847 C 48.889449,387.31547 49.011449,388.31247 49.011449,388.95947 C 49.011449,390.57547 48.768449,392.86447 48.283449,395.82847 C 47.797449,398.79247 47.488449,400.97547 47.367449,402.37647 C 47.367449,405.17747 47.797449,407.22547 48.647449,408.51947 C 48.889449,408.94947 49.011449,409.32747 49.011449,409.64947 C 49.011449,410.40447 48.525449,410.94347 47.555449,411.26747 C 37.425449,422.79747 32.117449,429.21147 31.632449,430.50347 L 31.632449,430.34147 C 31.511449,431.09647 31.080449,431.41947 30.352449,431.31247 C 29.612449,431.20447 29.248449,430.88047 29.248449,430.34147 L 29.248449,430.18047 C 29.369449,429.42547 32.171449,425.76147 37.668449,419.18847 C 40.227449,416.27747 42.975449,413.15247 45.899449,409.81247 C 46.020449,409.59647 46.208449,409.43547 46.451449,409.32747 C 45.481449,407.60347 44.983449,405.28547 44.983449,402.37647 C 45.239449,395.80147 45.777449,391.54447 46.639449,389.60447 C 46.653449,389.38947 46.653449,389.17347 46.639449,388.95947 C 46.639449,388.52747 46.519449,387.58447 46.276449,386.12947 C 46.020449,384.67547 45.899449,383.62447 45.899449,382.97747 C 46.155449,382.00747 46.397449,380.66047 46.639449,378.93647 L 47.003449,373.76347 C 47.124449,373.22447 47.313449,372.28047 47.555449,370.93347 C 47.797449,369.58747 47.919449,368.53647 47.919449,367.78147 L 47.919449,367.62047 C 47.919449,366.75747 47.797449,365.68047 47.555449,364.38747 C 47.569449,364.27947 47.583449,364.17147 47.583449,364.06347 L 47.583449,364.06347 L 47.555449,363.09347 L 46.815449,358.24447 C 46.841449,358.24447 46.841449,358.18947 46.841449,358.08147 L 46.815449,358.08147 C 46.693449,357.97547 46.639449,357.81247 46.639449,357.59747 C 46.639449,356.95147 47.003449,356.62747 47.731449,356.62747 L 50.843449,356.46547 C 53.401449,355.81947 55.423449,356.51947 56.891449,358.56747 L 57.807449,359.71247 C 59.760449,362.29947 60.731449,366.17947 60.731449,371.36447 L 60.731449,371.36447 C 60.731449,372.22747 60.919449,373.15647 61.283449,374.18047 C 61.647449,375.20447 62.009449,376.13347 62.373449,376.99647 L 64.395449,376.51147 C 65.121449,376.29547 65.728449,376.08047 66.227449,375.86447 C 70.376449,371.35147 72.813449,368.77947 73.541449,368.13247 C 73.905449,367.70047 74.579449,367.10847 75.561449,366.35347 C 76.168449,366.02947 77.757449,364.68347 80.317449,362.31247 L 81.785449,360.70947 C 82.392449,360.17147 83.187449,359.73947 84.156449,359.41647 C 86.473449,356.61347 87.996449,354.94347 88.737449,354.40447 C 89.464449,353.86547 91.417449,352.41147 94.597449,350.04047 L 95.500449,348.76047 C 95.635449,348.65247 95.688449,348.59947 95.688449,348.59947 C 98.86745,345.90447 100.68545,344.36847 101.18445,343.99147 C 101.66945,343.61347 102.58545,343.04847 103.91945,342.29347 C 104.05345,342.29347 104.17545,342.24047 104.29645,342.13247 C 106.61345,341.59347 108.37745,341.86347 109.60445,342.92747 C 110.45245,343.46547 111.18045,344.42347 111.80045,345.79647 C 113.87545,344.39547 115.08745,343.58747 115.45145,343.37247 C 117.28345,342.40147 119.42445,342.67147 121.86345,344.18047 L 122.22745,344.34147 C 124.05945,345.63547 124.97545,346.92847 124.97545,348.22147 C 124.97545,349.08347 124.36845,350.48447 123.14345,352.42447 C 125.09645,352.74847 126.32145,353.34047 126.80745,354.20347 C 127.89745,356.24947 128.15345,358.08147 127.53345,359.69947 L 126.80745,361.15347 C 126.32145,362.33947 125.52745,363.90147 124.42345,365.84147 C 124.05945,366.27247 123.62745,366.91947 123.14345,367.78147 L 123.14345,367.94347 C 125.58045,368.15947 126.80745,369.72147 126.80745,372.63147 C 126.80745,373.70847 125.33945,376.40347 122.41545,380.71347 C 122.17245,381.14547 121.67345,382.00747 120.94745,383.30047 L 120.03145,385.07947 C 119.54545,385.94047 119.06045,386.69547 118.56345,387.34147 C 120.15245,387.12547 121.49945,387.42347 122.58945,388.23147 C 123.69545,389.03947 124.73245,389.82047 125.70145,390.57547 C 127.53345,392.08347 129.43345,393.64547 131.38745,395.26347 C 132.59945,396.01747 134.24345,397.36447 136.31745,399.30447 C 137.17945,400.38147 139.06545,402.42947 142.00345,405.44747 C 143.33645,407.06347 144.73745,408.73347 146.20545,410.45947 C 150.35545,413.36847 152.91345,416.38547 153.89745,419.51147 C 155.60845,425.54547 157.25245,429.21147 158.84145,430.50347 C 159.08445,430.71947 159.20545,430.98847 159.20545,431.31247 z M 51.031449,363.25547 C 51.031449,362.06947 50.721449,360.50747 50.115449,358.56747 L 49.199449,358.56747 L 49.927449,362.93247 C 49.953449,362.93247 49.953449,362.98547 49.953449,363.09347 L 49.953449,363.09347 L 49.953449,364.06347 L 49.927449,364.06347 C 50.304449,364.06347 50.573449,363.98347 50.748449,363.82147 C 50.936449,363.65947 51.031449,363.47147 51.031449,363.25547 z"
       inkscape:connector-curvature="0"
       style="fill:#000000;stroke:#000000;stroke-width:2.66667008" />
  </g>
</svg>
