<?xml version="1.0" encoding="UTF-8" standalone="no"?>
<!-- Created with Inkscape (http://www.inkscape.org/) -->

<svg
   xmlns:dc="http://purl.org/dc/elements/1.1/"
   xmlns:cc="http://creativecommons.org/ns#"
   xmlns:rdf="http://www.w3.org/1999/02/22-rdf-syntax-ns#"
   xmlns:svg="http://www.w3.org/2000/svg"
   xmlns="http://www.w3.org/2000/svg"
   xmlns:sodipodi="http://sodipodi.sourceforge.net/DTD/sodipodi-0.dtd"
   xmlns:inkscape="http://www.inkscape.org/namespaces/inkscape"
   width="240"
   height="160"
   id="svg3249"
   version="1.1"
   inkscape:version="0.48.0 r9654"
   sodipodi:docname="BSL letter Q.svg">
  <defs
     id="defs3251" />
  <sodipodi:namedview
     id="base"
     pagecolor="#ffffff"
     bordercolor="#666666"
     borderopacity="1.0"
     inkscape:pageopacity="0.0"
     inkscape:pageshadow="2"
     inkscape:zoom="0.77472527"
     inkscape:cx="105.7305"
     inkscape:cy="240"
     inkscape:current-layer="layer1"
     inkscape:document-units="px"
     showgrid="false"
     inkscape:window-width="1024"
     inkscape:window-height="745"
     inkscape:window-x="-8"
     inkscape:window-y="-8"
     inkscape:window-maximized="1" />
  <metadata
     id="metadata3254">
    <rdf:RDF>
      <cc:Work
         rdf:about="">
        <dc:format>image/svg+xml</dc:format>
        <dc:type
           rdf:resource="http://purl.org/dc/dcmitype/StillImage" />
        <dc:title></dc:title>
      </cc:Work>
    </rdf:RDF>
  </metadata>
  <g
     id="layer1"
     inkscape:label="Layer 1"
     inkscape:groupmode="layer"
     transform="translate(0,-320)">
    <text
       xml:space="preserve"
       style="font-size:40px;font-style:normal;font-weight:normal;line-height:125%;letter-spacing:0px;word-spacing:0px;fill:#000000;fill-opacity:1;stroke:none;font-family:Sans"
       x="172.96454"
       y="23.177303"
       id="text3264"
       sodipodi:linespacing="125%"
       transform="translate(0,320)"><tspan
         sodipodi:role="line"
         id="tspan3266"
         x="172.96454"
         y="23.177303" /></text>
    <text
       xml:space="preserve"
       style="font-size:64px;font-style:normal;font-weight:bold;line-height:125%;letter-spacing:0px;word-spacing:0px;fill:#000000;fill-opacity:1;stroke:none;font-family:Sans;-inkscape-font-specification:Sans Bold"
       x="179.41844"
       y="55.446808"
       id="text3268"
       sodipodi:linespacing="125%"
       transform="translate(0,320)"><tspan
         sodipodi:role="line"
         id="tspan3270"
         x="179.41844"
         y="55.446808" /></text>
    <flowRoot
       xml:space="preserve"
       id="flowRoot3272"
       style="font-size:64px;font-style:normal;font-weight:bold;line-height:125%;letter-spacing:0px;word-spacing:0px;fill:#404040;fill-opacity:1;stroke:none;font-family:Sans;-inkscape-font-specification:Sans Bold"
       transform="translate(16.780142,313.5461)"><flowRegion
         id="flowRegion3274"><rect
           id="rect3276"
           width="73.574471"
           height="67.120567"
           x="160.05673"
           y="15.432623"
           style="fill:#404040;fill-opacity:1" /></flowRegion><flowPara
         id="flowPara3278">R</flowPara></flowRoot>    <path
       id="dp_path082"
       d="M 156.48418,444.17448 C 156.72618,444.92848 156.48418,445.41248 155.75618,445.62848 C 155.01618,445.84448 154.47718,445.62848 154.11318,444.98248 C 153.00818,442.50348 150.57018,438.08447 146.78518,431.72647 C 142.75718,424.93647 140.31818,421.27247 139.46918,420.73447 C 138.00118,419.87147 137.08518,418.73947 136.72118,417.33947 L 136.53318,416.69248 C 134.09418,410.01047 131.53618,405.69948 128.85418,403.75948 C 127.38618,402.57448 123.29018,400.68847 116.58218,398.10247 L 113.10618,396.80847 C 109.19988,396.05447 103.95988,394.59947 97.371879,392.44448 L 96.819879,392.12047 C 95.109179,391.25847 93.398479,390.82747 91.687879,390.82747 C 90.231879,390.82747 87.174479,391.95947 82.539879,394.22247 C 76.922479,396.91647 73.905179,398.39848 73.487879,398.66747 C 73.057179,398.93647 72.653179,399.50347 72.289179,400.36447 C 71.561179,402.30447 71.197179,404.08347 71.197179,405.69948 C 71.157179,405.91547 71.130479,406.13147 71.130479,406.34647 L 71.130479,406.50847 C 71.130479,406.50847 71.157179,406.56248 71.197179,406.67047 C 70.335879,409.79547 69.662479,412.05847 69.177179,413.45947 C 71.009179,414.42847 72.477179,414.69847 73.569179,414.26747 C 76.505179,413.19047 78.822479,411.14247 80.533179,408.12448 C 80.897179,407.37047 81.261179,406.18447 81.623879,404.56847 L 79.791879,402.46747 C 79.670479,402.25147 79.617179,402.03547 79.617179,401.82047 C 79.617179,401.49647 79.791879,401.22747 80.169179,401.01147 C 80.775879,400.58047 81.327879,400.63448 81.813179,401.17447 L 83.455879,403.27547 C 88.710479,403.05947 91.754479,402.73647 92.603879,402.30447 C 93.101179,402.09047 93.586479,402.14347 94.071879,402.46747 C 99.81048,407.31647 103.16518,409.95648 104.13448,410.38747 C 105.11848,410.81947 105.69718,411.57247 105.87318,412.65148 C 106.06118,413.72848 106.20918,414.26747 106.33048,414.26747 C 106.45188,414.59148 106.76118,415.18347 107.24648,416.04647 C 108.23048,417.87847 108.95718,419.01047 109.44248,419.44047 L 109.99418,418.95547 L 109.26788,412.16647 C 109.14648,411.51947 109.50918,411.14247 110.35818,411.03447 C 111.10018,410.92647 111.51718,411.25047 111.65218,412.00448 L 112.19018,416.53047 C 112.55418,416.31547 112.98518,416.31547 113.47018,416.53047 C 113.84818,416.63847 114.02218,416.90747 114.02218,417.33947 C 114.02218,417.66247 113.96918,417.87847 113.84818,417.98647 L 108.35188,424.29047 C 106.88248,426.76848 105.42788,428.54748 103.95988,429.62448 C 101.76388,431.13448 99.32518,432.10348 96.631879,432.53447 C 95.903879,432.75047 95.418479,432.48048 95.175879,431.72647 C 95.054479,431.07948 95.418479,430.70247 96.267879,430.59447 C 99.32518,429.94847 101.64248,428.81647 103.21848,427.19948 C 102.61318,426.98447 101.93848,426.87647 101.21188,426.87647 C 99.25848,426.87647 97.66918,425.74448 96.455879,423.48247 C 96.213179,422.83547 96.455879,422.35048 97.183879,422.02747 C 97.91048,421.81147 98.46388,422.02747 98.82648,422.67447 C 99.56788,424.07448 100.36248,424.77547 101.21188,424.77547 C 102.55848,424.77547 103.77048,424.99048 104.87588,425.42248 C 105.11848,424.88347 105.60248,424.12847 106.33048,423.15848 L 107.98788,421.21847 C 107.24648,420.57247 106.27718,419.17147 105.05048,417.01547 C 104.92918,416.69248 104.68648,416.26047 104.32388,415.72247 C 102.97588,415.18347 102.05988,415.07547 101.57588,415.39947 C 100.84788,415.83047 99.25848,416.74647 96.819879,418.14747 L 95.539879,418.95547 C 94.314479,419.71047 92.725179,420.67947 90.771879,421.86447 C 90.529179,423.59047 90.407879,424.82847 90.407879,425.58347 C 90.407879,426.12248 90.743879,426.95847 91.418479,428.08847 C 92.091879,429.22048 92.427879,429.89447 92.427879,430.11048 C 92.387879,430.21847 92.387879,430.32448 92.427879,430.43248 C 92.670479,430.64848 92.791879,430.91847 92.791879,431.24048 C 92.791879,431.88747 92.427879,432.21148 91.687879,432.21148 C 89.747879,432.21148 88.521179,432.42748 88.037179,432.85847 C 87.995879,433.07247 87.995879,433.18047 88.037179,433.18047 C 88.037179,433.71947 87.847879,434.58247 87.483879,435.76747 C 87.121179,436.95247 86.931879,437.86847 86.931879,438.51547 C 86.931879,439.48648 87.242479,440.40248 87.847879,441.26348 C 89.801179,443.74248 92.239879,444.98248 95.175879,444.98248 C 96.389179,444.98248 97.371879,445.25148 98.09988,445.79048 C 98.82648,446.32848 99.74248,446.81448 100.84788,447.24448 C 101.45448,447.46048 103.33988,448.48448 106.51848,450.31648 C 109.07848,451.82448 110.91018,452.52648 112.01618,452.41848 C 114.33218,452.20248 117.44418,452.74048 121.35018,454.04848 L 121.71418,454.21048 C 123.16918,454.74848 125.48618,455.89448 128.66618,457.63148 C 129.39318,457.95548 129.51418,458.43948 129.02918,459.09948 C 128.66618,459.63848 128.11318,459.74648 127.38618,459.42348 C 125.79618,458.56048 123.60118,457.52348 120.79818,456.33848 L 120.43418,456.17648 C 116.89218,454.87048 114.23818,454.33148 112.46018,454.54648 C 110.69618,454.76248 108.52648,454.11548 105.96648,452.59248 C 102.54518,450.53248 100.53848,449.40048 99.93188,449.18448 C 98.58518,448.64648 97.49318,448.05248 96.631879,447.40748 C 96.267879,447.19148 95.782479,447.08348 95.175879,447.08348 C 91.390479,447.08348 88.278479,445.52048 85.841179,442.39548 C 84.371879,440.56348 84.183879,437.97647 85.289179,434.63547 C 85.530479,433.88247 85.651879,433.39648 85.651879,433.18047 C 85.167879,431.45648 86.567879,430.48747 89.869179,430.27148 C 88.642479,428.11548 88.037179,426.55248 88.037179,425.58347 C 88.037179,424.61447 88.158479,423.15848 88.399879,421.21847 C 88.521179,420.89547 88.710479,420.62647 88.953179,420.41047 L 95.539879,416.36847 C 96.753179,415.72247 98.28788,414.86048 100.10648,413.78247 C 100.96918,413.13547 102.12788,412.97447 103.59588,413.29847 C 103.47448,412.75948 103.28648,412.43547 103.04388,412.32747 C 102.05988,411.89648 98.82648,409.41847 93.343879,404.89147 C 88.697179,410.49547 85.841179,413.64747 84.735879,414.34848 C 83.645179,415.04847 78.337179,418.20047 68.813179,423.80447 C 62.467879,432.64247 58.803879,437.76047 57.834479,439.16248 C 57.349179,439.80848 56.797179,439.91648 56.190479,439.48648 C 55.813179,439.27048 55.638479,439.00047 55.638479,438.67847 C 55.638479,438.35447 55.691879,438.13847 55.813179,438.03147 C 56.797179,436.73847 60.514479,431.56447 66.981179,422.51147 C 67.102479,422.40447 67.223879,422.29647 67.345179,422.18847 C 72.113179,419.38647 77.421179,416.20747 83.267879,412.65148 C 84.009179,412.11247 86.379879,409.52648 90.407879,404.89147 C 88.710479,405.10747 86.501179,405.26848 83.819879,405.37647 C 83.577179,406.99247 83.214479,408.23247 82.729179,409.09447 C 81.866479,410.60348 80.345179,412.21947 78.149179,413.94447 C 75.953179,415.66847 74.066479,416.53047 72.477179,416.53047 C 70.523879,416.53047 68.625179,415.93847 66.806479,414.75248 C 66.563879,414.53647 66.429179,414.26747 66.429179,413.94447 C 66.429179,413.62047 66.495879,413.40647 66.617179,413.29847 C 67.102479,412.65148 67.843879,410.33447 68.813179,406.34647 C 68.773179,406.13147 68.773179,405.91547 68.813179,405.69948 C 68.813179,404.29947 69.122479,402.52047 69.729179,400.36447 C 70.578479,397.77947 71.561179,396.48647 72.653179,396.48647 C 83.025179,391.31248 89.370479,388.72647 91.687879,388.72647 C 93.762479,388.72647 95.835879,389.26448 97.91048,390.34247 L 98.65188,390.66647 C 99.01588,390.88247 99.62248,391.09647 100.48388,391.31248 L 100.48388,391.15148 C 100.48388,391.04347 100.53848,390.88247 100.65988,390.66647 C 102.00648,388.72647 103.59588,386.30048 105.42788,383.39147 C 106.63988,381.66747 108.28388,378.91947 110.35818,375.14747 C 110.72218,374.28447 111.22118,373.20747 111.82618,371.91447 L 112.74218,370.94448 C 113.95618,369.32747 114.57418,368.25047 114.57418,367.71148 C 114.57418,367.06447 114.21218,366.25647 113.47018,365.28647 L 109.80618,365.12448 C 108.83588,366.52648 107.67718,367.95448 106.33048,369.40848 C 104.99718,370.86347 103.33988,372.88347 101.39988,375.47047 L 101.39988,375.63247 L 93.707879,384.03848 C 93.465179,384.36247 93.101179,384.52348 92.603879,384.52348 C 92.239879,384.09148 91.633179,383.39147 90.771879,382.42248 C 90.125179,381.88347 90.125179,381.39848 90.771879,380.96648 C 91.390479,380.42748 91.943879,380.42748 92.427879,380.96648 C 92.549179,381.07448 92.725179,381.23647 92.981179,381.45148 L 99.37988,374.33947 C 101.33318,371.75248 103.00388,369.70448 104.41718,368.19547 C 105.81848,366.68748 107.07188,365.12448 108.16248,363.50747 C 109.26788,362.53848 110.60118,361.13647 112.19018,359.30447 C 112.67618,358.55048 112.93218,357.79647 112.93218,357.04247 C 112.93218,356.17947 112.62118,355.31847 112.01618,354.45547 L 109.26788,353.00047 C 108.40518,352.89247 107.74518,353.05447 107.24648,353.48647 C 106.03448,354.56347 104.59318,356.17947 102.94918,358.33547 C 101.30518,360.49048 99.98518,361.83847 99.01588,362.37647 C 97.54788,363.34647 96.213179,364.63948 94.987879,366.25647 C 94.259879,367.44248 91.566479,370.29847 86.931879,374.82347 C 87.538479,375.47047 87.915879,376.00847 88.037179,376.44047 C 88.158479,377.19547 87.847879,377.62647 87.121179,377.73447 C 86.379879,377.94847 85.894479,377.70648 85.651879,377.00647 C 85.409179,376.30647 84.251879,375.30847 82.177179,374.01547 C 81.449179,373.69248 81.314479,373.20747 81.813179,372.56047 C 82.298479,372.02247 82.850479,371.91447 83.455879,372.23647 C 84.062479,372.66847 84.682479,373.04647 85.289179,373.36847 C 89.679879,368.95047 92.239879,366.25647 92.966479,365.28647 C 94.314479,363.23847 95.903879,361.67548 97.73588,360.59848 C 98.46388,360.27547 99.62248,359.06248 101.21188,356.96047 C 102.80118,354.85947 104.25588,353.16247 105.60248,351.86847 C 106.08788,351.43847 106.70788,351.16847 107.43588,351.06047 C 107.31448,350.84447 107.24648,350.68347 107.24648,350.57547 C 107.24648,350.14447 107.86648,349.12047 109.07848,347.50448 C 109.94118,346.31847 110.42518,345.61847 110.54618,345.40247 C 110.42518,344.86347 109.75218,344.05547 108.52648,342.97848 C 107.67718,342.65447 106.82918,342.60048 105.96648,342.81647 C 104.63318,343.57047 102.49188,345.02648 99.56788,347.18047 C 99.32518,347.61147 98.89448,348.20448 98.28788,348.95947 L 95.351879,352.51547 L 90.959879,357.85048 C 89.613179,358.49647 87.915879,359.57448 85.841179,361.08347 C 85.585179,361.83847 84.735879,362.80748 83.267879,363.99248 C 82.539879,364.42347 81.449179,366.09447 79.981179,369.00448 C 79.617179,369.65148 79.065179,369.86647 78.337179,369.65148 L 71.925179,367.41447 C 71.197179,367.19948 70.954479,366.75448 71.197179,366.10747 C 71.561179,365.44747 72.113179,365.23247 72.841179,365.44747 L 78.149179,367.22647 C 79.981179,363.99248 81.382479,362.21547 82.351879,361.89148 C 82.729179,361.35247 83.214479,360.67947 83.819879,359.87147 C 84.426479,359.06248 86.205179,357.90348 89.127879,356.39547 C 93.034479,351.76047 95.661179,348.58247 96.994479,346.85847 C 96.994479,346.64247 97.183879,346.37248 97.54788,346.04847 L 97.371879,346.04847 L 97.54788,345.88747 L 97.54788,345.88747 L 97.73588,345.88747 C 97.69588,345.88747 97.69588,345.83447 97.73588,345.72647 C 97.49318,343.89447 97.115879,342.87047 96.631879,342.65447 C 96.146479,342.33148 95.162479,342.33148 93.707879,342.65447 C 91.027879,343.83947 89.127879,344.86347 88.037179,345.72647 C 84.251879,348.31248 82.203879,350.17147 81.893179,351.30347 C 81.597179,352.43447 78.822479,354.45547 73.569179,357.36447 C 69.662479,360.92247 66.927879,363.77848 65.337179,365.93248 C 63.747879,368.41147 60.703879,370.99847 56.190479,373.69248 C 55.691879,374.01547 55.207879,373.96247 54.722479,373.53047 L 53.617179,372.56047 C 53.254479,372.34447 53.133179,372.07547 53.254479,371.75248 C 53.495879,367.67048 53.738479,365.15148 53.994479,364.18248 C 54.237179,363.42748 53.495879,360.88047 51.785179,356.57047 L 51.610479,356.24748 C 51.489179,355.81547 50.882479,355.12847 49.778479,354.21247 C 48.673179,353.29647 47.825179,352.78447 47.218479,352.67647 C 46.734479,352.56847 46.181179,352.67647 45.575879,353.00047 C 45.441179,353.21547 45.265179,353.32347 45.022479,353.32347 L 46.302479,358.01147 C 46.423879,358.44347 46.235879,358.92748 45.750479,359.46648 C 45.265179,360.00647 45.022479,360.38247 45.022479,360.59848 C 45.022479,361.46047 44.834479,362.21547 44.470479,362.86048 L 43.554479,366.41847 C 43.069179,368.25047 42.463879,371.10647 41.722479,374.98647 L 41.170479,383.06847 L 43.190479,392.60647 C 43.190479,393.25248 42.975879,394.22247 42.543879,395.51547 C 42.126479,396.80847 41.911879,397.83247 41.911879,398.58747 C 41.870479,398.80248 41.870479,399.01847 41.911879,399.23447 L 42.274479,401.01147 C 42.274479,401.55048 42.395879,402.35947 42.638479,403.43647 C 44.106479,405.26848 46.302479,407.20847 49.226479,409.25647 C 50.694479,409.25647 52.217179,409.68748 53.806479,410.55048 C 54.533179,410.87248 54.654479,411.35847 54.170479,412.00448 C 53.806479,412.54347 53.254479,412.65148 52.526479,412.32747 C 51.301179,411.68047 50.169179,411.35847 49.131879,411.35847 C 48.094479,411.35847 46.666479,410.49547 44.834479,408.77148 C 44.794479,408.98747 44.794479,409.14848 44.834479,409.25647 C 44.834479,409.47147 44.713179,409.68748 44.470479,409.90348 C 35.202479,420.03247 30.015879,425.79947 28.911879,427.19948 C 28.547879,427.73947 27.995879,427.84647 27.267879,427.52348 C 26.903879,427.30748 26.715879,426.98447 26.715879,426.55248 C 26.715879,426.33847 26.782479,426.17647 26.903879,426.06847 C 27.995879,424.66748 33.127879,418.95547 42.274479,408.93248 C 42.274479,407.85548 41.965179,406.96648 41.358479,406.26647 C 40.753179,405.56447 40.254479,403.92248 39.890479,401.33547 L 39.526479,399.55647 C 39.486479,399.23447 39.486479,398.91047 39.526479,398.58747 C 39.526479,397.07847 39.958479,395.08447 40.806479,392.60647 L 38.799879,383.06847 L 39.351879,374.82347 C 39.594479,372.56047 40.199879,369.59647 41.170479,365.93248 L 42.274479,362.21547 C 42.638479,361.02848 43.190479,359.68248 43.918479,358.17247 L 42.450479,352.51547 C 42.409179,352.40747 42.409179,352.35447 42.450479,352.35447 C 42.450479,351.81547 42.759879,351.43847 43.366479,351.22247 C 43.622479,351.22247 43.865179,351.27648 44.106479,351.38347 C 45.319879,350.52247 46.598479,350.25248 47.946479,350.57547 C 48.807879,350.79147 49.926479,351.49147 51.341179,352.67647 C 52.742479,353.86247 53.617179,354.83247 53.994479,355.58747 L 53.994479,355.91047 C 55.570479,360.00647 56.365179,362.69948 56.365179,363.99248 C 56.325179,364.20847 56.325179,364.42347 56.365179,364.63948 C 56.123879,365.39447 55.881179,367.65647 55.638479,371.42847 L 55.638479,371.42847 C 59.545179,368.95047 62.105179,366.74048 63.317179,364.80048 C 65.027879,362.43047 67.897179,359.41247 71.925179,355.74847 C 72.046479,355.74847 72.113179,355.74847 72.113179,355.74847 C 76.747879,353.16247 79.253179,351.45148 79.617179,350.58847 C 80.102479,349.08047 82.351879,346.92447 86.379879,344.13647 C 87.847879,343.16647 89.922479,342.03547 92.603879,340.74248 L 92.981179,340.74248 C 95.175879,340.20347 96.753179,340.20347 97.73588,340.74248 C 98.70648,341.28047 99.37988,342.39847 99.74248,344.11048 C 102.43718,341.96747 104.32388,340.85048 105.42788,340.74248 C 106.88248,340.41847 108.35188,340.52648 109.82018,341.06448 C 110.54618,341.38847 111.27418,342.14247 112.01618,343.31448 C 112.74218,344.50047 112.98518,345.36247 112.74218,345.90047 C 112.62118,346.33247 112.06918,347.24847 111.10018,348.64847 C 110.61418,349.28247 110.11618,350.03647 109.63048,350.89947 L 109.82018,350.89947 C 110.06218,350.89947 110.23718,350.95247 110.35818,351.06047 L 113.47018,352.83947 C 113.59218,352.94647 113.71318,353.05447 113.84818,353.16247 C 114.81718,354.34747 115.30218,355.64047 115.30218,357.04247 C 115.30218,358.65848 114.02218,360.65247 111.46218,363.02348 L 114.21218,363.34647 C 114.45318,363.34647 114.69618,363.45448 114.93818,363.67048 C 116.28518,365.07047 116.94618,366.47147 116.94618,367.87248 C 116.94618,368.73548 116.16518,370.19047 114.57418,372.23647 L 113.84818,373.04647 C 113.71318,373.26047 113.29618,374.17647 112.55418,375.79447 C 112.19018,376.65547 111.70518,377.73447 111.10018,379.02747 C 109.50918,381.18248 108.28388,382.90647 107.43588,384.19948 C 105.84518,387.21648 104.25588,389.75047 102.67988,391.79847 C 105.23988,392.33648 109.07848,393.36048 114.21218,394.86847 L 117.49818,396.16247 C 120.92018,397.45547 125.24418,399.44847 130.49818,402.14347 C 132.81418,403.86747 135.61718,408.50248 138.91718,416.04647 L 139.09318,416.85447 C 139.21318,417.28447 139.86018,417.93147 141.01818,418.79447 C 142.17718,419.65547 144.89818,423.75147 149.16918,431.07948 C 152.94118,437.43847 155.39318,441.80348 156.48418,444.17448 z M 65.890479,420.73447 C 65.890479,421.38047 65.513179,421.70347 64.785179,421.70347 C 63.694479,421.70347 60.878479,419.54847 56.365179,415.23847 C 55.719879,414.80647 55.719879,414.32247 56.365179,413.78247 C 56.971879,413.35147 57.523879,413.35147 58.009179,413.78247 C 61.794479,417.33947 64.111879,419.27947 64.974479,419.60247 L 64.785179,419.60247 C 65.647879,419.60247 66.011879,419.97947 65.890479,420.73447 z M 83.267879,363.83148 L 83.267879,363.99248 L 83.267879,363.99248 z"
       inkscape:connector-curvature="0"
       style="fill:#000000;stroke:#000000;stroke-width:2.66667008" />
  </g>
</svg>
