<?xml version="1.0" encoding="UTF-8" standalone="no"?>
<!-- Created with Inkscape (http://www.inkscape.org/) -->

<svg
   xmlns:dc="http://purl.org/dc/elements/1.1/"
   xmlns:cc="http://creativecommons.org/ns#"
   xmlns:rdf="http://www.w3.org/1999/02/22-rdf-syntax-ns#"
   xmlns:svg="http://www.w3.org/2000/svg"
   xmlns="http://www.w3.org/2000/svg"
   xmlns:sodipodi="http://sodipodi.sourceforge.net/DTD/sodipodi-0.dtd"
   xmlns:inkscape="http://www.inkscape.org/namespaces/inkscape"
   width="240"
   height="160"
   id="svg3249"
   version="1.1"
   inkscape:version="0.48.0 r9654"
   sodipodi:docname="BSL letter S.svg">
  <defs
     id="defs3251" />
  <sodipodi:namedview
     id="base"
     pagecolor="#ffffff"
     bordercolor="#666666"
     borderopacity="1.0"
     inkscape:pageopacity="0.0"
     inkscape:pageshadow="2"
     inkscape:zoom="0.77472527"
     inkscape:cx="105.7305"
     inkscape:cy="240"
     inkscape:current-layer="layer1"
     inkscape:document-units="px"
     showgrid="false"
     inkscape:window-width="1024"
     inkscape:window-height="745"
     inkscape:window-x="-8"
     inkscape:window-y="-8"
     inkscape:window-maximized="1" />
  <metadata
     id="metadata3254">
    <rdf:RDF>
      <cc:Work
         rdf:about="">
        <dc:format>image/svg+xml</dc:format>
        <dc:type
           rdf:resource="http://purl.org/dc/dcmitype/StillImage" />
        <dc:title></dc:title>
      </cc:Work>
    </rdf:RDF>
  </metadata>
  <g
     id="layer1"
     inkscape:label="Layer 1"
     inkscape:groupmode="layer"
     transform="translate(0,-320)">
    <text
       xml:space="preserve"
       style="font-size:40px;font-style:normal;font-weight:normal;line-height:125%;letter-spacing:0px;word-spacing:0px;fill:#000000;fill-opacity:1;stroke:none;font-family:Sans"
       x="172.96454"
       y="23.177303"
       id="text3264"
       sodipodi:linespacing="125%"
       transform="translate(0,320)"><tspan
         sodipodi:role="line"
         id="tspan3266"
         x="172.96454"
         y="23.177303" /></text>
    <text
       xml:space="preserve"
       style="font-size:64px;font-style:normal;font-weight:bold;line-height:125%;letter-spacing:0px;word-spacing:0px;fill:#000000;fill-opacity:1;stroke:none;font-family:Sans;-inkscape-font-specification:Sans Bold"
       x="179.41844"
       y="55.446808"
       id="text3268"
       sodipodi:linespacing="125%"
       transform="translate(0,320)"><tspan
         sodipodi:role="line"
         id="tspan3270"
         x="179.41844"
         y="55.446808" /></text>
    <flowRoot
       xml:space="preserve"
       id="flowRoot3272"
       style="font-size:64px;font-style:normal;font-weight:bold;line-height:125%;letter-spacing:0px;word-spacing:0px;fill:#404040;fill-opacity:1;stroke:none;font-family:Sans;-inkscape-font-specification:Sans Bold"
       transform="translate(16.780142,313.5461)"><flowRegion
         id="flowRegion3274"><rect
           id="rect3276"
           width="73.574471"
           height="67.120567"
           x="160.05673"
           y="15.432623"
           style="fill:#404040;fill-opacity:1" /></flowRegion><flowPara
         id="flowPara3278">T</flowPara></flowRoot>    <path
       id="dp_path084"
       d="M 174.19919,439.97617 C 173.95719,439.97617 173.70119,439.86817 173.45919,439.65317 C 171.38419,437.92817 168.82419,435.82717 165.78019,433.34816 C 164.19119,433.02516 163.22019,432.97117 162.84319,433.18717 C 161.87319,433.72516 160.90319,433.78016 159.92019,433.34816 C 159.67719,433.24017 159.43519,433.02516 159.19219,432.70116 C 157.96719,431.84016 157.11719,431.46316 156.62019,431.57116 C 156.25619,431.57116 154.73319,431.84016 152.05219,432.37916 L 151.31219,432.54016 C 151.31219,433.07916 151.06919,433.45616 150.58419,433.67216 C 150.09919,433.88717 149.69519,433.86017 149.39919,433.59117 C 149.08919,433.32116 148.79219,433.13316 148.48319,433.02516 C 148.17319,432.91716 147.90419,432.75616 147.66119,432.54016 C 146.67719,432.00116 145.82919,431.67716 145.10119,431.57116 C 144.23919,431.35516 143.41719,431.32816 142.62319,431.48916 C 141.82819,431.65116 140.57519,432.00116 138.87719,432.54016 C 138.25919,432.86416 137.28819,433.51116 135.94119,434.48016 C 136.54719,434.80317 137.22119,435.07316 137.96119,435.28817 C 138.68919,435.50416 139.05319,435.88116 139.05319,436.42016 C 139.05319,437.06717 138.62119,437.38917 137.77319,437.38917 C 136.80319,437.38917 135.09219,436.68916 132.64019,435.28817 L 130.99719,434.31916 C 130.39119,433.99517 128.24919,433.07916 124.59919,431.57116 L 122.57719,430.76116 C 121.48719,430.22316 119.77619,428.92916 117.45919,426.88316 L 113.79519,424.78116 C 113.18819,424.34916 111.28919,423.81116 108.12319,423.16416 L 107.38319,423.00316 C 106.29119,422.35617 104.64819,421.44017 102.45219,420.25517 C 101.46819,419.71617 100.18819,419.33917 98.59919,419.12316 L 98.42419,420.41617 C 98.42419,420.84716 98.11319,421.17116 97.50819,421.38516 C 96.90119,421.60117 95.79719,421.92516 94.20719,422.35617 C 93.72319,422.57217 92.73919,422.67916 91.28419,422.67916 C 91.52719,422.89516 91.76919,423.05616 92.01219,423.16416 L 94.94819,425.10416 C 96.52419,425.85916 98.85519,427.15216 101.89919,428.98416 C 102.86919,429.63116 104.14919,430.43916 105.73919,431.40817 C 106.96419,432.05516 108.60819,432.91716 110.68319,433.99517 C 113.48419,436.47316 118.06519,440.08417 124.40919,444.82517 C 125.75719,445.68817 127.15719,446.82017 128.62719,448.22017 C 129.11119,450.05317 130.94319,452.85517 134.10919,456.62717 C 137.04519,458.99717 138.81119,460.82917 139.41619,462.12317 C 139.78019,462.87717 139.53719,463.36317 138.68919,463.57717 C 137.96119,463.90117 137.40919,463.74017 137.04519,463.09317 C 136.18419,462.01517 134.66119,460.39917 132.46519,458.24317 C 129.66419,455.98017 127.58919,452.90817 126.24119,449.02917 L 126.05319,448.86717 C 125.68919,453.39317 125.81119,456.19617 126.43119,457.27317 C 127.27919,458.78317 129.66419,460.61517 133.55619,462.76917 C 134.17619,463.20017 134.29719,463.68517 133.93319,464.22417 C 133.43619,464.87117 132.82919,465.03317 132.10119,464.70917 C 127.95219,462.33917 125.32519,460.18317 124.22119,458.24317 C 123.25119,456.62717 123.06319,452.90817 123.68319,447.08917 L 122.76719,446.60417 C 121.05619,445.41917 118.42819,443.42517 114.89919,440.62317 C 112.94519,438.79117 110.99219,437.17516 109.03919,435.77316 C 105.61719,434.26417 102.69519,432.54016 100.25619,430.60016 C 98.66719,429.73916 96.40319,428.49916 93.48019,426.88316 L 90.73219,425.10416 C 89.38419,424.24116 88.41519,423.43317 87.80819,422.67916 C 84.75119,426.02016 82.86419,427.96016 82.12419,428.49916 C 80.42719,430.00816 77.73219,431.51616 74.08119,433.02516 C 73.21919,433.67216 70.29619,438.14417 65.28419,446.44317 C 63.82919,448.81317 63.03519,450.10717 62.91319,450.32317 C 62.42819,450.86117 61.80919,450.91517 61.08119,450.48417 C 60.47519,450.16017 60.40819,449.67617 60.89319,449.02917 C 61.01519,448.81317 61.75519,447.62817 63.08919,445.47217 C 68.70719,436.20416 71.93919,431.40817 72.80119,431.08516 C 76.08819,429.90016 78.64819,428.49916 80.48019,426.88316 C 81.08719,426.34417 83.04019,424.24116 86.34019,420.57717 C 86.09719,419.93116 85.97619,419.44717 85.97619,419.12316 C 85.97619,418.04516 86.70419,416.96816 88.17219,415.88917 C 88.29319,415.78116 88.48119,415.72816 88.72419,415.72816 L 90.54319,415.40516 C 90.67719,414.43516 91.18919,413.54516 92.10519,412.73716 C 93.02119,411.92916 93.84419,410.98716 94.57119,409.90817 L 95.86419,408.45316 C 98.78819,404.46716 100.25619,402.04117 100.25619,401.17916 C 100.25619,400.96417 100.18819,400.74816 100.06719,400.53216 C 100.02719,400.20917 100.02719,399.99317 100.06719,399.88516 C 100.06719,399.02417 100.74119,398.26917 102.08819,397.62316 C 105.86019,396.00716 108.48719,394.17516 109.95519,392.12716 C 111.16819,390.50916 113.18819,388.86716 115.99119,387.19616 C 118.79219,385.52516 120.26019,384.42116 120.38119,383.88316 C 120.38119,383.23616 120.01919,382.53516 119.29119,381.78016 C 119.03519,381.45717 118.79219,381.29616 118.54919,381.29616 L 118.01119,381.29616 C 117.14919,381.29616 115.62719,381.94316 113.43119,383.23616 C 112.08419,384.09716 111.16819,384.69116 110.68319,385.01316 C 109.83319,385.44517 108.48719,386.19916 106.65519,387.27716 C 105.18719,387.92416 103.85219,388.67716 102.62719,389.54016 C 100.55219,390.83316 98.35619,392.50416 96.03919,394.55116 C 95.43319,395.09117 94.82719,395.09117 94.20719,394.55116 C 93.56019,394.12017 93.56019,393.63516 94.20719,393.09617 C 93.23719,392.77316 93.04919,392.18016 93.66819,391.31916 C 96.83519,387.11517 98.42419,384.52917 98.42419,383.55916 C 98.54519,382.15716 100.01319,380.59516 102.81519,378.87116 C 103.05719,378.76316 103.73219,377.84716 104.82319,376.12316 C 105.44319,375.15316 106.35919,373.91317 107.57119,372.40417 C 108.67519,371.54317 109.76719,369.73716 110.87119,366.98916 C 111.96319,364.24116 113.18819,362.43616 114.52119,361.57316 C 115.26319,361.03516 115.62719,359.68816 115.62719,357.53216 C 115.62719,356.56316 114.76419,355.59216 113.06719,354.62316 C 112.20519,356.23916 110.74919,358.55616 108.67519,361.57316 C 107.57119,362.65216 106.22419,364.05216 104.64819,365.77716 C 104.28419,366.63917 102.81519,368.30916 100.25619,370.78816 C 98.90819,372.18916 96.83519,374.34417 94.03219,377.25517 C 93.16919,378.11616 92.25319,379.14016 91.28419,380.32516 L 91.45919,380.16416 C 91.33719,380.91916 90.85319,381.24116 90.00419,381.13316 C 89.26319,381.13316 88.90019,380.81116 88.90019,380.16416 C 88.90019,379.40916 90.00419,377.95516 92.20019,375.80016 C 93.54719,374.29117 95.62119,372.13516 98.42419,369.33316 C 99.63619,368.14816 100.91619,366.69316 102.26319,364.96816 C 103.24719,363.99916 104.70119,362.43616 106.65519,360.28016 C 107.63919,358.44816 109.33619,355.86116 111.78719,352.52116 C 112.27219,351.98317 112.44719,351.06717 112.32519,349.77316 L 112.32519,349.28816 L 110.68319,348.31916 C 108.72919,348.96417 107.57119,349.50416 107.20719,349.93517 C 106.84319,350.36517 105.73919,351.44416 103.90719,353.16817 C 103.05719,353.92317 101.41519,355.32316 98.96319,357.37116 C 97.99219,358.88017 95.98519,361.08917 92.92819,363.99916 C 91.83619,364.75316 90.00419,366.36916 87.44419,368.84816 L 85.61219,370.62716 C 85.11519,371.05716 84.26519,372.08116 83.04019,373.69717 C 80.48019,377.14716 78.71519,378.87116 77.73219,378.87116 C 77.24719,378.87116 76.88319,378.68317 76.64119,378.30516 C 76.39919,377.92817 75.90019,377.82017 75.17219,377.98117 C 74.44519,378.14316 74.01319,377.84716 73.89219,377.09216 C 73.65119,376.33917 73.96019,375.90716 74.80819,375.80016 L 74.99719,375.63717 C 74.99719,375.52917 75.05119,375.42317 75.17219,375.31517 C 76.76119,370.89616 77.98819,367.93216 78.83619,366.42416 C 79.68519,364.91516 81.03219,362.70516 82.86419,359.79616 C 83.83519,358.82516 84.75119,357.26316 85.61219,355.10817 C 85.61219,354.89217 85.66719,354.78416 85.78819,354.78416 C 86.64919,353.70717 87.86319,352.08917 89.45219,349.93517 L 90.73219,348.31916 C 92.07919,346.48516 92.75219,345.35516 92.75219,344.92317 C 92.75219,343.84516 92.01219,343.03716 90.55619,342.49916 L 88.90019,342.82116 C 88.65719,343.14516 87.74119,344.22316 86.16519,346.05517 C 84.07719,348.42516 81.39619,351.06717 78.10919,353.97617 C 75.91319,355.80817 74.56719,357.37116 74.08119,358.66416 C 72.97619,360.28016 71.45519,362.54416 69.50119,365.45316 C 68.27519,367.71617 66.26819,370.35716 63.46519,373.37517 L 58.88519,378.54817 L 54.30519,385.49916 C 53.94119,386.14516 53.38919,386.30716 52.66119,385.98416 C 52.29919,385.76816 52.10919,385.44517 52.10919,385.01316 C 51.98819,385.12116 51.86719,385.17516 51.74519,385.17516 C 51.14019,385.60716 50.58819,385.49916 50.10319,384.85216 C 49.11919,383.34316 48.82319,382.04916 49.18719,380.97216 C 49.14519,380.86416 49.14519,380.75716 49.18719,380.64917 C 49.18719,380.11116 48.87619,378.81717 48.27119,376.76917 L 47.90719,375.63717 C 47.54319,374.56017 46.74819,372.67516 45.52319,369.98016 C 44.30919,368.57916 43.32719,367.77116 42.59919,367.55516 C 41.85919,367.44717 40.70019,367.66316 39.12419,368.20116 L 41.13119,374.99116 C 41.09119,375.09916 41.09119,375.20717 41.13119,375.31517 C 41.13119,375.63717 41.00919,375.90716 40.76719,376.12316 L 39.85119,376.93116 C 39.72919,377.79317 39.66319,378.60117 39.66319,379.35617 C 39.66319,379.67916 39.72919,380.11116 39.85119,380.64917 C 39.97219,381.18816 40.02519,381.61916 40.02519,381.94316 C 40.02519,382.48117 39.87719,383.28916 39.56819,384.36716 C 39.27219,385.44517 39.12419,386.25316 39.12419,386.79216 C 39.12419,388.94717 38.62519,391.21116 37.65519,393.58116 C 37.41219,394.33616 37.29119,394.98317 37.29119,395.52116 C 37.29119,396.06017 37.41219,396.54516 37.65519,396.97617 C 38.50419,398.26917 40.09319,401.77216 42.41119,407.48416 C 42.65319,408.34516 43.32719,410.98716 44.43119,415.40516 C 44.39119,415.51217 44.37719,415.62017 44.37719,415.72816 C 44.37719,415.83617 44.39119,415.99716 44.43119,416.21316 C 43.93219,416.96816 42.89519,418.36817 41.31919,420.41617 C 40.70019,421.06316 39.42019,422.94816 37.46719,426.07316 L 36.01219,428.49916 C 35.51319,429.03716 34.90719,429.14516 34.18019,428.82316 C 33.81619,428.60716 33.62719,428.28317 33.62719,427.85216 C 33.62719,427.63616 33.69519,427.42116 33.81619,427.20516 L 35.27119,424.94316 C 36.25319,423.43317 37.58819,421.44017 39.29919,418.96117 C 40.16019,417.99116 41.00919,416.86017 41.85919,415.56717 C 40.88819,411.36416 40.28119,408.93916 40.02519,408.29216 C 37.96519,403.01116 36.42919,399.61616 35.45919,398.10817 C 34.97519,397.35316 34.71919,396.49116 34.71919,395.52116 C 34.71919,394.55116 34.90719,393.63516 35.27119,392.77316 C 36.13319,390.07916 36.55119,388.08516 36.55119,386.79216 C 36.55119,386.25316 36.71219,385.44517 37.00819,384.36716 C 37.31919,383.28916 37.46719,382.48117 37.46719,381.94316 C 37.46719,381.61916 37.41219,381.18816 37.29119,380.64917 C 37.17119,380.11116 37.10319,379.67916 37.10319,379.35617 C 37.10319,378.38516 37.22419,377.36116 37.46719,376.28416 C 37.46719,376.06916 37.58819,375.85316 37.84419,375.63717 L 38.57119,374.99116 L 36.55119,368.68716 C 36.52419,368.57916 36.52419,368.47117 36.55119,368.36317 C 36.55119,367.82416 36.86019,367.44717 37.46719,367.23216 C 37.34519,366.80016 37.53319,366.47716 38.01919,366.26116 C 39.97219,365.40016 41.68319,365.13116 43.13719,365.45316 C 45.34719,365.88416 46.86919,367.06916 47.71919,369.00916 C 49.06519,371.92016 49.91319,373.96716 50.27719,375.15316 L 50.65519,376.12316 C 51.50419,379.03216 51.81319,380.86416 51.55719,381.61916 C 51.43619,381.94316 51.55719,382.40016 51.93519,382.99317 C 52.29919,383.58516 52.47319,383.93616 52.47319,384.04416 L 56.86519,377.25517 L 61.44519,372.08116 C 62.91319,370.46516 64.86719,367.93216 67.30519,364.48416 C 67.91219,363.40516 68.89519,361.95116 70.22819,360.11916 C 70.72719,359.47216 71.21219,358.77216 71.69719,358.01717 C 72.30319,356.40116 73.83919,354.51516 76.27719,352.36016 C 79.44319,349.55716 82.06919,347.02516 84.14419,344.76116 L 87.25619,341.20516 C 87.37719,340.98916 87.62019,340.88116 87.98419,340.88116 L 90.17919,340.23516 C 90.42119,340.23516 90.67719,340.23516 90.92019,340.23516 C 93.72319,340.88116 95.12319,342.49916 95.12319,345.08516 C 95.12319,345.84016 94.32819,347.34816 92.75219,349.61116 L 91.64819,351.22816 C 90.42119,352.84417 89.20919,354.40716 87.98419,355.91617 C 87.01319,358.17916 86.07119,360.01116 85.15519,361.41216 C 84.23919,362.81316 82.91919,364.96816 81.22119,367.87916 C 80.23719,369.06416 79.02519,371.81217 77.55719,376.12316 C 77.67919,376.12316 77.79919,376.17616 77.92019,376.28416 C 78.40519,375.74517 79.44319,374.50716 81.03219,372.56717 C 82.25919,370.73516 83.17519,369.54916 83.78019,369.00916 L 85.42419,367.39316 C 86.77119,366.10016 88.77919,364.37616 91.45919,362.22016 C 92.32119,361.68116 93.29119,360.60416 94.39619,358.98716 C 95.48719,357.37116 96.47119,356.23916 97.31919,355.59216 C 98.90819,354.40716 100.55219,353.11317 102.26319,351.71316 C 103.48919,350.63516 104.45919,349.61116 105.18719,348.64116 C 105.92719,347.67216 107.69219,346.80916 110.49319,346.05517 C 110.87119,345.94717 111.23519,346.00116 111.59919,346.21617 L 114.34719,347.83316 C 114.58919,348.04817 114.76419,348.31916 114.89919,348.64116 C 115.02019,350.15116 114.83219,351.49716 114.34719,352.68317 C 115.93619,353.65216 117.02819,354.51516 117.63319,355.26917 C 118.25319,356.02417 118.37519,357.37116 118.01119,359.31116 C 117.75519,361.25116 117.14919,362.54416 116.17919,363.19116 C 115.19619,363.83716 114.13119,365.50717 112.97219,368.20116 C 111.81519,370.89616 110.62819,372.78116 109.40319,373.86016 C 108.91719,374.29117 108.09619,375.44916 106.93719,377.33516 C 105.77919,379.22117 104.88919,380.32516 104.28419,380.64917 C 102.08819,381.94316 100.98319,382.91216 100.98319,383.55916 C 100.98319,384.63616 99.70419,387.00816 97.14419,390.67216 C 98.59919,389.48716 99.94519,388.51616 101.17219,387.76116 C 104.09519,385.82116 106.84319,384.20516 109.40319,382.91216 C 109.64519,382.91216 110.50819,382.42716 111.96319,381.45717 C 114.53519,379.84117 116.54319,379.03216 118.01119,379.03216 L 118.54919,379.03216 C 119.65519,379.03216 120.62419,379.57116 121.48719,380.64917 C 122.33519,381.72716 122.76719,382.80416 122.76719,383.88316 C 122.76719,385.17516 120.93519,386.95316 117.26919,389.21716 C 115.93619,389.97117 113.72719,391.74916 110.68319,394.55116 C 108.12319,396.92317 105.61719,398.59216 103.17919,399.56316 C 102.93619,399.77917 102.74819,399.94017 102.62719,400.04817 L 102.62719,400.04817 C 102.74819,400.47916 102.81519,400.85617 102.81519,401.17916 C 102.81519,401.82516 102.41119,402.82316 101.62919,404.16916 C 100.83519,405.51717 99.58319,407.32116 97.87219,409.58516 L 96.59219,411.20116 C 95.72919,412.38717 94.88119,413.41116 94.03219,414.27316 C 93.54719,414.70416 93.23719,415.13516 93.11619,415.56717 L 96.95519,416.69717 L 98.06019,416.69717 L 98.23519,416.69717 C 99.34019,416.91317 101.17219,417.50716 103.73219,418.47617 C 104.82319,419.12316 106.22419,419.93116 107.93519,420.90116 L 108.67519,421.06316 C 112.08419,421.81717 114.22519,422.40916 115.07519,422.84117 L 118.92719,425.10416 C 118.92719,425.10416 118.98119,425.15716 119.10319,425.26516 C 121.29719,427.20516 122.82019,428.33716 123.68319,428.66016 L 125.68919,429.46917 C 127.40019,430.22316 129.59619,431.19316 132.27719,432.37916 L 133.74519,433.34816 C 134.59319,432.70116 135.88719,431.78516 137.58419,430.60016 C 138.56819,430.06116 139.96919,429.73916 141.80119,429.63116 C 142.89219,429.19916 144.18519,429.09216 145.64019,429.30716 C 146.62419,429.52316 147.78319,430.00816 149.11619,430.76116 L 151.50019,430.27716 C 152.72719,430.06116 154.18119,429.79216 155.89219,429.46917 C 156.86119,429.14516 158.03319,429.36116 159.36819,430.11517 C 159.98719,430.54716 160.59319,430.97716 161.20019,431.40817 C 164.50019,431.19316 166.31919,431.13917 166.69619,431.24716 C 166.93919,431.24716 167.11319,431.30116 167.23519,431.40817 C 168.70319,432.70116 171.32919,434.96516 175.11619,438.19916 C 175.35719,438.41317 175.47919,438.68317 175.47919,439.00717 C 175.47919,439.65317 175.04819,439.97617 174.19919,439.97617 z M 96.22819,418.80016 L 91.64819,417.50716 L 89.45219,417.82916 C 88.72419,418.36817 88.36119,418.74517 88.36119,418.96117 C 88.60319,419.39217 88.84519,419.87716 89.08819,420.41617 C 91.40519,420.52417 92.87319,420.49716 93.48019,420.33516 C 94.08519,420.17317 94.94819,419.87716 96.03919,419.44717 z"
       inkscape:connector-curvature="0"
       style="fill:#000000;stroke:#000000;stroke-width:2.66667008" />
  </g>
</svg>
