<?xml version="1.0" encoding="UTF-8" standalone="no"?>
<!-- Created with Inkscape (http://www.inkscape.org/) -->

<svg
   xmlns:dc="http://purl.org/dc/elements/1.1/"
   xmlns:cc="http://creativecommons.org/ns#"
   xmlns:rdf="http://www.w3.org/1999/02/22-rdf-syntax-ns#"
   xmlns:svg="http://www.w3.org/2000/svg"
   xmlns="http://www.w3.org/2000/svg"
   xmlns:sodipodi="http://sodipodi.sourceforge.net/DTD/sodipodi-0.dtd"
   xmlns:inkscape="http://www.inkscape.org/namespaces/inkscape"
   width="240"
   height="160"
   id="svg3249"
   version="1.1"
   inkscape:version="0.48.0 r9654"
   sodipodi:docname="BSL letter X.svg">
  <defs
     id="defs3251" />
  <sodipodi:namedview
     id="base"
     pagecolor="#ffffff"
     bordercolor="#666666"
     borderopacity="1.0"
     inkscape:pageopacity="0.0"
     inkscape:pageshadow="2"
     inkscape:zoom="0.77472527"
     inkscape:cx="105.7305"
     inkscape:cy="240"
     inkscape:current-layer="layer1"
     inkscape:document-units="px"
     showgrid="false"
     inkscape:window-width="1024"
     inkscape:window-height="745"
     inkscape:window-x="-8"
     inkscape:window-y="-8"
     inkscape:window-maximized="1" />
  <metadata
     id="metadata3254">
    <rdf:RDF>
      <cc:Work
         rdf:about="">
        <dc:format>image/svg+xml</dc:format>
        <dc:type
           rdf:resource="http://purl.org/dc/dcmitype/StillImage" />
        <dc:title></dc:title>
      </cc:Work>
    </rdf:RDF>
  </metadata>
  <g
     id="layer1"
     inkscape:label="Layer 1"
     inkscape:groupmode="layer"
     transform="translate(0,-320)">
    <text
       xml:space="preserve"
       style="font-size:40px;font-style:normal;font-weight:normal;line-height:125%;letter-spacing:0px;word-spacing:0px;fill:#000000;fill-opacity:1;stroke:none;font-family:Sans"
       x="172.96454"
       y="23.177303"
       id="text3264"
       sodipodi:linespacing="125%"
       transform="translate(0,320)"><tspan
         sodipodi:role="line"
         id="tspan3266"
         x="172.96454"
         y="23.177303" /></text>
    <text
       xml:space="preserve"
       style="font-size:64px;font-style:normal;font-weight:bold;line-height:125%;letter-spacing:0px;word-spacing:0px;fill:#000000;fill-opacity:1;stroke:none;font-family:Sans;-inkscape-font-specification:Sans Bold"
       x="179.41844"
       y="55.446808"
       id="text3268"
       sodipodi:linespacing="125%"
       transform="translate(0,320)"><tspan
         sodipodi:role="line"
         id="tspan3270"
         x="179.41844"
         y="55.446808" /></text>
    <flowRoot
       xml:space="preserve"
       id="flowRoot3272"
       style="font-size:64px;font-style:normal;font-weight:bold;line-height:125%;letter-spacing:0px;word-spacing:0px;fill:#404040;fill-opacity:1;stroke:none;font-family:Sans;-inkscape-font-specification:Sans Bold"
       transform="translate(16.780142,313.5461)"><flowRegion
         id="flowRegion3274"><rect
           id="rect3276"
           width="73.574471"
           height="67.120567"
           x="160.05673"
           y="15.432623"
           style="fill:#404040;fill-opacity:1" /></flowRegion><flowPara
         id="flowPara3278">Y</flowPara></flowRoot>    <path
       id="dp_path090"
       d="M 158.5918,454.53668 C 158.5918,455.18368 158.2278,455.50568 157.4998,455.50568 C 156.7598,455.61368 156.3278,455.34468 156.2198,454.69768 C 154.9948,445.53668 152.6108,438.85567 149.0808,434.65267 C 148.7038,434.11367 148.2848,432.87368 147.7878,430.93368 C 147.3028,428.99368 146.8718,427.80868 146.5078,427.37767 C 146.1438,426.94768 144.3788,426.03167 141.1998,424.62967 L 139.5558,425.11568 C 139.7988,425.86868 140.3518,426.94768 141.1998,428.34867 C 141.5768,428.88767 141.4428,429.37167 140.8358,429.80368 C 140.2308,430.23367 139.7448,430.23367 139.3678,429.80368 C 139.0038,429.37167 138.5198,428.34867 137.9128,426.73168 C 137.6708,426.30067 137.0508,425.22367 136.08079,423.49767 L 135.16479,422.04368 C 134.80079,421.50467 134.18079,420.26468 133.33279,418.32568 L 128.75279,417.67967 L 127.10879,418.00167 C 127.71579,419.07967 128.02479,419.88867 128.02479,420.42767 C 128.02479,422.47367 128.21279,423.71367 128.57679,424.14468 C 129.06279,424.68368 129.00779,425.16868 128.38879,425.59968 C 127.78279,425.92368 127.23079,425.81567 126.74479,425.27667 C 126.25979,424.73767 125.92379,423.63267 125.73479,421.96167 C 125.55979,420.29267 125.22279,419.07967 124.73879,418.32568 C 124.36079,418.10967 124.18479,417.84067 124.18479,417.51667 C 123.68779,416.65567 123.39079,416.06167 123.26879,415.73967 C 122.52879,414.22967 121.19579,412.82867 119.24279,411.53567 C 118.99979,411.32068 117.77279,411.21268 115.57679,411.21268 L 114.29879,411.21268 C 114.05579,411.21268 113.74479,411.21268 113.38279,411.21268 C 113.26079,411.32068 113.08479,411.53567 112.82879,411.85967 L 112.46479,412.18167 C 111.98079,412.61367 111.73879,413.42168 111.73879,414.60767 C 111.73879,414.60767 111.79179,415.03767 111.91279,415.90067 C 111.91279,416.11667 111.85979,416.27767 111.73879,416.38568 C 112.22379,417.13968 112.65479,418.16368 113.01879,419.45667 L 113.19279,420.10367 C 113.44879,420.74967 113.19279,421.18067 112.46479,421.39667 C 111.73879,421.61267 111.23979,421.39667 110.99679,420.74967 L 110.82279,419.94167 C 110.57979,419.18767 109.95979,418.10967 108.99079,416.70867 C 108.50479,415.84767 107.52279,414.49967 106.06679,412.66767 C 105.08379,411.80567 104.28879,410.45768 103.68279,408.62568 C 102.83479,406.25568 102.21479,404.80067 101.85079,404.26167 C 101.00079,402.75267 100.13979,400.97367 99.290788,398.92767 L 98.738788,397.79567 C 97.768788,396.17967 96.354788,393.75367 94.535788,390.52067 L 94.158788,389.71268 C 93.672788,388.63568 92.878788,387.63767 91.787788,386.72168 C 90.682788,385.80567 89.712788,385.40167 88.850788,385.50967 C 88.244788,385.40167 87.516788,385.50967 86.654788,385.83268 C 86.170788,387.23367 85.927788,388.25767 85.927788,388.90468 C 85.927788,389.44367 86.196788,390.25167 86.748788,391.32867 C 87.300788,392.40767 87.570788,393.21567 87.570788,393.75367 C 87.570788,398.38867 88.068788,401.78367 89.039788,403.93767 C 89.160788,404.26167 89.712788,405.28468 90.682788,407.00967 C 92.271788,409.70367 93.160788,411.29368 93.336788,411.77767 C 93.524788,412.26367 94.292788,413.58367 95.626788,415.73967 C 96.488788,416.92467 97.336788,418.64867 98.186788,420.91167 C 98.307788,421.01968 98.374788,421.18067 98.374788,421.39667 C 98.374788,421.61267 98.307788,421.82768 98.186788,422.04368 L 98.186788,422.68967 C 98.186788,425.70768 98.374788,427.48567 98.738788,428.02468 C 99.223788,428.88767 99.479788,430.18067 99.479788,431.90468 C 99.479788,432.33567 99.479788,433.08967 99.479788,434.16767 L 99.290788,435.13767 C 99.290788,435.67667 99.722788,437.99368 100.57079,442.08868 L 108.43879,455.02068 C 108.55979,455.12868 108.62679,455.28968 108.62679,455.50568 C 108.62679,455.93668 108.38379,456.20568 107.88479,456.31368 C 107.27979,456.63768 106.79479,456.52968 106.43079,455.99168 L 98.563788,442.89668 C 98.428788,442.78868 98.374788,442.68168 98.374788,442.57368 C 97.526788,438.26367 97.094788,435.78468 97.094788,435.13767 L 97.094788,434.16767 C 97.215788,431.36568 97.067788,429.64067 96.636788,428.99368 C 96.206788,428.34867 95.990788,427.21668 95.990788,425.59968 C 95.142788,426.89268 94.588788,427.75568 94.346788,428.18567 C 93.376788,429.58768 91.840788,431.58067 89.766788,434.16767 C 89.644788,434.49167 89.227788,435.99967 88.486788,438.69367 C 86.654788,446.77668 85.132788,451.62568 83.919788,453.24368 C 83.422788,453.78168 82.882788,453.83568 82.263788,453.40468 C 81.656789,453.08068 81.588789,452.64968 82.087788,452.11168 C 83.179788,450.70968 84.579788,446.12968 86.291788,438.36967 C 87.031788,435.24467 87.516788,433.46767 87.759788,433.03667 C 88.971788,431.84968 90.507788,430.01768 92.339788,427.53967 C 92.824788,426.46167 93.983788,424.41368 95.815788,421.39667 C 95.815788,420.96567 95.815788,420.69667 95.815788,420.58867 C 95.694788,420.37267 94.926788,419.10767 93.524788,416.78967 C 92.123788,414.47267 91.328788,413.07167 91.140788,412.58768 C 90.964788,412.10168 90.143788,410.51267 88.675788,407.81768 C 88.190788,406.95567 87.570788,405.93167 86.843788,404.74568 C 85.738788,402.37568 85.199788,398.71167 85.199788,393.75367 C 85.199788,393.42967 84.984788,392.78367 84.552788,391.81368 C 84.122788,390.84468 83.852788,390.19768 83.731788,389.87368 C 83.610788,389.01267 83.663788,388.04168 83.919788,386.96468 C 79.771789,384.05368 77.575789,382.16868 77.319789,381.30567 C 77.198789,381.09167 76.955789,380.65968 76.591789,380.01267 L 75.864789,378.88167 C 75.622789,378.44967 75.190789,377.26467 74.584789,375.32467 C 73.600789,371.66067 72.752789,369.23668 72.011789,368.05167 C 70.556789,365.67967 69.451789,363.25568 68.724789,360.77667 C 67.983789,358.29767 67.255789,355.98067 66.528789,353.82467 C 66.043789,352.63967 65.370789,350.96867 64.507789,348.81368 C 64.144789,347.41267 63.443789,346.03967 62.406789,344.69167 C 61.368789,343.34468 59.874789,342.88568 57.920789,343.31767 C 57.435789,343.20968 56.828789,343.58768 56.088789,344.44867 C 55.724789,345.31167 56.034789,346.33567 57.004789,347.52067 C 57.126789,349.02968 57.623789,351.07667 58.472789,353.66367 C 59.200789,354.41767 59.940789,356.03367 60.668789,358.51268 C 61.395789,360.99167 61.772789,362.71667 61.772789,363.68567 C 61.772789,367.56568 62.070789,369.85567 62.675789,370.55667 C 63.295789,371.25667 64.211789,373.65567 65.423789,377.74967 C 66.043789,379.90567 66.460789,381.36067 66.703789,382.11567 C 67.444789,383.83968 67.740789,385.45567 67.619789,386.96468 L 67.619789,387.44967 C 67.619789,388.20367 67.202789,388.58067 66.339789,388.58067 C 65.612789,388.47267 65.248789,388.14968 65.248789,387.61168 L 65.248789,387.44967 L 65.248789,386.80368 C 65.370789,386.37167 65.423789,386.15667 65.423789,386.15667 C 65.423789,385.18567 65.127789,384.05368 64.507789,382.76167 C 64.264789,382.00767 63.847789,380.49767 63.228789,378.23567 C 62.136789,374.46367 61.342789,372.30767 60.856789,371.76867 C 59.995789,370.69167 59.563789,367.99667 59.563789,363.68567 C 59.563789,362.93167 59.200789,361.39667 58.472789,359.07967 C 57.744789,356.76167 57.126789,355.33367 56.640789,354.79567 C 55.791789,353.82467 55.239789,351.72367 54.996789,348.48967 C 54.014789,347.41267 53.528789,346.28067 53.528789,345.09567 C 53.528789,344.88068 53.596789,344.71968 53.716789,344.61168 C 52.127789,343.85668 50.727789,343.31767 49.500789,342.99368 C 48.774789,342.77968 48.046789,342.99368 47.304789,343.64067 C 47.426789,345.36467 47.790789,347.89768 48.410789,351.23967 C 49.136789,353.60967 49.500789,355.22567 49.500789,356.08867 C 49.500789,356.94967 49.716789,357.86567 50.147789,358.83667 C 50.564789,359.80567 51.023789,361.74568 51.522789,364.65667 L 51.884789,366.27268 C 52.006789,367.02767 52.248789,368.15767 52.612789,369.66767 L 52.976789,370.63667 C 53.098789,370.96067 53.596789,371.76867 54.444789,373.06167 C 55.791789,375.00167 56.587789,377.10367 56.828789,379.36567 C 57.192789,382.06067 57.556789,383.73168 57.920789,384.37767 C 59.024789,386.74868 59.563789,388.68868 59.563789,390.19768 C 59.563789,390.62867 59.322789,390.95167 58.836789,391.16767 C 58.108789,391.38367 57.623789,391.16767 57.382789,390.52067 C 57.126789,389.33567 56.587789,387.55667 55.724789,385.18567 C 55.239789,384.10867 54.875789,382.27667 54.634789,379.68967 C 54.256789,377.64167 53.528789,375.75667 52.438789,374.03267 C 51.454789,372.63167 50.902789,371.66067 50.780789,371.12167 L 50.416789,370.15267 C 50.295789,369.50568 49.986789,368.32068 49.500789,366.59567 L 49.326789,364.81767 C 49.070789,363.52468 48.652789,361.80067 48.046789,359.64468 C 47.547789,358.45967 47.304789,357.21968 47.304789,355.92767 C 47.304789,355.28067 46.940789,353.93267 46.214789,351.88568 C 46.092789,351.45367 45.958789,351.02367 45.836789,350.59267 L 43.466789,350.59267 L 42.186789,351.72367 C 42.064789,352.26167 41.998789,352.90867 41.998789,353.66367 C 41.998789,352.58567 42.360789,354.84867 43.102789,360.45268 C 43.223789,361.85367 43.830789,364.44068 44.920789,368.21268 C 46.024789,371.55368 46.578789,374.08567 46.578789,375.80967 C 46.578789,376.13367 46.483789,376.40367 46.295789,376.61767 C 46.119789,376.83367 46.024789,376.94167 46.024789,376.94167 C 46.024789,377.37267 46.510789,378.12767 47.494789,379.20467 C 48.706789,380.60567 49.379789,381.41367 49.500789,381.62967 C 49.743789,382.16868 50.242789,383.83968 50.968789,386.64067 C 51.332789,388.04168 51.818789,389.60467 52.438789,391.32867 C 52.800789,391.86767 52.680789,392.35267 52.060789,392.78367 C 51.454789,393.10767 50.968789,393.02567 50.606789,392.54168 C 50.242789,392.05667 49.743789,390.62867 49.136789,388.25767 L 48.774789,386.96468 C 48.410789,385.67168 47.911789,384.21667 47.304789,382.59968 C 47.183789,382.27667 46.456789,381.36067 45.108789,379.85168 C 44.260789,378.88167 43.830789,377.91167 43.830789,376.94167 C 43.830789,376.40367 43.951789,375.97168 44.192789,375.64867 C 44.192789,375.21767 43.951789,374.30167 43.466789,372.90067 C 42.724789,370.63667 42.064789,367.94367 41.444789,364.81767 L 41.270789,363.68567 C 40.663789,363.68567 40.232789,363.74067 39.990789,363.84767 C 39.990789,365.78767 40.111789,367.29668 40.354789,368.37368 C 40.354789,368.58968 40.839789,370.15267 41.822789,373.06167 C 42.307789,375.00167 42.550789,376.67267 42.550789,378.07367 C 42.550789,378.39667 43.587789,380.60567 45.662789,384.70068 C 46.510789,386.20967 47.372789,387.77268 48.220789,389.38867 C 49.326789,391.32867 49.864789,392.83768 49.864789,393.91567 C 49.864789,398.76467 50.902789,403.61568 52.976789,408.46467 C 55.550789,414.93167 57.623789,422.15167 59.200789,430.12568 L 59.200789,430.28767 C 59.322789,432.01267 56.451789,439.60968 50.606789,453.08068 C 50.363789,453.62068 49.864789,453.78168 49.136789,453.56568 C 48.652789,453.45768 48.410789,453.13568 48.410789,452.59668 C 48.410789,451.94968 49.838789,448.47368 52.707789,442.16968 C 55.576789,435.86467 56.950789,431.95768 56.828789,430.44967 L 56.828789,430.44967 C 55.360789,422.47367 53.340789,415.41567 50.780789,409.27268 C 48.706789,404.20768 47.668789,399.08867 47.668789,393.91567 C 47.668789,393.16067 47.130789,391.81368 46.024789,389.87368 C 45.176789,388.36567 44.314789,386.90968 43.466789,385.50967 C 41.391789,381.19967 40.354789,378.72067 40.354789,378.07367 C 40.354789,376.88767 40.044789,375.32467 39.438789,373.38568 C 38.588789,370.58367 38.091789,369.02067 37.970789,368.69768 C 37.727789,367.51167 37.606789,365.73367 37.606789,363.36368 C 37.606789,362.28468 38.710789,361.69267 40.906789,361.58467 L 40.718789,360.77667 C 39.990789,355.28067 39.626789,352.90867 39.626789,353.66367 C 39.626789,352.58567 39.747789,351.66967 39.990789,350.91567 C 40.111789,350.69967 40.232789,350.53767 40.354789,350.42967 L 42.186789,348.81368 C 42.428789,348.59767 42.724789,348.48967 43.102789,348.48967 L 45.298789,348.48967 C 45.298789,347.41267 45.176789,345.72867 44.934789,343.46567 C 44.812789,342.81967 45.258789,342.21268 46.295789,341.67368 C 47.331789,341.13568 48.220789,340.86567 48.962789,340.86567 C 50.052789,340.86567 51.884789,341.47267 54.444789,342.67168 C 55.172789,341.47267 56.210789,340.93267 57.556789,341.06767 C 58.042789,340.93267 58.540789,340.86567 59.024789,340.86567 C 62.931789,340.86567 65.544789,343.19667 66.892789,347.87167 C 67.014789,348.74568 67.619789,350.42967 68.724789,352.92168 L 68.724789,353.08467 C 69.572789,355.25267 70.340789,357.56967 71.014789,360.00867 C 71.674789,362.46067 72.684789,364.70967 74.031789,366.77167 C 74.880789,368.18567 75.864789,370.85267 76.955789,374.75967 C 77.198789,375.63568 77.507789,376.65968 77.871789,377.85767 L 78.612789,378.98967 C 78.734789,379.32568 78.975789,379.81167 79.339789,380.45768 C 79.703789,381.11767 81.468789,382.58567 84.647788,384.86368 C 85.254788,383.78468 86.600788,383.30067 88.675788,383.40867 C 90.507788,383.19268 92.514788,384.10867 94.710788,386.15667 C 96.299788,386.26367 97.579788,385.83268 98.563788,384.86368 C 102.21479,380.98367 105.51479,377.96567 108.43879,375.80967 C 110.87579,373.97767 113.69179,373.06167 116.85679,373.06167 C 118.08379,373.06167 119.60479,373.43967 121.43679,374.19367 C 123.26879,374.94867 124.11879,375.80967 123.99679,376.78067 C 124.85979,376.78067 125.27679,377.10367 125.27679,377.74967 C 125.27679,378.18067 125.10279,378.50467 124.73879,378.72067 L 118.32479,381.95268 L 117.40879,382.59968 C 117.16779,383.35367 116.92479,384.00068 116.68279,384.53967 C 115.57679,386.47967 113.98779,388.95768 111.91279,391.97567 L 110.45879,394.07667 C 109.35479,395.69367 107.03679,398.54967 103.49479,402.64468 L 104.04679,403.29168 C 104.66679,405.44768 105.82479,408.08768 107.52279,411.21268 C 108.50479,411.96767 109.17879,412.77567 109.54279,413.63767 C 109.66379,412.45167 110.02779,411.53567 110.63279,410.88867 L 110.99679,410.56567 C 111.85979,409.70367 112.95079,409.27268 114.29879,409.27268 L 115.40279,409.27268 C 118.20479,409.16467 119.96879,409.38068 120.71079,409.91967 C 122.90679,411.42868 124.48279,413.15267 125.46479,415.09267 C 125.46479,415.30767 125.64079,415.68467 126.01879,416.22367 L 128.38879,415.57667 C 128.51079,415.57667 128.69879,415.57667 128.94079,415.57667 L 134.24879,416.54767 C 134.73279,416.54767 135.04379,416.70867 135.16479,417.03267 C 135.52879,418.00167 136.20279,419.34867 137.1718,421.07367 L 138.4648,423.17567 L 140.8358,422.52867 C 141.1998,422.52867 141.5088,422.58167 141.7518,422.68967 C 145.9008,424.41368 148.2188,425.59968 148.7038,426.24568 C 149.2028,426.89268 149.5648,428.07768 149.8078,429.80368 C 150.0508,431.52767 150.4808,432.71268 151.0878,433.35967 C 155.4798,438.64067 157.9848,445.69968 158.5918,454.53668 z M 122.35279,377.42767 C 122.11179,377.31967 121.92279,377.10367 121.80079,376.78067 C 121.67979,376.45667 120.39979,375.91767 117.96279,375.16367 C 115.52379,374.51667 112.87079,375.24467 110.00079,377.34567 C 107.13179,379.44768 103.92479,382.38467 100.38279,386.15667 C 99.290788,387.23367 97.822788,387.88068 95.990788,388.09668 L 96.731788,389.87368 C 97.822788,391.38367 99.223788,393.75367 100.93479,396.98767 L 101.48679,398.28067 C 101.72879,398.71167 102.03879,399.46567 102.40279,400.54368 C 105.56879,396.87967 107.58879,394.40067 108.43879,393.10767 L 110.08079,390.84468 C 110.94379,389.55167 112.46479,387.17967 114.66079,383.73168 C 114.90379,383.19268 115.09279,382.59968 115.21479,381.95268 C 115.33579,381.73767 115.45579,381.52167 115.57679,381.30567 L 116.68279,380.33667 C 116.80379,380.22867 116.92479,380.17567 117.04679,380.17567 z"
       inkscape:connector-curvature="0"
       style="fill:#000000;stroke:#000000;stroke-width:2.66667008" />
  </g>
</svg>
