<?xml version="1.0" encoding="UTF-8" standalone="no"?>
<!-- Created with Inkscape (http://www.inkscape.org/) -->

<svg
   xmlns:dc="http://purl.org/dc/elements/1.1/"
   xmlns:cc="http://creativecommons.org/ns#"
   xmlns:rdf="http://www.w3.org/1999/02/22-rdf-syntax-ns#"
   xmlns:svg="http://www.w3.org/2000/svg"
   xmlns="http://www.w3.org/2000/svg"
   xmlns:sodipodi="http://sodipodi.sourceforge.net/DTD/sodipodi-0.dtd"
   xmlns:inkscape="http://www.inkscape.org/namespaces/inkscape"
   width="240"
   height="160"
   id="svg3249"
   version="1.1"
   inkscape:version="0.48.0 r9654"
   sodipodi:docname="BSL letter C.svg">
  <defs
     id="defs3251" />
  <sodipodi:namedview
     id="base"
     pagecolor="#ffffff"
     bordercolor="#666666"
     borderopacity="1.0"
     inkscape:pageopacity="0.0"
     inkscape:pageshadow="2"
     inkscape:zoom="0.77472527"
     inkscape:cx="105.7305"
     inkscape:cy="240"
     inkscape:current-layer="layer1"
     inkscape:document-units="px"
     showgrid="false"
     inkscape:window-width="1024"
     inkscape:window-height="745"
     inkscape:window-x="-8"
     inkscape:window-y="-8"
     inkscape:window-maximized="1" />
  <metadata
     id="metadata3254">
    <rdf:RDF>
      <cc:Work
         rdf:about="">
        <dc:format>image/svg+xml</dc:format>
        <dc:type
           rdf:resource="http://purl.org/dc/dcmitype/StillImage" />
        <dc:title></dc:title>
      </cc:Work>
    </rdf:RDF>
  </metadata>
  <g
     id="layer1"
     inkscape:label="Layer 1"
     inkscape:groupmode="layer"
     transform="translate(0,-320)">
    <text
       xml:space="preserve"
       style="font-size:40px;font-style:normal;font-weight:normal;line-height:125%;letter-spacing:0px;word-spacing:0px;fill:#000000;fill-opacity:1;stroke:none;font-family:Sans"
       x="172.96454"
       y="23.177303"
       id="text3264"
       sodipodi:linespacing="125%"
       transform="translate(0,320)"><tspan
         sodipodi:role="line"
         id="tspan3266"
         x="172.96454"
         y="23.177303" /></text>
    <text
       xml:space="preserve"
       style="font-size:64px;font-style:normal;font-weight:bold;line-height:125%;letter-spacing:0px;word-spacing:0px;fill:#000000;fill-opacity:1;stroke:none;font-family:Sans;-inkscape-font-specification:Sans Bold"
       x="179.41844"
       y="55.446808"
       id="text3268"
       sodipodi:linespacing="125%"
       transform="translate(0,320)"><tspan
         sodipodi:role="line"
         id="tspan3270"
         x="179.41844"
         y="55.446808" /></text>
    <flowRoot
       xml:space="preserve"
       id="flowRoot3272"
       style="font-size:64px;font-style:normal;font-weight:bold;line-height:125%;letter-spacing:0px;word-spacing:0px;fill:#404040;fill-opacity:1;stroke:none;font-family:Sans;-inkscape-font-specification:Sans Bold"
       transform="translate(16.780142,313.5461)"><flowRegion
         id="flowRegion3274"><rect
           id="rect3276"
           width="73.574471"
           height="67.120567"
           x="160.05673"
           y="15.432623"
           style="fill:#404040;fill-opacity:1" /></flowRegion><flowPara
         id="flowPara3278">A</flowPara></flowRoot>    <path
       id="dp_path061"
       d="M 179.04697,451.31592 C 179.04697,451.63992 178.92597,451.90925 178.68297,452.12392 C 178.07797,452.55592 177.52397,452.50125 177.03997,451.96259 C 170.19597,444.74262 166.35797,440.37722 165.50797,438.86791 C 164.88797,437.79061 162.69397,435.47322 158.92197,431.91721 C 155.13597,428.36121 152.81897,426.42121 151.95597,426.09721 C 150.74397,425.77461 147.75397,423.88792 142.99797,420.43991 C 139.09097,417.53061 136.51897,415.53591 135.30597,414.45861 C 127.61397,407.66921 122.46797,403.92392 119.84197,403.22391 C 117.21397,402.52262 112.97097,400.34121 107.12397,396.67721 L 106.57227,396.35322 C 100.71227,392.58121 96.993669,389.45591 95.404269,386.97721 C 94.434969,385.57591 91.861669,384.06792 87.712269,382.45062 L 84.789669,381.15721 C 84.546969,381.15721 84.304269,381.10392 84.061669,380.99592 L 80.572269,379.54122 C 80.208269,379.54122 79.845669,379.37991 79.481669,379.05592 L 72.705669,376.30792 L 66.669669,373.39861 C 66.549669,373.39861 66.428269,373.34391 66.306969,373.23721 C 65.686969,372.80522 65.201669,372.53591 64.837669,372.42791 L 64.649669,372.59061 C 64.528269,373.23721 64.474969,374.09861 64.474969,375.17721 C 64.474969,377.10261 65.201669,378.55721 66.669669,379.52791 L 71.061669,382.43721 C 74.968269,385.13191 79.413669,388.08261 84.425669,391.31461 C 85.273669,391.74661 87.658969,393.95591 91.565669,397.95591 C 94.609669,401.18921 96.441669,403.02121 97.048269,403.45321 C 98.758969,404.74661 101.02167,407.13061 103.82427,410.57861 C 103.94567,410.79462 104.01227,411.01061 104.01227,411.22521 L 103.91767,411.22521 C 103.91767,411.76391 103.94567,412.08791 104.01227,412.19591 C 104.01227,414.24261 104.37627,415.75191 105.10427,416.72121 C 105.46697,417.26121 105.65627,417.96121 105.65627,418.82391 C 105.65627,420.00921 105.17097,422.05592 104.18697,424.96661 C 103.58167,426.69062 103.31227,427.76791 103.36567,428.19991 C 103.43367,428.63061 103.21767,429.11592 102.73227,429.65461 C 101.99227,430.83991 100.32167,432.10661 97.694969,433.45321 C 95.066969,434.79991 92.656269,435.58121 90.460269,435.79721 C 86.796269,436.44391 84.977669,435.74261 84.977669,433.69591 C 84.924269,433.69591 84.924269,433.64121 84.977669,433.53461 L 84.061669,431.91721 C 82.472269,432.45591 81.434969,432.99461 80.949669,433.53461 C 80.450969,434.07321 80.086969,434.61191 79.845669,435.15061 L 88.816269,442.74792 C 94.300269,443.82662 99.068269,444.36522 103.09627,444.36522 C 104.42967,444.36522 105.65627,444.31062 106.74697,444.20262 C 109.31997,443.77192 112.39097,444.57992 116.00197,446.62792 C 119.59897,448.67592 122.25197,449.75322 123.94997,449.86122 C 128.71897,449.86122 134.69997,450.23862 141.89397,450.99325 C 143.96797,451.74659 146.40697,452.71725 149.20797,453.90259 C 149.94997,454.22525 150.12397,454.71059 149.75997,455.35725 C 149.39797,456.00392 148.84397,456.16525 148.11797,455.84259 C 146.76997,455.19592 144.39897,454.27992 140.97797,453.09459 C 139.63097,452.66259 136.89597,452.33992 132.74697,452.12392 C 129.80997,452.12392 126.88697,452.07059 123.94997,451.96259 C 121.75397,451.85459 118.83097,450.72259 115.16697,448.56792 C 111.87997,446.73592 109.19897,445.98122 107.12397,446.30522 C 106.02027,446.51992 104.67227,446.62792 103.09627,446.62792 C 98.582969,446.62792 93.518969,446.03462 87.900269,444.84922 C 87.780269,444.74262 87.590969,444.63462 87.348269,444.52662 L 77.473669,436.11991 C 77.217669,435.79721 77.164269,435.41991 77.285669,434.98921 C 77.528269,434.23461 78.053669,433.34521 78.834969,432.32121 C 79.629669,431.29721 81.070969,430.46262 83.145669,429.81591 C 82.646969,427.98392 82.282969,426.63722 82.040269,425.77461 C 79.360269,428.36121 77.716269,429.92392 77.097669,430.46262 C 75.264269,432.51061 73.136269,433.69591 70.697669,434.01861 C 69.229669,433.91061 67.397669,434.12661 65.201669,434.66521 C 63.868269,435.85061 63.194969,439.24521 63.194969,444.84922 C 63.194969,451.96259 62.696269,456.75859 61.726969,459.23725 C 61.484269,459.88392 60.930969,460.09858 60.082969,459.88392 C 59.341669,459.66792 59.098969,459.23725 59.341669,458.59059 L 59.341669,458.59059 C 60.204269,456.11192 60.634969,451.53192 60.634969,444.84922 C 60.634969,438.70661 61.537669,434.77321 63.369669,433.04921 C 64.232269,432.29462 65.390969,431.91721 66.845669,431.91721 C 67.949669,431.91721 69.108269,431.91721 70.334969,431.91721 C 72.153669,431.59462 73.809669,430.67861 75.264269,429.16921 C 76.005669,428.30662 78.254969,426.09721 82.040269,422.54122 L 82.229669,422.54122 C 82.957669,421.24791 84.114969,419.73991 85.705669,418.01461 C 86.189669,417.58391 86.984269,417.04522 88.089669,416.39861 C 88.210969,415.85991 91.740269,413.11191 98.690969,408.15461 C 97.357669,406.75321 96.293669,405.75591 95.498969,405.16392 C 94.704269,404.57062 92.777669,402.65721 89.733669,399.42522 C 87.780269,397.48521 85.584269,395.38391 83.145669,393.11991 C 82.282969,392.68921 77.770969,389.67191 69.593669,384.06792 L 65.201669,381.15721 C 64.837669,380.94261 64.528269,380.72661 64.285669,380.51062 L 61.537669,392.47322 C 61.294969,393.22791 60.809669,393.49721 60.082969,393.28262 C 59.220269,393.17461 58.856269,392.79721 58.977669,392.15061 L 62.089669,378.89461 C 61.726969,375.33861 60.378969,372.05191 58.061669,369.03321 C 56.728269,367.20121 55.502969,366.33991 54.410969,366.44661 C 53.670969,366.44661 52.942969,366.50121 52.216269,366.60921 C 52.080269,366.71721 52.026969,366.93191 52.026969,367.25591 C 53.737669,367.57861 54.708269,368.17191 54.950969,369.03321 C 55.192269,369.89591 55.313669,372.10521 55.313669,375.66122 C 55.313669,375.98521 55.070969,376.25461 54.586969,376.46921 C 54.829669,376.36261 53.980269,376.25461 52.026969,376.14661 L 51.474969,376.79322 C 51.353669,377.43991 51.298969,378.13992 51.298969,378.89461 C 51.245669,379.11061 51.205669,379.43321 51.205669,379.86521 C 51.205669,380.29591 51.245669,380.56522 51.298969,380.67322 C 51.298969,381.64262 50.773669,383.12522 49.736269,385.11862 C 48.700269,387.11191 48.120269,388.53991 47.998969,389.40262 L 47.998969,390.04921 C 47.756269,391.66521 47.568269,392.68921 47.446969,393.11991 C 47.204269,393.87461 46.773669,394.52121 46.166969,395.05991 C 45.197669,395.92261 43.418969,398.13191 40.858969,401.68792 C 38.057669,405.67591 36.656269,408.26262 36.656269,409.44792 C 36.656269,412.78791 36.278969,416.29061 35.552269,419.95461 L 27.320269,448.40662 C 27.198969,449.05322 26.701669,449.26792 25.852269,449.05322 C 25.245669,448.94522 24.936269,448.62122 24.936269,448.08262 C 24.882969,447.97462 24.882969,447.86792 24.936269,447.75992 L 33.166969,419.63191 C 33.908269,414.78262 34.272269,411.44121 34.272269,409.60921 C 34.272269,407.77721 35.793669,404.70521 38.852269,400.39461 C 41.412269,396.83861 43.244269,394.57461 44.334969,393.60521 C 44.941669,393.06661 45.372269,391.82661 45.614969,389.88661 L 45.614969,389.23991 C 45.736269,388.05461 46.409669,386.38521 47.634969,384.22921 C 48.484269,382.39721 48.914969,381.26521 48.914969,380.83461 L 48.914969,380.51062 C 48.793669,379.97192 48.726969,379.43321 48.726969,378.89461 C 48.726969,377.92522 48.914969,377.00921 49.278969,376.14661 L 49.278969,375.82261 L 49.830969,375.17721 L 49.090969,367.90262 C 49.090969,367.57861 49.278969,367.30921 49.642969,367.09321 C 49.642969,366.23191 49.952269,365.58521 50.558969,365.15461 C 50.801669,364.83062 52.026969,364.56121 54.222969,364.34521 C 56.297669,364.23861 58.250969,365.42392 60.082969,367.90262 C 60.930969,369.08791 61.726969,370.38121 62.453669,371.78122 C 62.696269,371.13461 63.126969,370.70391 63.733669,370.48921 C 64.353669,370.27321 65.753669,370.70391 67.949669,371.78122 C 72.462969,364.84391 75.264269,360.66791 76.369669,359.25292 L 78.376269,356.49191 C 78.497669,356.26292 78.686969,356.15491 78.929669,356.15491 C 80.761669,355.18491 83.873669,353.50092 88.264269,351.11692 C 90.581669,349.81092 94.245669,347.21092 99.244269,343.30392 L 99.432269,343.14292 C 100.65767,342.49592 101.87097,342.38792 103.09627,342.81892 C 105.04967,343.46492 106.02027,345.08092 106.02027,347.66792 C 106.02027,349.93192 104.49767,352.69292 101.43897,355.92691 C 100.59097,356.89591 96.010969,361.04521 87.712269,368.37321 C 86.862969,369.23592 85.030969,372.37461 82.229669,377.76261 L 84.425669,378.73322 C 86.756269,375.17721 88.224269,373.07461 88.844269,372.42791 C 89.206969,372.21321 89.881669,371.45861 90.864269,370.16521 C 92.574969,368.33321 93.680269,367.20121 94.165669,366.77062 C 94.406969,366.66261 95.390969,366.12391 97.101669,365.15461 C 99.674969,363.64521 102.55767,361.86662 105.73627,359.81991 C 106.22167,359.38792 107.99997,358.36392 111.07097,356.74792 C 112.78197,355.88492 114.73497,354.86291 116.94397,353.67592 C 117.30797,352.81491 118.38597,352.32891 120.17797,352.22091 C 122.09097,352.22091 123.23597,352.65291 123.59997,353.51492 L 123.77497,353.67592 C 124.86597,356.26292 124.69097,358.84892 123.22297,361.43592 C 122.25197,363.37592 120.35397,365.31591 117.55097,367.25591 C 115.23397,368.76391 112.91797,370.27321 110.59997,371.78122 L 109.85897,372.42791 C 107.54197,374.15321 105.10427,376.25461 102.54427,378.73322 C 102.05897,379.59462 100.40167,381.80391 97.600269,385.36121 C 102.11367,382.26261 104.59227,380.39062 105.00967,379.72921 C 105.44027,379.06921 107.97397,377.68261 112.60697,375.59462 C 116.27097,373.82922 118.39997,372.69722 119.01897,372.19992 C 119.62597,371.70121 120.47497,371.56661 121.57897,371.78122 C 124.38197,372.10521 125.78197,373.74921 125.78197,376.71192 C 125.78197,378.67861 124.56997,380.60521 122.13097,382.46391 C 120.17797,383.99991 117.91497,385.14521 115.35497,385.91321 C 112.41897,388.32391 109.97997,390.23721 108.02697,391.66521 C 111.44797,390.04921 113.34797,388.97061 113.71197,388.43191 C 115.40997,386.16921 117.18697,385.03721 119.01897,385.03721 C 119.86797,385.03721 120.75797,385.38792 121.67397,386.08791 C 122.58997,386.78921 122.92597,387.78521 122.66997,389.07861 L 122.49497,390.21061 C 122.13097,392.25862 119.62597,395.11461 114.99097,398.77861 C 117.30797,399.96391 119.19497,400.77191 120.66297,401.20261 C 123.58597,401.95721 129.01497,405.83721 136.94997,412.84262 C 138.29597,414.02791 140.92397,416.07461 144.82997,418.98521 C 149.22197,422.11061 151.83497,423.83462 152.69797,424.15861 C 154.03097,424.58922 156.65797,426.66392 160.56397,430.38121 C 164.47097,434.09991 166.81497,436.63191 167.60997,437.97991 C 168.40397,439.32661 172.14997,443.55592 178.87197,450.66922 C 178.99397,450.77725 179.04697,450.99325 179.04697,451.31592 z M 122.13097,357.07191 C 122.13097,356.31691 121.88797,355.45492 121.39097,354.48491 C 120.54197,354.26891 119.84197,354.37691 119.28797,354.80791 C 118.73597,355.23892 116.39197,356.53192 112.24297,358.68792 C 109.18597,360.51992 104.55097,363.26791 98.328269,366.93191 C 97.600269,367.36392 96.684269,367.90262 95.593669,368.54921 C 95.216269,368.76391 94.393669,369.65321 93.113669,371.21591 C 91.834969,372.77861 91.012269,373.66791 90.649669,373.88391 C 90.029669,374.42261 88.696269,376.30792 86.621669,379.54122 L 88.816269,380.51062 C 91.376269,381.58922 93.640269,382.82791 95.593669,384.22921 C 98.273669,380.68661 99.862969,378.47721 100.34827,377.61461 C 100.83367,376.75321 103.46027,374.48921 108.21497,370.83861 L 108.94297,370.19191 C 111.13897,368.79061 113.33497,367.33591 115.53097,365.81461 C 118.34597,363.98261 120.17797,362.25722 121.02697,360.64091 C 121.76697,359.34791 122.13097,358.14891 122.13097,357.07191 z M 103.63497,347.69592 C 103.63497,346.07892 103.15097,345.10892 102.18027,344.78492 C 101.80297,344.67692 101.31767,344.73192 100.71227,344.94692 C 95.834969,348.82692 92.170969,351.43991 89.733669,352.78791 C 87.294969,354.13492 84.182969,355.77891 80.397669,357.71692 L 78.376269,360.46692 C 77.406969,361.75992 74.658969,365.80121 70.145669,372.59061 L 73.809669,374.36791 L 80.033669,376.95461 C 83.198969,370.91991 85.152269,367.57861 85.893669,366.93191 C 94.192269,359.60392 98.758969,355.50891 99.606969,354.64691 C 102.30167,351.73691 103.63497,349.41992 103.63497,347.69592 z M 122.49497,374.69191 C 122.00997,373.93721 121.33597,373.77591 120.48797,374.20661 C 119.86797,374.74522 117.61897,375.90391 113.71197,377.68261 C 109.80597,379.45992 107.66297,380.51062 107.29897,380.83461 C 106.69367,381.91192 103.82427,384.06792 98.690969,387.30121 C 100.03897,388.48662 101.81627,389.94121 104.01227,391.66521 L 104.01227,391.66521 C 107.17797,389.18661 110.65397,386.59991 114.43897,383.90661 C 115.16697,383.79861 116.51397,383.25992 118.46697,382.28921 C 121.63197,380.45721 123.22297,378.67861 123.22297,376.95461 C 123.22297,376.19991 122.97997,375.44661 122.49497,374.69191 z M 120.29897,388.59462 C 120.41997,388.05461 120.05597,387.57062 119.19497,387.13861 C 118.34597,386.70791 117.24197,387.51591 115.90697,389.56391 C 115.16697,390.53321 112.41897,392.09591 107.66297,394.25191 L 108.02697,394.57461 L 108.57897,394.89861 C 109.44197,395.43721 110.84297,396.29991 112.79597,397.48521 C 117.30797,394.35991 119.74697,391.82661 120.11097,389.88661 z M 100.90027,410.74121 L 100.16027,409.77062 C 98.946969,410.74121 97.721669,411.65721 96.509669,412.51861 C 97.964269,411.87191 99.432269,411.27991 100.90027,410.74121 z M 52.754969,374.04521 C 52.754969,371.67461 52.700269,370.21861 52.578969,369.67991 C 52.336269,369.57191 52.026969,369.46521 51.662969,369.35721 L 52.216269,373.88391 C 52.322969,373.88391 52.512269,373.93721 52.754969,374.04521 z M 103.27097,418.66122 C 103.27097,418.33861 103.21767,418.06922 103.09627,417.85322 C 102.11367,416.66791 101.62827,414.99722 101.62827,412.84262 C 93.572269,415.85991 88.870969,418.06922 87.537669,419.47061 C 85.220269,421.84121 84.061669,423.45721 84.061669,424.31991 L 84.061669,424.48122 C 84.425669,425.23592 84.977669,427.12121 85.705669,430.13861 L 87.348269,432.88792 C 87.348269,432.99461 87.348269,433.12921 87.348269,433.29191 C 87.348269,433.45321 87.348269,433.58791 87.348269,433.69591 L 87.348269,433.69591 L 87.348269,433.69591 C 87.833669,433.91061 88.749669,433.91061 90.096269,433.69591 C 92.049669,433.47991 94.245669,432.69861 96.684269,431.35191 C 99.122969,430.00391 100.52297,429.00792 100.90027,428.36121 C 100.90027,428.36121 100.83367,428.30662 100.71227,428.19991 C 100.71227,427.65991 100.95497,426.74391 101.43897,425.45062 C 99.364269,425.45062 96.872269,425.93592 93.936269,426.90661 C 93.208269,427.12121 92.656269,426.90661 92.292269,426.25992 C 92.049669,425.61322 92.292269,425.12791 93.020269,424.80391 C 96.805669,423.72661 99.862969,423.24261 102.18027,423.34921 C 102.90827,421.19461 103.27097,419.63191 103.27097,418.66122 z"
       inkscape:connector-curvature="0"
       style="fill:#000000;stroke:#000000;stroke-width:2.66667008" />
  </g>
</svg>
