<?xml version="1.0" encoding="UTF-8" standalone="no"?>
<!-- Created with Inkscape (http://www.inkscape.org/) -->

<svg
   xmlns:dc="http://purl.org/dc/elements/1.1/"
   xmlns:cc="http://creativecommons.org/ns#"
   xmlns:rdf="http://www.w3.org/1999/02/22-rdf-syntax-ns#"
   xmlns:svg="http://www.w3.org/2000/svg"
   xmlns="http://www.w3.org/2000/svg"
   xmlns:sodipodi="http://sodipodi.sourceforge.net/DTD/sodipodi-0.dtd"
   xmlns:inkscape="http://www.inkscape.org/namespaces/inkscape"
   width="240"
   height="160"
   id="svg3249"
   version="1.1"
   inkscape:version="0.48.0 r9654"
   sodipodi:docname="BSL letter A.svg">
  <defs
     id="defs3251" />
  <sodipodi:namedview
     id="base"
     pagecolor="#ffffff"
     bordercolor="#666666"
     borderopacity="1.0"
     inkscape:pageopacity="0.0"
     inkscape:pageshadow="2"
     inkscape:zoom="0.77472527"
     inkscape:cx="105.7305"
     inkscape:cy="240"
     inkscape:current-layer="layer1"
     inkscape:document-units="px"
     showgrid="false"
     inkscape:window-width="1024"
     inkscape:window-height="745"
     inkscape:window-x="-8"
     inkscape:window-y="-8"
     inkscape:window-maximized="1" />
  <metadata
     id="metadata3254">
    <rdf:RDF>
      <cc:Work
         rdf:about="">
        <dc:format>image/svg+xml</dc:format>
        <dc:type
           rdf:resource="http://purl.org/dc/dcmitype/StillImage" />
        <dc:title></dc:title>
      </cc:Work>
    </rdf:RDF>
  </metadata>
  <g
     id="layer1"
     inkscape:label="Layer 1"
     inkscape:groupmode="layer"
     transform="translate(0,-320)">
    <text
       xml:space="preserve"
       style="font-size:40px;font-style:normal;font-weight:normal;line-height:125%;letter-spacing:0px;word-spacing:0px;fill:#000000;fill-opacity:1;stroke:none;font-family:Sans"
       x="172.96454"
       y="23.177303"
       id="text3264"
       sodipodi:linespacing="125%"
       transform="translate(0,320)"><tspan
         sodipodi:role="line"
         id="tspan3266"
         x="172.96454"
         y="23.177303" /></text>
    <text
       xml:space="preserve"
       style="font-size:64px;font-style:normal;font-weight:bold;line-height:125%;letter-spacing:0px;word-spacing:0px;fill:#000000;fill-opacity:1;stroke:none;font-family:Sans;-inkscape-font-specification:Sans Bold"
       x="179.41844"
       y="55.446808"
       id="text3268"
       sodipodi:linespacing="125%"
       transform="translate(0,320)"><tspan
         sodipodi:role="line"
         id="tspan3270"
         x="179.41844"
         y="55.446808" /></text>
    <flowRoot
       xml:space="preserve"
       id="flowRoot3272"
       style="font-size:64px;font-style:normal;font-weight:bold;line-height:125%;letter-spacing:0px;word-spacing:0px;fill:#404040;fill-opacity:1;stroke:none;font-family:Sans;-inkscape-font-specification:Sans Bold"
       transform="translate(16.780142,313.5461)"><flowRegion
         id="flowRegion3274"><rect
           id="rect3276"
           width="73.574471"
           height="67.120567"
           x="160.05673"
           y="15.432623"
           style="fill:#404040;fill-opacity:1" /></flowRegion><flowPara
         id="flowPara3278">B</flowPara></flowRoot>    <path
       id="dp_path062"
       d="M 198.58868,449.39622 C 199.08768,450.04292 198.96668,450.58152 198.22468,451.01222 C 197.49668,451.33622 196.89168,451.17352 196.40668,450.52822 C 192.24368,444.60022 187.43468,433.71492 181.93868,417.87352 C 181.57468,416.90292 178.63868,412.40422 173.15568,404.37492 C 167.65868,396.34692 164.42668,391.95492 163.45568,391.20022 C 159.67068,388.93752 156.07268,387.21222 152.65168,386.02692 C 150.57668,385.27352 147.34368,383.27892 142.95268,380.04552 C 139.28868,377.35222 137.09268,375.52022 136.36468,374.54952 C 136.00068,374.33492 135.38268,374.11892 134.53268,373.90292 C 133.68468,373.68822 133.13168,373.63352 132.89068,373.74152 C 131.90668,374.38822 124.28068,376.97492 110.00268,381.50152 L 105.61068,391.36152 C 108.42668,388.34422 110.12368,385.77092 110.74268,383.61622 C 110.86368,383.18552 111.10668,382.91492 111.47068,382.80822 L 130.69468,376.03222 C 131.05668,375.81622 131.42068,375.81622 131.78468,376.03222 C 140.56768,380.65222 146.91268,384.68022 150.81968,388.11492 C 151.80368,388.96422 153.44668,389.66422 155.76368,390.20292 C 157.71668,390.74292 158.82268,391.22692 159.06368,391.65892 C 162.23068,394.98552 164.12868,396.96552 164.73568,397.61222 C 164.85668,397.82822 164.91068,398.04422 164.91068,398.25892 C 164.91068,398.71752 164.73568,399.05352 164.37168,399.28292 C 163.63068,399.82152 162.99868,399.76822 162.44468,399.12152 C 161.89268,398.47492 160.03468,396.48152 156.86868,393.14022 L 156.86868,392.97892 C 155.52068,392.65492 154.14768,392.27752 152.74668,391.84692 C 151.34468,391.41622 150.09268,390.71492 148.98768,389.74552 C 145.57968,386.72822 139.59868,382.95622 131.05668,378.42952 L 113.11468,384.73352 C 112.26468,386.99752 110.62268,389.52952 108.18368,392.33222 C 108.91068,393.19352 109.34268,394.54152 109.46368,396.37352 C 109.58468,396.80422 109.46368,397.18152 109.08668,397.50422 L 104.33068,400.73752 C 106.89068,401.60022 108.66868,401.60022 109.63868,400.73752 C 111.22768,399.33752 113.61268,396.31892 116.77868,391.68552 C 117.02068,391.46952 117.33068,391.30822 117.69468,391.20022 C 119.28368,390.76952 121.17068,390.55352 123.36468,390.55352 C 123.86368,390.55352 124.56468,390.63492 125.48068,390.79622 C 126.38368,390.95752 127.03068,391.09222 127.39268,391.20022 L 127.58268,391.03892 C 128.06668,390.28422 128.61968,389.96152 129.22468,390.06822 C 129.95268,390.06822 130.57268,390.71492 131.05668,392.00822 C 131.54268,393.62552 132.14868,394.67622 132.89068,395.16022 C 133.61668,395.64552 134.72268,396.69622 136.17668,398.31352 C 137.15968,399.49892 137.83268,400.19892 138.19668,400.41492 C 139.28868,399.87622 140.63568,399.60692 142.22468,399.60692 C 143.07468,399.60692 143.50468,399.98292 143.50468,400.73752 C 143.50468,401.49222 143.07468,401.86952 142.22468,401.86952 C 141.36368,401.86952 140.56768,402.03092 139.84068,402.35492 C 139.74668,404.40152 139.74668,406.01892 139.84068,407.20422 L 141.30868,406.07222 C 142.03668,405.64152 142.64268,405.74952 143.14068,406.39622 C 143.74768,406.93492 143.67968,407.47352 142.95268,408.01222 L 135.08468,413.34692 C 135.09868,413.45492 135.11268,413.56292 135.11268,413.67092 L 135.08468,413.83222 C 135.08468,414.58692 134.60068,414.90952 133.61668,414.80152 L 120.80668,413.18552 C 120.32068,413.18552 119.95668,412.96952 119.71468,412.53892 C 118.85268,411.13752 117.33068,408.82022 115.13468,405.58822 C 114.15168,404.40152 112.75068,403.48552 110.91868,402.83892 C 110.67568,402.94692 110.50068,403.05492 110.37968,403.16292 C 111.22768,403.80952 112.19868,405.85752 113.30268,409.30552 C 113.54468,409.84422 113.35668,410.27622 112.75068,410.59892 L 110.91868,411.89222 C 111.90068,414.26292 112.50768,416.63352 112.75068,419.00552 L 115.13468,420.60822 L 127.94668,431.27752 C 136.36468,435.15752 145.63268,437.74292 155.76368,439.03622 C 157.11068,439.25222 158.75468,440.16822 160.70768,441.78422 C 162.66068,443.40152 164.06268,445.07222 164.92368,446.79622 C 165.77268,449.05892 167.90068,454.70422 171.32368,463.75622 C 171.44368,463.86422 171.51168,463.97222 171.51168,464.08022 C 171.51168,464.72688 171.20268,465.10288 170.59568,465.21088 C 169.73268,465.53489 169.19468,465.31889 168.95168,464.56422 C 167.24068,460.03889 165.04468,454.43489 162.35168,447.76552 C 161.74468,446.25752 160.64068,444.82952 159.06368,443.48152 C 157.47468,442.13492 156.24868,441.40822 155.39968,441.30022 C 144.54268,440.00692 134.96368,437.36552 126.66668,433.37892 C 126.54468,433.27092 126.42368,433.21752 126.30268,433.21752 L 113.30268,422.38552 L 110.55468,420.62152 C 110.31168,420.39222 110.19068,420.12292 110.19068,419.81352 C 109.94768,417.33492 109.27468,414.90952 108.18368,412.53892 C 107.80668,412.21492 107.68468,411.89222 107.80668,411.56822 L 107.80668,411.40692 C 106.83568,409.57492 105.73168,407.95892 104.51968,406.55752 L 97.743677,413.02422 C 95.062677,417.98152 92.556677,421.32152 90.239677,423.04692 C 88.528677,423.90822 85.968677,425.36292 82.547677,427.41092 C 80.351677,428.81222 77.980677,430.69752 75.420677,433.06822 C 69.803677,434.57752 63.027677,436.89492 55.092677,440.02022 C 54.728677,440.34292 54.366677,440.55892 54.002677,440.66692 L 41.730677,462.81355 C 41.366677,463.56822 40.759677,463.72955 39.911677,463.29889 C 39.170677,462.97489 38.995677,462.48955 39.358677,461.84289 L 50.702677,441.15222 C 50.095677,441.04422 49.543677,440.82822 49.058677,440.50552 C 45.030677,441.58292 42.767677,442.47222 42.282677,443.17222 C 41.796677,443.87222 41.191677,444.00692 40.450677,443.57622 C 39.722677,443.14552 39.600677,442.60692 40.086677,441.96022 C 41.070677,440.66692 44.060677,439.37352 49.058677,438.08022 C 49.664677,437.86422 50.162677,437.97222 50.526677,438.40292 C 50.890677,438.83492 51.442677,438.99622 52.170677,438.88822 C 52.412677,438.67352 52.722677,438.56552 53.086677,438.56552 C 56.372677,436.62552 63.270677,434.20022 73.764677,431.29092 C 76.202677,428.92022 78.587677,427.03352 80.903677,425.63222 C 82.615677,424.66292 85.174677,423.15352 88.595677,421.10692 C 90.428677,419.81352 92.556677,416.95752 94.995677,412.53892 L 94.455677,412.05352 C 94.079677,411.83892 93.958677,411.56822 94.079677,411.24552 L 94.079677,411.08422 C 94.079677,410.22152 94.576677,408.84822 95.547677,406.96152 C 96.516677,405.07622 99.211677,403.91752 103.60368,403.48552 C 102.99668,402.51622 101.89268,402.24692 100.30268,402.67752 C 100.05968,402.67752 99.818677,402.67752 99.575677,402.67752 C 99.090677,402.56952 98.604677,402.46292 98.106677,402.35492 C 97.743677,402.67752 97.311677,402.78552 96.827677,402.67752 L 96.651677,402.67752 C 96.274677,402.89352 95.911677,403.00152 95.547677,403.00152 C 92.987677,402.78552 89.566677,405.04822 85.295677,409.79092 C 83.099677,412.26952 81.267677,413.50822 79.812677,413.50822 C 77.482677,413.50822 74.316677,412.70022 70.288677,411.08422 C 69.924677,410.86822 69.682677,410.59892 69.560677,410.27622 C 69.439677,409.52152 69.063677,407.63492 68.456677,404.61752 C 68.483677,404.50952 68.483677,404.34822 68.456677,404.13222 L 70.476677,394.75622 C 70.598677,394.32552 70.840677,394.05622 71.204677,393.94822 C 76.323677,391.57752 79.314677,389.79892 80.176677,388.61352 C 80.662677,387.85892 81.267677,387.48292 82.008677,387.48292 C 82.735677,387.37492 84.204677,388.12822 86.400677,389.74552 C 89.202677,391.90022 90.724677,393.03222 90.967677,393.14022 C 93.042677,394.21752 94.267677,395.88822 94.631677,398.15092 C 94.752677,398.69092 95.358677,399.33752 96.463677,400.09092 C 96.342677,399.22952 96.274677,398.42152 96.274677,397.66692 C 96.274677,395.40292 96.463677,394.02952 96.827677,393.54422 C 97.190677,393.05892 97.688677,392.76292 98.295677,392.65492 C 97.688677,389.96152 97.258677,388.39892 97.015677,387.96692 C 97.015677,387.85892 96.706677,387.53622 96.099677,386.99752 C 95.492677,386.45892 94.819677,385.64952 94.079677,384.57222 C 93.715677,384.14152 91.464677,382.52422 87.316677,379.72292 C 84.622677,377.89092 83.126677,376.78552 82.830677,376.40952 C 82.520677,376.03222 81.335677,375.84292 79.260677,375.84292 C 78.276677,375.95092 74.195677,377.62152 66.988677,380.85492 L 66.260677,381.33892 C 64.186677,382.20152 62.422677,382.74022 60.952677,382.95622 C 57.787677,383.49492 55.403677,384.57222 53.812677,386.18952 C 53.207677,386.83622 52.600677,386.88952 51.980677,386.35092 C 51.254677,385.92022 51.186677,385.38022 51.806677,384.73352 C 53.759677,382.57892 56.682677,381.23222 60.588677,380.69222 C 61.694677,380.47752 63.148677,379.99222 64.980677,379.23752 L 65.896677,378.75352 C 73.588677,375.30422 78.034677,373.58022 79.260677,373.58022 C 82.304677,373.58022 84.258677,374.03752 85.120677,374.95352 C 85.363677,375.16952 86.642677,376.08552 88.959677,377.71622 C 93.836677,381.06952 96.408677,383.13092 96.651677,383.88552 C 96.772677,383.99352 97.258677,384.47752 98.106677,385.35352 C 98.968677,386.21622 99.480677,386.86292 99.668677,387.29352 C 99.844677,387.72422 100.24868,389.30022 100.85568,392.00822 C 102.56668,388.77492 103.41468,386.94292 103.41468,386.51222 C 103.41468,386.08152 102.99668,385.16552 102.13468,383.76422 L 101.40768,382.63222 C 100.42368,381.23222 94.267677,377.24422 82.924677,370.66952 C 81.940677,370.56292 80.662677,370.77752 79.071677,371.31622 C 78.223677,371.64022 75.839677,372.82552 71.932677,374.87352 C 66.691677,377.56692 63.552677,378.96822 62.515677,379.07622 C 61.478677,379.18422 59.336677,379.85752 56.103677,381.09752 C 52.870677,382.33622 50.943677,383.17092 50.338677,383.60292 C 49.367677,384.24952 48.384677,385.48822 47.414677,387.32022 C 46.067677,391.73892 43.992677,397.28952 41.191677,403.97092 C 38.510677,408.06692 35.020677,413.50822 30.750677,420.29752 C 29.416677,422.13092 27.006677,426.30692 23.530677,432.82692 C 20.040677,439.34692 18.248677,442.98422 18.127677,443.73752 C 18.007677,444.06152 17.886677,444.27752 17.764677,444.38422 C 17.266677,444.81622 16.780677,444.92292 16.295677,444.70822 C 15.690677,444.49222 15.379677,444.16952 15.379677,443.73752 C 15.379677,443.09092 17.211677,439.29222 20.876677,432.34152 C 24.527677,425.37622 27.032677,420.93092 28.379677,418.99092 C 30.076677,416.51222 33.566677,411.12422 38.806677,402.82552 C 42.107677,393.44952 44.182677,387.95352 45.030677,386.33752 C 46.135677,384.06022 47.347677,382.49752 48.694677,381.63622 C 50.890677,380.23492 54.419677,378.67222 59.310677,376.94822 C 64.914677,375.11622 68.644677,373.71492 70.476677,372.74422 C 74.626677,370.69752 77.186677,369.45752 78.155677,369.02692 C 80.594677,368.27222 82.426677,368.00292 83.652677,368.21892 C 83.894677,368.32552 84.083677,368.38022 84.204677,368.38022 L 85.659677,369.37752 C 85.780677,369.37752 85.902677,369.37752 86.036677,369.37752 C 99.211677,374.76552 106.16268,377.99892 106.89068,379.07622 C 107.26768,379.50692 107.51068,379.93892 107.63168,380.36952 L 107.80668,380.04552 C 107.92768,379.72292 108.18368,379.50692 108.54768,379.39892 C 122.81268,374.87352 130.38368,372.34022 131.23268,371.80152 C 132.09468,371.26292 133.37468,371.15492 135.08468,371.47892 C 136.67568,371.80152 137.76668,372.34022 138.37268,373.09492 C 138.99168,373.84952 141.12068,375.57352 144.78468,378.26822 C 148.81268,381.39352 151.73568,383.27892 153.56768,383.92552 C 157.23168,385.11092 161.01668,386.88952 164.91068,389.26022 C 165.89468,389.79892 169.31568,394.32552 175.16268,402.83892 C 181.02268,411.35352 184.13468,416.14952 184.49868,417.22692 C 185.23868,419.38152 187.19168,424.23222 190.35868,431.77622 C 194.14368,440.93622 196.89168,446.80952 198.58868,449.39622 z M 137.28068,408.82022 C 137.03868,408.28152 136.97168,406.18022 137.09268,402.51622 C 136.48668,402.30022 135.75968,401.70822 134.89668,400.73752 C 135.63868,401.70822 136.17668,402.83892 136.55468,404.13222 C 136.56768,404.24022 136.58068,404.34822 136.58068,404.45622 C 136.58068,404.56422 136.56768,404.61752 136.55468,404.61752 C 136.17668,406.66552 135.87968,408.44292 135.63868,409.95222 z M 105.97468,383.60292 C 105.97468,382.74022 105.55668,381.66292 104.69468,380.36952 C 104.20868,379.93892 102.13468,378.91492 98.470677,377.29752 C 101.40768,379.34552 103.11868,380.74692 103.60368,381.50152 L 104.33068,382.63222 C 104.69468,383.06422 105.12468,383.76422 105.61068,384.73352 C 105.73168,384.62692 105.82668,384.49222 105.89268,384.32952 C 105.94768,384.16822 105.97468,383.92552 105.97468,383.60292 z M 133.98068,404.45622 C 133.37468,402.94692 132.64768,401.76152 131.78468,400.90022 C 131.42068,400.46822 130.33068,397.93622 128.49868,393.30152 C 127.99968,393.51752 127.15068,393.51752 125.93868,393.30152 C 124.95568,393.08692 124.10668,392.97892 123.36468,392.97892 C 121.66768,392.97892 120.13268,393.08692 118.79868,393.30152 C 116.48268,396.64292 114.46068,399.22952 112.75068,401.06152 C 114.70368,401.81622 116.26668,402.94692 117.42468,404.45622 C 118.58368,405.96422 120.07868,408.12022 121.91068,410.92152 L 133.06468,412.37752 C 132.94368,412.05352 132.89068,411.73092 132.89068,411.40692 C 132.89068,410.11352 133.25268,407.79622 133.98068,404.45622 z M 94.079677,384.73352 L 94.079677,384.41092 L 94.079677,384.57222 z M 106.71568,396.04952 C 106.59468,395.40292 106.47268,394.81092 106.35168,394.27222 C 105.12468,395.45752 103.96668,396.58822 102.87568,397.66692 L 103.23968,398.47492 z M 100.85568,400.09092 L 99.386677,394.75622 C 99.264677,394.75622 99.211677,394.75622 99.211677,394.75622 C 99.090677,395.18822 99.023677,396.15752 99.023677,397.66692 C 99.050677,398.42152 99.050677,399.22952 99.023677,400.09092 C 99.264677,400.19892 99.507677,400.25352 99.763677,400.25352 C 100.12768,400.25352 100.49168,400.19892 100.85568,400.09092 z M 110.55468,409.14422 C 109.94768,407.74292 109.15268,406.23352 108.18368,404.61752 C 107.80668,404.50952 107.38868,404.50952 106.89068,404.61752 C 106.89068,404.83352 106.83568,404.99492 106.71568,405.10292 C 107.92768,406.50422 108.96468,408.01222 109.82668,409.62952 z M 92.987677,400.90022 C 92.744677,400.57622 92.367677,399.49892 91.883677,397.66692 C 90.912677,398.74422 90.428677,399.60692 90.428677,400.25352 C 90.428677,400.68422 90.482677,401.16952 90.603677,401.70822 C 91.464677,401.38422 92.246677,401.11492 92.987677,400.90022 z M 101.04368,406.39622 C 99.090677,406.82692 97.810677,408.06692 97.190677,410.11352 z M 90.239677,395.56552 C 88.892677,394.70292 86.818677,393.24822 84.015677,391.20022 C 83.288677,390.44552 82.735677,390.01492 82.372677,389.90692 C 81.267677,391.41622 78.155677,393.35622 73.036677,395.72692 L 71.016677,404.45622 C 71.514677,406.61092 71.878677,408.17352 72.120677,409.14422 C 76.634677,410.86822 79.435677,411.46152 80.540677,410.92152 C 80.782677,410.81492 81.631677,409.95222 83.099677,408.33622 C 85.295677,405.96422 87.074677,404.29492 88.407677,403.32422 C 88.043677,402.24692 87.855677,401.22292 87.855677,400.25352 C 87.855677,398.96022 88.650677,397.39752 90.239677,395.56552 z"
       inkscape:connector-curvature="0"
       style="fill:#000000;stroke:#000000;stroke-width:2.66667008" />
  </g>
</svg>
