<?xml version="1.0" encoding="UTF-8" standalone="no"?>
<!-- Created with Inkscape (http://www.inkscape.org/) -->

<svg
   xmlns:dc="http://purl.org/dc/elements/1.1/"
   xmlns:cc="http://creativecommons.org/ns#"
   xmlns:rdf="http://www.w3.org/1999/02/22-rdf-syntax-ns#"
   xmlns:svg="http://www.w3.org/2000/svg"
   xmlns="http://www.w3.org/2000/svg"
   xmlns:sodipodi="http://sodipodi.sourceforge.net/DTD/sodipodi-0.dtd"
   xmlns:inkscape="http://www.inkscape.org/namespaces/inkscape"
   width="240"
   height="160"
   id="svg3249"
   version="1.1"
   inkscape:version="0.48.0 r9654"
   sodipodi:docname="BSL letter E.svg">
  <defs
     id="defs3251" />
  <sodipodi:namedview
     id="base"
     pagecolor="#ffffff"
     bordercolor="#666666"
     borderopacity="1.0"
     inkscape:pageopacity="0.0"
     inkscape:pageshadow="2"
     inkscape:zoom="0.77472527"
     inkscape:cx="105.7305"
     inkscape:cy="240"
     inkscape:current-layer="layer1"
     inkscape:document-units="px"
     showgrid="false"
     inkscape:window-width="1024"
     inkscape:window-height="745"
     inkscape:window-x="-8"
     inkscape:window-y="-8"
     inkscape:window-maximized="1" />
  <metadata
     id="metadata3254">
    <rdf:RDF>
      <cc:Work
         rdf:about="">
        <dc:format>image/svg+xml</dc:format>
        <dc:type
           rdf:resource="http://purl.org/dc/dcmitype/StillImage" />
        <dc:title></dc:title>
      </cc:Work>
    </rdf:RDF>
  </metadata>
  <g
     id="layer1"
     inkscape:label="Layer 1"
     inkscape:groupmode="layer"
     transform="translate(0,-320)">
    <text
       xml:space="preserve"
       style="font-size:40px;font-style:normal;font-weight:normal;line-height:125%;letter-spacing:0px;word-spacing:0px;fill:#000000;fill-opacity:1;stroke:none;font-family:Sans"
       x="172.96454"
       y="23.177303"
       id="text3264"
       sodipodi:linespacing="125%"
       transform="translate(0,320)"><tspan
         sodipodi:role="line"
         id="tspan3266"
         x="172.96454"
         y="23.177303" /></text>
    <text
       xml:space="preserve"
       style="font-size:64px;font-style:normal;font-weight:bold;line-height:125%;letter-spacing:0px;word-spacing:0px;fill:#000000;fill-opacity:1;stroke:none;font-family:Sans;-inkscape-font-specification:Sans Bold"
       x="179.41844"
       y="55.446808"
       id="text3268"
       sodipodi:linespacing="125%"
       transform="translate(0,320)"><tspan
         sodipodi:role="line"
         id="tspan3270"
         x="179.41844"
         y="55.446808" /></text>
    <flowRoot
       xml:space="preserve"
       id="flowRoot3272"
       style="font-size:64px;font-style:normal;font-weight:bold;line-height:125%;letter-spacing:0px;word-spacing:0px;fill:#404040;fill-opacity:1;stroke:none;font-family:Sans;-inkscape-font-specification:Sans Bold"
       transform="translate(16.780142,313.5461)"><flowRegion
         id="flowRegion3274"><rect
           id="rect3276"
           width="73.574471"
           height="67.120567"
           x="160.05673"
           y="15.432623"
           style="fill:#404040;fill-opacity:1" /></flowRegion><flowPara
         id="flowPara3278">F</flowPara></flowRoot>    <path
       id="dp_path067"
       d="M 176.35065,441.19495 C 176.35065,441.94894 175.91865,442.32695 175.07065,442.32695 C 174.34265,442.43295 173.91165,442.11095 173.79065,441.35595 C 173.66965,439.20094 171.28565,432.62694 166.65065,421.63495 C 163.84965,414.62894 160.30665,409.29494 156.03565,405.63094 C 155.79365,405.52294 155.60365,405.22694 155.48365,404.74094 C 155.36265,404.25594 154.87765,403.09694 154.02765,401.26495 C 153.40965,400.40395 152.31765,399.64924 150.72765,399.00265 C 149.13865,396.63194 146.76765,393.93725 143.58765,390.91994 L 143.22365,390.75864 C 141.02965,390.21994 139.62765,390.05725 139.00765,390.27324 C 138.52265,390.48924 138.03865,390.65064 137.55365,390.75864 C 140.47565,395.17724 142.42965,398.35595 143.41365,400.29595 C 143.77765,401.05095 143.53465,401.53494 142.67165,401.75094 C 141.94565,402.07495 141.39165,401.91194 141.02965,401.26495 C 139.19765,397.38664 137.05465,393.99194 134.61565,391.08124 C 133.52565,389.57324 132.17865,388.54924 130.58765,388.01064 C 129.61865,387.68664 128.27165,387.84794 126.57465,388.49464 L 123.63765,389.95064 L 122.54665,392.05194 C 126.56165,396.57724 128.82365,399.70265 129.30965,401.42795 C 130.17065,404.12094 131.50365,406.22294 133.33765,407.73194 C 133.57865,407.94794 133.69965,408.21694 133.69965,408.53994 C 133.69965,409.29494 133.28265,409.67194 132.42165,409.67194 C 132.05765,409.67194 131.74665,409.56394 131.50365,409.34794 C 129.43065,407.51594 127.90765,405.03694 126.93765,401.91194 C 126.31865,399.86525 124.00165,396.84794 119.97365,392.85994 L 118.51865,391.56664 C 116.56565,388.97994 113.14364,385.04665 108.26665,379.76524 C 106.19165,377.82524 104.26565,375.56264 102.50165,372.97595 C 100.72265,370.38925 98.325645,368.50394 95.266645,367.31864 L 93.986645,366.83324 C 92.639645,366.29464 91.549645,366.42924 90.686645,367.23724 C 89.838645,368.04525 89.406645,368.50394 89.406645,368.61194 L 89.595645,369.58125 C 89.717645,370.01194 89.959645,370.76664 90.322645,371.84524 C 91.185645,372.27594 91.481645,372.76124 91.238645,373.29994 C 93.070645,375.13194 94.297645,376.80264 94.902645,378.31065 C 95.145645,378.95724 98.325645,383.15994 104.41465,390.91994 C 106.62265,393.18264 108.14565,394.96125 108.99465,396.25464 C 109.59964,397.00925 109.97764,397.81725 110.09864,398.67994 C 110.09864,398.89464 110.77164,399.70265 112.10664,401.10394 C 112.96764,401.96694 114.36965,403.74394 116.32265,406.43894 L 117.60265,408.21694 C 118.69365,409.51094 119.24565,410.26495 119.24565,410.47994 L 119.19165,410.47994 C 119.19165,410.58794 119.20565,410.64094 119.24565,410.64094 C 119.36665,411.28794 119.48765,411.88094 119.60965,412.41994 C 119.73065,412.95894 120.22965,413.44394 121.07765,413.87495 C 121.44165,414.09094 121.63065,414.41294 121.63065,414.84494 C 121.63065,416.24495 121.01065,416.56894 119.79865,415.81494 C 118.32965,415.05994 117.29165,413.38894 116.68665,410.80394 C 116.44365,410.47994 116.06665,409.99495 115.58165,409.34794 L 114.30165,407.73194 C 113.08964,406.11594 111.37864,404.06794 109.18264,401.58894 C 108.31965,400.83465 107.78165,399.97194 107.52565,399.00265 C 107.40365,398.46394 107.22965,397.92525 106.98665,397.38664 C 106.12565,396.30795 104.60265,394.63864 102.40665,392.37464 L 102.23165,392.37464 C 96.614645,385.90924 93.381645,381.43594 92.518645,378.95724 C 91.427645,377.77195 90.026645,375.93995 88.315645,373.46125 C 87.210645,373.03064 85.634645,373.62264 83.559645,375.23994 C 83.923645,377.50264 84.287645,378.79595 84.651645,379.11865 C 86.119645,380.51994 87.709645,383.91464 89.406645,389.30394 C 89.527645,389.62664 90.201645,390.75864 91.427645,392.69864 C 93.745645,396.25464 95.145645,398.84125 95.630645,400.45724 C 95.873645,400.99594 96.061645,401.31995 96.182645,401.42795 L 95.819645,401.42795 C 96.182645,401.53494 96.425645,401.64294 96.546645,401.75094 C 99.483645,405.09194 102.52765,408.70294 105.70665,412.58094 C 107.28365,417.75495 108.81865,420.98794 110.27364,422.28094 C 113.45365,425.08294 118.32965,429.23194 124.91765,434.72794 C 127.73365,436.66795 130.46765,438.60794 133.16165,440.54795 C 136.44765,443.02695 138.76565,445.18295 140.11365,447.01495 C 141.08265,448.30795 143.58765,450.89295 147.61565,454.77295 C 148.96365,456.06695 150.48565,457.68395 152.19565,459.62295 C 152.55965,460.26895 152.37165,460.75495 151.64365,461.07895 C 150.91565,461.29295 150.36365,461.07895 149.99965,460.43195 C 149.75865,460.10795 148.34365,458.70695 145.78365,456.22795 C 141.63465,452.34895 139.00765,449.62794 137.91765,448.06494 C 136.81165,446.50294 134.61565,444.48095 131.32965,442.00294 C 128.64965,440.17095 125.95465,438.28494 123.27365,436.34494 C 120.09465,433.54295 115.21765,429.39294 108.63065,423.89695 C 106.79865,422.38894 105.03365,418.88694 103.32265,413.38894 C 102.35365,412.09694 99.483645,408.70294 94.714645,403.20494 C 94.471645,403.09694 94.229645,402.88294 93.986645,402.55894 C 92.275645,403.85194 91.238645,404.74094 90.875645,405.22694 C 90.511645,405.71195 89.905645,406.76294 89.043645,408.37894 C 86.847645,412.25894 85.351645,414.44094 84.557645,414.92494 C 83.762645,415.41094 81.230645,417.26895 76.973645,420.50294 L 70.197645,425.35194 C 62.626645,431.17194 58.450645,434.18894 57.655645,434.40494 C 56.859645,434.61995 55.702645,435.26694 54.179645,436.34494 C 52.657645,437.42295 51.767645,438.20394 51.525645,438.68894 C 51.283645,439.17295 50.057645,441.03294 47.861645,444.26694 C 44.938645,448.46895 41.879645,453.10295 38.714645,458.16795 C 38.471645,458.81495 37.973645,459.08395 37.246645,458.97595 C 36.397645,458.86895 36.019645,458.43695 36.154645,457.68395 C 36.275645,456.92895 39.442645,452.07995 45.666645,443.13495 C 47.861645,439.90094 49.019645,438.12295 49.141645,437.79994 C 50.609645,435.32094 53.115645,433.48894 56.645645,432.30394 C 57.385645,432.08794 61.346645,429.23194 68.553645,423.73595 C 70.493645,422.33494 71.598645,421.55295 71.839645,421.39194 C 72.082645,421.23095 73.241645,420.34095 75.315645,418.72395 C 79.707645,415.49194 82.239645,413.68694 82.913645,413.30894 C 83.587645,412.93194 84.894645,410.96494 86.847645,407.40895 C 87.709645,405.68394 88.247645,404.65994 88.490645,404.33695 C 89.231645,403.36795 90.699645,402.01994 92.895645,400.29595 L 92.707645,399.48794 C 92.465645,398.84125 91.306645,396.95465 89.231645,393.82925 L 88.126645,391.88925 C 86.173645,394.36795 84.651645,395.87725 83.559645,396.41595 C 83.183645,396.63194 83.129645,397.11725 83.371645,397.87064 C 83.614645,399.16395 83.303645,399.97194 82.455645,400.29595 C 81.365645,400.61865 80.811645,400.24264 80.811645,399.16395 C 80.811645,398.94925 80.866645,398.78665 80.987645,398.67994 L 80.811645,398.35595 C 80.690645,397.70924 80.623645,397.27864 80.623645,397.06264 C 80.623645,395.87725 81.149645,395.04264 82.186645,394.55725 C 83.223645,394.07195 84.773645,392.37464 86.847645,389.46524 C 85.015645,384.61594 83.681645,381.70524 82.819645,380.73595 C 82.455645,380.30525 82.091645,379.49594 81.727645,378.31065 C 80.017645,380.03465 78.549645,381.43594 77.337645,382.51324 L 74.763645,384.45324 C 73.430645,385.31594 71.907645,386.60924 70.197645,388.33324 C 69.711645,388.97994 69.091645,389.08794 68.365645,388.65724 C 68.001645,388.44124 67.813645,388.11725 67.813645,387.68664 C 67.813645,387.03994 69.577645,385.36924 73.119645,382.67595 L 76.231645,380.25065 C 75.626645,380.25065 75.262645,379.98124 75.141645,379.44264 C 74.642645,378.14924 74.157645,376.69464 73.673645,375.07724 L 71.839645,373.13724 C 69.886645,372.27594 68.607645,371.84524 68.001645,371.84524 C 67.138645,372.16794 65.562645,373.56925 63.231645,376.04795 C 62.019645,377.34125 60.861645,378.68795 59.757645,380.08924 C 59.150645,380.84395 58.571645,381.67865 58.018645,382.59465 C 57.479645,383.51064 56.833645,383.75324 56.106645,383.32265 C 55.365645,382.99864 55.190645,382.51324 55.553645,381.86795 C 55.917645,381.22124 56.645645,380.22395 57.749645,378.87725 C 58.841645,377.52924 59.999645,376.15594 61.225645,374.75464 C 61.103645,374.64664 61.037645,374.45864 61.037645,374.18925 C 61.037645,373.91864 60.430645,373.29994 59.203645,372.32925 C 56.766645,371.25194 54.758645,370.98264 53.169645,371.52125 C 52.562645,371.73724 51.041645,373.13724 48.589645,375.72395 C 47.739645,376.58664 47.187645,377.12524 46.945645,377.34125 C 45.975645,378.31065 44.695645,380.46664 43.106645,383.80664 C 42.985645,384.45324 42.486645,385.58524 41.638645,387.20124 C 38.714645,390.43464 36.209645,393.66794 34.134645,396.90125 C 32.787645,399.16395 31.170645,402.63995 29.285645,407.32794 C 27.398645,412.01594 26.415645,415.00694 26.361645,416.29994 C 26.294645,417.59294 25.014645,420.34095 22.509645,424.54394 C 20.017645,428.74694 18.143645,431.38794 16.931645,432.46494 C 16.446645,433.11194 15.894645,433.16494 15.287645,432.62694 C 14.547645,432.08794 14.493645,431.54894 15.099645,431.01094 C 16.082645,430.03994 17.753645,427.56094 20.138645,423.57495 C 22.509645,419.58695 23.761645,417.10794 23.882645,416.13894 C 24.003645,414.62894 25.014645,411.47694 26.899645,406.68094 C 28.799645,401.88495 30.470645,398.24795 31.938645,395.76925 C 34.013645,392.42924 36.573645,389.08794 39.630645,385.74664 C 39.873645,385.09994 40.237645,384.13065 40.722645,382.83724 C 42.433645,379.28125 43.954645,376.96395 45.302645,375.88664 C 45.423645,375.67064 45.854645,375.13194 46.582645,374.26925 C 49.262645,371.35994 51.162645,369.74264 52.253645,369.41994 C 53.963645,368.88124 56.011645,368.96125 58.382645,369.66264 C 60.766645,370.37594 62.383645,371.42664 63.231645,372.84125 C 64.942645,371.10394 66.290645,370.06664 67.259645,369.74264 C 67.879645,369.63594 68.970645,369.79724 70.561645,370.22794 C 72.150645,370.65864 73.187645,371.09064 73.673645,371.52125 L 75.679645,373.62264 C 75.801645,373.83864 75.922645,374.10794 76.057645,374.43065 C 76.662645,375.29325 77.215645,376.80264 77.699645,378.95724 C 78.306645,378.31065 79.222645,377.34125 80.449645,376.04795 L 80.449645,376.04795 C 80.449645,374.75464 82.025645,373.24524 85.203645,371.52125 C 85.931645,371.19864 86.671645,371.03594 87.399645,371.03594 L 87.035645,369.09595 C 86.914645,368.77324 86.847645,368.50394 86.847645,368.28794 C 86.847645,366.99464 87.574645,366.07864 89.043645,365.53994 C 90.997645,364.13864 93.017645,363.92394 95.091645,364.89324 C 95.213645,364.89324 95.334645,364.89324 95.455645,364.89324 L 107.52565,353.45594 C 108.87365,352.28395 110.27364,351.69194 111.74264,351.69194 C 113.21064,351.69194 114.78665,352.70265 116.49765,354.73595 L 116.68665,355.05994 C 117.65565,356.13724 117.48165,357.52524 116.13365,359.23595 L 115.94565,359.71994 L 116.13365,359.71994 L 116.13365,359.71994 C 119.43465,361.01324 120.95765,362.57594 120.71465,364.40794 C 120.21565,365.48664 119.60965,366.94124 118.88265,368.77324 C 118.27565,369.63594 117.41365,370.87464 116.32265,372.49194 C 115.45965,374.64664 114.17965,376.42525 112.46964,377.82524 L 111.01464,379.11865 C 113.69565,381.70524 115.82365,384.13065 117.41365,386.39324 C 118.26265,387.68664 119.24565,388.87194 120.35065,389.95064 L 120.71465,390.27324 L 121.63065,388.65724 C 121.75165,388.33324 121.92665,388.11725 122.16965,388.01064 L 125.46965,386.55464 C 127.78665,385.58524 129.79365,385.36924 131.50365,385.90924 C 133.21565,386.55464 134.73765,387.57864 136.08565,388.97994 C 136.69065,388.65724 137.31065,388.38794 137.91765,388.17194 C 139.12965,387.74124 141.15065,387.90264 143.95165,388.65724 L 144.31565,388.65724 C 145.54165,388.97994 148.16765,391.78264 152.19565,397.06264 C 154.02765,397.92525 155.42965,399.11064 156.39965,400.61865 C 157.12665,401.69695 157.62565,402.93594 157.86765,404.33695 C 162.25965,407.89294 165.97765,413.38894 169.03565,420.82695 C 171.47365,426.21494 173.91165,433.00394 176.35065,441.19495 z M 115.04265,356.64924 C 114.92165,356.54124 114.78665,356.43324 114.66565,356.32524 L 114.49065,356.16395 C 114.00565,355.51724 113.08964,354.76265 111.74264,353.90125 C 111.13564,353.68524 110.34164,354.06264 109.35764,355.03194 L 97.826645,365.86394 C 100.14365,366.94124 102.09765,368.50394 103.68665,370.55194 L 107.16265,367.15724 C 107.78165,366.51064 108.69765,365.48664 109.91064,364.08524 C 111.25764,362.14524 111.98564,361.06794 112.10664,360.85194 L 114.12665,358.10394 C 114.61165,357.34924 114.92165,356.86525 115.04265,356.64924 z M 118.15465,364.08524 C 118.27565,363.33064 117.23865,362.57594 115.04265,361.82265 C 114.78665,361.82265 114.49065,361.92924 114.12665,362.14524 L 111.93064,365.21724 C 111.67464,365.75594 111.01464,366.61725 109.91064,367.80394 L 109.35764,368.44925 C 109.23764,368.55725 109.18264,368.61194 109.18264,368.61194 L 105.15465,372.49194 C 106.60965,374.43065 108.02365,376.10124 109.35764,377.50264 L 110.65064,376.37065 C 112.10664,375.07724 113.26364,373.51464 114.12665,371.68264 C 114.24765,371.25194 114.73365,370.55194 115.58165,369.58125 C 115.83765,369.25864 116.16165,368.74664 116.59165,368.04525 C 117.02265,367.34524 117.53465,366.02524 118.15465,364.08524 z"
       inkscape:connector-curvature="0"
       style="fill:#000000;stroke:#000000;stroke-width:2.66667008" />
  </g>
</svg>
