<?xml version="1.0" encoding="UTF-8" standalone="no"?>
<!-- Created with Inkscape (http://www.inkscape.org/) -->

<svg
   xmlns:dc="http://purl.org/dc/elements/1.1/"
   xmlns:cc="http://creativecommons.org/ns#"
   xmlns:rdf="http://www.w3.org/1999/02/22-rdf-syntax-ns#"
   xmlns:svg="http://www.w3.org/2000/svg"
   xmlns="http://www.w3.org/2000/svg"
   xmlns:sodipodi="http://sodipodi.sourceforge.net/DTD/sodipodi-0.dtd"
   xmlns:inkscape="http://www.inkscape.org/namespaces/inkscape"
   width="240"
   height="160"
   id="svg3249"
   version="1.1"
   inkscape:version="0.48.0 r9654"
   sodipodi:docname="BSL letter F.svg">
  <defs
     id="defs3251" />
  <sodipodi:namedview
     id="base"
     pagecolor="#ffffff"
     bordercolor="#666666"
     borderopacity="1.0"
     inkscape:pageopacity="0.0"
     inkscape:pageshadow="2"
     inkscape:zoom="0.77472527"
     inkscape:cx="105.7305"
     inkscape:cy="240"
     inkscape:current-layer="layer1"
     inkscape:document-units="px"
     showgrid="false"
     inkscape:window-width="1024"
     inkscape:window-height="745"
     inkscape:window-x="-8"
     inkscape:window-y="-8"
     inkscape:window-maximized="1" />
  <metadata
     id="metadata3254">
    <rdf:RDF>
      <cc:Work
         rdf:about="">
        <dc:format>image/svg+xml</dc:format>
        <dc:type
           rdf:resource="http://purl.org/dc/dcmitype/StillImage" />
        <dc:title></dc:title>
      </cc:Work>
    </rdf:RDF>
  </metadata>
  <g
     id="layer1"
     inkscape:label="Layer 1"
     inkscape:groupmode="layer"
     transform="translate(0,-320)">
    <text
       xml:space="preserve"
       style="font-size:40px;font-style:normal;font-weight:normal;line-height:125%;letter-spacing:0px;word-spacing:0px;fill:#000000;fill-opacity:1;stroke:none;font-family:Sans"
       x="172.96454"
       y="23.177303"
       id="text3264"
       sodipodi:linespacing="125%"
       transform="translate(0,320)"><tspan
         sodipodi:role="line"
         id="tspan3266"
         x="172.96454"
         y="23.177303" /></text>
    <text
       xml:space="preserve"
       style="font-size:64px;font-style:normal;font-weight:bold;line-height:125%;letter-spacing:0px;word-spacing:0px;fill:#000000;fill-opacity:1;stroke:none;font-family:Sans;-inkscape-font-specification:Sans Bold"
       x="179.41844"
       y="55.446808"
       id="text3268"
       sodipodi:linespacing="125%"
       transform="translate(0,320)"><tspan
         sodipodi:role="line"
         id="tspan3270"
         x="179.41844"
         y="55.446808" /></text>
    <flowRoot
       xml:space="preserve"
       id="flowRoot3272"
       style="font-size:64px;font-style:normal;font-weight:bold;line-height:125%;letter-spacing:0px;word-spacing:0px;fill:#404040;fill-opacity:1;stroke:none;font-family:Sans;-inkscape-font-specification:Sans Bold"
       transform="translate(16.780142,313.5461)"><flowRegion
         id="flowRegion3274"><rect
           id="rect3276"
           width="73.574471"
           height="67.120567"
           x="160.05673"
           y="15.432623"
           style="fill:#404040;fill-opacity:1" /></flowRegion><flowPara
         id="flowPara3278">G</flowPara></flowRoot>    <path
       id="dp_path068"
       d="M 170.9268,386.69192 C 171.2888,387.35333 171.1678,387.83732 170.5628,388.16133 C 169.8348,388.48392 169.2828,388.32262 168.9188,387.67592 C 168.1768,386.59862 165.5638,385.03592 161.0388,382.98792 C 153.9648,379.75463 149.5068,376.57593 147.6748,373.45062 C 145.9768,370.64793 144.1988,368.70793 142.3798,367.63062 C 139.6868,366.12262 137.8548,364.88262 136.8838,363.91333 C 134.4448,361.43463 128.7068,357.66263 119.68079,352.59732 C 119.55979,352.59732 118.57679,352.59732 116.74479,352.59732 C 113.57879,352.48932 111.31579,352.43463 109.98279,352.43463 L 108.87679,352.43463 C 94.719789,352.43463 86.663793,352.91993 84.723793,353.89062 C 83.255793,354.10532 81.234793,354.69862 78.674793,355.66792 C 77.583793,356.31463 76.910793,358.03993 76.667793,360.84133 L 76.478793,361.48792 L 76.478793,361.97333 C 76.236793,363.15862 76.115793,364.01992 76.115793,364.55992 L 76.115793,364.72133 L 81.422793,365.69062 C 83.618793,364.39732 85.383793,363.31992 86.730793,362.45732 C 86.851793,362.24262 87.040793,362.13462 87.282793,362.13462 C 87.888793,361.70392 88.279793,361.40662 88.468789,361.24533 C 88.656789,361.08392 89.290789,360.41063 90.394789,359.22532 L 90.570789,359.06262 C 90.206789,358.84792 89.047789,358.68533 87.094793,358.57863 C 85.882793,358.47063 85.262793,358.09332 85.262793,357.44663 C 85.262793,356.79992 85.639793,356.47732 86.366793,356.47732 C 86.972793,356.47732 88.131793,356.53063 89.842789,356.63863 C 90.570789,356.74662 91.310789,356.96133 92.038789,357.28532 C 93.007789,356.20662 93.802789,355.66792 94.422789,355.66792 L 103.75879,355.66792 C 105.33479,355.66792 108.94479,355.29063 114.54879,354.53732 C 115.53179,354.32132 116.01679,354.59063 116.01679,355.34532 L 116.01679,355.50663 C 116.13879,356.15332 115.82879,356.53063 115.10079,356.63863 C 109.24079,357.39332 105.45579,357.76933 103.75879,357.76933 L 94.786789,357.76933 C 94.664789,357.98533 94.476789,358.17462 94.234789,358.33592 C 93.991789,358.49733 93.384789,359.14392 92.402789,360.27592 C 91.431789,361.40662 90.758789,362.13462 90.394789,362.45732 C 92.468789,363.21192 93.627789,364.23592 93.870789,365.52932 C 93.991789,366.49862 93.439789,367.52262 92.226789,368.60132 C 91.728789,369.13992 90.731789,369.92132 89.208789,370.94532 C 87.672793,371.96793 86.608793,372.31862 86.003793,371.99592 L 82.527793,370.27062 C 82.406793,370.16392 81.975793,370.10932 81.234793,370.10932 C 81.490793,371.26792 82.096793,372.02262 83.066793,372.33192 C 86.244793,373.50393 88.374793,373.82792 89.478789,373.28932 L 90.031789,372.96532 C 91.970789,372.10263 95.150789,369.94792 99.542789,366.49862 C 100.14779,366.06792 100.76779,366.06792 101.37479,366.49862 C 101.73679,366.82262 101.85879,367.19992 101.73679,367.63062 C 102.22279,367.84662 102.89579,368.06132 103.75879,368.27732 C 105.57679,368.60132 106.99179,368.73592 107.96079,368.68132 C 108.94479,368.62792 109.48379,368.97732 109.60479,369.73193 C 110.10379,370.05592 110.22479,370.86392 109.98279,372.15732 C 111.55879,372.58793 112.41979,373.28932 112.54079,374.25862 C 112.66279,374.47462 112.95979,375.01332 113.45679,375.87463 C 113.94279,376.73732 114.18479,377.38393 114.18479,377.81463 C 114.30679,378.99992 114.95279,380.13192 116.11179,381.20933 C 117.27079,382.28792 118.52279,383.36533 119.85579,384.44262 C 121.8088,385.95192 123.3318,386.70662 124.4368,386.70662 C 124.9208,386.70662 126.2008,386.97592 128.2758,387.51462 C 129.7438,387.83732 131.0238,387.83732 132.1288,387.51462 C 134.0688,386.86792 135.9678,386.27462 137.7998,385.73592 C 138.6488,385.51992 139.2008,385.73592 139.4438,386.38262 C 139.6868,387.02932 139.4168,387.48792 138.6228,387.75733 C 137.8268,388.02662 135.9678,388.59192 133.0448,389.45462 C 131.3348,390.10132 129.0168,389.99332 126.0798,389.13062 C 125.2318,388.91592 124.6798,388.80792 124.4368,388.80792 C 123.4528,388.80792 121.6888,388.05332 119.12879,386.54392 C 116.56879,385.03592 114.85879,383.79592 114.01079,382.82663 C 112.66279,381.42533 111.93579,379.75463 111.80079,377.81463 C 111.80079,377.70793 111.55879,377.27592 111.07279,376.52133 C 110.58779,375.76792 110.27879,375.12132 110.15679,374.58262 C 110.03579,374.47462 109.86079,374.36662 109.61879,374.25862 C 109.36279,375.01332 108.94479,375.65993 108.32479,376.19862 C 109.18779,377.27592 109.79279,378.29992 110.15679,379.27062 C 110.39979,380.23992 110.34479,381.20933 109.98279,382.17992 C 109.36279,383.68792 109.06679,384.55062 109.06679,384.76663 C 108.82379,385.73592 107.47579,386.59862 105.03879,387.35333 C 105.88679,388.10662 106.31879,390.26262 106.31879,393.81862 C 106.31879,395.00393 105.76479,395.81192 104.67479,396.24392 C 103.56879,396.67462 102.47879,396.83592 101.37479,396.72932 C 100.52479,396.62132 99.178789,396.56663 97.346789,396.56663 L 87.458793,396.40532 C 86.608793,396.29732 86.178793,395.91993 86.178793,395.27332 C 86.178793,394.51992 86.608793,394.14262 87.458793,394.14262 L 96.254789,394.62662 C 96.079789,393.89992 96.079789,393.23992 96.254789,392.63332 C 96.496789,391.91993 96.982789,391.60932 97.708789,391.71732 C 98.450789,391.82532 98.746789,392.14793 98.626789,392.68792 L 98.558789,393.01062 C 98.558789,393.54932 98.558789,393.87332 98.558789,393.97993 C 98.558789,394.08793 98.584789,394.19592 98.626789,394.30393 L 98.814789,394.46532 C 100.02679,394.46532 101.01079,394.51992 101.73679,394.62662 C 103.20679,394.73463 103.93279,394.46532 103.93279,393.81862 C 103.89279,391.44792 103.89279,390.37062 103.93279,390.58532 C 103.81179,389.50792 103.20679,388.69992 102.10079,388.16133 C 101.61579,388.26933 101.31979,388.37592 101.19879,388.48392 C 99.851789,389.23862 93.560789,388.96932 82.338793,387.67592 C 82.096793,387.78392 81.854793,387.83732 81.611793,387.83732 C 81.355793,387.83732 80.938793,388.48392 80.318793,389.77732 L 80.143793,390.58532 C 79.536793,393.27993 80.143793,395.08532 81.975793,396.00132 C 83.807793,396.91732 85.692793,398.12932 87.646793,399.63863 C 88.994789,399.31463 90.448789,399.04562 92.038789,398.83062 L 93.682789,398.66763 C 95.271789,398.45362 96.551789,398.66763 97.534789,399.31463 L 109.06679,401.41763 C 112.71679,401.63163 117.29679,402.38663 122.7928,403.67963 C 123.2788,403.89562 123.8838,404.21862 124.6248,404.64962 C 127.4278,405.51163 129.2598,405.56562 130.1078,404.81163 C 131.0918,403.94962 131.8728,403.51863 132.4918,403.51863 C 134.3248,400.82362 135.4828,399.17963 135.9678,398.58762 C 136.4528,397.99463 137.0048,397.91462 137.6118,398.34532 C 138.3518,398.66763 138.4728,399.15363 137.9758,399.79962 C 137.6118,400.33863 136.4528,401.95562 134.4998,404.64962 C 143.2958,410.79162 148.3478,414.72662 149.6958,416.45062 C 150.1798,417.09762 152.4438,418.87562 156.4718,421.78563 C 162.5728,426.41862 165.6188,429.22162 165.6188,430.19062 C 165.6188,430.62262 165.3758,430.94562 164.8908,431.16162 C 164.1508,431.48362 163.5968,431.26962 163.2328,430.51462 C 162.8708,429.75962 160.0678,427.38962 154.8148,423.40162 C 152.7398,421.89363 150.3688,419.95362 147.6748,417.58262 C 146.4628,416.07362 141.3968,412.13962 132.4918,405.78162 C 132.1288,406.10562 131.6308,406.48162 131.0238,406.91362 L 135.7798,408.52962 C 136.3988,408.63762 136.6958,408.95962 136.6958,409.49963 C 136.5748,409.93062 136.2788,411.11562 135.7798,413.05562 C 135.6588,413.48662 135.4828,413.86362 135.2408,414.18762 C 136.3318,414.61862 136.8168,416.07362 136.6958,418.55162 L 136.6958,418.87562 C 136.5748,420.38363 136.1568,421.78563 135.4158,423.07862 C 135.1728,423.83363 134.3788,424.47963 133.0448,425.01863 L 132.6678,425.34162 L 132.8558,425.50262 C 132.9768,425.82663 133.1668,426.41862 133.4088,427.28162 C 133.5288,428.03563 133.4628,429.43762 133.2198,431.48362 C 133.2198,431.69962 131.3878,433.10162 127.7368,435.68762 C 127.6838,435.79462 127.6838,435.90262 127.7368,436.01062 C 127.7368,439.24362 126.6998,441.39863 124.6248,442.47762 C 124.5038,442.58563 124.3158,442.63863 124.0728,442.63863 C 123.5878,443.17763 122.0518,443.82362 119.49279,444.57862 C 116.93279,445.33363 115.22279,445.76363 114.37279,445.87162 C 113.63279,445.97963 111.98879,445.71063 109.42879,445.06362 C 106.12879,446.14163 102.77479,446.94962 99.366789,447.48763 C 95.338789,448.13462 92.159789,448.29562 89.842789,447.97362 C 87.160793,447.32663 84.412793,446.70662 81.611793,446.11463 C 78.795793,445.52162 76.910793,445.06362 75.939793,444.73963 L 55.072793,459.55863 C 54.452793,460.09763 53.914793,460.09763 53.415793,459.55863 C 52.931793,458.91163 52.998793,458.37363 53.604793,457.94163 L 73.730793,443.43362 C 72.275793,441.70962 71.359793,440.32163 70.995793,439.24362 C 70.754793,438.59762 70.995793,438.16662 71.723793,437.95062 C 72.451793,437.73463 72.948793,437.95062 73.191793,438.59762 C 73.555793,439.56663 74.350793,440.75162 75.562793,442.15363 C 75.939793,442.58563 78.135793,443.17763 82.150793,443.93163 C 84.723793,444.57862 87.336793,445.17062 90.031789,445.71063 C 92.226789,446.03362 95.150789,445.92562 98.814789,445.38663 C 101.13179,444.95563 103.44879,444.41763 105.76479,443.77062 C 104.91679,443.33863 104.12279,443.06962 103.38079,442.96162 C 102.16879,442.85463 100.09479,442.15363 97.170789,440.85963 C 96.792789,440.75162 96.551789,440.48262 96.430789,440.05162 C 96.308789,438.54362 96.456789,437.30362 96.887789,436.33462 C 97.318789,435.36362 98.328789,434.55562 99.904789,433.90962 C 101.49579,433.26262 102.77479,433.04662 103.75879,433.26262 C 104.00079,433.26262 104.29679,433.26262 104.67479,433.26262 C 103.69079,432.72362 102.22279,432.13062 100.28279,431.48362 C 98.328789,430.83762 97.170789,430.35362 96.792789,430.02962 C 96.066789,429.38262 96.011789,427.98162 96.618789,425.82663 C 94.664789,426.90363 91.674789,427.87463 87.646793,428.73562 C 86.919793,428.84362 86.420793,428.57462 86.178793,427.92763 C 86.056793,427.28162 86.366793,426.85063 87.094793,426.63462 C 92.711789,425.55762 95.823789,424.47963 96.430789,423.40162 C 97.035789,422.32362 98.194789,420.86963 99.904789,419.03763 C 99.904789,418.28263 100.94279,417.25863 103.01679,415.96563 L 104.67479,414.99562 C 106.37179,414.02562 108.27179,413.97162 110.34479,414.83462 C 112.66279,414.83462 114.37279,414.61862 115.46479,414.18762 C 115.70779,414.18762 115.89579,414.18762 116.01679,414.18762 C 116.86679,414.18762 118.15879,414.45762 119.85579,414.99562 C 120.96079,415.64262 122.2408,416.12662 123.7088,416.45062 C 124.1948,416.34262 124.6248,416.45062 124.9888,416.77363 C 126.0798,416.98963 127.1168,417.04263 128.1008,416.93562 C 130.5388,416.71962 132.3038,415.26562 133.4088,412.57062 C 133.1668,412.67862 132.6678,412.89462 131.9398,413.21762 L 130.2968,414.02562 C 128.5848,414.88762 126.8748,414.77962 125.1638,413.70262 C 121.8768,412.30162 120.21979,410.84662 120.21979,409.33762 C 120.21979,408.04362 121.13579,407.02162 122.9678,406.26663 C 122.4838,406.05062 121.9308,405.75463 121.3248,405.37762 C 120.71879,404.99963 118.69879,404.59563 115.28879,404.16563 C 110.88479,403.73362 108.63479,403.46363 108.51279,403.35562 L 96.792789,401.25463 C 96.551789,401.25463 96.240789,401.09362 95.876789,400.77062 C 95.514789,400.66263 94.907789,400.66263 94.058789,400.77062 L 92.402789,400.93162 C 91.188789,401.14662 90.031789,401.36263 88.926789,401.57862 C 88.562789,402.43963 87.956793,402.54763 87.094793,401.90162 C 85.504793,402.33363 84.050793,402.81762 82.702793,403.35562 C 80.748793,404.11062 77.879793,406.07762 74.094793,409.25762 C 70.322793,412.43562 67.938793,414.24162 66.967793,414.67162 C 62.576793,416.82762 56.595793,420.11463 49.024793,424.53362 C 48.054793,425.28763 45.427793,427.17362 41.156793,430.19062 C 35.903793,433.74762 30.420793,437.73463 24.682793,442.15363 C 24.318793,442.69163 23.766793,442.79962 23.038793,442.47762 C 22.674793,442.26163 22.486793,441.93862 22.486793,441.50662 C 22.486793,440.85963 28.224793,436.49562 39.688793,428.41362 C 43.838793,425.50262 46.464793,423.67062 47.555793,422.91763 C 50.735793,420.53162 56.770793,417.19163 65.688793,412.88163 C 73.851793,406.19862 79.159793,402.37362 81.611793,401.40262 C 82.702793,400.97162 83.807793,400.59462 84.898793,400.27162 C 83.066793,399.40962 80.870793,398.00792 78.311793,396.06792 C 77.340793,394.88262 77.152793,392.88933 77.758793,390.08793 L 77.947793,389.27863 C 78.190793,388.41732 78.552793,387.66263 79.038793,387.01593 C 77.462793,386.47732 76.303793,385.45332 75.562793,383.94393 L 75.387793,383.78262 C 75.023793,383.13593 74.835793,381.57332 74.835793,379.09462 C 74.835793,378.55592 74.956793,378.12532 75.199793,377.80132 C 73.730793,376.83192 72.760793,375.32262 72.275793,373.27462 C 72.154793,372.73592 72.087793,372.19733 72.087793,371.65862 C 72.087793,369.16662 72.760793,367.38792 74.107793,366.31062 C 73.851793,365.77192 73.730793,365.12532 73.730793,364.37062 C 73.730793,363.72392 73.851793,362.80792 74.107793,361.62262 L 74.027793,361.29992 L 74.107793,360.65332 C 74.350793,359.14392 74.592793,358.01192 74.835793,357.25862 C 75.320793,355.74932 76.060793,354.67193 77.031793,354.02532 C 78.000793,353.37862 79.199793,352.91993 80.600793,352.65063 C 82.002793,352.38132 83.012793,352.13863 83.618793,351.92392 C 85.935793,350.84532 94.355789,350.30662 108.87679,350.30662 L 109.98279,350.30662 C 110.70879,350.30662 112.97279,350.30662 116.74479,350.30662 L 120.04479,350.30662 C 120.28779,350.41462 120.53079,350.46793 120.77279,350.46793 C 129.9328,355.55992 135.9008,359.50792 138.7158,362.32262 C 139.5648,363.19862 141.3288,364.43862 144.0238,366.06792 C 145.9768,367.25332 147.8358,369.28792 149.6008,372.15732 C 151.3648,375.02662 155.5558,377.97732 162.1428,381.00792 C 167.0198,383.28392 169.9558,385.18393 170.9268,386.69192 z M 79.227793,428.73562 C 78.984793,429.38262 78.499793,429.59862 77.758793,429.38262 C 73.851793,428.19762 70.255793,426.74262 66.967793,425.01863 C 66.348793,424.69462 66.227793,424.20962 66.604793,423.56362 C 66.967793,422.91763 67.520793,422.80963 68.247793,423.23963 C 71.171793,424.74963 74.592793,426.14962 78.499793,427.44262 C 79.227793,427.65862 79.468793,428.08962 79.227793,428.73562 z M 77.219793,436.01062 C 76.720793,436.65763 76.168793,436.81862 75.562793,436.49562 C 74.592793,435.95762 73.070793,435.09462 70.982793,433.90962 C 69.648793,433.04662 68.800793,432.13062 68.423793,431.16162 C 68.180793,430.51462 68.423793,430.08363 69.163793,429.86762 C 70.012793,429.65162 70.591793,429.81463 70.902793,430.35362 C 71.198793,430.89163 71.750793,431.48362 72.544793,432.13062 C 73.339793,432.77762 74.714793,433.58563 76.667793,434.55562 C 77.395793,434.98662 77.583793,435.47162 77.219793,436.01062 z M 115.82879,381.20933 L 115.82879,381.20933 L 115.65279,381.20933 z M 91.310789,365.79862 C 91.310789,365.44792 90.974789,365.12532 90.300789,364.84262 C 89.626789,364.55992 88.926789,364.35732 88.198793,364.23592 C 86.608793,365.04392 84.534793,366.36392 81.975793,368.21063 C 82.702793,368.21063 83.308793,368.31733 83.807793,368.55992 L 86.542793,370.10932 C 88.616789,368.84262 89.842789,367.98132 90.206789,367.52262 C 90.947789,366.13593 91.310789,365.55592 91.310789,365.79862 z M 107.59679,371.40262 C 107.54379,371.18663 107.54379,371.02532 107.59679,370.91732 C 104.67479,370.91732 102.16879,370.36533 100.09479,369.24792 C 97.655789,371.29462 94.719789,373.18132 91.310789,374.90532 L 90.570789,375.22792 C 90.084789,375.44393 89.356789,375.55193 88.374793,375.55193 C 86.676793,375.55193 84.628793,375.14793 82.244793,374.33992 C 79.874793,373.53063 78.674793,371.83332 78.674793,369.24792 C 78.674793,368.70793 78.916793,368.11592 79.415793,367.46932 L 77.031793,366.98392 C 76.910793,367.19992 76.694793,367.38792 76.384793,367.55062 C 76.087793,367.71192 75.683793,368.06132 75.199793,368.60132 C 74.714793,369.67862 74.471793,370.70262 74.471793,371.67193 C 74.471793,374.04263 75.320793,375.60532 77.031793,376.35992 C 77.274793,376.35992 77.515793,376.41462 77.758793,376.52133 C 79.711793,376.84532 83.564793,377.16792 89.290789,377.49193 C 95.028789,377.81463 98.450789,377.92263 99.542789,377.81463 L 100.64679,377.65332 C 101.13179,377.22262 101.44079,376.68393 101.56279,376.03732 C 101.68379,375.39062 101.73679,374.71732 101.73679,374.01593 C 101.73679,373.31592 102.16879,372.96532 103.01679,372.96532 C 103.75879,372.96532 104.12279,373.34262 104.12279,374.09732 C 104.00079,375.06663 103.87979,376.03732 103.75879,377.00663 C 104.24379,376.89863 104.84879,376.46793 105.59079,375.72662 C 105.59079,375.72662 105.88679,375.45732 106.49279,374.91862 C 106.61479,374.81062 106.80279,374.66263 107.04479,374.44663 C 107.40879,373.69332 107.59679,372.68262 107.59679,371.40262 z M 132.6678,409.82262 L 125.1638,407.23562 C 125.0428,407.77462 124.6798,408.04362 124.0728,408.04362 L 124.2478,408.04362 C 124.0048,408.15162 123.5208,408.58363 122.7928,409.33762 C 122.7928,409.33762 124.0048,410.19962 126.4438,411.92362 C 127.4278,412.46262 128.3438,412.51762 129.1918,412.08563 L 130.8358,411.43862 C 131.2128,411.22362 131.8188,410.68562 132.6678,409.82262 z M 107.96079,380.40133 C 107.96079,379.86263 107.53079,379.05463 106.68079,377.97732 C 105.95479,378.73062 103.75879,379.37733 100.09479,379.91592 L 99.904789,379.91592 C 98.692789,380.13192 95.216789,380.05062 89.478789,379.67462 C 83.739793,379.29732 79.711793,378.94663 77.395793,378.62393 C 77.354793,378.73062 77.354793,378.89332 77.395793,379.10792 C 77.395793,381.26392 77.462793,382.50262 77.583793,382.82663 L 77.758793,383.14933 C 78.000793,383.68792 78.984793,384.38933 80.695793,385.25062 C 82.648793,385.57462 86.151793,385.92533 91.216789,386.30132 C 96.282789,386.67862 99.178789,386.81332 99.904789,386.70662 C 100.26879,386.49062 101.01079,386.22133 102.10079,385.89732 C 101.97979,385.57462 101.80479,385.41333 101.56279,385.41333 C 101.18479,385.30533 100.88879,385.35862 100.64679,385.57462 C 100.64679,385.46662 100.76779,385.08932 101.01079,384.44262 C 101.07679,383.36533 101.07679,382.66532 101.01079,382.34133 C 100.64679,381.69462 100.82079,381.20933 101.56279,380.88663 C 102.29079,380.56262 102.84279,380.75192 103.20679,381.45192 C 103.56879,382.15332 103.63679,383.25733 103.38079,384.76663 C 103.25979,385.08932 103.13879,385.35862 103.01679,385.57462 C 105.09179,385.03592 106.31879,384.60392 106.68079,384.28133 C 106.68079,383.95732 106.89679,383.33863 107.32779,382.42263 C 107.74679,381.50663 107.96079,380.83192 107.96079,380.40133 z M 120.40879,417.74362 C 119.68079,417.41962 119.06079,417.09762 118.57679,416.77363 C 118.09179,416.45062 117.29679,416.28962 116.20479,416.28962 C 115.82879,416.39762 115.41079,416.50362 114.91279,416.61162 C 117.22879,417.36662 118.88679,417.74362 119.85579,417.74362 z M 134.1358,418.39062 C 134.2568,417.20563 134.2038,416.45062 133.9608,416.12662 C 132.4918,417.85162 130.5928,418.87562 128.2758,419.19862 C 127.0638,419.30663 125.7158,419.19862 124.2478,418.87562 C 123.0358,419.52262 121.5678,419.84563 119.85579,419.84563 C 116.81179,419.84563 113.39079,418.92962 109.60479,417.09762 L 109.42879,417.09762 C 108.94479,417.09762 108.63479,416.93562 108.51279,416.61162 C 107.53079,416.28962 106.74879,416.34262 106.12879,416.77363 L 104.12279,418.06663 C 103.87979,418.28263 103.32779,418.82163 102.47879,419.68362 C 102.96379,421.29962 103.51579,422.21563 104.12279,422.43163 C 104.36479,422.53962 105.64379,422.97063 107.96079,423.72563 C 111.98879,425.01863 114.54879,425.87963 115.65279,426.31163 C 117.48479,427.17362 118.93979,427.44262 120.04479,427.11963 C 120.53079,426.90363 121.7558,426.58162 123.7088,426.14962 C 127.1168,425.39562 129.1388,424.80263 129.7438,424.37162 C 130.8488,423.83363 132.0078,423.13162 133.2198,422.27062 C 133.8268,421.19163 134.1358,420.06163 134.1358,418.87562 z M 131.0238,428.25162 C 131.0238,427.60562 130.9028,427.01163 130.6598,426.47362 C 129.5558,426.90363 127.4278,427.49762 124.2478,428.25162 C 123.3998,428.46662 122.2948,428.73562 120.96079,429.05963 C 119.12879,429.70662 116.98679,429.43762 114.54879,428.25162 C 113.57879,427.81962 111.14079,427.01163 107.23479,425.82663 C 105.88679,425.39562 104.17579,424.69462 102.10079,423.72563 C 100.64679,423.83363 99.851789,424.15562 99.730789,424.69462 C 98.988789,426.52662 98.626789,427.76663 98.626789,428.41362 C 98.584789,428.41362 98.584789,428.46662 98.626789,428.57462 C 98.867789,428.68262 99.662789,428.95163 101.01079,429.38262 C 103.32779,430.24562 105.03879,430.99963 106.12879,431.64662 C 107.71879,432.39962 109.79279,433.12762 112.35279,433.82762 C 114.91279,434.52962 116.44779,434.77162 116.93279,434.55562 C 117.78279,434.23162 119.55979,434.23162 122.2408,434.55562 C 123.8308,434.77162 124.7468,434.87862 124.9888,434.87862 C 125.7158,434.23162 127.6688,432.88562 130.8358,430.83762 C 130.9708,429.75962 131.0238,428.89762 131.0238,428.25162 z M 100.82079,421.78563 L 100.64679,421.62362 L 100.45879,421.78563 z M 125.3528,436.98162 C 124.7468,436.98162 123.6428,436.87362 122.0518,436.65763 C 119.73579,436.44163 118.40079,436.38762 118.03879,436.49562 C 116.44779,437.03462 113.51179,436.60362 109.24079,435.20262 C 106.19679,435.41862 104.33679,435.47162 103.66379,435.36362 C 102.99079,435.25562 102.14079,435.39062 101.10479,435.76762 C 100.06779,436.14562 99.420789,436.60362 99.178789,437.14262 C 98.935789,437.68163 98.814789,438.38162 98.814789,439.24362 L 98.814789,439.24362 C 101.25279,440.21363 102.96379,440.75162 103.93279,440.85963 C 104.91679,440.96762 106.07579,441.39863 107.40879,442.15363 C 111.07279,443.33863 113.26879,443.87762 114.01079,443.77062 C 117.78279,443.33863 120.59679,442.47762 122.4288,441.18362 C 123.1568,440.64562 123.7908,440.15962 124.3428,439.72963 C 124.8948,439.29763 125.2318,438.38162 125.3528,436.98162 z"
       inkscape:connector-curvature="0"
       style="fill:#000000;stroke:#000000;stroke-width:2.66667008" />
  </g>
</svg>
