<?xml version="1.0" encoding="UTF-8" standalone="no"?>
<!-- Created with Inkscape (http://www.inkscape.org/) -->

<svg
   xmlns:dc="http://purl.org/dc/elements/1.1/"
   xmlns:cc="http://creativecommons.org/ns#"
   xmlns:rdf="http://www.w3.org/1999/02/22-rdf-syntax-ns#"
   xmlns:svg="http://www.w3.org/2000/svg"
   xmlns="http://www.w3.org/2000/svg"
   xmlns:sodipodi="http://sodipodi.sourceforge.net/DTD/sodipodi-0.dtd"
   xmlns:inkscape="http://www.inkscape.org/namespaces/inkscape"
   width="240"
   height="160"
   id="svg3249"
   version="1.1"
   inkscape:version="0.48.0 r9654"
   sodipodi:docname="BSL letter K.svg">
  <defs
     id="defs3251" />
  <sodipodi:namedview
     id="base"
     pagecolor="#ffffff"
     bordercolor="#666666"
     borderopacity="1.0"
     inkscape:pageopacity="0.0"
     inkscape:pageshadow="2"
     inkscape:zoom="0.77472527"
     inkscape:cx="105.7305"
     inkscape:cy="240"
     inkscape:current-layer="layer1"
     inkscape:document-units="px"
     showgrid="false"
     inkscape:window-width="1024"
     inkscape:window-height="745"
     inkscape:window-x="-8"
     inkscape:window-y="-8"
     inkscape:window-maximized="1" />
  <metadata
     id="metadata3254">
    <rdf:RDF>
      <cc:Work
         rdf:about="">
        <dc:format>image/svg+xml</dc:format>
        <dc:type
           rdf:resource="http://purl.org/dc/dcmitype/StillImage" />
        <dc:title></dc:title>
      </cc:Work>
    </rdf:RDF>
  </metadata>
  <g
     id="layer1"
     inkscape:label="Layer 1"
     inkscape:groupmode="layer"
     transform="translate(0,-320)">
    <text
       xml:space="preserve"
       style="font-size:40px;font-style:normal;font-weight:normal;line-height:125%;letter-spacing:0px;word-spacing:0px;fill:#000000;fill-opacity:1;stroke:none;font-family:Sans"
       x="172.96454"
       y="23.177303"
       id="text3264"
       sodipodi:linespacing="125%"
       transform="translate(0,320)"><tspan
         sodipodi:role="line"
         id="tspan3266"
         x="172.96454"
         y="23.177303" /></text>
    <text
       xml:space="preserve"
       style="font-size:64px;font-style:normal;font-weight:bold;line-height:125%;letter-spacing:0px;word-spacing:0px;fill:#000000;fill-opacity:1;stroke:none;font-family:Sans;-inkscape-font-specification:Sans Bold"
       x="179.41844"
       y="55.446808"
       id="text3268"
       sodipodi:linespacing="125%"
       transform="translate(0,320)"><tspan
         sodipodi:role="line"
         id="tspan3270"
         x="179.41844"
         y="55.446808" /></text>
    <flowRoot
       xml:space="preserve"
       id="flowRoot3272"
       style="font-size:64px;font-style:normal;font-weight:bold;line-height:125%;letter-spacing:0px;word-spacing:0px;fill:#404040;fill-opacity:1;stroke:none;font-family:Sans;-inkscape-font-specification:Sans Bold"
       transform="translate(16.780142,313.5461)"><flowRegion
         id="flowRegion3274"><rect
           id="rect3276"
           width="73.574471"
           height="67.120567"
           x="160.05673"
           y="15.432623"
           style="fill:#404040;fill-opacity:1" /></flowRegion><flowPara
         id="flowPara3278">L</flowPara></flowRoot>    <path
       id="dp_path074"
       d="M 171.94952,448.35443 L 170.84552,447.06143 C 169.99652,446.19943 169.02752,445.12243 167.92152,443.82943 C 167.80052,442.96643 166.64152,439.73343 164.44552,434.12943 C 162.12952,427.98643 160.66052,424.59143 160.05552,423.94543 C 159.81252,423.72943 159.13952,422.86743 158.03352,421.35843 C 156.08052,418.66343 153.52152,415.70143 150.35552,412.46743 C 149.37252,412.25143 148.82052,411.92943 148.69952,411.49743 C 148.09252,409.77343 146.32752,407.40243 143.39152,404.38543 C 142.66352,403.63043 141.81552,403.19943 140.83152,403.09143 C 139.86152,403.09143 138.87752,403.09143 137.90852,403.09143 C 136.19752,402.87543 134.67552,402.87543 133.32852,403.09143 C 132.47952,402.22943 131.32052,401.31343 129.85252,400.34343 C 126.67352,398.51143 124.72052,397.59543 123.99252,397.59543 C 123.14352,397.59543 122.03953,397.99943 120.70553,398.80743 C 119.35753,399.61543 118.50953,400.39743 118.13253,401.15143 C 117.16153,400.50543 115.76153,399.91343 113.92953,399.37343 L 112.82453,398.88943 C 111.97653,398.67343 111.06053,398.72643 110.08953,399.05043 L 109.34953,399.37343 C 107.63753,400.12743 106.35953,400.93543 105.50953,401.79843 C 105.38853,401.90643 105.32153,401.95943 105.32153,401.95943 C 104.10853,404.22343 103.92053,406.05543 104.76853,407.45543 C 105.14553,408.10243 105.87353,409.71943 106.96453,412.30643 C 104.04153,410.79743 102.37153,409.74643 101.94053,409.15343 C 101.50853,408.56143 100.92953,407.94143 100.20153,407.29443 C 100.56553,407.07943 100.83553,406.62143 101.02453,405.92143 C 101.19953,405.21943 101.29353,404.33043 101.29353,403.25343 C 101.29353,402.71443 101.29353,402.12143 101.29353,401.47543 C 102.76153,399.85843 103.98753,398.61943 104.95753,397.75743 C 105.92753,396.89443 106.84353,395.38643 107.70553,393.23043 L 107.88053,392.58343 C 108.50053,391.18343 109.65953,389.51343 111.36953,387.57343 C 115.02053,383.58543 117.40453,379.97443 118.49653,376.74243 C 118.75253,375.98743 119.04853,375.17943 119.41253,374.31743 C 119.78953,373.99443 119.96453,373.56243 119.96453,373.02343 C 119.96453,371.94643 119.47953,370.92243 118.49653,369.95343 C 117.52553,368.98243 116.42153,368.49743 115.20853,368.49743 C 115.45153,368.06643 115.69353,367.63543 115.93653,367.20343 C 116.79953,365.69543 117.76853,363.86343 118.87353,361.70743 C 118.86053,361.38543 118.86053,361.06143 118.87353,360.73843 C 118.87353,359.44543 118.58953,358.33943 118.03753,357.42343 C 117.49953,356.50743 116.79953,355.94243 115.93653,355.72643 C 115.20853,355.61843 114.05153,355.61843 112.46053,355.72643 C 113.18853,354.64943 113.68753,353.84143 113.92953,353.30243 C 114.89953,351.57743 114.56353,349.77343 112.91953,347.88643 C 111.27553,346.00143 108.86453,345.32643 105.68453,345.86643 C 104.83653,345.97343 103.55653,346.94343 101.84553,348.77543 C 100.01353,346.63443 98.612527,345.46243 97.629527,345.24643 C 94.948527,344.38343 92.752527,344.70743 91.041527,346.21543 C 90.313527,346.86243 88.360527,348.69443 85.195527,351.71143 C 83.848527,352.68243 82.743527,353.53043 81.895527,354.28543 C 76.156527,359.35043 72.896527,362.58343 72.101527,363.98543 C 71.305527,365.38543 68.841527,368.34943 64.692527,372.86243 C 62.617527,373.61743 61.121527,374.29043 60.205527,374.88243 C 59.289527,375.47543 57.552527,377.11943 54.992527,379.81343 C 55.356527,376.14943 55.531527,374.74743 55.531527,375.61043 C 55.531527,374.64143 55.409527,373.40143 55.168527,371.89143 L 55.168527,369.14343 C 55.168527,368.71343 55.168527,368.17443 55.168527,367.52743 C 55.168527,365.58743 54.925527,363.75543 54.440527,362.03143 C 53.336527,357.72143 50.655527,355.67343 46.384527,355.88943 C 46.141527,355.99543 45.953527,356.10343 45.832527,356.21143 C 45.347527,356.10343 44.916527,356.10343 44.552527,356.21143 C 43.704527,356.31943 43.057527,356.45443 42.639527,356.61543 C 42.208527,356.77743 41.992527,357.12743 41.992527,357.66643 C 41.992527,357.66643 41.992527,357.72143 41.992527,357.82743 L 43.461527,364.77943 L 41.076527,370.92243 C 40.955527,372.21543 40.471527,374.04743 39.608527,376.41843 C 39.001527,377.81943 37.965527,379.81343 36.509527,382.39943 C 35.769527,383.37043 35.405527,384.33943 35.405527,385.30943 C 35.405527,385.95543 35.593527,386.71043 35.957527,387.57343 C 36.079527,387.89543 36.375527,389.21543 36.873527,391.53343 C 37.359527,393.85043 37.723527,395.22543 37.965527,395.65543 C 37.965527,395.76343 37.911527,396.35543 37.789527,397.43343 C 37.291527,405.94743 37.789527,411.44343 39.244527,413.92243 C 39.244527,414.03043 39.433527,414.29943 39.797527,414.73043 C 37.116527,420.11943 35.163527,423.78343 33.937527,425.72343 C 33.331527,426.69343 31.620527,428.90243 28.817528,432.35143 C 25.639528,436.12343 23.995528,438.33143 23.873528,438.97843 C 23.631528,439.73343 23.941528,440.16543 24.789528,440.27143 C 25.517528,440.48743 26.003528,440.21843 26.259528,439.46343 L 26.259528,439.62543 C 26.380528,439.19443 27.901528,437.14643 30.825527,433.48243 C 32.293527,431.75843 34.059527,429.49543 36.132527,426.69343 C 37.237527,424.86143 39.069527,421.46643 41.629527,416.50943 L 41.629527,416.50943 C 41.751527,416.61743 42.235527,416.99443 43.097527,417.64143 C 45.536527,420.01143 47.368527,421.08943 48.580527,420.87343 C 49.200527,420.65843 49.443527,420.22643 49.321527,419.58143 C 49.200527,418.93443 48.768527,418.66343 48.028527,418.77143 L 48.028527,418.77143 C 47.664527,418.77143 46.573527,417.91043 44.741527,416.18543 C 43.879527,415.32343 43.245527,414.78543 42.815527,414.56943 C 42.383527,414.35343 41.939527,413.86943 41.440527,413.11443 C 40.592527,409.23443 40.160527,405.40943 40.160527,401.63743 C 40.160527,400.99043 40.160527,400.07443 40.160527,398.88943 C 40.281527,397.59543 40.349527,396.62543 40.349527,395.97843 C 40.349527,395.54743 40.281527,395.19743 40.160527,394.92743 C 40.039527,394.65843 39.743527,393.39143 39.244527,391.12943 C 38.275527,387.03443 37.789527,385.09443 37.789527,385.30943 C 37.789527,385.30943 38.571527,383.69343 40.160527,380.45943 C 40.767527,379.27443 41.629527,377.49543 42.720527,375.12543 C 43.097527,374.04743 43.420527,372.86243 43.731527,371.56943 C 44.040527,370.27543 44.673527,368.39043 45.657527,365.91043 L 48.768527,365.26543 C 49.375527,365.15743 49.684527,364.83343 49.684527,364.29443 L 49.684527,364.13343 C 49.564527,361.65443 49.065527,359.71443 48.216527,358.31343 C 50.169527,358.85143 51.449527,360.22643 52.056527,362.43543 C 52.675527,364.64543 52.851527,366.82743 52.608527,368.98243 L 52.608527,369.14343 L 52.608527,372.05443 C 52.608527,372.05443 52.675527,372.10743 52.796527,372.21543 C 53.281527,374.37043 53.403527,375.71843 53.160527,376.25743 C 52.796527,377.01143 52.487527,379.22143 52.244527,382.88543 C 52.244527,383.42343 52.487527,383.80143 52.972527,384.01543 C 53.591527,384.12343 54.076527,384.01543 54.440527,383.69343 C 58.104527,379.70543 60.395527,377.41543 61.311527,376.82243 C 62.213527,376.23043 63.776527,375.55743 65.972527,374.80243 C 66.213527,374.69443 66.403527,374.58643 66.524527,374.47843 C 70.795527,369.62943 73.327527,366.50343 74.121527,365.10243 C 74.916527,363.70243 78.055527,360.57743 83.537527,355.72643 C 84.279527,355.07943 85.316527,354.27143 86.649527,353.30243 C 86.771527,353.30243 86.839527,353.30243 86.839527,353.30243 C 88.428527,351.68543 90.435527,349.79943 92.873527,347.64343 C 93.857527,346.78243 95.136527,346.61943 96.727527,347.15943 C 97.696527,348.02143 98.921527,349.09843 100.37753,350.39143 C 99.164527,351.79343 97.939527,353.35543 96.727527,355.07943 C 93.425527,358.09843 91.419527,360.09143 90.677527,361.06143 C 90.313527,361.49343 89.883527,361.86943 89.397527,362.19343 L 88.307527,363.16243 C 85.989527,366.07343 83.416527,369.30643 80.615527,372.86243 C 79.887527,373.61743 78.783527,374.69443 77.328527,376.09543 C 76.465527,375.55743 74.997527,375.12543 72.923527,374.80243 C 72.073527,374.69443 71.589527,375.07143 71.468527,375.93343 C 71.468527,376.47343 71.831527,376.79543 72.559527,376.90343 C 74.148527,377.11943 75.240527,377.44243 75.859527,377.87343 C 75.980527,378.30543 76.223527,378.57443 76.587527,378.68243 C 77.315527,379.11343 78.608527,378.35843 80.425527,376.41843 L 82.447527,374.15543 L 82.621527,373.99443 C 86.892527,368.17443 89.344527,365.04943 89.951527,364.61843 L 90.867527,363.97143 C 91.229527,363.75543 91.783527,363.21743 92.509527,362.35443 C 93.237527,361.49343 95.257527,359.49843 98.545527,356.37343 C 98.545527,356.37343 98.545527,356.37343 98.545527,356.37343 C 102.45253,351.09343 105.02453,348.29043 106.23753,347.96743 C 108.31253,347.53543 109.87553,347.94143 110.91253,349.17943 C 111.94853,350.41943 112.21953,351.47043 111.73353,352.33143 C 111.36953,353.08643 110.50753,354.43343 109.17353,356.37343 C 109.05253,356.48143 108.91753,356.64243 108.79653,356.85843 C 107.22053,359.22943 106.11653,360.73843 105.50953,361.38543 L 103.48953,363.64743 C 102.15553,364.94143 100.49953,366.71943 98.545527,368.98243 C 95.500527,373.61743 93.237527,376.31043 91.783527,377.06543 C 90.072527,378.14243 87.565527,380.56743 84.279527,384.33943 C 83.416527,383.47743 82.811527,383.04643 82.447527,383.04643 C 81.584527,383.04643 81.167527,383.37043 81.167527,384.01543 C 81.167527,383.80143 82.259527,385.30943 84.453527,388.54243 C 84.939527,389.08143 85.559527,389.18943 86.285527,388.86643 C 86.892527,388.43443 87.027527,387.95043 86.649527,387.41143 C 86.407527,387.19543 86.044527,386.76543 85.559527,386.11843 C 87.269527,384.17843 89.761527,381.75343 93.061527,378.84343 C 94.773527,377.87343 97.265527,374.96343 100.56553,370.11443 C 101.05153,369.46743 102.64053,367.74343 105.32153,364.94143 L 107.34153,362.67843 C 107.94853,362.03143 109.10753,360.52243 110.81753,358.15143 C 113.13553,357.72143 114.65653,357.61343 115.38453,357.82743 C 115.51953,357.93543 115.69353,358.09843 115.93653,358.31343 C 116.30053,359.06743 116.48853,359.87543 116.48853,360.73843 C 116.48853,360.84643 116.48853,360.95343 116.48853,361.06143 C 115.88353,362.24643 115.02053,363.89043 113.92953,365.99143 C 112.82453,368.09343 111.97653,369.52143 111.36953,370.27543 L 110.81753,371.24543 C 110.19753,372.10743 109.10753,373.40143 107.51653,375.12543 C 106.42553,376.20343 104.52553,378.25043 101.84553,381.26743 L 101.11753,381.91443 C 100.13553,383.53143 98.680527,385.52543 96.727527,387.89543 C 96.107527,388.43443 94.773527,389.56643 92.699527,391.29043 L 90.503527,390.15943 C 89.883527,389.83543 89.344527,389.99743 88.845527,390.64343 C 88.481527,391.18343 88.671527,391.66743 89.397527,392.09943 L 91.783527,393.23043 L 93.237527,396.14143 C 93.615527,396.78743 94.153527,396.94943 94.895527,396.62543 C 95.621527,396.41043 95.811527,395.97843 95.447527,395.33143 L 94.153527,392.74643 C 96.349527,391.12943 97.764527,389.99743 98.369527,389.33743 C 99.340527,387.93743 100.87553,385.94243 102.94953,383.35543 L 103.67753,382.54743 C 105.01153,381.03943 106.91153,379.04543 109.34953,376.56643 C 110.33253,375.69143 111.49153,374.29043 112.82453,372.35043 L 113.37653,371.54243 C 113.49753,371.43443 113.68753,371.21843 113.92953,370.89543 C 114.29253,370.89543 114.60353,370.78743 114.84553,370.57143 L 114.84553,370.57143 C 115.08853,370.46343 115.45153,370.46343 115.93653,370.57143 C 117.52553,371.32643 118.01153,372.14743 117.40453,373.01043 C 117.16153,373.44143 116.73153,374.42543 116.12553,375.93343 C 115.51953,377.77943 115.02053,378.91043 114.65653,379.34243 C 113.56553,380.86343 111.85553,383.14143 109.53753,386.17143 C 107.58453,388.23343 106.30453,390.07843 105.68453,391.69443 L 105.50953,392.35543 C 105.14553,393.32543 104.35153,394.68543 103.12553,396.41043 C 102.15553,397.28543 100.80853,398.57843 99.097527,400.31743 C 98.855527,400.53143 98.733527,400.80143 98.733527,401.12543 C 98.976527,403.61743 98.921527,405.13943 98.545527,405.67843 C 97.089527,404.49343 95.621527,403.46943 94.153527,402.60643 C 93.304527,402.06743 91.297527,400.55843 88.119527,398.07943 C 87.269527,397.32643 86.111527,396.41043 84.643527,395.33143 C 82.204527,393.49943 79.968527,391.47943 77.961527,389.27043 C 75.940527,387.06143 73.475527,386.06343 70.552527,386.27943 C 67.493527,386.71043 65.783527,388.43443 65.419527,391.45343 C 65.540527,391.66743 65.608527,391.82943 65.608527,391.93743 C 66.699527,393.87743 67.979527,395.38643 69.447527,396.46343 C 70.795527,398.83443 72.128527,400.72143 73.475527,402.12143 C 73.596527,402.22943 74.391527,403.41443 75.859527,405.67843 C 76.951527,407.29443 77.933527,408.21043 78.783527,408.42643 L 78.783527,408.42643 C 79.389527,409.61143 80.251527,411.01343 81.343527,412.62943 C 83.793527,415.32343 85.989527,417.26343 87.929527,418.44943 C 85.248527,421.89743 83.241527,424.10643 81.895527,425.07743 C 80.547527,426.04643 76.587527,428.36343 69.999527,432.02743 C 66.213527,437.63143 61.337527,444.15143 55.356527,451.58743 C 55.235527,451.80343 55.168527,452.07343 55.168527,452.39543 C 55.168527,452.71943 55.235527,452.98943 55.356527,453.20543 C 55.963527,453.63543 56.581527,453.63543 57.188527,453.20543 C 58.777527,451.69543 63.587527,445.17543 71.643527,433.64343 C 77.988527,430.19543 81.895527,427.90543 83.363527,426.77443 C 84.817527,425.64243 86.892527,423.35143 89.587527,419.90343 C 90.677527,421.08943 91.661527,421.95143 92.509527,422.49043 C 94.463527,423.78343 96.052527,426.05943 97.265527,429.29343 C 97.885527,430.90943 99.043527,432.47143 100.74053,433.98143 L 101.29353,434.47943 C 109.34953,441.69943 114.46853,445.75443 116.66453,446.61743 C 118.13253,447.26343 121.24453,449.85043 125.99952,454.39043 C 127.83152,456.22243 128.93652,457.24643 129.30052,457.46143 C 129.90552,457.89343 130.45952,457.83843 130.94352,457.29943 C 131.44152,456.76143 131.46852,456.33043 131.03752,456.00643 C 130.60752,455.68343 129.54352,454.71343 127.83152,453.09743 C 122.83352,448.23343 119.47953,445.43143 117.76853,444.67743 C 115.69353,443.92243 110.74953,440.04343 102.94953,433.02543 L 102.39753,432.53943 C 100.92953,431.24643 99.959527,429.95343 99.461527,428.65943 C 98.127527,424.88743 96.295527,422.23443 93.979527,420.72543 C 93.116527,419.75543 91.836527,418.51543 90.125527,417.00743 C 88.428527,416.46943 86.165527,414.63743 83.363527,411.49743 C 82.259527,408.37143 80.979527,406.64743 79.509527,406.32543 L 79.509527,406.32543 C 79.147527,406.32543 78.419527,405.54343 77.315527,403.98143 C 76.223527,402.41843 74.512527,399.96643 72.195527,396.62543 C 73.784527,396.41043 74.821527,395.97843 75.307527,395.33143 C 75.792527,394.68543 75.671527,394.20143 74.943527,393.87743 C 74.324527,393.44643 73.839527,393.44643 73.475527,393.87743 C 73.111527,394.30943 72.195527,394.57843 70.727527,394.68543 C 69.757527,393.82343 68.841527,392.69143 67.979527,391.29043 C 68.599527,389.56643 69.568527,388.65043 70.915527,388.54243 C 72.868527,388.21943 74.633527,388.97443 76.223527,390.80643 C 78.297527,393.06943 80.615527,395.11743 83.175527,396.94943 C 85.248527,398.78143 88.481527,401.25943 92.873527,404.38543 C 96.173527,406.32543 98.491527,408.21043 99.837527,410.04243 C 100.68753,411.44343 103.48953,413.22243 108.25753,415.37743 L 108.79653,416.99443 C 109.03953,417.64143 109.53753,417.85543 110.26553,417.64143 C 110.74953,417.42543 110.99253,417.10143 110.99253,416.67043 C 110.99253,416.56243 110.99253,416.45543 110.99253,416.34743 C 109.03953,410.85043 107.70553,407.56343 106.96453,406.48643 C 106.84353,406.27043 106.78953,405.94743 106.78953,405.51743 C 106.78953,404.76243 107.05953,404.00743 107.61153,403.25343 C 108.16353,402.49843 109.10753,401.85143 110.45353,401.31343 L 110.99253,400.99043 C 111.36953,400.88243 111.61253,400.82943 111.73353,400.82943 C 111.73353,400.82943 111.78753,400.82943 111.90853,400.82943 L 113.18853,401.31343 C 116.12553,402.28343 117.86353,403.19943 118.41553,404.06143 C 118.95353,404.92343 120.44953,406.75543 122.88752,409.55843 C 123.38552,410.09743 123.93952,410.15043 124.54452,409.71943 C 125.15152,409.28743 125.21752,408.80343 124.72052,408.26543 C 122.64552,405.78643 121.31153,404.11543 120.70553,403.25343 L 120.51653,401.79843 C 121.98553,400.39743 123.14352,399.69743 123.99252,399.69743 C 124.23552,399.69743 125.70352,400.50543 128.38452,402.12143 C 130.70052,403.52243 132.10152,404.65443 132.60052,405.51743 L 132.41252,405.35443 C 132.53252,406.00143 132.96452,406.32543 133.69152,406.32543 C 134.43252,406.21743 134.79652,405.89343 134.79652,405.35443 C 134.78352,405.24643 134.78352,405.13943 134.79652,405.03143 C 135.88752,405.13943 137.54452,405.19343 139.74052,405.19343 C 140.58852,405.19343 141.19552,405.35443 141.55952,405.67843 C 144.01152,408.37143 145.65352,410.58143 146.50352,412.30643 L 146.50352,412.30643 C 146.86752,413.27543 147.84952,414.03043 149.43952,414.56943 C 150.16752,414.89343 152.36352,417.58643 156.02752,422.65143 C 156.87552,423.72943 157.54952,424.59143 158.03352,425.23843 C 158.51952,425.88543 159.86552,429.01043 162.06152,434.61443 C 164.25752,440.21843 165.45652,443.39743 165.63252,444.15143 C 165.82052,444.90643 166.93952,446.36143 169.02752,448.51743 L 170.11752,449.64743 C 170.72452,450.18643 171.34352,450.24143 171.94952,449.81043 C 172.55652,449.27043 172.55652,448.78643 171.94952,448.35443 z M 45.657527,363.64743 L 44.552527,358.31343 C 44.673527,358.31343 44.861527,358.31343 45.104527,358.31343 C 46.075527,358.09843 46.815527,359.76743 47.300527,363.32543 z"
       inkscape:connector-curvature="0"
       style="fill:#000000;stroke:#000000;stroke-width:2.66667008" />
  </g>
</svg>
