<?xml version="1.0" encoding="UTF-8" standalone="no"?>
<!-- Created with Inkscape (http://www.inkscape.org/) -->

<svg
   xmlns:dc="http://purl.org/dc/elements/1.1/"
   xmlns:cc="http://creativecommons.org/ns#"
   xmlns:rdf="http://www.w3.org/1999/02/22-rdf-syntax-ns#"
   xmlns:svg="http://www.w3.org/2000/svg"
   xmlns="http://www.w3.org/2000/svg"
   xmlns:sodipodi="http://sodipodi.sourceforge.net/DTD/sodipodi-0.dtd"
   xmlns:inkscape="http://www.inkscape.org/namespaces/inkscape"
   width="240"
   height="160"
   id="svg3249"
   version="1.1"
   inkscape:version="0.48.0 r9654"
   sodipodi:docname="BSL letter N.svg">
  <defs
     id="defs3251" />
  <sodipodi:namedview
     id="base"
     pagecolor="#ffffff"
     bordercolor="#666666"
     borderopacity="1.0"
     inkscape:pageopacity="0.0"
     inkscape:pageshadow="2"
     inkscape:zoom="0.77472527"
     inkscape:cx="105.7305"
     inkscape:cy="240"
     inkscape:current-layer="layer1"
     inkscape:document-units="px"
     showgrid="false"
     inkscape:window-width="1024"
     inkscape:window-height="745"
     inkscape:window-x="-8"
     inkscape:window-y="-8"
     inkscape:window-maximized="1" />
  <metadata
     id="metadata3254">
    <rdf:RDF>
      <cc:Work
         rdf:about="">
        <dc:format>image/svg+xml</dc:format>
        <dc:type
           rdf:resource="http://purl.org/dc/dcmitype/StillImage" />
        <dc:title></dc:title>
      </cc:Work>
    </rdf:RDF>
  </metadata>
  <g
     id="layer1"
     inkscape:label="Layer 1"
     inkscape:groupmode="layer"
     transform="translate(0,-320)">
    <text
       xml:space="preserve"
       style="font-size:40px;font-style:normal;font-weight:normal;line-height:125%;letter-spacing:0px;word-spacing:0px;fill:#000000;fill-opacity:1;stroke:none;font-family:Sans"
       x="172.96454"
       y="23.177303"
       id="text3264"
       sodipodi:linespacing="125%"
       transform="translate(0,320)"><tspan
         sodipodi:role="line"
         id="tspan3266"
         x="172.96454"
         y="23.177303" /></text>
    <text
       xml:space="preserve"
       style="font-size:64px;font-style:normal;font-weight:bold;line-height:125%;letter-spacing:0px;word-spacing:0px;fill:#000000;fill-opacity:1;stroke:none;font-family:Sans;-inkscape-font-specification:Sans Bold"
       x="179.41844"
       y="55.446808"
       id="text3268"
       sodipodi:linespacing="125%"
       transform="translate(0,320)"><tspan
         sodipodi:role="line"
         id="tspan3270"
         x="179.41844"
         y="55.446808" /></text>
    <flowRoot
       xml:space="preserve"
       id="flowRoot3272"
       style="font-size:64px;font-style:normal;font-weight:bold;line-height:125%;letter-spacing:0px;word-spacing:0px;fill:#404040;fill-opacity:1;stroke:none;font-family:Sans;-inkscape-font-specification:Sans Bold"
       transform="translate(16.780142,313.5461)"><flowRegion
         id="flowRegion3274"><rect
           id="rect3276"
           width="73.574471"
           height="67.120567"
           x="160.05673"
           y="15.432623"
           style="fill:#404040;fill-opacity:1" /></flowRegion><flowPara
         id="flowPara3278">O</flowPara></flowRoot>    <path
       id="dp_path078"
       d="M 174.36773,453.19752 C 174.36773,454.59952 173.70773,454.92352 172.35973,454.16852 C 171.13373,453.41352 169.18073,451.79752 166.49973,449.31952 L 165.03173,448.02552 C 164.90973,447.91752 163.14573,446.73252 159.73673,444.46852 C 158.75373,443.71552 157.59573,442.79952 156.24873,441.72052 C 154.29573,441.61252 151.31773,441.28952 147.28973,440.75152 C 145.70073,440.31952 143.67973,439.51152 141.24073,438.32552 C 138.43973,436.92452 136.48573,436.00852 135.39573,435.57752 C 133.68373,435.25552 131.48873,434.44552 128.79373,433.15252 C 127.09673,430.78152 125.02173,427.98052 122.56973,424.74752 L 117.63973,418.44352 C 117.51773,418.22752 117.45173,418.01152 117.45173,417.79652 L 117.45173,417.63352 C 117.69373,413.96952 118.29973,411.32952 119.28373,409.71352 L 121.65373,405.50952 C 121.53273,405.29552 121.47973,405.07952 121.47973,404.86352 C 121.47973,401.84552 123.31173,399.36752 126.96173,397.42752 C 129.03673,396.45752 130.62573,395.75652 131.72973,395.32552 C 131.23273,392.09252 130.81373,390.26052 130.45173,389.82952 C 129.58873,389.18352 127.75673,387.16152 124.95373,383.76752 C 122.15273,380.37252 120.49573,378.24452 120.00973,377.38152 C 119.88873,377.05952 119.83573,376.73552 119.83573,376.41252 C 119.83573,376.30452 119.88873,376.14352 120.00973,375.92752 C 119.52573,375.71252 118.91973,375.38852 118.17773,374.95752 C 114.89173,373.55652 112.81673,371.88552 111.95573,369.94552 C 110.62073,368.76052 109.20573,367.68352 107.75173,366.71252 C 106.76873,365.95952 105.97373,365.04352 105.36773,363.96452 C 104.39773,362.34852 103.84473,361.43252 103.72373,361.21652 C 103.11773,363.69552 101.98573,365.76952 100.34173,367.44052 C 98.685729,369.11152 95.856729,370.91652 91.828726,372.85652 C 86.939726,376.84352 84.015726,379.26852 83.045726,380.12952 C 82.668726,380.45352 81.819726,381.96152 80.472726,384.65652 C 77.669726,389.93752 75.595726,392.90052 74.248726,393.54752 L 74.073726,393.70952 L 75.353726,404.86352 C 75.353726,404.97152 75.285726,405.07952 75.164726,405.18752 L 74.625726,407.44952 C 76.943726,414.67152 78.101726,420.38152 78.101726,424.58552 C 78.101726,430.94452 76.565726,436.38552 73.521726,440.91252 C 73.157726,441.34352 72.484726,442.69152 71.513726,444.95352 C 70.167726,448.07952 69.183726,450.07252 68.577726,450.93552 C 66.744726,453.41352 65.828726,455.02952 65.828726,455.78452 L 65.828726,455.78452 C 66.084726,456.44452 65.828726,456.88952 65.101726,457.10452 C 63.996726,457.42852 63.457726,456.99752 63.457726,455.81152 C 63.457726,454.51752 64.495726,452.52452 66.569726,449.83152 C 67.176726,449.07652 68.092726,447.18952 69.317726,444.17252 C 70.288726,441.90952 70.961726,440.44052 71.325726,439.79352 C 74.248726,435.59152 75.716726,430.52552 75.716726,424.59952 C 75.716726,420.71952 74.464726,415.11552 71.944726,407.77352 C 71.904726,407.55752 71.891726,407.43652 71.891726,407.38352 C 71.891726,407.32852 71.904726,407.23552 71.944726,407.12752 L 72.793726,404.70152 L 71.944726,393.70952 C 71.944726,393.27752 71.944726,392.95552 71.944726,392.73952 L 71.944726,392.73952 C 71.944726,392.30852 72.281726,391.93152 72.968726,391.60852 C 73.656726,391.28452 75.299726,388.64452 77.899726,383.68752 C 79.380726,380.77652 80.445726,379.10752 81.064726,378.67552 C 82.169726,377.70552 85.213726,375.17252 90.171726,371.07752 C 90.171726,371.07752 90.239726,371.02452 90.360726,370.91652 C 92.219726,370.05352 94.887729,368.49152 98.361729,366.22852 C 99.844729,364.61152 100.90873,362.34852 101.52873,359.43952 L 101.70373,358.30752 C 101.70373,357.76852 101.04373,356.96052 99.695729,355.88152 L 96.031729,359.11552 C 96.031729,359.11552 95.977729,359.11552 95.856729,359.11552 C 94.509726,360.08552 92.677726,361.21652 90.360726,362.50952 C 88.771726,363.15652 87.679726,363.69552 87.059726,364.12752 C 85.725726,365.09652 83.408726,366.06552 80.108726,367.03652 C 78.033726,369.19152 76.565726,370.64752 75.716726,371.40052 C 74.868726,372.15552 73.575726,373.39552 71.877726,375.11952 C 71.015726,375.98152 68.819726,378.56752 65.276726,382.87952 C 65.168726,383.20152 64.912726,383.36352 64.549726,383.36352 C 63.700726,383.47152 63.215726,383.14852 63.093726,382.39352 C 62.932726,381.31652 62.932726,378.56752 63.093726,374.14952 C 63.215726,369.19152 63.579726,366.33652 64.185726,365.58152 C 64.307726,364.61152 65.101726,363.21152 66.569726,361.37752 C 67.297726,360.73252 69.560726,357.66052 73.332726,352.16452 C 73.831726,350.76352 74.369726,348.55352 74.989726,345.53652 L 74.989726,345.37552 C 74.989726,345.05152 74.625726,344.88952 73.884726,344.88952 C 73.400726,344.78152 72.847726,344.78152 72.241726,344.88952 L 67.661726,350.06352 C 67.297726,350.38552 66.865726,350.49352 66.381726,350.38552 L 66.017726,350.22452 C 62.839726,353.34952 60.521726,355.45152 59.067726,356.52852 C 58.325726,357.17552 57.719726,358.19952 57.233726,359.60052 C 56.628726,361.54052 56.251726,362.67152 56.129726,362.99552 C 55.644726,363.96452 54.364726,366.87552 52.291726,371.72452 L 51.185726,374.14952 C 51.064726,374.47252 50.768726,374.68852 50.269726,374.79552 C 52.344726,384.27952 53.085726,389.66852 52.479726,390.96152 C 52.223726,391.60852 51.737726,391.76952 51.011726,391.44552 C 50.283726,391.23152 50.027726,390.79952 50.269726,390.15252 L 50.269726,390.15252 C 50.525726,388.85952 49.609726,383.34952 47.535726,373.63752 C 46.551726,373.74452 45.515726,373.63752 44.423726,373.31352 C 42.833726,372.88352 42.227726,372.28952 42.591726,371.53552 C 42.833726,370.88852 43.319726,370.67352 44.059726,370.88852 C 45.515726,371.33352 46.619726,371.56352 47.347726,371.56352 C 47.468726,371.23952 47.588726,370.53952 47.709726,369.46152 C 47.952726,365.68952 48.411726,363.31752 49.084726,362.34852 C 49.757726,361.37752 50.095726,357.66052 50.095726,351.19352 C 50.095726,350.54752 49.784726,349.84752 49.179726,349.09252 C 48.572726,348.33752 48.073726,347.96052 47.709726,347.96052 C 46.983726,347.96052 46.067726,348.01552 44.975726,348.12352 L 42.780726,354.10452 L 39.843726,360.08552 C 38.752726,362.56452 37.836726,365.85152 37.095726,369.94552 L 36.367726,374.32452 C 37.216726,376.47952 37.647726,377.93552 37.647726,378.68852 C 37.647726,384.50852 38.011726,388.22752 38.737726,389.84352 C 38.993726,390.48952 39.115726,391.35252 39.115726,392.42952 C 39.115726,394.69252 38.563726,397.27952 37.459726,400.18852 C 37.431726,400.40452 37.431726,400.72852 37.459726,401.15952 C 37.459726,402.23652 37.673726,403.96052 38.105726,406.33252 C 38.536726,408.70352 38.737726,410.53552 38.737726,411.82852 C 38.711726,412.25952 38.711726,412.58352 38.737726,412.79752 C 38.375726,413.98352 38.199726,417.00052 38.199726,421.85152 C 38.199726,424.97652 38.375726,427.23952 38.737726,428.64052 L 39.479726,431.06452 C 39.600726,431.40152 39.655726,431.67152 39.655726,431.87352 C 39.655726,432.10152 39.600726,432.31752 39.479726,432.52052 C 39.115726,434.47352 38.927726,436.46752 38.927726,438.51552 C 38.927726,440.88552 39.196726,442.63652 39.748726,443.76852 C 40.300726,444.90052 40.571726,445.68152 40.571726,446.11252 C 40.571726,447.62152 39.789726,448.05252 38.199726,447.40552 C 36.245726,452.68552 35.060726,455.70452 34.629726,456.45752 C 34.199726,457.21252 33.619726,457.42852 32.892726,457.10452 C 32.151726,456.78152 31.976726,456.29652 32.339726,455.64952 C 32.945726,454.78852 34.292726,451.39352 36.367726,445.46552 C 36.609726,444.92752 37.040726,444.65752 37.647726,444.65752 C 36.920726,443.25652 36.556726,441.15552 36.556726,438.35252 C 36.556726,436.19752 36.731726,433.98852 37.095726,431.71152 C 36.973726,431.28052 36.704726,430.39152 36.273726,429.04452 C 35.841726,427.69752 35.640726,425.29952 35.640726,421.85152 C 35.640726,416.78552 35.883726,413.55252 36.367726,412.15152 C 36.609726,411.28952 36.165726,408.21752 35.033726,402.93752 C 34.791726,401.42852 34.859726,400.29652 35.221726,399.54152 C 36.839726,395.23152 37.216726,392.26852 36.367726,390.65152 C 35.505726,388.81952 35.087726,384.83252 35.087726,378.68852 C 35.087726,378.25752 34.872726,377.47652 34.440726,376.34452 C 34.009726,375.21352 33.861726,374.54052 33.983726,374.32452 L 34.724726,369.46152 C 35.815726,364.61152 36.784726,361.21652 37.647726,359.27652 L 40.947726,352.32552 L 42.955726,346.82952 C 43.076726,346.39752 43.385726,346.18352 43.871726,346.18352 C 45.339726,345.85952 46.619726,345.69752 47.709726,345.69752 C 48.936726,345.69752 50.067726,346.31752 51.104726,347.55652 C 52.141726,348.79652 52.653726,350.00852 52.653726,351.19352 C 52.653726,357.98352 52.169726,362.07952 51.199726,363.48052 C 50.821726,364.12752 50.457726,366.17352 50.095726,369.62352 L 49.905726,371.07752 L 49.905726,370.88852 C 51.011726,368.42452 52.357726,365.43352 53.933726,361.90452 C 54.176726,361.59352 54.607726,360.35552 55.213726,358.22552 C 55.591726,356.83952 56.412726,355.65352 57.692726,354.69652 C 58.972726,353.72752 61.261726,351.59752 64.549726,348.28452 C 64.912726,347.85352 65.411726,347.74552 66.017726,347.96052 L 66.381726,348.12352 L 70.772726,343.32752 C 70.893726,343.11152 71.083726,343.00352 71.325726,343.00352 C 73.641726,342.46452 75.353726,342.62752 76.444726,343.48852 C 77.185726,344.13552 77.481726,344.94352 77.360726,345.91352 C 77.117726,347.73252 76.565726,350.04952 75.716726,352.85152 C 75.475726,353.38952 74.221726,355.16852 71.972726,358.17252 C 69.708726,361.18952 68.401726,362.80552 68.024726,363.02152 C 67.661726,363.23752 67.324726,363.80352 67.028726,364.71952 C 66.717726,365.63552 66.448726,366.29552 66.205726,366.72752 C 65.587726,368.12752 65.344726,372.27652 65.465726,379.16052 L 69.856726,373.82552 C 70.840726,373.07152 72.173726,371.83252 73.884726,370.10752 C 74.747726,369.24552 76.269726,367.68352 78.464726,365.41952 C 80.176726,364.88052 82.492726,363.91152 85.416726,362.50952 C 87.248726,361.75552 89.389726,360.67752 91.828726,359.27652 C 92.677726,358.62952 93.539726,358.03752 94.388726,357.49952 L 98.779729,353.61952 C 99.264729,353.18852 99.816729,353.13352 100.42373,353.45752 C 101.76973,354.42752 102.80773,355.45152 103.53573,356.52852 C 103.77773,356.20552 104.08773,355.93652 104.45173,355.72052 C 104.32973,354.64352 104.88173,353.78052 106.09573,353.13352 C 106.83573,352.70352 107.56373,352.48752 108.30473,352.48752 C 108.54573,352.59552 108.78873,352.70352 109.03173,352.81152 L 113.97573,356.52852 L 115.42973,356.85252 C 116.77773,357.28352 118.67673,358.57652 121.11573,360.73252 C 122.32773,361.70152 123.24373,362.29552 123.84973,362.50952 C 125.07573,362.94052 125.86973,363.26452 126.23373,363.48052 C 127.58173,364.23352 128.73973,365.25752 129.70973,366.55152 C 133.61673,369.46152 136.21673,371.69752 137.49673,373.26052 C 138.77573,374.82352 141.79373,378.19152 146.54873,383.36352 C 146.54873,383.25552 146.66973,383.20152 146.91273,383.20152 C 147.89573,382.98552 148.98773,383.20152 150.21273,383.84852 C 150.94073,384.71152 152.09973,385.62752 153.68873,386.59652 L 154.05273,386.75752 C 155.52073,387.29652 156.92173,387.51252 158.26873,387.40452 C 160.10073,387.08152 161.98773,387.62052 163.94073,389.02152 L 164.49273,389.34452 C 165.58373,390.09952 166.68873,391.06852 167.77973,392.25552 L 171.44373,394.67952 C 171.68573,394.89552 171.80773,395.16452 171.80773,395.48752 C 171.80773,396.02552 171.63273,396.34952 171.26873,396.45752 C 170.76973,396.67252 170.35273,396.67252 169.97573,396.45752 L 166.32473,393.87152 C 166.20373,393.87152 166.13573,393.81752 166.13573,393.70952 C 165.52973,393.17152 164.49273,392.25552 163.02473,390.96152 L 162.47173,390.63752 C 161.13773,389.77552 159.73673,389.39952 158.26873,389.50552 C 156.19373,389.50552 154.48373,389.29152 153.13673,388.85952 L 152.77273,388.69752 C 152.04473,388.05152 150.76573,387.02752 148.93273,385.62752 C 148.08473,385.19552 147.53273,385.08752 147.28973,385.30352 C 147.16873,385.62752 146.85973,385.78852 146.37373,385.78852 C 146.00973,385.89652 145.70073,385.78852 145.45773,385.46452 C 140.20373,379.96852 136.91673,376.35752 135.56973,374.63352 C 134.35773,373.23252 131.85173,371.02452 128.06573,368.00552 C 127.94473,368.00552 127.89173,367.95252 127.89173,367.84452 C 126.54473,366.87552 125.14373,365.85152 123.67573,364.77352 C 122.44873,364.44952 120.99373,363.56052 119.28373,362.10552 C 117.57273,360.65152 116.04973,359.60052 114.70373,358.95352 C 114.46073,359.38452 114.02873,359.86952 113.42373,360.40852 C 112.81673,360.94752 111.77973,361.05552 110.31173,360.73252 C 110.18973,360.73252 110.06873,360.67752 109.94773,360.56952 C 108.96473,360.03152 107.68473,359.11552 106.10873,357.82152 L 105.73173,357.49952 C 105.24573,357.92952 105.00373,358.36052 105.00373,358.79252 C 105.00373,358.57652 105.73173,359.81552 107.19973,362.50952 C 107.56373,363.04852 108.38473,363.88452 109.66473,365.01552 C 110.95773,366.14752 112.38573,367.35952 113.97573,368.65252 C 114.09673,368.76052 114.14973,368.92152 114.14973,369.13752 C 114.89173,370.00052 116.58873,371.29352 119.28373,373.01752 C 121.60073,374.09552 122.75773,375.01152 122.75773,375.76552 C 122.75773,375.98152 122.63773,376.25152 122.39573,376.57352 C 125.31773,381.20852 128.55173,385.14152 132.09373,388.37552 C 132.82173,389.02152 133.49573,391.28452 134.10173,395.16452 C 134.35773,395.37952 134.47773,395.59552 134.47773,395.81152 C 134.47773,396.02552 134.41173,396.18852 134.28973,396.29652 L 134.28973,396.45752 C 134.41173,396.88852 134.74873,398.23552 135.30073,400.49952 C 135.83973,402.76152 136.12173,404.00152 136.12173,404.21652 C 136.08173,404.21652 136.08173,404.27152 136.12173,404.37952 C 134.53273,410.73652 133.61673,414.45552 133.37373,415.53252 C 132.88873,417.04152 130.19573,417.58052 125.31773,417.14952 C 124.46973,417.04152 124.03773,416.60952 124.03773,415.85652 C 124.15973,415.20952 124.71173,414.88552 125.68173,414.88552 C 125.80373,414.88552 125.99173,414.94052 126.23373,415.04752 C 126.59773,415.04752 127.08373,415.04752 127.70173,415.04752 L 124.03773,412.94552 C 123.79573,412.73152 123.24373,411.38352 122.39573,408.90452 L 121.47973,410.68352 C 120.99373,411.54552 120.49573,413.80852 120.00973,417.47252 L 124.59173,423.61552 C 126.30173,426.09352 128.25573,428.78852 130.45173,431.69752 C 130.57173,431.69752 132.45773,432.34452 136.12173,433.63752 C 138.80373,435.03952 142.70973,436.70952 147.82873,438.64952 C 150.76573,438.75652 154.05273,439.18852 157.71673,439.94352 C 158.32373,440.48152 159.48073,441.39752 161.19273,442.69152 L 166.68873,446.40852 L 168.14373,447.86352 C 169.48973,449.04952 171.38973,450.55752 173.82873,452.38952 C 174.19173,452.60552 174.36773,452.87552 174.36773,453.19752 z M 69.129726,389.18352 C 69.372726,390.04552 69.493726,392.14752 69.493726,395.48752 C 69.493726,399.04452 69.251726,401.11952 68.765726,401.71152 C 68.280726,402.30452 68.159726,403.30052 68.401726,404.70152 C 69.251726,410.52152 68.887726,414.13152 67.297726,415.53252 C 66.933726,416.39552 66.744726,418.44352 66.744726,421.67552 C 66.744726,421.99952 66.865726,422.75352 67.108726,423.93952 C 68.092726,431.26752 68.145726,435.30852 67.297726,436.06352 C 66.691726,436.49352 66.139726,436.49352 65.653726,436.06352 C 65.047726,435.63252 64.980726,435.14752 65.465726,434.60852 L 65.465726,434.76952 C 65.828726,434.01552 65.532726,430.51252 64.549726,424.26152 C 64.428726,422.75352 64.373726,421.89152 64.373726,421.67552 C 64.373726,417.25652 64.832726,414.69752 65.748726,413.99652 C 66.664726,413.29652 66.744726,410.30552 66.017726,405.02552 C 65.653726,403.08552 65.775726,401.65752 66.381726,400.74152 C 66.987726,399.82552 67.176726,396.83552 66.933726,391.76952 C 66.448726,392.73952 64.859726,394.03252 62.177726,395.64952 C 61.815726,395.97252 61.383726,396.02552 60.899726,395.81152 L 58.513726,394.67952 C 57.288726,396.18852 56.372726,397.48152 55.765726,398.55952 C 55.401726,400.39152 54.553726,403.03152 53.207726,406.48052 L 51.737726,409.22852 C 50.525726,411.38352 49.124726,413.80852 47.535726,416.50352 C 47.049726,417.14952 46.497726,417.25652 45.877726,416.82552 C 45.151726,416.50352 45.029726,416.01752 45.515726,415.37152 C 45.756726,414.94052 47.104726,412.56852 49.541726,408.25752 L 51.011726,405.50952 C 51.373726,403.67752 52.223726,401.03752 53.569726,397.58852 C 54.297726,396.18852 55.469726,394.62552 57.045726,392.90052 L 57.787726,386.43552 C 57.908726,386.21952 58.083726,386.00452 58.325726,385.78852 C 58.581726,384.92552 59.067726,384.33352 59.793726,384.00952 C 60.764726,383.57952 62.420726,383.74052 64.737726,384.49552 C 67.055726,385.24952 68.523726,386.81252 69.129726,389.18352 z M 112.33173,358.14552 L 107.75173,354.75152 C 107.38773,354.85752 107.07773,355.12752 106.83573,355.55952 C 106.95673,355.66752 107.14573,355.77352 107.38773,355.88152 L 107.75173,356.36752 C 108.47973,356.90552 109.58373,357.66052 111.03973,358.62952 C 111.41573,358.73752 111.71273,358.79252 111.95573,358.79252 C 112.07573,358.57652 112.19673,358.36052 112.33173,358.14552 z M 133.73773,404.21652 C 133.13173,403.24752 132.57973,400.98452 132.09373,397.42752 C 131.11173,397.85952 129.83173,398.50452 128.25573,399.36752 C 125.43973,400.87652 124.03773,402.70852 124.03773,404.86352 C 124.03773,405.61752 124.64473,407.77352 125.86973,411.32952 L 130.98973,414.40152 C 131.48873,412.89252 132.40473,409.49752 133.73773,404.21652 z M 66.381726,388.69752 C 65.653726,387.51252 64.859726,386.81252 63.996726,386.59652 C 62.299726,385.94952 61.261726,385.73352 60.899726,385.94952 C 60.899726,385.94952 60.764726,386.11152 60.521726,386.43552 C 61.625726,387.18952 63.579726,387.94352 66.381726,388.69752 z M 64.912726,390.63752 C 63.821726,390.31552 62.177726,389.66852 59.983726,388.69752 L 59.605726,392.73952 L 61.437726,393.54752 C 63.391726,392.25552 64.495726,391.39252 64.737726,390.96152 z"
       inkscape:connector-curvature="0"
       style="fill:#000000;stroke:#000000;stroke-width:2.66667008" />
  </g>
</svg>
