<?xml version="1.0" encoding="UTF-8" standalone="no"?>
<!-- Created with Inkscape (http://www.inkscape.org/) -->

<svg
   xmlns:dc="http://purl.org/dc/elements/1.1/"
   xmlns:cc="http://creativecommons.org/ns#"
   xmlns:rdf="http://www.w3.org/1999/02/22-rdf-syntax-ns#"
   xmlns:svg="http://www.w3.org/2000/svg"
   xmlns="http://www.w3.org/2000/svg"
   xmlns:sodipodi="http://sodipodi.sourceforge.net/DTD/sodipodi-0.dtd"
   xmlns:inkscape="http://www.inkscape.org/namespaces/inkscape"
   width="240"
   height="160"
   id="svg3249"
   version="1.1"
   inkscape:version="0.48.0 r9654"
   sodipodi:docname="BSL letter O.svg">
  <defs
     id="defs3251" />
  <sodipodi:namedview
     id="base"
     pagecolor="#ffffff"
     bordercolor="#666666"
     borderopacity="1.0"
     inkscape:pageopacity="0.0"
     inkscape:pageshadow="2"
     inkscape:zoom="0.77472527"
     inkscape:cx="105.7305"
     inkscape:cy="240"
     inkscape:current-layer="layer1"
     inkscape:document-units="px"
     showgrid="false"
     inkscape:window-width="1024"
     inkscape:window-height="745"
     inkscape:window-x="-8"
     inkscape:window-y="-8"
     inkscape:window-maximized="1" />
  <metadata
     id="metadata3254">
    <rdf:RDF>
      <cc:Work
         rdf:about="">
        <dc:format>image/svg+xml</dc:format>
        <dc:type
           rdf:resource="http://purl.org/dc/dcmitype/StillImage" />
        <dc:title></dc:title>
      </cc:Work>
    </rdf:RDF>
  </metadata>
  <g
     id="layer1"
     inkscape:label="Layer 1"
     inkscape:groupmode="layer"
     transform="translate(0,-320)">
    <text
       xml:space="preserve"
       style="font-size:40px;font-style:normal;font-weight:normal;line-height:125%;letter-spacing:0px;word-spacing:0px;fill:#000000;fill-opacity:1;stroke:none;font-family:Sans"
       x="172.96454"
       y="23.177303"
       id="text3264"
       sodipodi:linespacing="125%"
       transform="translate(0,320)"><tspan
         sodipodi:role="line"
         id="tspan3266"
         x="172.96454"
         y="23.177303" /></text>
    <text
       xml:space="preserve"
       style="font-size:64px;font-style:normal;font-weight:bold;line-height:125%;letter-spacing:0px;word-spacing:0px;fill:#000000;fill-opacity:1;stroke:none;font-family:Sans;-inkscape-font-specification:Sans Bold"
       x="179.41844"
       y="55.446808"
       id="text3268"
       sodipodi:linespacing="125%"
       transform="translate(0,320)"><tspan
         sodipodi:role="line"
         id="tspan3270"
         x="179.41844"
         y="55.446808" /></text>
    <flowRoot
       xml:space="preserve"
       id="flowRoot3272"
       style="font-size:64px;font-style:normal;font-weight:bold;line-height:125%;letter-spacing:0px;word-spacing:0px;fill:#404040;fill-opacity:1;stroke:none;font-family:Sans;-inkscape-font-specification:Sans Bold"
       transform="translate(16.780142,313.5461)"><flowRegion
         id="flowRegion3274"><rect
           id="rect3276"
           width="73.574471"
           height="67.120567"
           x="160.05673"
           y="15.432623"
           style="fill:#404040;fill-opacity:1" /></flowRegion><flowPara
         id="flowPara3278">P</flowPara></flowRoot>    <path
       id="dp_path079"
       d="M 158.93508,426.02566 C 158.81408,426.67266 158.31508,426.94166 157.46608,426.83366 C 156.73908,426.72566 156.42808,426.34866 156.55008,425.70166 C 156.67108,424.62466 155.79608,420.07166 153.89608,412.04166 C 152.01108,404.01366 150.54208,398.86766 149.50408,396.60466 C 148.46708,394.34166 146.05608,389.70766 142.27108,382.70166 C 138.49908,376.02066 136.23508,372.30166 135.50808,371.54866 C 134.28208,370.36166 133.67608,368.85366 133.67608,367.02166 C 132.45008,363.35766 130.87408,359.42466 128.92008,355.22066 C 127.57408,354.03566 125.43208,353.44366 122.50808,353.44366 C 121.53908,353.44366 119.46408,352.63366 116.28408,351.01766 C 115.31508,350.58766 113.84708,349.94066 111.89408,349.07766 L 109.88608,348.43166 C 107.19208,347.56966 103.83808,346.38366 99.810077,344.87566 C 98.839077,344.76766 97.318077,344.55166 95.243077,344.22866 C 93.775077,344.01266 91.754077,344.55166 89.194077,345.84466 C 85.287077,348.00066 81.758077,349.77766 78.579077,351.17966 C 77.730077,351.61166 76.330077,352.74166 74.376077,354.57366 L 71.991074,359.10066 C 71.991074,359.20866 71.938074,359.26166 71.803074,359.26166 C 72.059074,359.47766 72.180074,359.69366 72.180074,359.90866 C 72.180074,360.23266 72.059074,360.50166 71.803074,360.71666 L 67.411074,365.24366 C 68.274074,365.56766 69.243074,366.10566 70.348074,366.86066 C 70.954074,366.64466 71.560074,366.53666 72.180074,366.53666 C 72.664074,366.53666 73.218077,366.59166 73.823077,366.69766 C 78.094077,363.57266 80.478077,361.60566 80.963077,360.79766 C 81.448077,359.98966 82.243077,358.93966 83.334077,357.64566 C 83.590077,357.42966 83.887077,357.26866 84.250077,357.16066 L 89.747077,356.51366 C 93.047077,356.08366 95.727077,355.65266 97.802077,355.22066 C 98.772077,354.89766 99.258077,355.22066 99.258077,356.19166 C 99.258077,356.51366 99.567077,356.80966 100.17408,357.08066 C 100.79208,357.34966 101.97808,358.34566 103.74308,360.06966 C 105.52208,361.79566 106.58608,362.71166 106.95008,362.81966 C 108.78208,362.81966 109.69808,363.57266 109.69808,365.08166 C 109.69808,365.72866 109.45508,366.45566 108.97008,367.26466 C 108.47108,368.07266 107.55508,370.52466 106.22208,374.61966 C 107.43408,374.51166 108.97008,373.81166 110.80208,372.51766 C 111.40808,371.44066 111.58308,369.60866 111.34008,367.02166 C 111.09808,364.97366 111.34008,363.89666 112.08208,363.78866 C 112.93108,363.68066 113.41508,363.94966 113.53608,364.59666 C 114.39908,369.01566 114.03508,372.24866 112.44608,374.29666 C 111.58308,375.26566 110.54608,375.85966 109.33408,376.07366 C 106.51808,376.39766 104.20208,377.96066 102.38308,380.76166 C 102.00608,381.30066 101.46708,381.40866 100.72608,381.08566 C 99.998077,380.76166 99.810077,380.27766 100.17408,379.63166 C 100.43008,379.41566 100.91408,378.82166 101.64208,377.85266 C 98.099077,378.60766 96.064077,379.11966 95.512077,379.38866 C 94.960077,379.65766 94.380077,379.73766 93.775077,379.63166 C 93.168077,379.41566 92.616077,378.92966 92.131077,378.17566 L 84.250077,374.45766 C 84.128077,374.45766 84.008077,374.40466 83.887077,374.29666 C 82.795077,373.43366 80.896077,372.24866 78.215077,370.73966 L 77.487077,370.25566 C 75.036077,369.17666 73.271077,368.63766 72.167074,368.63766 C 71.196074,368.63766 70.106074,369.06966 68.879074,369.93166 L 69.068074,370.09266 L 74.915077,375.26566 C 75.171077,375.48166 75.292077,375.75166 75.292077,376.07366 L 75.292077,376.55966 C 77.608077,378.82166 78.888077,380.57366 79.131077,381.81266 C 79.374077,383.05266 79.926077,383.99566 80.775077,384.64166 C 82.971077,385.93566 84.682077,386.79766 85.907077,387.22866 C 87.604077,387.76766 89.194077,388.79166 90.663077,390.30066 C 91.754077,391.26966 93.034077,392.34766 94.502077,393.53266 C 95.108077,393.96466 98.139077,395.36466 103.56808,397.73666 C 108.99608,400.10766 112.04208,401.37366 112.71508,401.53566 C 113.38808,401.69666 114.14308,402.20866 115.00408,403.07166 C 115.85408,403.93266 116.52708,404.47166 117.01208,404.68766 L 121.59208,407.59666 C 121.83508,407.70466 122.02308,407.86566 122.14408,408.08166 C 125.93008,420.90766 127.81608,428.77366 127.81608,431.68366 C 127.81608,432.86866 127.26408,433.35366 126.17208,433.13766 C 125.43208,432.92366 125.19008,432.49166 125.43208,431.84466 L 125.41808,431.68366 C 125.41808,431.68366 125.41808,431.62966 125.43208,431.52166 C 125.43208,429.04366 123.59908,421.55266 119.94808,409.05166 L 115.55808,406.46566 C 114.57408,405.49566 113.41508,404.52566 112.08208,403.55566 C 111.21908,403.34066 108.01408,402.02066 102.46308,399.59566 C 96.914077,397.16966 93.868077,395.79666 93.316077,395.47266 C 92.764077,395.14966 91.336077,393.90966 89.006077,391.75566 C 87.915077,390.78466 86.324077,389.81566 84.250077,388.84466 C 81.570077,387.55166 79.926077,386.68966 79.306077,386.25966 C 78.700077,385.82766 77.906077,384.53366 76.935077,382.37966 C 76.692077,381.62466 75.952077,380.62766 74.739077,379.38866 C 73.514077,378.14866 72.907077,377.36766 72.907077,377.04466 L 72.907077,376.39766 L 68.516074,372.67966 L 68.879074,373.64966 C 68.866074,373.75766 68.866074,373.86466 68.879074,373.97266 C 68.879074,375.48166 68.638074,377.79966 68.152074,380.92466 C 67.654074,382.10966 67.788074,384.69666 68.516074,388.68366 C 68.879074,390.83966 68.758074,392.88566 68.152074,394.82566 C 68.031074,395.04166 67.963074,395.58066 67.963074,396.44366 C 67.963074,399.56866 68.152074,402.04766 68.516074,403.87966 C 68.879074,405.71166 69.311074,408.72866 69.795074,412.93166 C 71.627074,412.39266 72.975077,412.06966 73.823077,411.96166 C 75.036077,411.63766 77.906077,411.74566 82.431077,412.28466 C 82.795077,412.28466 83.038077,412.39266 83.159077,412.60866 C 85.234077,414.33266 86.392077,415.89566 86.635077,417.29666 C 86.756077,417.72766 86.998077,418.37366 87.362077,419.23666 C 87.604077,419.23666 87.726077,419.23666 87.726077,419.23666 L 90.663077,419.88366 C 91.147077,420.09766 92.467077,421.58066 94.596077,424.32866 C 96.738077,427.07666 97.802077,428.70566 97.802077,429.24566 C 97.802077,432.69366 97.062077,435.65766 95.607077,438.13666 C 93.895077,441.26166 93.047077,444.33266 93.047077,447.33666 C 93.047077,448.95366 92.252077,450.40866 90.663077,451.70166 L 81.879077,457.68366 C 81.515077,457.89766 81.084077,457.89766 80.599077,457.68366 C 80.222077,457.46766 80.047077,457.14466 80.047077,456.71266 C 80.047077,456.38966 80.168077,456.12066 80.411077,455.90466 L 89.019077,450.08566 C 90.110077,449.11566 90.663077,448.19966 90.663077,447.33666 C 90.663077,444.00966 91.632077,440.61566 93.586077,437.16566 C 94.691077,435.22566 95.296077,432.64066 95.418077,429.42066 C 95.054077,428.55766 93.100077,426.02566 89.558077,421.82366 L 88.642077,421.66066 C 88.898077,422.09266 89.140077,422.52366 89.383077,422.95366 C 89.626077,423.27766 89.315077,424.08566 88.467077,425.37966 C 87.483077,426.99566 86.998077,427.85766 86.998077,427.96566 C 86.756077,428.61266 85.207077,429.68966 82.338077,431.19966 C 79.468077,432.70766 77.784077,433.46166 77.299077,433.46166 C 76.330077,433.46166 74.618077,432.38466 72.180074,430.22866 C 69.728074,428.07366 68.516074,426.61766 68.516074,425.86466 C 68.516074,425.32466 68.731074,424.59766 69.148074,423.68166 C 69.580074,422.76566 69.795074,422.19966 69.795074,421.98466 C 69.795074,421.76866 69.486074,420.74466 68.879074,418.91266 C 67.910074,415.57266 67.411074,413.46966 67.411074,412.60866 C 67.411074,411.20766 66.994074,408.45966 66.131074,404.36466 C 65.767074,402.31666 65.579074,399.72966 65.579074,396.60466 C 65.579074,395.95766 65.700074,394.98866 65.956074,393.69566 C 66.199074,392.40166 66.320074,391.43166 66.320074,390.78466 C 66.320074,389.92366 66.158074,388.62966 65.862074,386.90466 C 65.552074,385.18066 65.404074,383.88766 65.404074,383.02566 C 65.404074,381.84066 65.579074,380.92466 65.956074,380.27766 C 66.320074,378.98466 66.495074,376.93666 66.495074,374.13366 C 65.767074,371.65566 65.162074,369.55366 64.676074,367.82966 C 64.299074,366.75266 62.966074,366.42866 60.648074,366.86066 C 60.406074,366.96766 60.150074,366.96766 59.908074,366.86066 L 59.908074,373.16466 C 59.666074,375.21266 59.302074,377.36766 58.816074,379.63166 C 58.695074,379.73766 58.628074,380.06166 58.628074,380.60066 C 58.628074,380.70866 58.574074,381.40866 58.452074,382.70166 C 58.331074,384.42566 58.075074,385.39666 57.712074,385.61266 C 56.620074,389.06066 56.122074,391.32366 56.243074,392.40166 L 56.230074,392.56366 C 56.230074,392.67166 56.230074,392.83266 56.243074,393.04866 C 56.243074,393.80166 56.002074,395.36466 55.516074,397.73666 C 55.031074,400.10766 54.788074,401.66966 54.788074,402.42466 C 54.788074,402.74766 54.843074,403.17766 54.964074,403.71766 C 54.950074,404.25666 54.950074,404.68766 54.964074,405.00966 C 54.964074,406.08866 54.843074,407.54366 54.600074,409.37566 C 54.358074,411.63766 54.183074,413.09366 54.048074,413.73966 C 53.927074,414.81766 53.630074,415.67966 53.146074,416.32566 C 52.040074,417.51166 51.124074,419.72066 50.396074,422.95366 C 50.276074,423.27766 49.630074,424.35566 48.471074,426.18766 C 47.312074,428.01966 46.006074,430.33666 44.538074,433.13766 C 44.295074,434.86366 43.554074,437.44866 42.342074,440.89766 C 42.220074,441.43666 41.788074,442.10966 41.062074,442.91766 C 40.320074,443.72766 39.108074,445.53266 37.398074,448.33366 C 35.687074,451.13666 34.650074,453.12966 34.286074,454.31566 C 34.164074,454.96166 33.679074,455.17766 32.818074,454.96166 C 32.332074,454.85366 32.090074,454.53166 32.090074,453.99166 C 32.090074,453.34566 33.059074,451.35166 35.012074,448.01166 C 36.966074,444.66966 38.314074,442.56866 39.040074,441.70566 C 39.404074,441.38366 39.714074,441.05966 39.956074,440.73666 C 39.943074,440.62866 39.943074,440.52066 39.956074,440.41266 C 40.576074,438.79666 41.358074,436.20966 42.342074,432.65366 C 42.584074,431.46866 43.931074,428.98966 46.370074,425.21766 C 46.854074,424.46366 47.407074,423.54766 48.012074,422.46866 C 48.996074,418.80466 50.034074,416.32566 51.124074,415.03266 C 51.246074,415.03266 51.555074,413.79366 52.040074,411.31566 C 52.404074,409.37566 52.592074,407.27366 52.592074,405.00966 C 52.579074,404.68766 52.566074,404.25666 52.566074,403.71766 C 52.566074,403.17766 52.579074,402.74766 52.592074,402.42466 C 52.592074,401.56166 52.808074,399.89166 53.226074,397.41266 C 53.658074,394.93366 53.872074,393.47966 53.872074,393.04866 L 53.846074,392.88566 C 53.846074,392.77966 53.859074,392.61666 53.872074,392.40166 C 53.872074,391.75566 54.088074,390.38066 54.506074,388.27966 C 54.936074,386.17766 55.340074,384.96566 55.704074,384.64166 L 55.704074,384.64166 C 55.704074,384.42566 55.759074,384.21166 55.880074,383.99566 C 56.002074,383.13366 56.136074,381.89366 56.256074,380.27766 C 56.256074,379.73766 56.378074,379.19966 56.620074,378.66066 C 56.863074,377.15266 57.159074,375.21266 57.536074,372.84166 L 57.536074,366.21366 C 57.536074,365.56766 57.900074,365.24366 58.628074,365.24366 C 58.871074,365.24366 59.112074,365.29766 59.368074,365.40466 C 59.490074,365.08166 59.666074,364.92066 59.908074,364.92066 C 61.012074,364.70466 61.982074,364.65166 62.844074,364.75766 C 63.451074,364.75766 64.056074,364.86566 64.663074,365.08166 C 64.663074,364.86566 64.731074,364.70466 64.851074,364.59666 L 69.984074,359.24866 C 69.607074,358.92566 69.554074,358.54866 69.795074,358.11666 L 72.167074,353.57766 C 72.302074,353.46966 72.355074,353.41566 72.355074,353.41566 C 74.551077,351.15266 76.262077,349.73766 77.487077,349.19966 C 80.654077,347.90566 84.196077,346.18166 88.103077,344.01266 C 91.147077,342.39666 93.654077,341.80366 95.607077,342.23566 C 96.698077,342.12766 98.530077,342.39666 101.09008,343.04366 C 102.07208,343.58166 105.30608,344.71366 110.78808,346.43766 L 112.81008,347.08466 C 113.65808,347.40766 115.19408,348.10866 117.39008,349.18566 C 120.31208,350.58766 122.02308,351.28766 122.50808,351.28766 C 126.05108,351.28766 128.73208,352.04166 130.56408,353.54966 C 131.29208,354.20966 132.39608,356.39266 133.85108,360.11166 C 135.31908,363.82866 136.04708,366.11966 136.04708,366.98166 C 136.04708,368.27366 136.42408,369.27166 137.15208,369.97166 C 137.87908,370.67266 140.26308,374.61966 144.29108,381.78566 C 148.31908,388.95266 150.78408,393.64066 151.70008,395.86366 C 152.61608,398.07266 154.08408,403.35366 156.09208,411.70566 C 158.11208,420.07166 159.05608,424.84066 158.93508,426.02566 z M 107.31208,365.08166 C 107.29908,365.08166 107.29908,365.02866 107.31208,364.92066 C 107.19208,364.92066 107.01608,364.92066 106.76008,364.92066 C 106.15508,364.92066 104.14708,363.35766 100.72608,360.23266 C 96.455077,363.14166 94.138077,365.02866 93.775077,365.88966 C 93.654077,367.93766 93.532077,370.63266 93.411077,373.97266 L 93.047077,376.23666 L 93.586077,376.39766 C 93.707077,376.72066 94.016077,377.09766 94.502077,377.52966 C 95.486077,376.98966 98.476077,376.28966 103.47408,375.42766 C 105.06308,370.36166 106.22208,367.23666 106.95008,366.05166 C 107.19208,365.72866 107.31208,365.40466 107.31208,365.08166 z M 98.718077,358.93966 C 97.978077,358.61566 97.492077,358.13166 97.250077,357.48466 C 95.175077,357.91566 92.791077,358.29266 90.110077,358.61566 L 84.991077,359.26166 C 84.128077,360.23266 83.455077,361.14866 82.971077,362.00966 C 82.486077,362.87266 80.290077,364.70466 76.383077,367.50766 C 76.868077,367.72166 77.542077,368.04566 78.404077,368.47666 L 79.306077,368.79966 C 80.896077,369.55366 82.916077,370.84766 85.355077,372.67966 L 90.838077,375.26566 L 91.026077,373.81166 C 91.026077,369.17666 91.175077,366.32066 91.484077,365.24366 C 91.794077,364.16566 94.206077,362.06466 98.718077,358.93966 z M 67.788074,368.00466 C 67.532074,367.89766 67.290074,367.72166 67.047074,367.50766 L 67.236074,368.50366 C 67.479074,368.28866 67.654074,368.11266 67.788074,368.00466 z M 86.998077,423.27766 C 86.150077,421.12166 84.439077,418.10466 81.879077,414.22466 C 77.730077,413.90166 75.224077,413.79366 74.376077,413.90166 C 73.514077,414.11666 72.112074,414.49366 70.159074,415.03266 C 70.402074,415.78766 70.766074,416.91966 71.264074,418.42766 C 71.870074,420.36766 72.180074,421.55266 72.180074,421.98466 C 72.180074,422.41566 71.991074,423.06166 71.627074,423.92466 C 72.598074,423.16966 73.702077,422.73966 74.915077,422.63166 C 76.383077,422.41566 77.352077,422.63166 77.851077,423.27766 C 78.323077,423.92466 78.323077,424.57166 77.851077,425.21766 C 77.608077,425.75666 77.111077,425.91766 76.383077,425.70166 C 75.898077,425.48766 75.655077,425.16366 75.655077,424.73266 L 75.655077,424.57166 C 74.794077,424.57166 73.580077,425.32466 71.991074,426.83366 C 74.066077,429.09666 75.776077,430.60566 77.124077,431.36066 C 81.636077,429.20466 84.128077,427.77666 84.614077,427.07666 C 85.112077,426.37566 85.907077,425.10966 86.998077,423.27766 z"
       inkscape:connector-curvature="0"
       style="fill:#000000;stroke:#000000;stroke-width:2.66667008" />
  </g>
</svg>
