<?xml version="1.0" encoding="UTF-8" standalone="no"?>
<!-- Created with Inkscape (http://www.inkscape.org/) -->

<svg
   xmlns:dc="http://purl.org/dc/elements/1.1/"
   xmlns:cc="http://creativecommons.org/ns#"
   xmlns:rdf="http://www.w3.org/1999/02/22-rdf-syntax-ns#"
   xmlns:svg="http://www.w3.org/2000/svg"
   xmlns="http://www.w3.org/2000/svg"
   xmlns:sodipodi="http://sodipodi.sourceforge.net/DTD/sodipodi-0.dtd"
   xmlns:inkscape="http://www.inkscape.org/namespaces/inkscape"
   width="240"
   height="160"
   id="svg3249"
   version="1.1"
   inkscape:version="0.48.0 r9654"
   sodipodi:docname="BSL letter P.svg">
  <defs
     id="defs3251" />
  <sodipodi:namedview
     id="base"
     pagecolor="#ffffff"
     bordercolor="#666666"
     borderopacity="1.0"
     inkscape:pageopacity="0.0"
     inkscape:pageshadow="2"
     inkscape:zoom="0.77472527"
     inkscape:cx="105.7305"
     inkscape:cy="240"
     inkscape:current-layer="layer1"
     inkscape:document-units="px"
     showgrid="false"
     inkscape:window-width="1024"
     inkscape:window-height="745"
     inkscape:window-x="-8"
     inkscape:window-y="-8"
     inkscape:window-maximized="1" />
  <metadata
     id="metadata3254">
    <rdf:RDF>
      <cc:Work
         rdf:about="">
        <dc:format>image/svg+xml</dc:format>
        <dc:type
           rdf:resource="http://purl.org/dc/dcmitype/StillImage" />
        <dc:title></dc:title>
      </cc:Work>
    </rdf:RDF>
  </metadata>
  <g
     id="layer1"
     inkscape:label="Layer 1"
     inkscape:groupmode="layer"
     transform="translate(0,-320)">
    <text
       xml:space="preserve"
       style="font-size:40px;font-style:normal;font-weight:normal;line-height:125%;letter-spacing:0px;word-spacing:0px;fill:#000000;fill-opacity:1;stroke:none;font-family:Sans"
       x="172.96454"
       y="23.177303"
       id="text3264"
       sodipodi:linespacing="125%"
       transform="translate(0,320)"><tspan
         sodipodi:role="line"
         id="tspan3266"
         x="172.96454"
         y="23.177303" /></text>
    <text
       xml:space="preserve"
       style="font-size:64px;font-style:normal;font-weight:bold;line-height:125%;letter-spacing:0px;word-spacing:0px;fill:#000000;fill-opacity:1;stroke:none;font-family:Sans;-inkscape-font-specification:Sans Bold"
       x="179.41844"
       y="55.446808"
       id="text3268"
       sodipodi:linespacing="125%"
       transform="translate(0,320)"><tspan
         sodipodi:role="line"
         id="tspan3270"
         x="179.41844"
         y="55.446808" /></text>
    <flowRoot
       xml:space="preserve"
       id="flowRoot3272"
       style="font-size:64px;font-style:normal;font-weight:bold;line-height:125%;letter-spacing:0px;word-spacing:0px;fill:#404040;fill-opacity:1;stroke:none;font-family:Sans;-inkscape-font-specification:Sans Bold"
       transform="translate(16.780142,313.5461)"><flowRegion
         id="flowRegion3274"><rect
           id="rect3276"
           width="73.574471"
           height="67.120567"
           x="160.05673"
           y="15.432623"
           style="fill:#404040;fill-opacity:1" /></flowRegion><flowPara
         id="flowPara3278">Q</flowPara></flowRoot>    <path
       id="dp_path080"
       d="M 165.69845,451.36677 L 165.52345,447.79677 C 165.52345,445.42677 164.48645,441.59977 162.41145,436.31977 C 161.80445,434.81077 161.49545,433.89477 161.49545,433.57177 C 161.49545,433.24777 161.37445,432.33177 161.13145,430.82277 L 160.94345,429.20677 C 160.70045,427.48277 159.54245,426.12077 157.46745,425.15177 C 155.99945,424.50477 154.16745,424.28877 151.97145,424.50477 C 151.00045,422.99577 149.84345,421.32677 148.49545,419.49277 C 148.13145,418.95477 147.09445,418.41577 145.38345,417.87677 C 143.55145,417.33877 141.78745,417.49977 140.07645,418.36277 L 139.34845,418.68477 C 138.86345,418.03877 138.16345,417.14877 137.24745,416.01877 C 136.33145,414.88677 135.44245,413.88877 134.59445,413.02777 C 133.73145,412.16477 132.45145,411.35677 130.74045,410.60277 C 129.77045,410.17177 127.93845,410.11677 125.25845,410.44077 C 123.18345,410.76377 121.90345,411.08777 121.40445,411.41077 C 120.92045,411.73477 120.62345,412.86677 120.48845,414.80477 L 120.48845,414.64377 C 120.12445,413.88877 119.70745,412.70377 119.20845,411.08777 C 118.96745,410.22477 118.17145,408.60877 116.83845,406.23877 C 116.09845,404.62077 115.06045,402.30377 113.72645,399.28677 C 114.09045,399.07177 114.64245,398.37077 115.37045,397.18477 C 115.73445,396.43077 116.28645,395.62277 117.01445,394.76077 C 117.39045,394.54477 117.80845,394.00677 118.30645,393.14377 C 119.27645,393.03577 121.23045,391.68877 124.15245,389.10277 L 124.51645,388.61677 C 124.89445,388.29477 125.06845,387.91677 125.06845,387.48677 C 125.06845,386.30077 124.67845,385.43877 123.88345,384.89977 C 123.08845,384.36077 121.90345,383.60677 120.31445,382.63577 C 119.58645,382.20477 118.41445,382.09677 116.83845,382.31277 C 116.95945,382.09677 117.08045,381.88277 117.20245,381.66677 C 117.20245,381.66677 117.25545,381.66677 117.39045,381.66677 C 117.87545,381.45077 118.11845,381.12777 118.11845,380.69677 C 118.11845,380.48077 118.05145,380.31977 117.93045,380.21177 L 115.18045,374.23077 C 115.16745,374.23077 115.16745,374.17677 115.18045,374.06877 C 114.81845,373.63677 114.52045,373.15277 114.26445,372.61477 C 117.44445,373.47577 119.88345,373.53077 121.59445,372.77577 C 122.56345,372.34377 123.60045,371.53577 124.70645,370.35077 C 125.19045,370.35077 125.55445,370.13577 125.81045,369.70377 C 125.93145,369.27277 125.83645,368.92277 125.52745,368.65277 C 125.21845,368.38377 124.58445,367.71077 123.60045,366.63277 C 124.46345,366.29577 125.47445,365.67577 126.63145,364.75977 C 127.79045,363.84377 128.18045,362.52377 127.81845,360.79977 C 127.57545,360.04477 127.09045,359.55977 126.34845,359.34477 C 125.25845,359.02077 122.99445,357.56677 119.58645,354.97977 L 117.37645,353.18777 C 115.30245,351.67977 114.21145,350.87177 114.09045,350.76377 C 113.24245,350.33177 111.94845,350.00877 110.25145,349.79277 C 109.14645,349.68677 108.41945,349.57877 108.05545,349.47077 C 105.11845,348.39277 100.67245,346.88377 94.691449,344.94377 C 91.634449,344.40477 89.654449,344.53977 88.736449,345.34777 C 87.820449,346.15577 86.946449,346.99177 86.083449,347.85277 C 84.992449,347.96077 82.298449,350.00877 78.027449,353.99677 C 74.376449,357.33677 72.235449,359.22377 71.628449,359.65477 C 68.692449,361.48677 65.647449,363.53477 62.468449,365.79677 C 61.983449,366.78077 61.431449,367.80477 60.824449,368.88277 C 60.811449,368.99077 60.811449,369.09877 60.824449,369.20477 L 59.908449,373.73177 C 58.939449,379.33577 57.470449,383.16277 55.516449,385.20877 C 52.715449,388.01177 50.331449,391.67577 48.378449,396.20277 C 47.650449,398.03477 45.266449,402.83077 41.238449,410.60277 C 40.267449,412.11177 39.472449,413.02777 38.867449,413.35077 C 34.718449,415.82877 29.410449,419.92477 22.943449,425.63677 C 22.822449,425.85177 22.755449,426.06777 22.755449,426.28377 C 22.755449,426.60677 22.822449,426.87577 22.943449,427.09177 C 23.550449,427.63077 24.156449,427.63077 24.775449,427.09177 C 31.107449,421.48777 36.239449,417.49977 40.146449,415.12877 C 41.359449,414.48277 42.463449,413.29677 43.434449,411.57277 C 45.387449,407.69277 47.771449,402.84377 50.574449,397.02377 C 52.406449,392.71277 54.600449,389.26377 57.160449,386.67877 C 59.478449,384.41477 61.188449,380.21177 62.292449,374.06877 L 63.210449,369.70377 C 63.572449,368.84277 64.004449,367.87177 64.488449,366.79477 C 70.227449,363.23877 75.279449,359.46677 79.671449,355.47877 C 81.382449,353.96877 83.335449,352.24477 85.531449,350.30477 C 86.030449,349.98277 86.756449,349.92777 87.727449,350.14377 C 88.346449,350.14377 88.831449,350.14377 89.195449,350.14377 L 89.195449,350.14377 C 90.542449,350.25177 96.699449,352.03077 107.67845,355.47877 C 109.51045,356.01677 110.61445,356.66377 110.97845,357.41877 C 111.58445,358.49577 113.29545,360.21977 116.09845,362.59177 C 116.95945,363.45277 119.15545,365.60877 122.68445,369.05677 C 121.83645,369.91977 121.10845,370.51177 120.48845,370.83577 C 119.39845,371.26677 117.93045,371.26677 116.09845,370.83577 C 114.02345,370.29677 112.86445,370.02777 112.62245,370.02777 C 112.01545,369.16477 111.65145,368.57277 111.53045,368.24877 C 111.03245,366.73977 110.21045,365.47477 109.05145,364.45077 C 107.89445,363.42677 106.39845,362.59177 104.56645,361.94477 L 94.327449,354.67077 C 94.071449,354.45477 93.775449,354.40077 93.411449,354.50877 C 87.915449,355.47877 84.130449,356.61077 82.055449,357.90377 C 79.616449,359.41177 77.300449,361.24377 75.104449,363.39977 C 74.376449,364.04677 72.840449,364.85477 70.524449,365.82377 C 69.796449,365.93177 69.487449,366.30877 69.608449,366.95577 C 69.730449,367.71077 70.160449,368.03277 70.887449,367.92677 C 72.962449,367.71077 74.983449,366.63277 76.936449,364.69277 C 78.890449,362.75277 81.086449,361.02877 83.523449,359.51977 C 85.114449,358.55077 88.400449,357.57977 93.411449,356.61077 L 103.28645,363.72277 C 103.40745,363.83077 103.52845,363.88477 103.65045,363.88477 C 104.39145,364.20777 105.55045,364.85477 107.13945,365.82377 C 108.10845,366.68677 108.78245,367.62877 109.14645,368.65277 C 109.51045,369.67677 110.79045,371.80477 112.98645,375.03877 C 113.84745,376.87077 114.64245,378.54077 115.37045,380.05077 C 115.24845,380.37277 115.06045,380.69677 114.81845,381.01977 C 113.96845,381.23577 113.10745,381.39677 112.25845,381.50477 C 108.59445,379.56477 106.39845,377.89477 105.67045,376.49277 C 105.30745,375.63177 104.94345,374.55277 104.56645,373.26077 C 104.56645,372.82877 104.39145,372.55977 104.02745,372.45177 L 102.37045,371.80477 C 101.52245,371.48277 100.26845,371.02377 98.624449,370.43177 C 96.982449,369.83877 95.176449,368.89577 93.223449,367.60277 C 92.859449,367.38677 92.428449,367.33277 91.943449,367.44077 C 91.579449,367.54877 91.296449,367.95277 91.122449,368.65277 C 90.932449,369.35477 90.758449,369.78477 90.570449,369.94677 C 90.380449,370.10777 89.438449,370.59277 87.727449,371.40077 C 86.030449,372.20877 85.167449,372.93677 85.167449,373.58377 C 85.167449,374.23077 84.898449,374.68777 84.346449,374.95877 C 83.794449,375.22777 83.523449,376.65577 83.523449,379.24077 C 83.510449,379.88777 83.496449,380.88477 83.496449,382.23177 C 83.496449,383.57977 83.496449,384.57577 83.496449,385.22277 C 83.496449,385.86877 83.510449,386.30077 83.523449,386.51577 C 83.403449,386.73177 83.335449,386.89277 83.335449,387.00077 C 83.335449,387.86377 85.167449,389.53277 88.831449,392.01177 C 88.952449,392.01177 89.559449,392.06677 90.663449,392.17477 C 85.908449,392.82077 82.796449,392.82077 81.328449,392.17477 C 80.600449,391.85077 80.048449,391.95877 79.684449,392.49677 C 79.307449,393.14377 79.563449,393.65577 80.412449,394.03277 C 81.260449,394.41077 83.160449,394.59877 86.083449,394.59877 C 89.263449,394.59877 91.634449,394.32877 93.223449,393.79077 C 93.587449,396.37677 94.018449,398.26277 94.503449,399.44877 C 95.850449,402.46677 96.940449,404.89077 97.803449,406.72277 L 98.167449,407.85477 C 96.699449,408.39277 95.364449,408.93177 94.139449,409.47077 C 90.839449,410.87177 88.643449,412.43477 87.551449,414.15877 C 87.067449,414.91277 85.598449,416.42277 83.160449,418.68477 C 75.831449,422.67277 71.346449,424.82777 69.702449,425.15177 C 68.059449,425.47477 66.254449,425.90677 64.300449,426.44477 C 64.058449,426.44477 63.883449,426.49877 63.748449,426.60677 C 61.674449,428.43877 59.976449,430.05577 58.628449,431.45577 C 56.070449,433.71977 52.284449,437.22277 47.286449,441.96377 C 47.043449,442.17977 46.908449,442.39477 46.908449,442.61077 C 46.908449,442.93277 47.043449,443.20277 47.286449,443.41877 C 47.892449,443.84877 48.444449,443.84877 48.930449,443.41877 C 49.415449,442.98777 50.815449,441.69477 53.132449,439.53877 C 57.160449,435.98277 59.599449,433.77277 60.460449,432.91077 C 61.687449,431.61877 63.263449,430.10877 65.216449,428.38477 C 67.048449,427.95277 68.692449,427.57577 70.160449,427.25277 C 71.022449,427.03677 73.542449,425.93277 77.758449,423.93977 C 81.960449,421.94477 84.319449,420.67977 84.803449,420.13977 C 87.484449,417.76877 89.168449,416.01877 89.842449,414.88677 C 90.502449,413.75477 92.307449,412.59577 95.230449,411.41077 C 96.335449,410.87177 97.615449,410.38777 99.083449,409.95577 C 100.05245,412.21977 100.87545,413.88877 101.54845,414.96777 C 102.22245,416.04477 103.47545,418.52377 105.30745,422.40377 C 105.29445,422.61877 105.27945,422.94277 105.27945,423.37277 L 105.30745,423.37277 C 104.44445,423.48077 103.78445,424.12777 103.28645,425.31277 L 103.11145,425.79877 C 102.12745,428.38477 101.95245,430.53977 102.55945,432.26377 C 103.78445,436.03577 104.51245,440.34777 104.75445,445.19677 C 104.75445,445.73577 104.99645,446.57077 105.48245,447.70277 C 105.98045,448.83477 106.18245,449.69577 106.12845,450.28877 C 106.06045,450.88077 106.34445,451.28677 106.95045,451.50077 L 106.76245,451.33977 C 107.13945,451.77077 107.55645,452.52477 108.05545,453.60277 C 108.29845,454.24877 108.78245,454.46477 109.51045,454.24877 C 110.11645,454.14077 110.42645,453.81877 110.42645,453.27977 C 110.42645,451.98677 109.75245,450.85477 108.41945,449.88477 C 108.41945,448.91477 108.10845,447.94477 107.50345,446.97477 C 107.38245,445.68077 107.13945,443.90377 106.76245,441.63977 C 106.39845,439.37677 105.72445,436.09077 104.75445,431.77977 C 104.63445,431.13277 104.56645,430.53977 104.56645,430.00077 C 104.56645,429.24677 104.87545,428.06077 105.48245,426.44477 L 105.48245,426.12077 C 105.73845,428.49277 105.94045,430.21677 106.12845,431.29477 C 106.31645,432.37177 106.64045,433.45077 107.13945,434.52777 L 107.67845,435.65977 C 108.05545,436.19877 108.35145,437.65277 108.59445,440.02377 L 108.97145,442.44877 C 108.97145,443.09577 109.38845,443.41877 110.25145,443.41877 C 110.97845,443.31077 111.34245,442.87977 111.34245,442.12477 L 110.97845,439.86277 C 110.85645,438.56877 110.54745,436.89877 110.06245,434.85077 L 109.33545,433.55677 C 109.09245,433.12677 108.81045,432.18377 108.51245,430.72877 C 108.20345,429.27477 107.93445,426.39077 107.67845,422.07977 C 107.67845,421.97177 107.62345,421.86477 107.50345,421.75677 C 105.67045,417.76877 104.39145,415.18277 103.65045,413.99677 C 102.92245,412.81177 101.76345,410.27977 100.17445,406.39977 L 99.999449,405.91477 C 99.136449,404.08277 98.046449,401.65877 96.699449,398.63977 C 96.214449,397.56277 95.728449,395.19177 95.230449,391.52777 C 94.867449,389.04877 95.419449,387.53977 96.887449,387.00077 C 98.962449,386.13877 100.84745,386.40777 102.55945,387.80877 C 103.28645,388.45577 103.71645,389.10277 103.83845,389.74877 C 104.20245,390.93477 104.63445,391.68877 105.11845,392.01177 C 105.84645,392.76677 107.26045,394.27577 109.33545,396.53877 L 110.42645,398.15577 C 110.79045,398.80277 111.34245,399.93277 112.07045,401.55077 C 112.81045,403.59677 113.65945,405.48377 114.64245,407.20777 C 115.24845,408.17877 116.04345,409.68677 117.01445,411.73477 C 117.01445,412.70377 117.56645,414.15877 118.67045,416.09877 C 120.48845,418.03877 121.40445,419.70877 121.40445,421.11077 C 121.40445,422.07977 121.95845,422.83477 123.06245,423.37277 L 123.60045,423.69677 C 123.85645,423.80477 124.46345,424.50477 125.43245,425.79877 L 125.79645,426.28377 C 126.17445,426.82277 126.71245,426.93077 127.45445,426.60677 C 127.57545,426.49877 127.69645,426.33677 127.81845,426.12077 C 127.69645,426.22877 127.62845,426.28377 127.62845,426.28377 C 127.62845,427.36077 128.18045,427.73877 129.28645,427.41477 C 129.77045,427.19977 130.08045,426.93077 130.20245,426.60677 C 130.44445,425.95977 129.89145,424.72077 128.54445,422.88777 C 128.05945,422.34877 127.50745,422.24277 126.90045,422.56477 C 126.65945,422.78077 126.47045,422.99577 126.34845,423.21177 C 125.74345,422.56477 125.31145,422.13477 125.06845,421.91877 L 124.34245,421.59577 C 124.22045,421.48777 124.09945,421.37977 123.97845,421.27177 C 123.72245,420.62477 123.30445,419.54777 122.68445,418.03877 C 122.81945,417.82377 122.87445,417.60777 122.87445,417.39177 C 122.73945,416.53077 122.73945,415.55977 122.87445,414.48277 C 122.99445,413.29677 123.23645,412.70377 123.60045,412.70377 C 123.97845,412.70377 124.63845,412.65077 125.62245,412.54277 C 127.81845,412.21977 129.16445,412.16477 129.65045,412.38077 C 131.72345,413.35077 133.03145,414.18677 133.58345,414.88677 C 134.13545,415.58677 135.01145,416.79977 136.23645,418.52377 C 136.72245,419.17077 137.32845,419.87077 138.06845,420.62477 C 138.43245,421.05577 138.91845,421.16377 139.52345,420.94877 L 140.99245,420.30277 C 142.82445,419.87077 144.05045,419.76377 144.65645,419.97877 C 145.74745,420.30277 146.36745,420.57177 146.48845,420.78677 C 147.82245,422.51177 148.92745,424.07477 149.77545,425.47477 C 150.03145,425.90677 150.51645,426.28377 151.24345,426.60677 C 153.31845,426.28377 155.00245,426.44477 156.28245,427.09177 C 157.56245,427.73877 158.31645,428.49277 158.57245,429.35477 L 158.74745,431.13277 C 158.86845,432.31877 159.29945,434.25877 160.02745,436.95177 C 160.64745,438.35277 161.01045,439.26877 161.13145,439.70077 C 161.73845,441.42477 162.41145,444.11877 163.13945,447.78377 L 163.32745,451.33977 C 163.32745,454.57277 163.26045,456.29677 163.13945,456.51277 L 163.32745,456.51277 C 163.08445,457.28077 163.32745,457.72477 164.05545,457.83277 C 164.91645,458.04777 165.40245,457.77877 165.52345,457.02477 C 165.64445,456.70077 165.69845,454.81577 165.69845,451.36677 z M 113.17445,356.44777 C 112.44745,355.15577 110.85645,354.18477 108.41945,353.53877 C 103.04345,351.70677 96.578449,349.87477 89.007449,348.04277 C 89.383449,347.71877 89.774449,347.36877 90.206449,346.99177 C 90.636449,346.61477 91.943449,346.58777 94.139449,346.91077 C 102.07445,349.82077 106.51945,351.35577 107.50345,351.51877 C 108.47245,351.67977 110.00845,351.92277 112.07045,352.24477 C 112.32645,352.35277 113.53845,353.21577 115.73445,354.83177 L 118.11845,356.77177 C 121.40445,359.25077 123.85645,360.75977 125.43245,361.29877 C 125.41945,361.40677 125.41945,361.51277 125.43245,361.62077 C 125.43245,362.48377 125.25845,363.07577 124.89445,363.39977 C 124.03145,364.04677 123.23645,364.53077 122.51045,364.85477 C 122.26745,364.85477 122.07845,364.96277 121.95845,365.17677 C 119.39845,362.80677 116.47445,359.89677 113.17445,356.44777 z M 95.971449,385.06077 C 94.018449,385.81577 92.980449,387.64777 92.859449,390.55677 C 92.118449,390.34277 91.216449,390.17977 90.111449,390.07277 C 87.794449,388.56377 86.392449,387.47277 85.908449,386.82677 C 85.882449,386.50277 85.882449,385.99077 85.882449,385.29077 C 85.882449,384.58877 85.882449,383.56677 85.882449,382.20477 C 85.882449,380.85877 85.882449,379.86077 85.882449,379.21477 C 85.882449,377.79977 85.882449,376.93877 85.908449,376.61477 C 86.878449,375.96777 87.430449,375.10677 87.551449,374.02777 C 87.915449,373.70477 88.427449,373.38077 89.100449,373.05877 C 89.774449,372.72077 90.839449,372.18277 92.307449,371.42777 C 92.550449,371.21277 92.792449,370.78077 93.034449,370.13577 C 94.624449,371.10477 95.971449,371.77877 97.062449,372.15577 C 98.167449,372.54677 99.568449,373.00477 101.27945,373.54377 L 102.37045,374.02777 C 102.74745,375.32077 103.11145,376.39977 103.47545,377.27477 C 104.44445,379.10677 106.95045,381.10077 110.97845,383.26877 C 111.22045,383.37677 111.41045,383.43177 111.53045,383.43177 C 110.54745,383.75477 109.75245,384.02377 109.14645,384.23977 C 108.17645,384.67077 106.82845,385.70777 105.11845,387.32377 C 104.87545,386.89277 104.56645,386.51577 104.20245,386.19277 C 101.64345,384.25277 98.894449,383.87577 95.971449,385.06077 z M 106.76245,390.55677 C 106.64045,390.44877 106.46645,390.07277 106.22345,389.42677 C 108.04245,387.70077 109.36245,386.65077 110.15645,386.27277 C 110.95145,385.89677 112.44745,385.43877 114.64245,384.89977 L 115.37045,384.73877 C 117.32345,384.19877 118.53545,384.09177 119.03445,384.41477 C 119.64045,384.73877 120.74445,385.43877 122.32045,386.51577 C 122.56345,386.83977 122.68445,387.10877 122.68445,387.32377 C 122.68445,387.32377 122.63145,387.37877 122.51045,387.48677 C 120.07145,389.74877 118.54845,390.98877 117.93045,391.20377 L 117.93045,391.04277 C 116.95945,391.25877 116.28645,391.79677 115.92245,392.65877 C 115.80045,392.87477 115.61245,393.06377 115.37045,393.22477 C 115.12745,393.38677 114.15845,394.70677 112.44745,397.18477 C 112.43245,397.18477 112.43245,397.13177 112.44745,397.02377 L 111.34245,395.56877 C 110.00845,393.62877 108.47245,391.95877 106.76245,390.55677 z"
       inkscape:connector-curvature="0"
       style="fill:#000000;stroke:#000000;stroke-width:2.66667008" />
  </g>
</svg>
