<?xml version="1.0" encoding="UTF-8" standalone="no"?>
<!-- Created with Inkscape (http://www.inkscape.org/) -->

<svg
   xmlns:dc="http://purl.org/dc/elements/1.1/"
   xmlns:cc="http://creativecommons.org/ns#"
   xmlns:rdf="http://www.w3.org/1999/02/22-rdf-syntax-ns#"
   xmlns:svg="http://www.w3.org/2000/svg"
   xmlns="http://www.w3.org/2000/svg"
   xmlns:sodipodi="http://sodipodi.sourceforge.net/DTD/sodipodi-0.dtd"
   xmlns:inkscape="http://www.inkscape.org/namespaces/inkscape"
   width="240"
   height="160"
   id="svg3249"
   version="1.1"
   inkscape:version="0.48.0 r9654"
   sodipodi:docname="BSL letter R.svg">
  <defs
     id="defs3251" />
  <sodipodi:namedview
     id="base"
     pagecolor="#ffffff"
     bordercolor="#666666"
     borderopacity="1.0"
     inkscape:pageopacity="0.0"
     inkscape:pageshadow="2"
     inkscape:zoom="0.77472527"
     inkscape:cx="105.7305"
     inkscape:cy="240"
     inkscape:current-layer="layer1"
     inkscape:document-units="px"
     showgrid="false"
     inkscape:window-width="1024"
     inkscape:window-height="745"
     inkscape:window-x="-8"
     inkscape:window-y="-8"
     inkscape:window-maximized="1" />
  <metadata
     id="metadata3254">
    <rdf:RDF>
      <cc:Work
         rdf:about="">
        <dc:format>image/svg+xml</dc:format>
        <dc:type
           rdf:resource="http://purl.org/dc/dcmitype/StillImage" />
        <dc:title></dc:title>
      </cc:Work>
    </rdf:RDF>
  </metadata>
  <g
     id="layer1"
     inkscape:label="Layer 1"
     inkscape:groupmode="layer"
     transform="translate(0,-320)">
    <text
       xml:space="preserve"
       style="font-size:40px;font-style:normal;font-weight:normal;line-height:125%;letter-spacing:0px;word-spacing:0px;fill:#000000;fill-opacity:1;stroke:none;font-family:Sans"
       x="172.96454"
       y="23.177303"
       id="text3264"
       sodipodi:linespacing="125%"
       transform="translate(0,320)"><tspan
         sodipodi:role="line"
         id="tspan3266"
         x="172.96454"
         y="23.177303" /></text>
    <text
       xml:space="preserve"
       style="font-size:64px;font-style:normal;font-weight:bold;line-height:125%;letter-spacing:0px;word-spacing:0px;fill:#000000;fill-opacity:1;stroke:none;font-family:Sans;-inkscape-font-specification:Sans Bold"
       x="179.41844"
       y="55.446808"
       id="text3268"
       sodipodi:linespacing="125%"
       transform="translate(0,320)"><tspan
         sodipodi:role="line"
         id="tspan3270"
         x="179.41844"
         y="55.446808" /></text>
    <flowRoot
       xml:space="preserve"
       id="flowRoot3272"
       style="font-size:64px;font-style:normal;font-weight:bold;line-height:125%;letter-spacing:0px;word-spacing:0px;fill:#404040;fill-opacity:1;stroke:none;font-family:Sans;-inkscape-font-specification:Sans Bold"
       transform="translate(16.780142,313.5461)"><flowRegion
         id="flowRegion3274"><rect
           id="rect3276"
           width="73.574471"
           height="67.120567"
           x="160.05673"
           y="15.432623"
           style="fill:#404040;fill-opacity:1" /></flowRegion><flowPara
         id="flowPara3278">S</flowPara></flowRoot>    <path
       id="dp_path083"
       d="M 167.4346,436.36109 C 167.1936,437.00809 166.6946,437.22409 165.9666,437.00809 C 162.7886,435.93109 160.7806,434.26009 159.9326,431.99709 C 159.5546,430.81109 158.5846,429.03309 156.9946,426.66309 L 156.9946,426.66309 C 156.2686,425.47609 154.9206,423.99509 152.9666,422.21609 C 151.0136,420.43909 149.7746,419.17209 149.2226,418.41709 C 148.6696,417.66309 144.3056,413.62109 136.1286,406.29309 L 131.0096,401.44409 C 130.0256,400.47509 128.32859,399.50409 125.88959,398.53509 C 124.78559,398.10309 123.31759,396.48709 121.48559,393.68409 L 120.94659,392.71509 C 120.44859,392.06809 119.02059,390.69309 116.63459,388.59209 C 114.26459,386.49109 112.70159,385.27909 111.97459,384.95509 C 110.38459,383.98509 109.29359,383.55509 108.67359,383.66109 C 106.47759,383.98509 104.74059,384.33609 103.46059,384.71309 C 102.18059,385.08909 101.04959,386.03309 100.07859,387.54109 C 100.07859,387.54109 100.13359,387.70309 100.25459,388.02709 L 100.25459,388.34909 C 100.37659,388.78109 100.92859,389.96709 101.91059,391.90709 L 105.93859,391.74409 C 106.18159,391.74409 106.54559,391.63709 107.03059,391.42109 C 107.39359,391.31309 107.70459,391.31309 107.94659,391.42109 C 109.29359,391.63709 110.08859,392.49909 110.33059,394.00809 C 110.81659,396.37909 111.90659,398.26509 113.61759,399.66509 L 115.63859,401.44409 C 115.76059,401.55209 115.88159,401.71309 116.00259,401.92909 L 116.36559,403.22309 L 116.36559,403.22309 C 118.19759,403.22309 120.56959,404.08409 123.50559,405.80809 C 124.11259,406.13209 125.94459,406.40109 128.98859,406.61709 C 129.72959,406.72409 130.0936,407.10109 130.0936,407.74809 C 129.9726,408.39509 129.54059,408.66409 128.81359,408.55709 C 125.27059,408.34109 123.07459,407.96409 122.22559,407.42509 C 119.78859,406.02409 117.83459,405.32409 116.36559,405.32409 C 115.88159,405.32409 115.18059,405.37709 114.26459,405.48509 C 113.34859,405.59309 112.67459,405.67309 112.24459,405.72809 C 111.82559,405.78109 111.05859,406.45509 109.96659,407.74809 C 109.58959,409.04109 109.41459,410.06509 109.41459,410.82009 C 109.41459,411.03609 109.46859,411.19709 109.58959,411.30509 C 110.08859,412.59909 111.42159,413.51509 113.61759,414.05309 C 114.22459,414.16109 114.53359,414.48409 114.53359,415.02309 C 114.53359,415.88509 114.04959,416.20809 113.06559,415.99309 C 111.97459,415.66909 110.62659,414.96909 109.03759,413.89209 C 108.91659,413.89209 108.86259,413.83709 108.86259,413.72909 C 108.13459,413.29909 107.27359,413.13709 106.30259,413.24509 C 104.10659,413.56809 102.94859,414.26809 102.82659,415.34709 C 102.82659,415.66909 102.69259,416.20809 102.45059,416.96309 C 102.20859,418.47209 102.15359,419.38809 102.27459,419.71109 C 103.00259,421.54309 104.28259,422.78309 106.11459,423.42909 C 106.84159,423.64409 107.09759,424.07609 106.84159,424.72309 C 106.59859,425.36909 106.11459,425.53109 105.38659,425.20709 C 103.55459,424.66809 101.96559,423.32109 100.63259,421.16509 C 99.769589,421.27309 98.610589,421.81209 97.142589,422.78309 C 95.688589,423.75209 95.013589,424.56009 95.134589,425.20709 C 95.134589,426.28509 95.162589,427.41609 95.229589,428.60109 C 95.282589,429.78809 95.809589,430.81109 96.778589,431.67309 C 97.762589,433.28909 99.405589,435.49909 101.72259,438.30109 C 103.06959,439.59509 105.32059,441.48009 108.49859,443.95909 C 108.49859,444.06709 108.55259,444.17509 108.67359,444.28309 C 109.29359,445.14409 110.81659,447.35309 113.25359,450.91109 C 113.61759,451.44909 113.44259,451.93509 112.70159,452.36509 C 112.09659,452.68809 111.61059,452.52709 111.24659,451.88009 C 109.53659,449.40109 108.06859,447.24709 106.84159,445.41509 C 105.14459,444.01309 103.60859,442.72009 102.27459,441.53509 C 102.39659,443.79709 102.45059,445.19909 102.45059,445.73709 L 102.27459,447.04409 C 102.26159,447.90709 102.24859,448.33709 102.24859,448.33709 C 102.24859,448.76809 102.26159,449.03709 102.27459,449.14509 C 102.88159,449.25309 103.82459,450.08809 105.10459,451.65109 C 106.38459,453.21309 107.87859,454.26409 109.58959,454.80409 C 112.76959,455.88109 115.51759,457.29609 117.83459,459.02009 C 118.07659,459.23609 118.19759,459.50509 118.19759,459.82809 C 118.19759,460.25909 118.00959,460.58309 117.64559,460.79909 C 117.16059,460.90509 116.72959,460.85209 116.36559,460.63609 C 115.39659,459.88309 112.89059,458.58909 108.86259,456.75709 C 106.54559,456.00309 104.47059,454.49309 102.63859,452.23109 C 102.39659,451.90709 102.08659,451.52909 101.72259,451.09909 C 100.37659,450.77609 99.836589,449.32009 100.07859,446.72109 L 100.07859,445.75109 C 100.20059,444.99609 100.07859,442.89509 99.716589,439.44709 C 98.853589,437.93709 97.330589,435.83609 95.134589,433.14109 C 93.666589,431.84809 92.940589,430.12409 92.940589,427.96909 L 92.912589,426.51309 C 92.912589,426.29909 92.912589,426.02909 92.912589,425.70509 C 92.912589,425.38309 92.925589,425.11309 92.940589,424.89709 C 92.940589,424.03509 93.370589,423.25309 94.218589,422.55309 C 95.068589,421.85309 95.862589,421.20709 96.604589,420.61309 C 97.330589,420.02109 98.489589,419.56309 100.07859,419.24009 C 100.07859,418.70009 100.13359,417.89209 100.25459,416.81509 C 100.37659,416.04709 100.44259,415.56109 100.44259,415.34709 C 100.44259,414.26809 101.23759,413.29909 102.82659,412.43609 C 104.40459,411.57509 105.87259,411.19709 107.21859,411.30509 C 106.97659,408.93309 107.21859,407.37109 107.94659,406.61709 C 109.65759,404.56909 111.05859,403.54509 112.14959,403.54509 C 112.40559,403.54509 112.82259,403.54509 113.44259,403.54509 L 113.98159,403.38409 L 113.80659,402.57609 L 111.97459,401.12009 C 110.99059,400.25909 110.14259,399.12709 109.41459,397.72509 C 106.72059,400.20409 104.95659,401.60509 104.10659,401.92909 C 101.91059,402.89909 100.56459,403.76109 100.07859,404.51609 C 99.957589,404.51609 99.890589,404.56909 99.890589,404.67709 C 99.526589,405.21609 98.798589,406.45509 97.694589,408.39509 L 97.694589,408.55709 C 95.377589,413.51509 93.357589,416.53209 91.660592,417.60909 C 87.133592,420.62709 81.704592,424.93709 75.360592,430.54109 C 74.268592,431.18809 73.109592,432.10409 71.884592,433.28909 C 71.641592,433.61309 70.968592,434.63709 69.876592,436.36109 C 67.922592,439.59509 66.818592,441.53509 66.576592,442.18109 C 64.744592,446.38409 63.221592,448.97109 62.009592,449.94009 C 61.389592,450.47909 60.850592,450.47909 60.352592,449.94009 C 60.109592,449.61709 60.662592,448.26909 62.009592,445.89909 C 62.737592,444.49709 63.532592,443.04309 64.380592,441.53509 C 64.744592,440.78009 65.902592,438.73209 67.856592,435.39209 C 68.476592,434.42109 69.081592,433.47909 69.688592,432.56309 C 70.308592,431.64709 71.224592,430.81109 72.436592,430.05709 C 72.800592,429.84109 73.230592,429.51709 73.716592,429.08709 C 80.182592,423.37509 85.732592,419.01109 90.380592,415.99309 C 91.592592,415.13109 93.302589,412.38309 95.498589,407.74809 L 95.688589,407.58709 C 96.293589,406.29309 97.088589,404.94709 98.058589,403.54509 L 98.058589,403.54509 C 98.544589,402.68309 100.20059,401.55209 103.00259,400.15109 C 103.86459,399.82809 105.68259,398.31909 108.49859,395.62409 C 108.37759,395.19309 108.25659,394.86909 108.13459,394.65509 C 108.01359,394.43909 107.82559,394.11609 107.58259,393.68409 L 107.39359,393.52309 C 107.03059,393.63109 106.54559,393.68409 105.93859,393.68409 L 102.08659,393.84709 C 101.84459,393.84709 101.66959,393.84709 101.54859,393.84709 L 98.058589,395.30109 C 97.573589,395.51609 96.172589,394.60009 93.856589,392.55309 C 92.750589,391.69109 92.212592,390.72109 92.212592,389.64309 C 92.212592,389.64309 92.386589,389.15909 92.750589,388.18809 C 93.613589,386.57209 95.256589,382.36909 97.694589,375.57909 L 98.058589,374.60909 C 98.678589,372.99309 99.338589,371.80709 100.07859,371.05309 C 101.29259,370.08309 102.69259,368.68109 104.28259,366.84909 L 109.22659,361.51509 L 111.97459,358.44409 L 112.52659,357.79709 C 113.86059,356.50409 114.53359,355.53509 114.53359,354.88809 C 114.53359,353.80909 114.29059,352.94809 113.80659,352.30109 C 113.18659,352.19309 112.27059,352.03209 111.05859,351.81609 L 110.86959,352.13909 C 109.41459,353.97209 107.51459,356.07309 105.19859,358.44409 L 104.28259,359.09109 C 103.79759,359.30509 103.19059,359.79109 102.45059,360.54509 C 101.48059,362.37709 100.20059,363.72409 98.610589,364.58709 C 96.536589,365.55609 95.068589,366.95709 94.218589,368.78909 C 93.976589,369.32809 93.545589,369.86809 92.940589,370.40709 C 92.576589,371.37609 92.386589,372.18409 92.386589,372.83109 C 92.386589,373.47709 90.744592,377.35709 87.442592,384.47109 L 87.080592,385.11709 L 87.080592,385.27909 C 87.321592,385.27909 87.605592,385.27909 87.901592,385.27909 C 88.210592,385.27909 88.480592,385.49509 88.722592,385.92509 C 88.952592,386.24809 88.952592,386.62509 88.722592,387.05709 C 88.358592,387.59609 87.080592,387.46109 84.884592,386.65209 C 82.688592,385.84409 81.286592,384.74009 80.666592,383.33909 C 80.424592,382.80009 80.613592,382.42309 81.220592,382.20709 C 81.960592,381.88409 82.540592,382.01909 82.957592,382.61109 C 83.388592,383.20409 84.089592,383.82409 85.072592,384.47109 L 85.072592,384.30809 L 85.246592,383.66109 C 86.837592,380.32109 88.426592,376.65709 90.002592,372.66909 C 90.124592,371.70009 90.433592,370.62109 90.918592,369.43609 C 91.282592,369.22109 91.592592,368.81609 91.834592,368.22409 C 92.077592,367.63109 92.872589,366.68809 94.218589,365.39509 C 95.553589,364.10109 96.657589,363.24009 97.506589,362.80809 C 98.853589,362.16109 99.836589,361.13909 100.44259,359.73709 C 100.56459,359.30509 100.87359,358.95609 101.35859,358.68709 C 101.84459,358.41709 102.27459,358.12009 102.63859,357.79709 L 103.36659,356.98909 C 104.34959,356.12709 106.23659,354.13309 109.03759,351.00809 C 109.77859,350.14509 110.14259,349.44509 110.14259,348.90709 C 110.14259,348.47509 109.80559,348.01709 109.13259,347.53209 C 108.45859,347.04709 108.06859,346.58909 107.94659,346.15909 C 107.21859,345.72709 106.11459,345.56509 104.64559,345.67309 C 103.79759,345.78109 102.82659,346.48109 101.72259,347.77509 C 99.526589,350.36109 97.357589,352.46309 95.229589,354.07909 C 93.088589,355.69609 90.622592,357.68909 87.806592,360.06009 C 87.685592,360.16809 87.349592,360.57209 86.809592,361.27309 C 86.257592,361.97309 85.584592,362.97109 84.789592,364.26409 C 83.994592,365.55609 82.809592,367.33509 81.220592,369.59709 C 80.856592,370.13709 79.940592,371.96909 78.470592,375.09509 C 77.258592,377.57309 76.464592,378.86709 76.100592,378.97309 L 75.912592,379.13609 C 75.790592,379.24409 75.736592,379.35109 75.736592,379.45909 C 74.510592,380.32109 71.762592,379.35109 67.492592,376.54909 C 66.885592,376.11909 66.765592,375.63309 67.128592,375.09509 C 67.613592,374.55609 68.165592,374.50109 68.772592,374.93209 C 71.588592,376.87209 73.473592,377.84309 74.457592,377.84309 C 75.669592,371.91509 76.397592,368.08909 76.652592,366.36509 C 76.773592,365.82709 76.828592,365.44909 76.828592,365.23309 L 76.652592,364.58709 C 76.652592,364.15609 76.894592,363.34709 77.380592,362.16109 C 77.622592,361.51509 78.174592,360.70709 79.024592,359.73709 L 80.856592,355.69609 C 81.220592,354.94109 82.377592,353.59509 84.330592,351.65509 L 86.352592,349.55309 C 87.442592,347.82809 88.358592,346.53509 89.086592,345.67309 C 89.342592,345.45709 89.464592,345.13509 89.464592,344.70309 C 89.464592,342.97909 88.669592,341.84709 87.080592,341.30809 C 85.853592,340.87709 84.762592,340.93109 83.778592,341.47109 C 81.960592,342.76309 80.613592,344.00309 79.750592,345.18809 L 79.386592,345.67309 L 78.848592,346.48109 C 78.605592,346.58909 77.932592,347.34409 76.828592,348.74409 L 76.100592,349.71509 C 74.632592,351.22309 72.745592,353.64809 70.429592,356.98909 C 69.809592,358.06709 69.014592,359.84509 68.044592,362.32409 C 67.560592,364.15609 66.953592,366.95709 66.212592,370.72909 C 65.969592,373.20809 65.417592,374.60909 64.569592,374.93209 C 63.720592,375.25609 62.494592,376.06409 60.905592,377.35709 C 60.177592,378.65109 57.914592,381.99209 54.129592,387.38009 C 53.765592,387.81109 53.348592,387.97309 52.849592,387.86509 C 52.364592,387.75709 52.054592,387.48809 51.933592,387.05709 C 51.205592,380.05209 50.410592,375.68709 49.561592,373.96309 C 47.972592,371.16009 46.746592,369.76009 45.897592,369.76009 C 44.928592,369.76009 43.634592,369.97509 42.058592,370.40709 C 41.937592,370.51509 41.749592,370.51509 41.506592,370.40709 L 42.974592,376.38809 C 42.948592,376.38809 42.948592,376.44109 42.974592,376.54909 C 42.974592,376.65709 42.906592,376.81909 42.785592,377.03509 L 42.058592,378.16509 C 42.045592,379.02809 42.045592,379.78309 42.058592,380.42909 C 42.058592,380.86009 42.140592,381.45209 42.328592,382.20709 C 42.516592,382.96109 42.597592,383.55509 42.597592,383.98509 C 42.597592,384.84809 42.422592,385.54809 42.058592,386.08709 C 40.105592,388.56509 39.121592,391.04409 39.121592,393.52309 C 39.121592,394.27709 39.525592,396.24409 40.321592,399.42309 C 41.102592,402.60309 41.694592,404.51609 42.058592,405.16109 C 42.422592,405.80809 42.597592,407.18309 42.597592,409.28409 C 42.597592,411.38509 42.692592,412.62509 42.880592,413.00309 C 43.056592,413.38009 43.270592,414.37609 43.513592,415.99309 C 43.513592,416.74709 43.634592,417.60909 43.890592,418.57909 C 44.376592,418.79509 44.618592,419.11909 44.618592,419.54909 C 44.618592,420.30409 41.869592,423.69909 36.373592,429.73309 C 33.814592,432.64309 32.238592,433.88309 31.618592,433.45209 C 31.376592,433.34409 31.254592,433.07509 31.254592,432.64309 C 31.254592,432.42809 32.358592,431.08009 34.554592,428.60109 C 38.946592,423.75209 41.438592,420.78809 42.058592,419.71109 C 41.694592,419.17209 41.385592,417.98709 41.142592,416.15509 C 41.142592,415.72409 40.953592,414.64509 40.590592,412.92109 C 40.348592,411.52009 40.226592,410.38909 40.226592,409.52709 C 40.226592,407.47909 40.158592,406.34809 40.037592,406.13209 C 39.553592,405.37709 38.920592,403.32909 38.125592,399.98909 C 37.330592,396.64809 36.925592,394.49309 36.925592,393.52309 C 36.925592,390.72109 37.962592,387.86509 40.037592,384.95509 C 40.280592,384.74009 40.401592,384.41609 40.401592,383.98509 C 40.401592,383.66109 40.280592,383.09609 40.037592,382.28809 C 39.796592,381.48009 39.674592,380.80709 39.674592,380.26709 C 39.674592,378.65109 39.796592,377.68109 40.037592,377.35709 L 40.590592,376.38809 L 39.121592,370.08309 C 39.108592,369.97509 39.108592,369.86809 39.121592,369.76009 C 39.121592,369.22109 39.432592,368.89709 40.037592,368.78909 C 40.280592,368.78909 40.522592,368.84409 40.778592,368.95209 C 40.900592,368.73609 41.142592,368.62809 41.506592,368.62809 C 43.217592,368.08909 44.672592,367.82009 45.897592,367.82009 C 47.609592,367.82009 49.494592,369.54409 51.569592,372.99309 C 52.432592,374.50109 53.213592,378.11209 53.953592,383.82409 C 56.756592,379.83609 58.398592,377.35709 58.897592,376.38809 C 59.261592,375.84809 60.784592,374.82509 63.464592,373.31609 C 63.585592,373.10009 63.801592,372.11709 64.110592,370.33909 C 64.406592,368.56109 65.000592,365.73209 65.849592,361.85209 C 65.969592,361.63609 66.765592,359.80409 68.233592,356.35609 C 68.960592,354.63209 69.876592,353.31109 70.968592,352.39509 C 72.072592,351.47909 73.164592,350.21309 74.268592,348.60909 L 74.996592,347.80109 C 75.373592,347.15509 76.100592,346.23909 77.192592,345.05309 L 77.569592,344.56809 L 77.932592,344.08409 C 78.417592,343.43709 79.885592,342.08909 82.324592,340.04309 C 84.156592,338.96409 86.042592,338.80309 87.996592,339.55709 C 90.433592,340.41909 91.660592,342.14409 91.660592,344.71609 C 91.660592,345.57909 91.417592,346.27909 90.918592,346.81909 C 90.312592,347.66709 89.396592,348.96009 88.184592,350.68409 L 88.184592,350.68409 L 85.988592,352.94809 C 84.398592,354.45609 83.414592,355.64109 83.052592,356.50409 L 82.324592,357.79709 C 82.081592,358.66009 81.461592,359.79109 80.492592,361.19209 C 79.386592,361.94709 78.902592,363.07709 79.024592,364.58709 L 79.024592,365.23309 C 79.024592,365.55609 78.969592,366.04109 78.848592,366.68809 C 78.726592,367.33509 78.470592,368.62809 78.108592,370.56809 C 78.726592,369.49109 79.212592,368.73609 79.576592,368.30509 C 80.302592,367.44309 81.340592,365.88009 82.688592,363.61709 L 82.688592,363.45509 C 83.052592,362.70109 83.725592,361.62309 84.694592,360.22109 C 85.193592,359.68309 85.678592,359.14409 86.162592,358.60509 L 86.162592,358.60509 C 88.480592,356.66509 90.918592,354.67209 93.492589,352.62409 C 95.688589,351.00809 97.816589,348.96009 99.890589,346.48109 C 100.63259,345.61909 102.08659,344.70309 104.28259,343.73309 C 107.82559,343.40909 109.77859,344.05609 110.14259,345.67309 L 110.33059,345.83509 C 111.66459,346.91209 112.33759,347.93609 112.33759,348.90709 C 112.33759,349.22909 112.28459,349.55309 112.14959,349.87609 C 113.86059,349.98409 115.01859,350.36109 115.63859,351.00809 C 116.48659,351.97709 116.91859,353.27109 116.91859,354.88809 C 116.91859,355.96509 116.00259,357.36709 114.16959,359.09109 L 113.61759,359.73709 C 111.90659,361.56909 111.05859,362.59309 111.05859,362.80809 L 106.11459,368.14309 C 104.40459,369.97509 102.94859,371.43109 101.72259,372.50809 C 101.23759,372.93909 100.75259,373.80109 100.25459,375.09509 L 99.890589,376.22509 C 97.088589,383.98509 95.256589,388.51209 94.408589,389.80509 C 94.650589,390.45209 95.809589,391.58309 97.882589,393.20009 L 99.716589,392.39109 C 98.732589,390.55909 98.180589,389.37309 98.058589,388.83509 L 97.882589,388.34909 C 97.856589,387.91909 97.856589,387.64909 97.882589,387.54109 C 97.882589,387.11109 98.004589,386.73309 98.246589,386.41109 C 99.580589,384.47109 101.02259,383.28509 102.54459,382.85309 C 104.06659,382.42309 105.99359,382.04509 108.30959,381.72309 C 109.90059,381.50709 111.73259,382.09909 113.80659,383.50009 C 115.51759,382.74509 116.55459,382.09909 116.91859,381.56009 C 117.76659,380.37509 119.47759,379.08109 122.03759,377.68109 C 124.35459,376.38809 126.42959,376.71109 128.26159,378.65109 C 130.3366,380.91309 130.4026,382.74509 128.44959,384.14709 C 127.82959,385.00909 126.61759,386.30309 124.78559,388.02709 L 121.67359,390.28909 C 122.28059,390.93609 122.65759,391.42109 122.77859,391.74409 L 123.50559,392.71509 C 124.23359,393.90009 125.33759,395.24709 126.80559,396.75609 C 129.60859,397.72509 131.6146,398.85709 132.8416,400.15109 C 133.0846,400.36709 134.7266,401.92909 137.7856,404.83909 C 145.9626,412.38309 150.3536,416.53209 150.9606,417.28709 C 151.3246,417.60909 152.2136,418.44409 153.6136,419.79209 C 155.0146,421.13909 156.8206,423.10509 159.0166,425.69209 C 159.8646,426.98509 160.9016,428.87209 162.1286,431.35109 C 162.7336,432.96709 164.2566,434.20509 166.6946,435.06809 C 167.4346,435.39209 167.6776,435.82309 167.4346,436.36109 z M 126.98159,382.69209 C 127.70859,382.04509 127.53359,381.12909 126.42959,379.94409 C 125.82259,379.29709 124.90659,379.08109 123.68059,379.29709 C 122.83259,379.40509 121.24259,380.48309 118.92559,382.53109 C 118.31859,383.28509 117.21459,384.09309 115.63859,384.95509 C 117.21459,386.24809 118.75059,387.54109 120.20559,388.83509 C 120.44859,388.62009 120.82559,388.34909 121.30959,388.02709 L 123.50559,386.41109 C 124.11259,385.54809 125.27059,384.30809 126.98159,382.69209 z"
       inkscape:connector-curvature="0"
       style="fill:#000000;stroke:#000000;stroke-width:2.66667008" />
  </g>
</svg>
