<?xml version="1.0" encoding="UTF-8" standalone="no"?>
<!-- Created with Inkscape (http://www.inkscape.org/) -->

<svg
   xmlns:dc="http://purl.org/dc/elements/1.1/"
   xmlns:cc="http://creativecommons.org/ns#"
   xmlns:rdf="http://www.w3.org/1999/02/22-rdf-syntax-ns#"
   xmlns:svg="http://www.w3.org/2000/svg"
   xmlns="http://www.w3.org/2000/svg"
   xmlns:sodipodi="http://sodipodi.sourceforge.net/DTD/sodipodi-0.dtd"
   xmlns:inkscape="http://www.inkscape.org/namespaces/inkscape"
   width="240"
   height="160"
   id="svg3249"
   version="1.1"
   inkscape:version="0.48.0 r9654"
   sodipodi:docname="BSL letter T.svg">
  <defs
     id="defs3251" />
  <sodipodi:namedview
     id="base"
     pagecolor="#ffffff"
     bordercolor="#666666"
     borderopacity="1.0"
     inkscape:pageopacity="0.0"
     inkscape:pageshadow="2"
     inkscape:zoom="0.77472527"
     inkscape:cx="105.7305"
     inkscape:cy="240"
     inkscape:current-layer="layer1"
     inkscape:document-units="px"
     showgrid="false"
     inkscape:window-width="1024"
     inkscape:window-height="745"
     inkscape:window-x="-8"
     inkscape:window-y="-8"
     inkscape:window-maximized="1" />
  <metadata
     id="metadata3254">
    <rdf:RDF>
      <cc:Work
         rdf:about="">
        <dc:format>image/svg+xml</dc:format>
        <dc:type
           rdf:resource="http://purl.org/dc/dcmitype/StillImage" />
        <dc:title></dc:title>
      </cc:Work>
    </rdf:RDF>
  </metadata>
  <g
     id="layer1"
     inkscape:label="Layer 1"
     inkscape:groupmode="layer"
     transform="translate(0,-320)">
    <text
       xml:space="preserve"
       style="font-size:40px;font-style:normal;font-weight:normal;line-height:125%;letter-spacing:0px;word-spacing:0px;fill:#000000;fill-opacity:1;stroke:none;font-family:Sans"
       x="172.96454"
       y="23.177303"
       id="text3264"
       sodipodi:linespacing="125%"
       transform="translate(0,320)"><tspan
         sodipodi:role="line"
         id="tspan3266"
         x="172.96454"
         y="23.177303" /></text>
    <text
       xml:space="preserve"
       style="font-size:64px;font-style:normal;font-weight:bold;line-height:125%;letter-spacing:0px;word-spacing:0px;fill:#000000;fill-opacity:1;stroke:none;font-family:Sans;-inkscape-font-specification:Sans Bold"
       x="179.41844"
       y="55.446808"
       id="text3268"
       sodipodi:linespacing="125%"
       transform="translate(0,320)"><tspan
         sodipodi:role="line"
         id="tspan3270"
         x="179.41844"
         y="55.446808" /></text>
    <flowRoot
       xml:space="preserve"
       id="flowRoot3272"
       style="font-size:64px;font-style:normal;font-weight:bold;line-height:125%;letter-spacing:0px;word-spacing:0px;fill:#404040;fill-opacity:1;stroke:none;font-family:Sans;-inkscape-font-specification:Sans Bold"
       transform="translate(16.780142,313.5461)"><flowRegion
         id="flowRegion3274"><rect
           id="rect3276"
           width="73.574471"
           height="67.120567"
           x="160.05673"
           y="15.432623"
           style="fill:#404040;fill-opacity:1" /></flowRegion><flowPara
         id="flowPara3278">U</flowPara></flowRoot>    <path
       id="dp_path085"
       d="M 209.70161,433.56894 C 210.18661,434.32294 209.99761,434.86195 209.14961,435.18595 C 208.40861,435.50894 207.86961,435.34694 207.50561,434.70095 C 206.03761,432.32994 204.20561,429.47394 202.00961,426.13295 C 200.66261,425.48594 199.69261,425.21694 199.08661,425.32494 C 197.49661,425.75494 196.29761,425.32494 195.51661,424.03094 C 194.72161,422.73794 194.10161,422.06494 193.68461,422.01095 C 193.25361,421.95694 191.56961,421.82194 188.64561,421.60594 L 187.72961,421.60594 C 187.60961,421.92994 187.42061,422.14594 187.17761,422.25294 C 186.57261,422.68494 185.77661,422.30694 184.80661,421.12194 C 184.56461,421.01394 184.37661,420.85294 184.25461,420.63694 C 183.40561,419.77394 182.66561,419.18194 182.05861,418.85794 C 181.08861,418.42695 180.20061,418.18494 179.40561,418.13094 C 178.60961,418.07694 177.30261,418.04994 175.47061,418.04994 C 174.73061,418.26595 173.51761,418.69694 171.80661,419.34295 C 171.80661,419.45095 172.23861,419.77394 173.08661,420.31395 C 173.94961,420.85294 174.36661,421.33694 174.36661,421.76894 C 174.36661,422.73794 173.81461,423.06194 172.72261,422.73794 C 171.61861,422.52194 170.09661,421.33694 168.14261,419.18194 L 166.86261,417.88894 C 166.37861,417.34995 164.61361,415.84094 161.55661,413.36195 L 159.72261,411.90695 C 158.75361,411.15295 157.47361,409.42894 155.88461,406.73394 L 152.96161,403.50094 C 152.46261,402.96194 150.75261,401.93794 147.82861,400.42994 L 147.10161,400.10594 C 146.23861,399.24494 144.95861,397.89694 143.24861,396.06494 C 142.39861,395.31095 141.24161,394.55694 139.77261,393.80195 L 139.23361,395.09495 C 138.97761,395.52594 138.61361,395.74195 138.12961,395.74195 C 137.28061,395.84995 136.00061,395.90295 134.28961,395.90295 C 133.66961,395.90295 132.63261,395.74195 131.17761,395.41794 C 131.29861,395.63394 131.47461,395.90295 131.71661,396.22694 L 134.10161,398.81294 C 135.44861,399.99895 137.28061,401.88494 139.59761,404.47094 C 140.32561,405.33394 141.30861,406.51894 142.52061,408.02694 C 143.62561,408.99794 144.95861,410.34495 146.54861,412.06894 C 148.62261,415.19394 151.97761,419.98994 156.61261,426.45694 C 158.68561,429.04294 159.66961,430.60594 159.54861,431.14494 C 159.54861,435.13094 160.46461,438.41894 162.29661,441.00494 C 164.35761,444.12995 165.46261,446.44695 165.58261,447.95695 C 165.70461,448.71095 165.34161,449.14195 164.49261,449.24995 C 163.62961,449.35695 163.14561,449.03395 163.02461,448.27895 C 162.90261,447.52495 161.86561,445.47795 159.91261,442.13694 C 157.95861,439.22694 156.97461,435.66994 156.97461,431.46694 L 156.97461,431.30595 L 156.80061,430.98194 C 154.84661,435.50894 153.99761,438.36494 154.24061,439.54994 C 154.60461,441.38194 156.36961,443.86095 159.54861,446.98595 C 160.03361,447.52495 159.97861,448.06495 159.36061,448.60295 C 158.75361,449.14195 158.14661,449.08695 157.52861,448.44095 C 154.11861,444.99295 152.16561,442.18994 151.68161,440.03495 C 151.30461,438.09495 152.40861,434.26994 154.96861,428.55794 L 154.41661,427.91094 C 153.08161,426.18694 151.12861,423.49294 148.55661,419.82894 C 147.22161,417.45794 145.82161,415.30195 144.35261,413.36195 C 141.17361,410.56095 138.85661,408.02694 137.40161,405.76494 C 136.17661,404.47094 134.34461,402.58495 131.90561,400.10594 L 129.70961,397.68194 C 128.36261,396.06494 127.58161,394.74494 127.32561,393.72094 C 127.08261,392.69794 126.96161,391.75395 126.96161,390.89295 C 126.84061,389.59894 127.94461,388.52094 130.26161,387.65894 C 130.50461,387.65894 130.74661,387.65894 130.98961,387.65894 L 134.10161,388.14494 C 134.34461,388.14494 134.53261,388.19794 134.65361,388.30594 L 139.04561,391.05394 L 139.96161,391.37694 L 140.13661,391.37694 C 141.24161,391.80895 142.88461,392.83295 145.08061,394.44894 C 145.94261,395.52594 147.10161,396.76595 148.55661,398.16594 L 149.29661,398.48994 C 152.34161,400.10594 154.24061,401.29094 154.96861,402.04594 L 157.89061,405.27894 C 158.02561,405.38694 158.08061,405.44095 158.08061,405.44095 C 159.54861,407.91894 160.70661,409.53695 161.55661,410.29094 L 163.21261,411.58294 C 164.66661,412.76994 166.49861,414.33294 168.69461,416.27094 L 169.97461,417.56494 C 171.08061,417.13394 172.65661,416.59495 174.73061,415.94894 C 175.83461,415.62594 177.30261,415.67894 179.13461,416.10994 C 180.46961,415.89494 181.86961,416.10994 183.33861,416.75694 C 184.18661,417.29494 185.17061,418.10495 186.26161,419.18194 L 188.83461,419.34295 C 191.63661,419.55894 193.15861,419.66695 193.40161,419.66695 C 194.50561,419.55894 195.59761,420.09794 196.70161,421.28294 C 197.18661,421.92994 197.67261,422.52194 198.17061,423.06194 C 198.17061,423.06194 198.22461,423.06194 198.34561,423.06194 C 199.81361,422.73794 201.57861,423.16894 203.65361,424.35495 C 203.77461,424.46194 203.89661,424.62494 204.01661,424.83894 C 205.12161,426.45694 207.00661,429.36594 209.70161,433.56894 z M 126.23361,390.24594 C 126.23361,391.75395 124.21361,393.64095 120.19861,395.90295 C 118.85261,396.76595 116.70961,398.51694 113.78661,401.15694 C 110.86261,403.79794 108.16961,405.69694 105.73061,406.88194 C 105.36661,406.98994 105.12461,407.09794 105.00261,407.20595 L 105.00261,407.36695 C 105.12461,407.79794 105.17861,408.12194 105.17861,408.33795 C 105.17861,409.30694 104.39761,410.97794 102.80861,413.34894 C 102.08061,414.42594 101.16461,415.71894 100.05861,417.22894 C 99.453606,418.52194 98.348606,420.24594 96.758606,422.40194 C 96.030606,423.15494 95.425606,423.96495 94.940606,424.82595 C 94.805606,424.93394 94.752606,425.04195 94.752606,425.14994 L 90.360606,429.99895 C 86.817606,433.87895 84.566606,436.19494 83.584606,436.94994 C 81.752606,438.67394 78.882606,440.29094 74.989606,441.78594 C 74.248606,442.54094 71.204606,447.22895 65.829606,455.84995 C 64.360606,458.32895 63.578606,459.67695 63.457606,459.89095 C 62.960606,460.53795 62.353606,460.64595 61.625606,460.21495 C 61.262606,459.89095 61.073606,459.56895 61.073606,459.24495 C 61.073606,458.92195 61.128606,458.67895 61.262606,458.51795 C 61.384606,458.35695 62.165606,457.08995 63.633606,454.71895 C 69.493606,445.12695 72.914606,440.12994 73.884606,439.69794 C 77.306606,438.40494 79.920606,436.94994 81.752606,435.33394 C 82.613606,434.57894 84.809606,432.31694 88.338606,428.54494 L 92.556606,423.69394 C 93.161606,422.83294 93.836606,421.86195 94.562606,420.78495 C 95.304606,419.70694 96.394606,418.08995 97.864606,415.93494 C 101.02961,411.83894 102.61861,409.32095 102.61861,408.35094 C 102.61861,408.24294 102.56561,408.04094 102.44461,407.77094 C 102.32261,407.50194 102.25461,407.25894 102.25461,407.04494 C 102.25461,406.18194 102.98261,405.44095 104.45061,404.79394 C 108.35761,403.06994 111.10561,401.12994 112.69461,398.97495 C 114.02961,397.24994 116.17061,395.52594 119.09461,393.80195 C 122.01761,392.07794 123.48561,390.89295 123.48561,390.24594 C 123.48561,389.59894 123.17661,388.89795 122.56961,388.14494 C 122.20561,387.82095 121.89661,387.65894 121.65361,387.65894 L 121.11461,387.65894 C 120.13261,387.55094 118.54161,388.25094 116.34561,389.76095 C 114.87761,390.62294 113.90861,391.21495 113.42261,391.53894 C 112.43861,392.07794 111.13261,392.77795 109.48961,393.64095 C 107.83261,394.50194 106.33761,395.36494 105.00261,396.22694 C 102.92861,397.62694 100.61261,399.40594 98.038606,401.56194 C 97.553606,401.99294 97.014606,402.04594 96.394606,401.72294 C 96.394606,401.72294 96.301606,401.64194 96.125606,401.48094 C 95.937606,401.31894 95.856606,401.07694 95.856606,400.75294 C 95.856606,400.53794 95.937606,400.29494 96.125606,400.02594 C 96.301606,399.75694 97.136606,398.27394 98.590606,395.58095 C 99.817606,393.74895 101.46061,390.94595 103.53461,387.17394 C 104.02061,386.20494 104.57261,385.50294 105.17861,385.07294 C 105.55661,384.96495 106.28261,383.99494 107.37461,382.16294 C 107.99361,381.19294 108.96461,379.89894 110.31061,378.28294 C 111.28161,377.42094 112.31861,375.64295 113.42261,372.94894 C 114.75661,369.82294 116.17061,367.77494 117.62561,366.80594 C 119.09461,365.83494 119.82161,364.16495 119.82161,361.79394 C 119.79461,361.57894 119.79461,361.47094 119.82161,361.47094 C 119.45761,360.93294 118.24561,360.33894 116.17061,359.69294 C 115.18861,361.30994 113.59761,363.73394 111.40161,366.96694 C 110.18961,368.04494 108.78861,369.49895 107.19861,371.33095 C 106.83461,372.19394 105.24561,373.97294 102.44461,376.66594 C 101.09661,378.17494 98.954606,380.43794 96.030606,383.45694 C 95.182606,384.31794 94.266606,385.34194 93.282606,386.52694 L 93.282606,386.52694 C 93.161606,387.28194 92.677606,387.60495 91.828606,387.49794 C 90.966606,387.49794 90.534606,387.17394 90.534606,386.52694 C 90.534606,385.77295 91.761606,384.20995 94.198606,381.83894 C 95.546606,380.33095 97.674606,378.06694 100.61261,375.04994 C 101.82461,373.86494 103.22561,372.35495 104.81461,370.52295 C 105.79761,369.55395 107.25361,367.93694 109.20661,365.67394 C 110.31061,363.73394 112.07661,360.98594 114.51361,357.42994 C 115.01261,356.89095 115.25461,355.97495 115.25461,354.68194 L 115.25461,354.19694 L 113.42261,353.06494 C 111.46961,353.71094 110.28461,354.27795 109.85361,354.76194 C 109.42161,355.24694 108.29061,356.40594 106.45861,358.23794 C 105.60961,358.99294 103.84461,360.44694 101.15061,362.60194 C 100.42261,363.14194 99.506606,364.24594 98.416606,365.91695 C 97.310606,367.58694 96.152606,368.79894 94.940606,369.55395 C 93.714606,370.30895 91.761606,371.97794 89.080606,374.56494 L 87.248606,376.50494 C 86.762606,376.93694 85.846606,378.01394 84.500606,379.73794 C 81.818606,383.29394 79.986606,385.07294 79.017606,385.07294 C 78.397606,385.07294 77.966606,384.88494 77.724606,384.50694 C 77.481606,384.12994 76.996606,384.02194 76.269606,384.18294 C 75.528606,384.34495 75.042606,384.04894 74.801606,383.29394 C 74.680606,382.43294 75.016606,381.94694 75.810606,381.83894 L 75.810606,381.83894 C 75.810606,381.73094 75.878606,381.62294 76.000606,381.51694 C 77.602606,376.88194 78.962606,373.81094 80.081606,372.30195 C 80.822606,370.57794 82.182606,368.20595 84.162606,365.18895 C 85.160606,364.11094 86.144606,362.44095 87.140606,360.17794 C 87.140606,360.06994 87.208606,359.96194 87.329606,359.85394 C 88.190606,358.77694 89.497606,357.10594 91.222606,354.84295 L 92.529606,353.06494 C 93.889606,351.12494 94.562606,349.99395 94.562606,349.66994 C 94.562606,348.48494 93.836606,347.62194 92.366606,347.08295 L 90.724606,347.40694 C 90.481606,347.72995 89.497606,348.86195 87.800606,350.80195 C 85.604606,353.17294 82.734606,355.92094 79.192606,359.04594 C 77.117606,360.98594 75.770606,362.65694 75.164606,364.05794 C 73.952606,365.67394 72.362606,368.04494 70.409606,371.16994 C 69.061606,373.43395 66.933606,376.18194 63.997606,379.41495 L 59.241606,384.74895 L 54.486606,392.02295 C 54.365606,392.34694 54.122606,392.50894 53.758606,392.50894 C 53.758606,392.93895 53.570606,393.26295 53.206606,393.47894 C 52.465606,393.90995 51.858606,393.80195 51.374606,393.15494 C 49.421606,390.35394 48.626606,388.35894 48.989606,387.17394 C 48.962606,387.17394 48.962606,387.12094 48.989606,387.01295 C 48.989606,386.47394 48.680606,385.12594 48.073606,382.97094 L 47.710606,381.67794 C 47.333606,380.60094 46.470606,378.66094 45.124606,375.85794 C 43.897606,374.34995 42.860606,373.48695 41.998606,373.27094 C 41.378606,373.16495 40.220606,373.43395 38.496606,374.08095 L 40.394606,382.00094 C 40.354606,382.10894 40.354606,382.16294 40.394606,382.16294 C 40.394606,382.70194 40.085606,383.07894 39.478606,383.29394 L 39.290606,383.45694 C 39.169606,384.20995 39.101606,384.91094 39.101606,385.55794 C 39.101606,385.88095 39.169606,386.33894 39.290606,386.93094 C 39.412606,387.52494 39.478606,387.98195 39.478606,388.30594 C 39.478606,388.84495 39.290606,389.67894 38.926606,390.81095 C 38.562606,391.94294 38.374606,392.83295 38.374606,393.47894 C 38.374606,395.74195 37.944606,398.05895 37.094606,400.42994 C 36.730606,401.29094 36.542606,401.99294 36.542606,402.53094 C 36.542606,403.17794 36.664606,403.66294 36.920606,403.98594 C 37.889606,405.49494 39.533606,409.21295 41.850606,415.14095 C 42.213606,415.89494 42.954606,418.64295 44.045606,423.38494 C 44.166606,423.49294 44.234606,423.54594 44.234606,423.54594 C 44.113606,423.76194 44.045606,423.97794 44.045606,424.19294 C 43.561606,424.94694 42.469606,426.40194 40.758606,428.55794 C 40.153606,429.20494 38.805606,431.19794 36.730606,434.53894 L 35.262606,436.96295 C 34.777606,437.60994 34.172606,437.77295 33.430606,437.44894 C 32.945606,437.23294 32.702606,436.85694 32.702606,436.31694 C 32.824606,436.10194 32.892606,435.93895 32.892606,435.83294 L 34.534606,433.40695 C 35.505606,431.79094 36.920606,429.68895 38.738606,427.10294 C 39.721606,426.13295 40.637606,424.89394 41.486606,423.38494 C 40.394606,419.08694 39.721606,416.55494 39.478606,415.80094 C 37.282606,410.30494 35.693606,406.80195 34.710606,405.29294 C 34.225606,404.53794 33.982606,403.62194 33.982606,402.54494 C 33.982606,401.57494 34.172606,400.60495 34.534606,399.63494 C 35.384606,396.83295 35.814606,394.78594 35.814606,393.49294 C 35.814606,392.84594 35.962606,391.95694 36.273606,390.82494 C 36.582606,389.69294 36.730606,388.85794 36.730606,388.31894 C 36.690606,387.99494 36.690606,387.56494 36.730606,387.02594 C 36.609606,386.39295 36.542606,385.90694 36.542606,385.58495 C 36.542606,384.61395 36.609606,383.59094 36.730606,382.51295 C 36.730606,382.08194 36.973606,381.75894 37.458606,381.54294 L 35.814606,374.26894 C 35.774606,374.26894 35.774606,374.21495 35.814606,374.10695 C 35.814606,373.56894 36.125606,373.19095 36.730606,372.97495 C 36.730606,372.43694 36.973606,372.05895 37.458606,371.84295 C 39.533606,370.98195 41.310606,370.71295 42.766606,371.03495 C 44.961606,371.57394 46.552606,372.81395 47.521606,374.75395 C 48.989606,377.75794 49.905606,379.91294 50.269606,381.20595 L 50.633606,382.33795 C 51.496606,385.23394 51.805606,387.12094 51.549606,387.98195 C 51.549606,388.30594 51.926606,389.11395 52.653606,390.40694 L 57.234606,383.45694 L 61.989606,377.94595 C 63.457606,376.32994 65.465606,373.68994 68.024606,370.02494 C 68.644606,368.83894 69.668606,367.27694 71.136606,365.33694 C 71.621606,364.79794 72.173606,364.09794 72.780606,363.23494 C 73.400606,361.51095 74.921606,359.57095 77.360606,357.41695 C 80.781606,354.38494 83.530606,351.69095 85.604606,349.32095 L 88.892606,345.60195 C 89.134606,345.38595 89.376606,345.27795 89.618606,345.27795 L 92.004606,344.63294 C 92.245606,344.63294 92.488606,344.63294 92.730606,344.63294 C 95.789606,345.27795 97.310606,346.94894 97.310606,349.64295 C 97.310606,350.50595 96.462606,352.06894 94.752606,354.33095 L 93.472606,356.12294 C 92.245606,357.84694 90.966606,359.51795 89.618606,361.13394 C 88.649606,363.50494 87.544606,365.33694 86.332606,366.62994 C 85.604606,368.24694 84.312606,370.56494 82.493606,373.59495 C 81.630606,374.88894 80.350606,377.74494 78.640606,382.16294 C 78.882606,382.26994 79.070606,382.32494 79.192606,382.32494 C 79.677606,381.78594 80.688606,380.54594 82.209606,378.60594 C 83.745606,376.66594 84.742606,375.37395 85.228606,374.72694 L 87.060606,373.10994 C 88.406606,371.81694 90.481606,370.03894 93.282606,367.77494 C 94.266606,367.12895 95.330606,365.96995 96.489606,364.30094 C 97.648606,362.62994 98.658606,361.47094 99.506606,360.82494 C 101.21761,359.53094 102.92861,358.12994 104.64061,356.62194 C 105.85261,355.43494 106.86261,354.35794 107.65761,353.38894 C 108.45261,352.41794 110.31061,351.50194 113.23461,350.64095 C 113.59761,350.53294 113.97461,350.58594 114.33861,350.80195 L 117.26161,352.58095 C 117.50461,352.79494 117.69361,353.06494 117.81461,353.38894 C 118.05761,354.89694 117.93661,356.29794 117.45061,357.59094 C 120.73761,358.77694 122.39461,360.17794 122.39461,361.79394 C 122.39461,365.02694 121.28961,367.34495 119.09461,368.74594 C 118.11061,369.39295 117.04661,371.11695 115.88861,373.91794 C 114.72961,376.72094 113.47661,378.71394 112.14261,379.89894 C 111.64461,380.33095 110.79661,381.46194 109.56961,383.29394 C 108.23661,385.44994 107.25361,386.68895 106.64661,387.01295 C 106.16161,387.98195 105.42161,389.16695 104.45061,390.56894 C 104.08661,390.99895 103.04961,392.77795 101.33861,395.90295 C 103.53461,394.28695 105.73061,392.93895 107.92661,391.86195 C 108.78861,391.32294 110.18961,390.51494 112.14261,389.43694 C 112.38561,389.32994 113.30161,388.79094 114.87761,387.82095 C 117.57261,386.09694 119.64661,385.23394 121.11461,385.23394 L 121.65361,385.23394 C 122.88061,385.34194 123.94461,385.93494 124.86061,387.01295 C 125.77661,388.08995 126.23361,389.16695 126.23361,390.24594 z M 137.40161,392.83295 L 133.37361,390.40694 L 130.98961,390.08295 C 130.14061,390.40694 129.65661,390.67695 129.53461,390.89295 C 129.53461,391.43094 129.65661,392.02295 129.89761,392.66994 C 132.09361,393.31694 133.49461,393.64095 134.10161,393.64095 C 134.84161,393.64095 135.81261,393.58594 137.03761,393.47894 z"
       inkscape:connector-curvature="0"
       style="fill:#000000;stroke:#000000;stroke-width:2.66667008" />
  </g>
</svg>
