<?xml version="1.0" encoding="UTF-8" standalone="no"?>
<!-- Created with Inkscape (http://www.inkscape.org/) -->

<svg
   xmlns:dc="http://purl.org/dc/elements/1.1/"
   xmlns:cc="http://creativecommons.org/ns#"
   xmlns:rdf="http://www.w3.org/1999/02/22-rdf-syntax-ns#"
   xmlns:svg="http://www.w3.org/2000/svg"
   xmlns="http://www.w3.org/2000/svg"
   xmlns:sodipodi="http://sodipodi.sourceforge.net/DTD/sodipodi-0.dtd"
   xmlns:inkscape="http://www.inkscape.org/namespaces/inkscape"
   width="240"
   height="160"
   id="svg3249"
   version="1.1"
   inkscape:version="0.48.0 r9654"
   sodipodi:docname="BSL letter T.svg">
  <defs
     id="defs3251" />
  <sodipodi:namedview
     id="base"
     pagecolor="#ffffff"
     bordercolor="#666666"
     borderopacity="1.0"
     inkscape:pageopacity="0.0"
     inkscape:pageshadow="2"
     inkscape:zoom="0.77472527"
     inkscape:cx="105.7305"
     inkscape:cy="240"
     inkscape:current-layer="layer1"
     inkscape:document-units="px"
     showgrid="false"
     inkscape:window-width="1024"
     inkscape:window-height="745"
     inkscape:window-x="-8"
     inkscape:window-y="-8"
     inkscape:window-maximized="1" />
  <metadata
     id="metadata3254">
    <rdf:RDF>
      <cc:Work
         rdf:about="">
        <dc:format>image/svg+xml</dc:format>
        <dc:type
           rdf:resource="http://purl.org/dc/dcmitype/StillImage" />
        <dc:title></dc:title>
      </cc:Work>
    </rdf:RDF>
  </metadata>
  <g
     id="layer1"
     inkscape:label="Layer 1"
     inkscape:groupmode="layer"
     transform="translate(0,-320)">
    <text
       xml:space="preserve"
       style="font-size:40px;font-style:normal;font-weight:normal;line-height:125%;letter-spacing:0px;word-spacing:0px;fill:#000000;fill-opacity:1;stroke:none;font-family:Sans"
       x="172.96454"
       y="23.177303"
       id="text3264"
       sodipodi:linespacing="125%"
       transform="translate(0,320)"><tspan
         sodipodi:role="line"
         id="tspan3266"
         x="172.96454"
         y="23.177303" /></text>
    <text
       xml:space="preserve"
       style="font-size:64px;font-style:normal;font-weight:bold;line-height:125%;letter-spacing:0px;word-spacing:0px;fill:#000000;fill-opacity:1;stroke:none;font-family:Sans;-inkscape-font-specification:Sans Bold"
       x="179.41844"
       y="55.446808"
       id="text3268"
       sodipodi:linespacing="125%"
       transform="translate(0,320)"><tspan
         sodipodi:role="line"
         id="tspan3270"
         x="179.41844"
         y="55.446808" /></text>
    <flowRoot
       xml:space="preserve"
       id="flowRoot3272"
       style="font-size:64px;font-style:normal;font-weight:bold;line-height:125%;letter-spacing:0px;word-spacing:0px;fill:#404040;fill-opacity:1;stroke:none;font-family:Sans;-inkscape-font-specification:Sans Bold"
       transform="translate(16.780142,313.5461)"><flowRegion
         id="flowRegion3274"><rect
           id="rect3276"
           width="73.574471"
           height="67.120567"
           x="160.05673"
           y="15.432623"
           style="fill:#404040;fill-opacity:1" /></flowRegion><flowPara
         id="flowPara3278">V</flowPara></flowRoot>    <path
       id="dp_path086"
       d="M 165.10467,450.82796 C 164.61967,447.48596 163.21767,444.03796 160.90067,440.48196 L 159.06867,437.40996 C 157.96467,435.57796 156.56367,433.47696 154.85267,431.10595 C 153.15567,429.48895 150.70367,427.06495 147.53767,423.83195 L 144.78967,420.75995 C 144.66867,420.65195 143.69767,418.87395 141.86567,415.42495 C 141.86567,415.20995 141.74467,415.04795 141.50167,414.94095 L 136.55767,412.51596 C 136.06067,412.19195 134.84767,411.92195 132.89367,411.70796 C 130.81967,411.49196 129.54067,411.49196 129.05567,411.70796 C 128.31367,411.92195 127.39767,412.46096 126.30767,413.32396 L 124.66367,411.70796 C 124.52867,411.49196 124.35367,411.32995 124.11167,411.22195 L 118.80367,410.25295 C 118.68167,410.14495 118.56067,410.08995 118.43967,410.08995 C 114.89667,410.08995 112.57967,410.57595 111.47567,411.54496 C 110.86867,412.08495 110.38367,413.00096 110.02067,414.29395 C 108.42967,413.00096 107.27267,411.92195 106.53167,411.06095 C 105.56067,409.65996 103.41967,407.82796 100.13267,405.56495 L 103.24467,400.22996 L 103.41967,400.22996 C 105.00867,396.67295 106.16767,394.46395 106.90867,393.60195 C 107.99967,392.30896 108.86167,390.15296 109.46767,387.13596 C 109.58867,386.59695 110.14167,385.41195 111.11167,383.57995 C 111.97367,382.17795 112.39167,380.88495 112.39167,379.69995 C 112.39167,379.16095 113.13267,377.81295 114.58767,375.65796 C 116.41967,373.07195 117.33567,371.29295 117.33567,370.32396 C 117.33567,370.00095 117.45667,369.56896 117.69967,369.02996 C 118.43967,367.30595 117.52367,365.85195 114.96467,364.66595 C 114.22367,364.34195 113.49567,364.18095 112.75567,364.18095 C 113.49567,363.20995 114.58767,361.72895 116.05567,359.73595 C 117.52367,357.74095 117.69967,355.72095 116.60767,353.67295 L 116.60767,353.51195 C 115.86767,352.32596 114.41167,351.78795 112.21667,351.89596 L 112.75567,350.60195 C 113.25267,349.30896 113.49567,348.17696 113.49567,347.20796 C 113.49567,343.97395 112.02767,342.03395 109.10467,341.38795 C 107.51367,340.95695 106.14067,341.22595 104.98167,342.19596 C 103.82367,343.16595 102.38167,344.83596 100.68467,347.20796 L 99.943666,348.17696 C 98.731666,349.68595 96.777666,351.94896 94.083666,354.96595 L 93.544666,355.61295 C 94.151666,354.53595 94.703666,353.51195 95.188666,352.54095 C 95.188666,352.43396 95.255666,352.37995 95.376666,352.37995 L 97.195666,346.70895 C 97.572666,346.16996 97.747666,345.57695 97.747666,344.92995 C 97.747666,343.83995 97.115666,342.89596 95.835666,342.08796 C 94.541666,341.27995 93.235666,340.87595 91.887666,340.87595 C 90.311666,340.87595 89.085666,341.36095 88.236666,342.32995 C 85.057666,345.88596 83.144666,347.98895 82.471666,348.63396 C 81.797666,349.28095 80.976666,350.25195 79.992666,351.54496 L 79.265666,352.52796 C 78.039666,353.82096 76.207666,355.92196 73.768666,358.83296 L 71.573666,361.90395 C 70.239666,363.84395 68.583666,366.26895 66.629666,369.17795 C 66.023666,370.37695 63.099666,374.14895 57.845666,380.50795 C 57.845666,378.45995 57.967666,377.16795 58.209666,376.62795 L 58.209666,376.62795 C 58.465666,376.30495 58.587666,375.87396 58.587666,375.33395 C 58.587666,374.58096 58.209666,373.17995 57.481666,371.13195 C 57.119666,370.05395 56.876666,369.35395 56.755666,369.02996 C 56.391666,367.52096 55.528666,366.06595 54.195666,364.66595 C 52.605666,362.07995 50.827666,360.78595 48.887666,360.78595 C 47.661666,360.78595 46.436666,361.26995 45.223666,362.24095 C 45.223666,362.34895 45.156666,362.40195 45.035666,362.40195 C 44.549666,362.61795 44.119666,363.10395 43.755666,363.85696 L 45.587666,370.32396 C 45.101666,370.43196 44.792666,370.70096 44.671666,371.13195 C 44.307666,372.31695 44.119666,373.34095 44.119666,374.20395 C 44.132666,374.41795 44.132666,374.68896 44.119666,375.01195 C 44.240666,375.33395 44.307666,375.60496 44.307666,375.81995 C 44.307666,376.57396 44.119666,377.48995 43.755666,378.56795 C 41.801666,382.87795 40.832666,385.78895 40.832666,387.29695 C 40.832666,387.72895 40.885666,388.32095 41.007666,389.07596 C 41.128666,389.82995 41.195666,390.42195 41.195666,390.85395 C 41.195666,393.87196 41.371666,395.97296 41.748666,397.15796 C 42.475666,399.63695 42.905666,401.95395 43.027666,404.10895 C 43.269666,412.73196 44.064666,417.63396 45.399666,418.81995 L 45.951666,419.30495 C 43.148666,421.56795 41.627666,423.29295 41.371666,424.47795 C 41.128666,425.66395 39.431666,429.11196 36.251666,434.82396 C 35.888666,435.46995 36.063666,435.95596 36.804666,436.27796 C 37.531666,436.60196 38.083666,436.44095 38.447666,435.79395 C 41.748666,429.97395 43.512666,426.41795 43.755666,425.12495 C 43.876666,424.26195 45.156666,422.80795 47.593666,420.75995 C 51.621666,424.42396 54.195666,426.36395 55.285666,426.57995 C 56.013666,426.79595 56.512666,426.57995 56.755666,425.93295 C 56.876666,425.17795 56.565666,424.69295 55.839666,424.47795 L 55.839666,424.47795 C 55.097666,424.26195 52.537666,422.21395 48.147666,418.33596 L 47.055666,417.36495 C 46.436666,416.60996 45.896666,412.13795 45.399666,403.94795 C 45.277666,402.54595 44.859666,400.12196 44.119666,396.67295 C 43.876666,395.59595 43.701666,393.60195 43.567666,390.69195 C 43.567666,388.85996 43.512666,387.72895 43.391666,387.29695 L 43.391666,387.29695 C 43.269666,387.18896 44.185666,384.49595 46.139666,379.21395 C 46.745666,377.05995 46.867666,375.54995 46.503666,374.68896 C 46.381666,374.14895 46.503666,373.17995 46.867666,371.77796 C 47.352666,371.56396 47.783666,371.13195 48.147666,370.48496 L 46.315666,364.01995 C 46.436666,364.01995 46.867666,363.80395 47.593666,363.37295 C 48.335666,362.94095 48.873666,362.83296 49.251666,363.04895 C 49.857666,363.26495 50.827666,364.23395 52.175666,365.95796 C 53.400666,367.25195 54.128666,368.43795 54.369666,369.51596 C 54.491666,369.94595 54.733666,370.70096 55.097666,371.77796 C 55.960666,373.93396 56.323666,375.17295 56.203666,375.49696 C 55.596666,376.35795 55.285666,378.13695 55.285666,380.83195 C 55.285666,383.63295 55.501666,385.41195 55.932666,386.16595 C 56.351666,386.91996 56.929666,387.13596 57.671666,386.81295 C 58.397666,386.48895 58.587666,386.00396 58.209666,385.35696 C 58.088666,385.03395 57.967666,384.44095 57.845666,383.57995 C 58.209666,383.47195 58.465666,383.36395 58.587666,383.25596 C 64.568666,376.03595 67.976666,371.66996 68.824666,370.16195 C 69.323666,369.29995 70.899666,366.92895 73.593666,363.04895 L 75.789666,359.97795 C 77.123666,358.57695 78.955666,356.47595 81.272666,353.67295 L 82.013666,352.70395 C 82.376666,352.16496 83.051666,351.35595 84.020666,350.27796 C 85.367666,348.76995 87.441666,346.56095 90.244666,343.64995 C 90.985666,342.89596 92.076666,342.78895 93.544666,343.32795 C 94.756666,343.86595 95.376666,344.40495 95.376666,344.94396 C 95.376666,345.15996 95.309666,345.37396 95.188666,345.58995 C 95.067666,345.80595 94.945666,345.96796 94.824666,346.07596 L 92.992666,351.73295 C 91.645666,353.67295 89.880666,356.68995 87.684666,360.78595 L 87.320666,361.75596 C 87.079666,362.40195 86.041666,363.91195 84.209666,366.28195 C 83.225666,367.68396 81.945666,369.62396 80.356666,372.10195 C 79.628666,373.93396 78.955666,375.71195 78.349666,377.43695 L 75.237666,381.31595 L 70.845666,380.50795 C 70.845666,380.50795 70.777666,380.50795 70.656666,380.50795 C 69.808666,380.50795 69.377666,380.88495 69.377666,381.63995 C 69.377666,382.17795 69.740666,382.50095 70.481666,382.60895 L 75.600666,383.57995 C 76.085666,383.68795 76.516666,383.52495 76.880666,383.09395 L 80.544666,378.56795 C 80.544666,378.45995 80.612666,378.35295 80.733666,378.24495 C 80.976666,377.38195 81.649666,375.60496 82.740666,372.90996 C 83.104666,371.93995 84.329666,370.10795 86.404666,367.41395 C 88.116666,365.14995 89.152666,363.58796 89.516666,362.72595 C 90.608666,362.07995 91.348666,361.48595 91.712666,360.94795 C 92.683666,359.86995 94.151666,358.30795 96.104666,356.25995 C 97.451666,354.96595 99.391666,352.70395 101.96467,349.46995 L 102.69167,348.33796 C 103.41967,347.26096 104.64467,345.80595 106.35667,343.97395 C 107.08367,343.43595 107.75667,343.27296 108.36367,343.48895 C 109.70967,343.70495 110.50467,344.35195 110.74767,345.42895 C 111.23267,346.82995 111.11167,348.33796 110.38367,349.95596 L 110.19567,350.43995 C 109.34567,352.48795 108.67267,353.88895 108.18867,354.64395 L 107.27267,355.93695 C 106.65267,356.90595 105.49367,358.36095 103.79667,360.30095 C 103.05567,361.37795 101.84367,362.94095 100.13267,364.98895 C 99.269666,366.06595 97.747666,368.38396 95.552666,371.93995 C 95.431666,372.15595 95.376666,372.42495 95.376666,372.74896 L 95.376666,372.74896 C 95.376666,373.07195 94.676666,373.85295 93.261666,375.09296 C 91.860666,376.33195 90.365666,378.78395 88.789666,382.44795 C 88.533666,383.20195 88.116666,384.06396 87.496666,385.03395 C 87.011666,385.57295 87.079666,386.05795 87.684666,386.48895 C 88.533666,387.35195 89.395666,386.91996 90.244666,385.19595 C 90.985666,383.04095 92.561666,380.29295 94.999666,376.95195 C 96.831666,375.44195 97.747666,374.04195 97.747666,372.74896 C 99.821666,369.29995 101.22367,367.08995 101.96467,366.12095 C 102.69167,365.14995 103.91767,363.69595 105.61567,361.75596 C 106.59767,360.89395 107.87767,359.27695 109.46767,356.90595 L 110.19567,355.93695 C 110.55967,355.28996 110.92367,354.69695 111.29967,354.15796 C 111.42067,354.15796 111.54167,354.15796 111.66367,354.15796 C 113.11767,353.83395 114.03367,353.99696 114.41167,354.64395 C 115.13967,356.04395 114.80167,357.57995 113.40167,359.24995 C 112.00067,360.92095 110.55967,363.10395 109.10467,365.79696 C 108.60567,366.44396 108.21567,367.08995 107.90467,367.73696 C 107.60867,368.38396 107.02967,369.78496 106.16767,371.93995 C 105.44067,373.55696 104.45667,375.44195 103.24467,377.59796 C 99.095666,382.44795 96.589666,386.00396 95.740666,388.26795 C 95.740666,388.48196 95.740666,388.64495 95.740666,388.75195 L 94.999666,388.42896 C 94.272666,388.10595 93.720666,388.26795 93.356666,388.91395 C 92.992666,389.56095 93.167666,390.04496 93.908666,390.36895 L 97.195666,391.82396 C 97.936666,392.14795 98.488666,391.98496 98.852666,391.33796 C 99.216666,390.69195 99.027666,390.20796 98.300666,389.88396 L 97.572666,389.56095 C 97.815666,389.45296 97.989666,389.23696 98.111666,388.91395 C 98.973666,386.75795 101.34467,383.43196 105.25167,378.90496 C 105.87167,378.25795 106.90867,376.20995 108.36367,372.76195 C 109.34567,370.61995 109.95267,369.27296 110.19567,368.73395 L 111.11167,366.95596 C 111.35367,366.73995 111.59667,366.57795 111.83967,366.46995 C 112.45767,366.25596 113.18567,366.33596 114.03367,366.69995 C 114.89667,367.07695 115.38167,367.42795 115.50367,367.73696 L 115.50367,367.73696 C 115.50367,367.84495 115.38167,368.19595 115.13967,368.78795 C 114.89667,369.38096 114.77567,369.91996 114.77567,370.40496 C 114.77567,370.88895 114.03367,372.26395 112.57967,374.52595 C 111.71767,376.57396 110.31667,379.69995 108.36367,383.90195 C 107.87767,385.94995 106.71967,388.75195 104.88767,392.30896 C 104.03967,393.27796 102.81267,395.59595 101.22367,399.25995 C 100.37567,400.66095 99.404666,402.27695 98.300666,404.10895 C 97.693666,403.89395 96.709666,403.30095 95.376666,402.33195 L 94.460666,401.19995 C 92.992666,399.79795 90.851666,397.85795 88.048666,395.37995 C 87.563666,395.05696 84.936666,393.60195 80.181666,391.01596 C 78.955666,390.04496 77.001666,389.02195 74.321666,387.94396 C 71.033666,387.62095 68.959666,388.02495 68.097666,389.15695 C 67.248666,390.28795 66.817666,391.28496 66.817666,392.14795 C 66.817666,393.65595 67.801666,395.27295 69.740666,396.99696 L 73.405666,400.22996 L 73.405666,400.22996 L 80.356666,405.56495 C 81.703666,406.64195 83.535666,408.31295 85.852666,410.57595 C 86.836666,411.86895 88.291666,413.48496 90.244666,415.42495 C 93.301666,417.25695 95.497666,419.03595 96.831666,420.75995 C 97.572666,421.94495 99.095666,423.72395 101.41267,426.09395 L 99.027666,427.54896 L 99.027666,427.54896 C 97.936666,426.68795 97.020666,426.09395 96.292666,425.77195 L 94.636666,424.96195 C 92.076666,423.88495 88.236666,422.21395 83.104666,419.95195 C 82.376666,419.84395 80.787666,419.08895 78.349666,417.68896 C 76.759666,416.28795 74.805666,414.88596 72.489666,413.48496 L 67.733666,410.73696 C 65.052666,408.68995 62.979666,407.55795 61.509666,407.34195 C 59.677666,407.01995 58.035666,407.39695 56.565666,408.47395 C 55.111666,409.55195 54.369666,410.68396 54.369666,411.86895 C 54.491666,412.73196 54.976666,413.48496 55.839666,414.13195 C 55.960666,414.23995 56.013666,414.29395 56.013666,414.29395 L 59.677666,416.87995 C 59.677666,416.87995 60.661666,417.68896 62.601666,419.30495 C 62.723666,419.41295 62.911666,419.52096 63.153666,419.62795 L 62.789666,419.46595 C 62.911666,419.57396 63.153666,419.89795 63.531666,420.43695 C 64.379666,421.51395 65.107666,422.26895 65.727666,422.69995 C 67.303666,423.66996 69.620666,425.23295 72.677666,427.38795 C 73.527666,428.14195 74.200666,428.62795 74.684666,428.84195 L 75.425666,429.32796 C 76.516666,429.97395 78.039666,430.72895 79.992666,431.58995 C 80.612666,431.80595 81.339666,432.23696 82.188666,432.88396 C 81.703666,433.42195 81.097666,433.96195 80.356666,434.50096 C 76.948666,434.28496 74.752666,434.17695 73.768666,434.17695 C 73.284666,434.17695 72.556666,433.74595 71.573666,432.88396 L 71.033666,432.39996 C 70.172666,431.53695 67.976666,430.62095 64.447666,429.64996 C 63.341666,429.32796 62.789666,429.64996 62.789666,430.62095 C 62.789666,431.15996 63.099666,431.48395 63.705666,431.58995 C 66.764666,432.56095 68.649666,433.31595 69.377666,433.85395 L 69.929666,434.33796 C 71.276666,435.63195 72.556666,436.27796 73.768666,436.27796 C 74.509666,436.27796 75.964666,436.38596 78.160666,436.60196 C 76.705666,437.67995 75.668666,438.32595 75.048666,438.54195 C 73.715666,438.97296 71.909666,440.80496 69.660666,444.03796 C 67.396666,447.27196 66.211666,449.58796 66.089666,450.98896 C 66.089666,451.63596 66.453666,452.01296 67.181666,452.12096 C 67.921666,452.22896 68.340666,451.95996 68.461666,451.31296 C 68.703666,450.12796 69.808666,448.10596 71.761666,445.24996 C 73.715666,442.39396 75.048666,440.85796 75.789666,440.64396 C 77.123666,440.21296 79.023666,438.86495 81.460666,436.60196 C 81.703666,436.60196 81.892666,436.49395 82.013666,436.27796 L 84.020666,434.17695 L 84.209666,434.17695 C 85.057666,435.25396 86.525666,436.76395 88.600666,438.70395 C 88.964666,438.91996 89.880666,439.72796 91.348666,441.12896 C 92.803666,442.52896 93.787666,443.28396 94.272666,443.39196 L 94.083666,443.39196 C 94.217666,443.49996 94.608666,443.92996 95.283666,444.68496 C 95.956666,445.43996 97.141666,446.40896 98.852666,447.59396 C 99.459666,447.80996 100.68467,448.50996 102.50367,449.69596 C 104.33567,450.88096 106.96167,452.49796 110.38367,454.54596 C 111.96067,455.51596 112.99767,456.10896 113.49567,456.32396 C 114.22367,456.64796 114.77567,456.48496 115.13967,455.83796 C 115.38167,455.40796 114.28967,454.38396 111.83967,452.76796 C 110.02067,451.58196 108.79367,450.88096 108.18867,450.66596 C 107.56867,450.44996 106.23567,449.64196 104.16067,448.24096 C 103.05567,447.48596 101.65367,446.62496 99.943666,445.65396 C 98.973666,444.46896 97.451666,443.06796 95.376666,441.45196 L 95.376666,441.45196 C 95.120666,441.34396 94.339666,440.72396 92.992666,439.59296 C 91.645666,438.46096 89.692666,436.65595 87.132666,434.17695 C 86.525666,433.42195 86.095666,432.93795 85.852666,432.72195 C 84.141666,431.21296 82.497666,430.18995 80.908666,429.64996 C 80.303666,429.43595 78.901666,428.68095 76.705666,427.38795 L 75.789666,427.06495 C 75.048666,426.30995 73.715666,425.28595 71.761666,423.99295 C 69.080666,422.59195 67.005666,420.97595 65.537666,419.14395 C 65.052666,418.38895 64.621666,417.90395 64.257666,417.68896 L 61.321666,415.26395 L 61.145666,415.26395 L 57.481666,412.67695 C 57.481666,412.56896 57.428666,412.48895 57.307666,412.43396 C 57.172666,412.38096 57.051666,412.13795 56.929666,411.70796 C 56.929666,411.27595 57.360666,410.73696 58.209666,410.08995 C 59.072666,409.44396 59.988666,409.22895 60.957666,409.44396 C 61.699666,409.55195 63.463666,410.57595 66.265666,412.51596 L 71.033666,415.42495 L 71.209666,415.42495 C 72.920666,416.50396 74.752666,417.74196 76.705666,419.14395 C 78.039666,420.32895 79.319666,421.02895 80.544666,421.24495 C 81.649666,421.78395 83.292666,422.48395 85.488666,423.34595 C 87.320666,424.10095 90.001666,425.28595 93.544666,426.90195 L 95.188666,427.54896 C 95.552666,427.76495 96.589666,428.62795 98.300666,430.13596 C 99.512666,431.21296 100.42867,431.53695 101.04867,431.10595 C 101.29167,430.88995 101.41267,430.62095 101.41267,430.29695 C 101.41267,429.97395 101.16967,429.59695 100.68467,429.16595 L 102.88067,427.87295 C 103.60767,428.51995 104.28167,429.13995 104.88767,429.73196 C 105.49367,430.32495 106.11367,430.40496 106.71967,429.97395 C 106.96167,429.75795 107.08367,429.48895 107.08367,429.16595 C 107.08367,428.94995 107.02967,428.73395 106.90867,428.51995 C 104.83367,426.47195 102.13967,423.50795 98.852666,419.62795 C 97.384666,417.58096 94.945666,415.58596 91.524666,413.64795 C 90.553666,412.35395 89.273666,410.84495 87.684666,409.12095 C 86.580666,407.93595 84.693666,406.20995 82.013666,403.94795 L 75.048666,398.61295 C 75.048666,398.61295 73.836666,397.53595 71.397666,395.37995 C 70.051666,394.19396 69.323666,393.11696 69.201666,392.14795 C 69.201666,392.03996 69.565666,391.39295 70.293666,390.20796 C 70.777666,389.99196 71.936666,389.93795 73.768666,390.04496 L 78.901666,392.79295 L 78.901666,392.79295 C 80.612666,393.65595 83.104666,395.05696 86.404666,396.99696 C 87.752666,397.96595 89.827666,399.85295 92.628666,402.65395 L 93.544666,403.62495 C 94.515666,404.27195 95.983666,405.29395 97.936666,406.69595 C 101.34467,409.06595 103.54067,410.89795 104.52367,412.19195 C 105.00867,412.83796 106.84067,414.50896 110.02067,417.20395 C 113.06467,419.14395 114.68067,420.46395 114.86967,421.16395 C 115.04467,421.86495 115.56967,422.10795 116.41967,421.89195 C 117.14567,421.78395 117.40167,421.35295 117.14567,420.59796 C 116.90467,419.52096 115.20567,417.90395 112.02767,415.74895 C 112.39167,414.34796 112.82167,413.43196 113.30767,413.00096 C 113.79267,412.56896 115.50367,412.35395 118.42567,412.35395 L 123.00567,413.32396 L 127.58767,418.33596 C 127.70767,418.33596 128.38167,419.35795 129.59367,421.40595 C 129.95767,422.05295 130.50967,422.21395 131.25167,421.89195 C 131.97767,421.56795 132.16767,421.08395 131.78967,420.43695 L 129.78167,417.20395 C 129.66067,417.09595 129.59367,417.04195 129.59367,417.04195 L 127.76167,414.94095 C 128.74467,414.29395 129.41967,413.86196 129.78167,413.64795 C 130.50967,413.53996 132.40967,413.80896 135.45367,414.45596 C 135.45367,414.45596 136.92167,415.20995 139.84567,416.71796 L 142.59367,421.72996 C 142.59367,421.83695 142.64767,421.89195 142.78167,421.89195 L 145.51667,425.12495 C 147.22767,426.74095 149.66567,429.16595 152.84467,432.39996 C 153.20867,432.72195 154.55667,434.71595 156.87267,438.37995 L 158.88067,441.61296 C 160.95567,444.84596 162.23567,448.02596 162.73267,451.14996 C 162.85367,451.90496 163.33967,452.22896 164.18867,452.12096 C 164.92867,452.01296 165.29267,451.63596 165.29267,450.98896 C 165.17167,450.98896 165.10467,450.93596 165.10467,450.82796 z M 70.481666,390.20796 C 70.481666,390.20796 70.481666,390.20796 70.481666,390.20796 C 70.481666,390.20796 70.481666,390.20796 70.481666,390.20796 z"
       inkscape:connector-curvature="0"
       style="fill:#000000;stroke:#000000;stroke-width:2.66667008" />
  </g>
</svg>
