<?xml version="1.0" encoding="UTF-8" standalone="no"?>
<!-- Created with Inkscape (http://www.inkscape.org/) -->

<svg
   xmlns:dc="http://purl.org/dc/elements/1.1/"
   xmlns:cc="http://creativecommons.org/ns#"
   xmlns:rdf="http://www.w3.org/1999/02/22-rdf-syntax-ns#"
   xmlns:svg="http://www.w3.org/2000/svg"
   xmlns="http://www.w3.org/2000/svg"
   xmlns:sodipodi="http://sodipodi.sourceforge.net/DTD/sodipodi-0.dtd"
   xmlns:inkscape="http://www.inkscape.org/namespaces/inkscape"
   width="240"
   height="160"
   id="svg3249"
   version="1.1"
   inkscape:version="0.48.0 r9654"
   sodipodi:docname="BSL letter W.svg">
  <defs
     id="defs3251" />
  <sodipodi:namedview
     id="base"
     pagecolor="#ffffff"
     bordercolor="#666666"
     borderopacity="1.0"
     inkscape:pageopacity="0.0"
     inkscape:pageshadow="2"
     inkscape:zoom="0.77472527"
     inkscape:cx="105.7305"
     inkscape:cy="240"
     inkscape:current-layer="layer1"
     inkscape:document-units="px"
     showgrid="false"
     inkscape:window-width="1024"
     inkscape:window-height="745"
     inkscape:window-x="-8"
     inkscape:window-y="-8"
     inkscape:window-maximized="1" />
  <metadata
     id="metadata3254">
    <rdf:RDF>
      <cc:Work
         rdf:about="">
        <dc:format>image/svg+xml</dc:format>
        <dc:type
           rdf:resource="http://purl.org/dc/dcmitype/StillImage" />
        <dc:title></dc:title>
      </cc:Work>
    </rdf:RDF>
  </metadata>
  <g
     id="layer1"
     inkscape:label="Layer 1"
     inkscape:groupmode="layer"
     transform="translate(0,-320)">
    <text
       xml:space="preserve"
       style="font-size:40px;font-style:normal;font-weight:normal;line-height:125%;letter-spacing:0px;word-spacing:0px;fill:#000000;fill-opacity:1;stroke:none;font-family:Sans"
       x="172.96454"
       y="23.177303"
       id="text3264"
       sodipodi:linespacing="125%"
       transform="translate(0,320)"><tspan
         sodipodi:role="line"
         id="tspan3266"
         x="172.96454"
         y="23.177303" /></text>
    <text
       xml:space="preserve"
       style="font-size:64px;font-style:normal;font-weight:bold;line-height:125%;letter-spacing:0px;word-spacing:0px;fill:#000000;fill-opacity:1;stroke:none;font-family:Sans;-inkscape-font-specification:Sans Bold"
       x="179.41844"
       y="55.446808"
       id="text3268"
       sodipodi:linespacing="125%"
       transform="translate(0,320)"><tspan
         sodipodi:role="line"
         id="tspan3270"
         x="179.41844"
         y="55.446808" /></text>
    <flowRoot
       xml:space="preserve"
       id="flowRoot3272"
       style="font-size:64px;font-style:normal;font-weight:bold;line-height:125%;letter-spacing:0px;word-spacing:0px;fill:#404040;fill-opacity:1;stroke:none;font-family:Sans;-inkscape-font-specification:Sans Bold"
       transform="translate(7.744681,313.5461)"><flowRegion
         id="flowRegion3274"><rect
           id="rect3276"
           width="73.574471"
           height="67.120567"
           x="160.05673"
           y="15.432623"
           style="fill:#404040;fill-opacity:1" /></flowRegion><flowPara
         id="flowPara3278">W</flowPara></flowRoot>    <path
       id="dp_path088"
       d="M 131.43145,354.68262 C 130.70445,356.40662 127.40345,357.53862 121.54345,358.07762 C 121.17945,358.18562 120.81645,358.13262 120.45245,357.91662 L 116.97645,355.49062 C 116.23544,355.06062 116.11544,354.52162 116.59944,353.87462 C 117.21945,353.22862 117.89245,353.17462 118.62045,353.71362 L 120.45245,354.84462 L 120.45245,354.84462 L 121.73245,355.81462 C 126.12345,355.27662 128.56245,354.57462 129.04745,353.71362 L 129.04745,353.71362 C 129.42445,353.06662 129.96345,352.85062 130.70445,353.06662 C 131.55245,353.38962 131.79545,353.92862 131.43145,354.68262 z M 126.29945,349.18662 C 126.79845,350.04962 126.79845,350.91062 126.29945,351.77362 C 125.81445,352.63462 125.14045,352.90462 124.29145,352.58162 C 123.80745,352.36562 123.56445,351.98862 123.56445,351.44962 C 123.56445,351.34162 123.61845,351.15362 123.73945,350.88462 C 123.86045,350.61462 123.92845,350.42562 123.92845,350.31862 C 123.91445,350.31862 123.91445,350.31862 123.92845,350.31862 C 123.80745,350.10262 123.49645,349.94162 123.01245,349.83362 C 118.25645,350.37262 112.32844,351.18062 105.25644,352.25862 L 89.698138,356.46162 C 88.848738,356.78462 88.243438,356.56962 87.866138,355.81462 C 87.623438,355.06062 87.932738,354.52162 88.782138,354.19762 L 104.53044,349.99462 C 106.72444,349.34862 108.43644,349.18662 109.64844,349.50962 L 109.64844,349.50962 C 110.63144,349.61762 113.00344,349.29462 116.78845,348.54062 C 120.57445,347.78562 122.77045,347.46262 123.37545,347.57062 C 124.72345,347.67762 125.69245,348.21762 126.29945,349.18662 z M 120.62745,360.98862 C 121.12645,361.74162 121.00445,362.33462 120.26345,362.76562 C 117.34045,364.38262 114.83544,364.97462 112.76044,364.54462 C 111.66844,364.32862 110.87444,363.84262 110.37544,363.08962 C 109.89144,362.44262 110.07944,361.90462 110.92844,361.47262 C 111.66844,361.04162 112.27544,361.20262 112.76044,361.95762 L 112.58444,361.79662 C 113.43444,362.87362 115.50844,362.49662 118.79545,360.66462 C 119.53645,360.23362 120.14245,360.34162 120.62745,360.98862 z M 131.98345,355.32962 C 131.98345,357.16162 130.78445,358.94062 128.41445,360.66462 C 126.03045,362.38862 123.80745,363.25062 121.73245,363.25062 C 120.87045,363.25062 120.45245,362.87362 120.45245,362.11862 C 120.45245,361.36462 120.87045,360.98862 121.73245,360.98862 C 123.20045,360.98862 124.84445,360.31362 126.67645,358.96662 C 128.50845,357.62062 129.42445,356.40662 129.42445,355.32962 C 129.42445,354.25262 128.75145,353.38962 127.40345,352.74262 C 123.13245,354.25262 120.02245,355.27662 118.06845,355.81462 C 117.21945,356.02962 115.38744,356.30062 112.58444,356.62262 C 103.54644,357.59262 98.211438,358.45462 96.567438,359.20962 C 94.911438,359.96462 91.219438,361.79662 85.494138,364.70562 C 84.632738,365.13662 84.026142,364.97462 83.662142,364.22062 C 83.178142,363.57362 83.299442,363.03462 84.026142,362.60462 C 89.764738,359.69462 93.578138,357.83462 95.463438,357.02662 C 97.363438,356.21862 102.93944,355.27662 112.20844,354.19762 C 114.90244,353.87462 116.59944,353.60562 117.34045,353.38962 C 119.29445,352.95862 122.52745,351.93462 127.03945,350.31862 C 127.40345,350.21062 127.76745,350.21062 128.13145,350.31862 C 130.70445,351.50462 131.98345,353.17462 131.98345,355.32962 z M 183.22845,432.76262 C 182.74345,433.40962 182.13645,433.57062 181.39645,433.24662 C 179.20045,431.64462 176.69545,429.97362 173.89245,428.26262 C 172.42445,427.72462 170.65945,425.25862 168.58445,420.86662 L 167.85845,418.94062 C 167.25145,417.75462 164.43645,414.46862 159.43845,409.05362 C 154.42745,403.63762 150.97845,400.18862 149.09245,398.68062 C 147.20645,397.18462 144.91645,394.72062 142.23545,391.28462 C 141.61545,390.54262 140.74045,389.46562 139.58245,388.07862 C 138.42345,386.67762 136.92745,385.82862 135.09545,385.50562 C 133.26345,385.18162 131.74245,384.32062 130.51545,382.93262 C 129.29045,381.53062 128.13145,380.19762 127.03945,378.91762 C 121.30045,373.88062 117.70445,371.14562 116.23544,370.71362 L 116.42444,370.71362 C 115.56244,370.59262 115.14444,370.09362 115.14444,369.23262 C 115.26644,368.36962 115.68344,367.93862 116.42444,367.93862 C 118.01445,367.93862 122.21645,370.95662 129.04745,376.99062 C 130.03045,378.17762 131.06745,379.41662 132.15945,380.70962 C 133.26345,382.00262 134.47645,382.75762 135.82345,382.97262 C 137.65545,383.29662 138.98845,383.86162 139.85145,384.66962 C 140.69945,385.47862 141.56245,386.31362 142.41045,387.17662 C 144.00045,389.43862 146.80245,392.61762 150.83045,396.71362 C 152.90445,398.32962 156.44745,401.83262 161.44645,407.22062 C 166.69945,412.93262 169.62245,416.48962 170.22845,417.88962 L 171.14445,419.82962 C 172.00745,421.76962 173.21945,423.81762 174.80845,425.97262 C 176.51945,427.26562 179.14645,428.99062 182.67645,431.14562 C 183.41645,431.46962 183.59245,432.00862 183.22845,432.76262 z M 124.10345,381.84162 C 124.72345,382.48862 124.65545,383.02662 123.92845,383.45762 C 123.20045,383.99662 122.58045,383.94262 122.09545,383.29662 L 119.53645,380.54862 C 118.55245,379.90162 117.27245,379.03862 115.68344,377.96162 C 114.83544,377.42262 112.88244,375.96862 109.83644,373.59662 C 109.45944,373.38162 109.28444,373.11262 109.28444,372.78862 C 109.28444,372.24962 109.52744,371.87262 110.01244,371.65662 C 110.63144,371.44162 111.11644,371.49462 111.48044,371.81862 C 114.52444,374.18962 116.42444,375.64462 117.15245,376.18262 C 118.86345,377.15362 120.21045,377.96162 121.17945,378.60862 C 121.30045,378.71662 121.42245,378.82262 121.54345,378.93062 z M 95.922138,353.22862 C 96.406138,353.87462 96.284738,354.41362 95.558138,354.84462 C 94.830138,355.27662 94.183438,355.16862 93.631438,354.52162 C 93.092738,353.87462 90.559438,352.15062 86.034138,349.34862 L 84.754138,349.02562 C 84.632738,349.02562 81.642142,348.80962 75.795442,348.37862 C 74.932742,348.27062 74.502142,347.84062 74.502142,347.08562 L 74.502142,347.08562 C 74.636742,346.20962 75.122142,345.81862 75.970142,345.92662 L 85.131438,346.76162 C 85.252738,346.76162 85.306138,346.76162 85.306138,346.76162 L 86.950138,347.24662 C 87.447438,347.35462 88.970138,348.24462 91.530138,349.91462 C 94.088738,351.58462 95.558138,352.68962 95.922138,353.22862 z M 77.250142,350.31862 L 77.223442,350.15662 C 77.843442,350.80262 77.843442,351.39662 77.250142,351.93462 C 76.644742,352.47362 76.038142,352.47362 75.418142,351.93462 C 74.448742,351.07262 74.138142,349.78062 74.502142,348.05462 C 74.758142,347.30062 75.296742,346.97762 76.159442,347.08562 C 77.007442,347.30062 77.344742,347.78562 77.155442,348.54062 C 76.980742,349.29462 77.007442,349.88662 77.250142,350.31862 z M 93.914138,360.01762 C 93.415438,360.66462 92.810138,360.77262 92.082138,360.34162 C 90.978138,359.58662 89.024738,358.23862 86.222138,356.30062 C 84.632738,355.22162 82.558142,354.14462 79.998142,353.06662 L 78.530142,353.38962 C 78.287442,353.49762 78.044742,353.49762 77.802142,353.38962 C 74.259442,352.20462 71.700742,351.28862 70.110142,350.64162 C 69.383442,351.50462 69.019442,352.15062 69.019442,352.58162 C 69.019442,353.12062 69.194142,353.92862 69.571442,355.00662 C 69.935442,356.08462 70.110142,356.73062 70.110142,356.94662 C 70.110142,357.59262 69.747442,357.96962 69.019442,358.07762 C 68.156742,358.29362 67.618142,358.02462 67.375442,357.26962 C 66.392742,354.46662 66.150142,352.52862 66.635442,351.44962 C 66.878142,350.58862 67.496742,349.56462 68.467442,348.37862 C 69.072742,347.84062 69.692742,347.73262 70.299442,348.05462 C 71.026142,348.48662 73.720742,349.45662 78.355442,350.96562 L 79.823442,350.64162 C 80.066142,350.64162 80.308742,350.69662 80.551442,350.80262 C 83.474142,351.88162 85.912738,353.12062 87.866138,354.52162 C 89.455438,355.70662 91.340738,357.00062 93.536738,358.40162 C 94.278138,358.83262 94.399438,359.37062 93.914138,360.01762 z M 115.50844,390.57062 C 115.14444,391.21762 114.52444,391.43262 113.67644,391.21762 C 111.35944,390.24662 108.36844,387.49862 104.70444,382.97262 C 104.70444,382.86462 102.81844,381.19462 99.032738,377.96162 C 98.791438,377.63762 98.670138,377.31462 98.670138,376.99062 C 98.670138,376.23762 99.100738,375.86062 99.948738,375.86062 C 100.31274,375.86062 100.62344,375.96862 100.86444,376.18262 L 106.72444,381.35662 C 106.72444,381.35662 106.77944,381.40962 106.90044,381.51762 C 110.32244,385.82862 112.94844,388.30662 114.78044,388.95362 C 115.50844,389.27762 115.75144,389.81662 115.50844,390.57062 z M 122.28445,359.69462 C 122.28445,363.78962 121.49045,366.32162 119.90045,367.29262 C 118.31045,368.90862 115.80444,370.84862 112.39644,373.11262 C 110.20044,373.86562 106.29444,375.53662 100.67644,378.12262 L 93.172738,381.84162 L 88.970138,386.85262 C 86.895438,387.60662 84.578138,388.95362 82.006142,390.89362 C 81.642142,391.64862 81.035442,391.86462 80.187442,391.54062 C 79.688742,391.32462 79.446142,390.94862 79.446142,390.40862 C 79.446142,388.90062 81.951442,387.12162 86.950138,385.07362 L 91.340738,380.22462 C 91.475438,380.11662 91.596738,380.00962 91.718138,379.90162 L 99.222138,376.02162 C 102.75144,374.18962 106.84644,372.46562 111.48044,370.84862 C 113.07044,369.44662 115.31944,367.66962 118.25645,365.51362 C 119.10645,364.97462 119.53645,363.03462 119.53645,359.69462 C 119.29445,359.37062 118.74245,359.15462 117.87945,359.04862 L 112.20844,361.95762 C 112.08744,361.95762 111.96644,361.95762 111.84444,361.95762 C 110.01244,362.49662 106.84644,363.57362 102.33444,365.19062 C 101.47144,365.40562 100.07014,365.83762 98.116738,366.48462 C 95.436738,367.45362 92.378138,368.85462 88.970138,370.68662 C 87.380738,371.98062 85.494138,373.75862 83.286142,376.02162 C 82.436742,377.53062 79.755442,379.52462 75.243442,382.00262 C 73.895442,382.64962 72.010142,384.05062 69.558142,386.20562 C 69.315442,386.42162 69.019442,386.52962 68.655442,386.52962 C 67.794142,386.52962 67.362142,386.15262 67.362142,385.39762 C 67.362142,385.07362 67.496742,384.75062 67.739442,384.42662 C 70.178142,382.27262 72.184742,380.76262 73.775442,379.90162 C 77.802142,377.85362 80.187442,376.18262 80.914142,374.88962 C 82.504742,371.98062 85.427438,369.50162 89.698138,367.45362 C 89.940738,367.34562 93.792738,365.83762 101.22844,362.92662 C 103.78844,361.95762 107.02244,360.93362 110.92844,359.85662 C 111.05044,359.74862 113.12444,358.72462 117.15245,356.78462 C 117.39445,356.56962 117.63645,356.51462 117.87945,356.62262 C 120.81645,356.94662 122.28445,357.96962 122.28445,359.69462 z M 90.978138,368.74662 C 90.735438,369.50162 90.182138,369.77062 89.334138,369.55462 C 87.016738,369.01662 84.578138,367.72262 82.006142,365.67662 C 79.944742,364.05862 77.614142,362.60462 75.054142,361.31062 L 73.586142,361.31062 C 73.343442,361.31062 73.100742,361.25762 72.858142,361.14962 L 64.439442,356.78462 C 63.711442,356.35362 63.590142,355.81462 64.075442,355.16862 C 64.439442,354.52162 65.046142,354.41362 65.907442,354.84462 L 73.963442,358.88562 L 75.418142,358.88562 C 75.660742,358.88562 75.943442,358.96662 76.239442,359.12862 C 76.550142,359.29062 79.567442,361.25762 85.306138,365.02962 C 87.016738,366.10662 88.606138,366.86162 90.062138,367.29262 C 90.923438,367.50862 91.219438,367.99262 90.978138,368.74662 z M 79.271442,377.15362 C 78.907442,377.90662 78.287442,378.06962 77.439442,377.63762 C 76.576742,377.31462 75.607442,376.50662 74.502142,375.21362 C 73.411442,373.92062 72.252742,373.05762 71.026142,372.62662 C 68.951442,372.08862 66.756742,369.98662 64.439442,366.32162 C 63.468742,364.81362 62.850142,364.00562 62.607442,363.89762 C 61.758142,363.25062 61.327442,362.49662 61.327442,361.63462 C 61.327442,360.66462 61.879442,359.26262 62.984742,357.43062 L 63.523442,356.46162 C 63.887442,355.70662 64.506142,355.54562 65.355442,355.97662 C 66.082142,356.30062 66.271442,356.78462 65.907442,357.43062 L 65.355442,358.40162 C 64.128742,360.44862 63.711442,361.63462 64.075442,361.95762 C 64.682142,362.28062 65.503442,363.25062 66.540742,364.86662 C 67.578142,366.48462 68.399442,367.61462 69.019442,368.26162 C 69.988742,369.44662 70.904742,370.14862 71.767442,370.36462 C 73.464742,370.90262 74.906142,371.84562 76.064742,373.19262 C 77.223442,374.54062 78.139442,375.37462 78.812742,375.69762 C 79.472742,376.02162 79.635442,376.50662 79.271442,377.15362 z M 119.34745,415.94962 C 118.74245,416.59662 118.06845,416.70462 117.34045,416.27362 C 116.23544,415.51862 113.36644,414.22562 108.73244,412.39362 C 107.88344,412.07062 107.64244,411.53262 108.00444,410.77762 C 108.36844,410.13062 108.97544,409.96962 109.83644,410.29262 C 114.71444,412.12462 117.75845,413.47062 118.98445,414.33362 C 119.71145,414.76462 119.83245,415.30462 119.34745,415.94962 z M 103.42444,403.82562 C 103.66744,404.58062 103.42444,405.06562 102.69844,405.28162 C 101.83544,405.60462 101.22844,405.38862 100.86444,404.63462 C 99.518138,401.50962 98.266138,399.75762 97.107438,399.38062 C 95.948738,399.00262 94.830138,397.95262 93.726138,396.22862 C 92.998138,394.93462 92.203438,393.64162 91.340738,392.34862 C 90.735438,391.70162 89.819438,390.62462 88.606138,389.11462 C 86.774138,396.98262 85.184738,401.50962 83.838142,402.69462 C 83.352742,403.23362 82.746142,403.23362 82.006142,402.69462 C 81.386142,402.15662 81.372742,401.61662 81.992742,401.07762 L 82.006142,401.07762 C 82.504742,400.43062 83.379442,397.98062 84.672738,393.72262 C 85.952738,389.46562 86.586138,386.90662 86.586138,386.04462 C 86.586138,385.50562 86.895438,385.12862 87.502138,384.91262 C 88.108738,384.80462 88.606138,384.96662 88.970138,385.39762 C 90.062138,386.69062 91.530138,388.52262 93.362138,390.89362 C 93.726138,391.32462 94.278138,392.13362 95.004738,393.31862 C 95.746138,394.50462 96.783438,395.79762 98.116738,397.19862 C 100.07014,397.84462 101.83544,400.05362 103.42444,403.82562 z M 165.11045,459.75862 C 165.71545,460.40562 165.66245,460.94462 164.92045,461.37462 C 164.31545,461.91362 163.70845,461.91362 163.08845,461.37462 C 160.40845,458.57362 157.24245,456.25662 153.57845,454.42462 C 151.50345,452.70062 148.75545,450.76062 145.34745,448.60462 C 142.41045,447.63462 135.63445,445.96462 125.01945,443.59362 C 122.33845,442.94662 119.59045,440.68262 116.78845,436.80462 C 113.74344,433.89362 111.48044,432.33062 110.01244,432.11662 C 107.21044,431.79262 104.94744,430.44562 103.25044,428.07462 C 102.75144,427.42862 100.19144,425.59662 95.558138,422.57762 C 95.194138,422.25462 95.004738,421.93062 95.004738,421.60862 C 95.004738,421.06962 95.247438,420.69262 95.746138,420.47662 C 96.231438,420.26162 96.716738,420.31462 97.200738,420.63762 C 102.09144,423.87062 104.82644,425.91862 105.44644,426.78162 C 106.77944,428.50562 108.43644,429.52962 110.37544,429.85262 C 113.07044,430.28462 115.87244,432.16962 118.79545,435.51062 C 121.36845,438.95862 123.68645,440.89862 125.76045,441.32962 C 136.49645,443.70162 143.39445,445.42562 146.43845,446.50262 C 147.28745,446.82662 148.70245,447.79662 150.65545,449.41262 C 152.59545,451.02962 154.06345,452.05362 155.04645,452.48462 C 158.81845,454.42462 162.18645,456.84862 165.11045,459.75862 z M 97.564738,406.73662 C 97.200738,407.38262 96.595438,407.54462 95.732738,407.22062 L 90.978138,405.28162 C 89.764738,404.84962 89.024738,404.63462 88.782138,404.63462 C 83.299442,403.01762 79.419442,403.12562 77.155442,404.95762 C 74.906142,406.78962 73.411442,408.56862 72.683442,410.29262 L 72.683442,410.45362 C 72.548742,410.88562 72.495442,411.26162 72.495442,411.58562 C 72.482142,411.69362 72.482142,411.80162 72.495442,411.90862 C 75.296742,411.04662 77.439442,409.48462 78.907442,407.22062 C 79.028742,407.00562 79.203442,406.84462 79.446142,406.73662 C 80.914142,406.19762 82.194142,406.25062 83.299442,406.89762 C 84.026142,407.43662 84.147442,407.97462 83.662142,408.51362 C 83.178142,409.16062 82.558142,409.26862 81.830142,408.83762 C 81.587442,408.72962 81.278142,408.72962 80.914142,408.83762 C 78.839442,411.74662 76.091442,413.63362 72.683442,414.49462 C 71.579442,414.71062 70.730142,414.22562 70.110142,413.04062 C 69.612742,412.17862 69.612742,411.10062 70.110142,409.80662 L 70.299442,409.48462 C 72.374142,404.09462 76.402142,401.40162 82.383442,401.40162 C 85.184738,401.40162 87.623438,401.72462 89.698138,402.37062 L 91.894138,403.17862 L 92.082138,403.17862 L 96.838138,405.11862 C 97.686138,405.44262 97.942138,405.98162 97.564738,406.73662 z M 74.502142,372.81462 L 70.110142,376.69462 C 69.019442,377.01862 67.524742,377.63762 65.624742,378.55362 C 63.738142,379.46962 62.243442,381.27462 61.152742,383.96962 C 59.683442,387.40462 58.162142,389.61362 56.571442,390.58462 L 56.208742,390.74562 C 53.770142,392.36162 51.938142,394.03262 50.711442,395.75662 L 48.152742,399.47462 C 44.731442,404.32462 40.891442,410.36062 36.620742,417.56662 C 35.894142,419.39862 34.062142,420.85362 31.124742,421.93062 C 27.096742,423.54862 23.446142,425.81062 20.146142,428.72162 C 19.539442,429.26062 18.934142,429.26062 18.314142,428.72162 C 18.071442,428.50562 17.950142,428.23662 17.950142,427.91262 C 17.950142,427.58962 18.071442,427.26562 18.314142,426.94262 C 21.856742,423.81762 25.763442,421.44662 30.034142,419.82962 C 32.230142,418.96862 33.563442,417.99762 34.062142,416.92062 C 34.788742,414.65762 38.695442,408.42062 45.768742,398.18162 L 48.327442,394.62562 C 49.795442,392.57762 51.938142,390.69262 54.739442,388.96662 L 54.928742,388.64462 C 56.140742,387.99762 57.124742,386.70462 57.851442,384.76462 C 59.078142,382.19062 59.804742,380.73662 60.047442,380.41362 C 61.152742,378.68862 62.431442,377.39662 63.887442,376.53362 C 64.870142,375.99462 66.392742,375.45662 68.467442,374.91662 L 72.683442,371.19862 C 72.926142,370.87462 73.222142,370.71362 73.586142,370.71362 C 73.963442,370.71362 74.259442,370.87462 74.502142,371.19862 C 75.108742,371.73762 75.108742,372.27662 74.502142,372.81462 z M 116.06044,407.38262 C 116.04744,407.49062 116.04744,407.54462 116.06044,407.54462 C 115.93944,407.86662 115.75144,408.13762 115.50844,408.35262 L 104.89244,415.14162 L 104.89244,415.62662 C 104.89244,416.16562 104.65144,416.54262 104.16644,416.75862 C 103.06044,417.18962 101.29644,418.48262 98.844738,420.63762 C 97.390138,422.36262 94.331438,424.73362 89.698138,427.75062 L 89.146138,428.07462 C 87.690138,428.93662 84.268742,430.76862 78.907442,433.57062 L 76.523442,434.70162 C 75.296742,435.67262 73.343442,437.01862 70.663442,438.74262 C 69.072742,439.49762 63.954142,441.11462 55.292742,443.59362 L 52.732742,444.40162 C 51.627442,444.61762 48.799442,446.36862 44.219442,449.65462 C 39.638142,452.94162 36.675442,455.12462 35.340742,456.20162 C 34.735442,456.84862 34.115442,456.84862 33.508742,456.20162 C 33.146142,455.98662 32.956742,455.71762 32.956742,455.39362 C 32.956742,455.07062 33.146142,454.80162 33.508742,454.58562 C 34.735442,453.40062 37.591442,451.24462 42.116742,448.11862 C 47.236742,444.45462 50.470142,442.46162 51.816742,442.13862 L 54.564742,441.32962 C 58.700742,440.14462 63.644742,438.58162 69.383442,436.64162 C 70.608742,435.67262 72.562142,434.37862 75.243442,432.76262 L 77.439442,431.46962 C 80.119442,430.17662 83.474142,428.39762 87.502138,426.13462 L 88.054138,425.81062 C 91.099438,423.11762 95.800738,419.50662 102.14444,414.98062 L 102.14444,414.49462 C 102.14444,414.06462 102.33444,413.74162 102.69844,413.52562 L 110.37544,408.51362 L 110.37544,408.51362 L 112.58444,407.22062 C 111.72344,406.35862 110.87444,405.71262 110.01244,405.28162 C 109.16344,404.84962 107.33144,404.79662 104.53044,405.11862 C 101.47144,405.55062 98.979438,406.30462 97.026138,407.38262 C 95.072738,408.46062 93.172738,409.53762 91.340738,410.61662 C 88.782138,412.12462 86.895438,412.87862 85.670138,412.87862 C 85.063438,412.87862 84.390142,412.82462 83.662142,412.71762 C 83.178142,412.71762 82.679442,412.93262 82.194142,413.36462 C 80.604742,414.65762 77.250142,415.03362 72.131442,414.49462 C 71.268742,414.38662 70.904742,413.95662 71.026142,413.20162 C 71.026142,412.34062 71.524742,411.96262 72.495442,412.07062 C 76.764742,412.60962 79.419442,412.42062 80.456742,411.50462 C 81.494142,410.58862 82.679442,410.23862 84.026142,410.45362 C 84.632738,410.45362 85.184738,410.45362 85.670138,410.45362 C 86.531438,410.45362 88.364738,409.59262 91.166138,407.86662 C 92.135438,407.22062 93.671438,406.30462 95.746138,405.11862 C 99.275438,403.39462 103.25044,402.53262 107.64244,402.53262 C 110.56444,402.53262 113.24644,403.88062 115.68344,406.57462 C 115.93944,406.78962 116.06044,407.05862 116.06044,407.38262 z"
       inkscape:connector-curvature="0"
       style="fill:#000000;stroke:#000000;stroke-width:2.66667008" />
  </g>
</svg>
