<?xml version="1.0" encoding="UTF-8" standalone="no"?>
<!-- Created with Inkscape (http://www.inkscape.org/) -->

<svg
   xmlns:dc="http://purl.org/dc/elements/1.1/"
   xmlns:cc="http://creativecommons.org/ns#"
   xmlns:rdf="http://www.w3.org/1999/02/22-rdf-syntax-ns#"
   xmlns:svg="http://www.w3.org/2000/svg"
   xmlns="http://www.w3.org/2000/svg"
   xmlns:sodipodi="http://sodipodi.sourceforge.net/DTD/sodipodi-0.dtd"
   xmlns:inkscape="http://www.inkscape.org/namespaces/inkscape"
   width="240"
   height="160"
   id="svg3249"
   version="1.1"
   inkscape:version="0.48.0 r9654"
   sodipodi:docname="BSL letter W.svg">
  <defs
     id="defs3251" />
  <sodipodi:namedview
     id="base"
     pagecolor="#ffffff"
     bordercolor="#666666"
     borderopacity="1.0"
     inkscape:pageopacity="0.0"
     inkscape:pageshadow="2"
     inkscape:zoom="0.77472527"
     inkscape:cx="105.7305"
     inkscape:cy="240"
     inkscape:current-layer="layer1"
     inkscape:document-units="px"
     showgrid="false"
     inkscape:window-width="1024"
     inkscape:window-height="745"
     inkscape:window-x="-8"
     inkscape:window-y="-8"
     inkscape:window-maximized="1" />
  <metadata
     id="metadata3254">
    <rdf:RDF>
      <cc:Work
         rdf:about="">
        <dc:format>image/svg+xml</dc:format>
        <dc:type
           rdf:resource="http://purl.org/dc/dcmitype/StillImage" />
        <dc:title></dc:title>
      </cc:Work>
    </rdf:RDF>
  </metadata>
  <g
     id="layer1"
     inkscape:label="Layer 1"
     inkscape:groupmode="layer"
     transform="translate(0,-320)">
    <text
       xml:space="preserve"
       style="font-size:40px;font-style:normal;font-weight:normal;line-height:125%;letter-spacing:0px;word-spacing:0px;fill:#000000;fill-opacity:1;stroke:none;font-family:Sans"
       x="172.96454"
       y="23.177303"
       id="text3264"
       sodipodi:linespacing="125%"
       transform="translate(0,320)"><tspan
         sodipodi:role="line"
         id="tspan3266"
         x="172.96454"
         y="23.177303" /></text>
    <text
       xml:space="preserve"
       style="font-size:64px;font-style:normal;font-weight:bold;line-height:125%;letter-spacing:0px;word-spacing:0px;fill:#000000;fill-opacity:1;stroke:none;font-family:Sans;-inkscape-font-specification:Sans Bold"
       x="179.41844"
       y="55.446808"
       id="text3268"
       sodipodi:linespacing="125%"
       transform="translate(0,320)"><tspan
         sodipodi:role="line"
         id="tspan3270"
         x="179.41844"
         y="55.446808" /></text>
    <flowRoot
       xml:space="preserve"
       id="flowRoot3272"
       style="font-size:64px;font-style:normal;font-weight:bold;line-height:125%;letter-spacing:0px;word-spacing:0px;fill:#404040;fill-opacity:1;stroke:none;font-family:Sans;-inkscape-font-specification:Sans Bold"
       transform="translate(16.780142,313.5461)"><flowRegion
         id="flowRegion3274"><rect
           id="rect3276"
           width="73.574471"
           height="67.120567"
           x="160.05673"
           y="15.432623"
           style="fill:#404040;fill-opacity:1" /></flowRegion><flowPara
         id="flowPara3278">X</flowPara></flowRoot>    <path
       id="dp_path089"
       d="M 168.64573,414.49423 C 167.17773,413.41523 164.18673,410.07523 159.67373,404.47123 C 157.35773,401.88423 154.17773,397.89623 150.14973,392.50823 C 148.43873,390.03023 147.37473,388.73623 146.94373,388.62823 C 146.52573,388.52023 145.39473,387.82023 143.56273,386.52723 C 141.24573,384.91123 139.60173,383.88723 138.61873,383.45523 C 136.90773,382.70223 134.41473,382.43223 131.11473,382.64723 C 130.99373,382.64723 130.93973,382.64723 130.93973,382.64723 C 129.95573,381.57023 128.36673,380.11523 126.17073,378.28323 C 123.85373,377.09823 121.23973,374.29523 118.30373,369.87623 C 118.18273,369.66223 117.93973,369.33823 117.57573,368.90723 C 118.78973,367.39823 119.77173,366.37423 120.49973,365.83523 C 122.21073,364.65023 123.05873,362.87123 123.05873,360.50023 C 123.05873,359.63923 122.45373,358.02223 121.22673,355.65123 C 120.98373,355.11223 120.49973,354.89623 119.77173,355.00423 L 113.72373,356.45923 C 113.60273,356.56723 113.48173,356.62023 113.35973,356.62023 L 107.51373,359.85423 C 107.13573,359.63923 106.59773,359.20723 105.85573,358.57423 L 102.74373,355.82623 C 100.06373,353.57623 98.177729,352.51223 97.073729,352.62023 C 96.587729,352.62023 95.605729,352.08223 94.149729,351.00323 L 93.409729,350.51923 C 90.485729,348.80723 88.357729,348.26823 87.010729,348.91523 C 86.525729,349.23923 86.147729,349.67023 85.905729,350.20823 C 84.073729,352.14823 83.170729,353.44223 83.170729,354.08823 C 83.170729,354.62723 83.466729,355.32823 84.086729,356.19023 C 84.935729,357.36223 85.419729,358.11623 85.541729,358.43923 C 86.403729,360.37923 87.737729,362.10423 89.569729,363.61223 L 93.961729,367.16823 C 90.418729,368.46223 87.562729,369.59423 85.366729,370.56323 C 81.459729,372.28823 78.711729,374.12023 77.122729,376.04723 C 75.169729,378.41823 71.207729,381.54323 65.226729,385.42323 C 63.515729,386.50023 61.441729,387.03923 59.003729,387.03923 C 57.655729,387.03923 55.770729,387.84723 53.331729,389.46423 C 52.725729,389.89523 47.659729,394.35423 38.135729,402.86723 C 33.381729,407.28623 28.127728,412.01523 22.402728,417.08023 C 21.782728,417.51123 21.727728,417.99623 22.213728,418.53523 C 22.698728,419.07423 23.250728,419.12723 23.857728,418.69623 C 24.839728,417.94223 30.201728,413.20023 39.967729,404.47123 C 44.602729,400.16023 49.546729,395.74223 54.786729,391.21523 C 56.739729,389.92223 58.154729,389.27523 59.003729,389.27523 C 61.926729,389.27523 64.499729,388.57523 66.695729,387.17423 C 72.918729,383.18623 77.067729,379.89923 79.142729,377.31223 C 80.475729,375.69623 82.914729,374.13423 86.457729,372.62423 C 88.895729,371.43923 92.074729,370.14623 95.981729,368.74623 C 96.587729,369.06823 97.194729,369.39123 97.799729,369.71523 C 98.419729,370.03823 100.13073,372.08623 102.93373,375.85823 L 103.48573,376.34323 C 98.231729,379.68323 94.823729,381.51623 93.233729,381.83923 C 91.279729,382.37823 89.447729,383.51023 87.737729,385.23423 C 84.450729,388.79023 82.066729,391.59223 80.597729,393.64023 C 80.234729,393.64023 79.923729,393.74723 79.681729,393.96323 L 74.010729,400.59123 C 73.161729,401.66823 72.730729,403.93223 72.730729,407.38023 C 72.730729,408.24323 72.851729,408.89023 73.094729,409.32023 L 73.282729,409.64323 C 75.842729,413.20023 77.727729,414.97823 78.954729,414.97823 C 79.681729,414.97823 81.513729,415.30223 84.450729,415.94823 C 85.177729,416.16423 85.662729,415.94823 85.905729,415.30223 L 86.646729,413.03923 L 87.185729,411.26023 C 87.185729,411.90723 87.494729,412.28423 88.101729,412.39223 C 89.569729,412.60723 90.553729,412.71523 91.037729,412.71523 C 91.279729,414.54723 91.401729,416.27123 91.401729,417.88823 C 91.401729,419.72023 91.213729,420.95923 90.849729,421.60623 C 90.485729,422.25223 87.737729,424.73123 82.618729,429.04223 C 77.983729,432.92223 74.750729,435.50823 72.918729,436.80223 C 72.057729,437.44823 67.974729,438.60723 60.646729,440.27823 C 53.331729,441.94723 48.994729,442.78323 47.659729,442.78323 C 45.706729,442.78323 43.565729,443.05223 41.247729,443.59123 C 41.126729,443.59123 41.073729,443.64623 41.073729,443.75223 C 34.714729,446.12423 30.147728,448.22623 27.331728,450.05823 C 26.969728,450.27223 26.793728,450.54223 26.793728,450.86623 C 26.793728,451.29623 27.035728,451.62023 27.521728,451.83523 C 27.885728,452.05123 28.315728,452.05123 28.801728,451.83523 C 31.238729,450.21923 35.577729,448.17123 41.799729,445.69223 C 43.995729,445.26223 45.922729,445.04623 47.566729,445.04623 C 49.209729,445.04623 53.817729,444.15623 61.387729,442.37923 C 68.945729,440.60023 73.282729,439.33423 74.374729,438.58023 C 76.085729,437.39523 79.197729,434.91523 83.709729,431.14423 C 89.326729,426.40223 92.411729,423.54623 92.950729,422.57623 C 93.502729,421.60623 93.786729,419.99023 93.786729,417.72723 C 93.786729,416.00223 93.651729,414.06223 93.409729,411.90723 C 93.395729,411.79923 93.395729,411.69123 93.409729,411.58323 C 93.409729,411.15223 93.166729,410.77523 92.681729,410.45223 C 92.317729,410.34423 91.954729,410.39823 91.577729,410.61423 C 91.091729,410.50623 90.001729,410.34423 88.289729,410.12823 L 88.653729,409.15923 C 90.849729,405.27923 91.954729,403.01623 91.954729,402.37023 L 92.129729,401.56023 C 92.250729,400.59123 92.317729,399.99823 92.317729,399.78323 C 92.317729,398.70623 91.913729,397.81623 91.118729,397.11523 C 90.337729,396.41523 87.441729,395.68723 82.429729,394.93423 C 83.898729,392.99423 86.335729,390.24623 89.758729,386.68823 C 90.363729,385.93423 91.765729,385.01823 93.961729,383.94023 C 95.793729,383.51023 99.390729,381.62323 104.76573,378.28323 C 108.53773,383.45523 110.79973,386.36623 111.52773,387.01223 C 112.26773,388.52023 113.18373,390.35223 114.27573,392.50823 L 107.68773,395.89023 C 107.08273,396.22623 106.21973,397.25023 105.12973,398.96023 C 104.02373,400.68623 103.48573,401.81623 103.48573,402.35623 L 103.48573,403.32623 C 103.36373,405.69623 103.41873,407.36723 103.65973,408.33623 C 101.22273,408.33623 99.631729,409.57623 98.905729,412.05523 C 98.541729,413.77923 98.971729,416.15023 100.18573,419.16823 C 101.65373,422.72423 103.60673,425.15023 106.04573,426.44223 L 108.24173,427.73523 C 120.08173,434.20223 127.58573,437.53023 130.75073,437.74423 L 133.86273,437.90623 C 137.28573,438.12223 141.43373,438.49923 146.31073,439.03823 C 148.02173,439.57623 154.66273,444.42723 166.26173,453.58723 C 166.86773,454.01823 167.41973,453.96423 167.90573,453.42623 C 168.51073,452.88623 168.51073,452.40223 167.90573,451.97023 C 156.07773,442.48723 149.11173,437.48823 147.03773,436.95023 C 145.46173,436.62723 141.12373,436.19523 134.05173,435.65623 L 130.93973,435.49523 C 128.24573,435.27923 121.10573,432.04623 109.51973,425.79523 L 107.32573,424.66423 C 105.37173,423.58723 103.78173,421.48423 102.56973,418.37223 C 101.46573,415.78723 101.03373,413.84723 101.28973,412.55423 C 101.65373,411.58323 102.13873,410.93623 102.74373,410.61423 C 103.48573,410.39823 104.57573,410.56023 106.04573,411.09923 C 106.89373,411.53023 108.24173,412.17623 110.07373,413.03923 L 110.98973,413.52323 C 114.27573,415.14023 116.22973,415.94823 116.83573,415.94823 C 118.06173,415.94823 120.06773,414.22423 122.88373,410.77523 C 123.00573,410.56023 123.05873,410.34423 123.05873,410.12823 L 123.05873,407.54223 C 123.05873,406.46423 122.23773,403.87823 120.59373,399.78323 C 118.95073,395.68723 117.75173,393.15523 117.02373,392.18423 C 116.29573,390.35223 115.07073,388.14323 113.35973,385.55823 C 112.63173,384.91123 110.12673,381.62323 105.85573,375.69623 L 104.93973,374.72623 C 102.98673,372.03223 101.22273,369.98423 99.631729,368.58323 C 97.558729,366.96723 95.550729,365.40423 93.597729,363.89523 L 91.213729,361.95523 C 89.879729,360.77023 88.801729,359.42323 88.019729,357.91423 C 87.225729,356.40623 86.578729,355.32823 86.094729,354.68223 C 85.851729,354.46623 85.730729,354.25023 85.730729,354.03523 C 85.730729,353.71123 86.147729,353.17223 87.010729,352.41823 C 87.858729,351.66323 88.289729,351.12423 88.289729,350.80223 C 89.017729,350.69423 90.297729,351.17923 92.129729,352.25623 C 92.129729,352.25623 92.317729,352.36423 92.681729,352.57923 C 94.513729,354.08823 96.035729,354.78823 97.261729,354.68223 C 97.503729,354.68223 98.715729,355.59823 100.91173,357.43023 L 104.21373,360.17823 C 111.66273,366.53623 115.67773,370.14623 116.29573,371.00823 C 119.46273,375.75023 122.33173,378.82223 124.89073,380.22323 C 126.35973,381.73123 128.62273,383.77923 131.66673,386.36623 C 133.74173,387.44323 136.36773,389.27523 139.53473,391.86223 C 139.89873,392.50823 140.39573,392.67023 141.00273,392.34723 C 141.73073,392.02323 141.91873,391.53823 141.55473,390.89223 C 140.93573,389.59923 139.72273,388.46723 137.89073,387.49623 C 135.08973,385.88023 133.55373,384.96423 133.31073,384.74823 C 135.26373,384.74823 136.66573,384.93823 137.52673,385.31523 C 138.37573,385.69223 139.84373,386.60823 141.91873,388.06323 C 143.99373,389.51823 145.20573,390.35223 145.58273,390.56823 C 145.94673,390.78423 146.74173,391.80823 147.95373,393.64023 C 148.31773,394.17923 151.55073,398.22023 157.65373,405.76423 C 162.30173,411.58323 165.46673,415.03223 167.17773,416.11023 C 167.78373,416.54023 168.33573,416.48723 168.82173,415.94823 C 169.30573,415.41023 169.25173,414.92423 168.64573,414.49423 z M 89.569729,398.81223 C 89.690729,399.02823 89.758729,399.35123 89.758729,399.78323 C 89.745729,399.89123 89.745729,400.37523 89.758729,401.23823 L 89.569729,402.37023 C 89.447729,402.80023 88.410729,404.74023 86.457729,408.18823 C 85.231729,410.56023 84.503729,411.96023 84.261729,412.39223 L 83.898729,413.52323 C 81.581729,412.98423 80.058729,412.66223 79.318729,412.55423 C 78.590729,412.44623 77.243729,411.04423 75.290729,408.35123 L 75.114729,408.18823 C 75.101729,407.97423 75.101729,407.75823 75.114729,407.54223 C 75.114729,406.24823 75.411729,404.36323 76.030729,401.88423 L 80.234729,396.87223 C 80.354729,396.87223 80.422729,396.87223 80.422729,396.87223 C 85.662729,397.51923 88.721729,398.16623 89.569729,398.81223 z M 120.49973,409.80623 C 118.78973,411.96023 117.57573,413.30823 116.84973,413.84723 C 116.22973,413.63123 114.39773,412.71523 111.35173,411.09923 C 110.24773,410.66723 108.79373,409.96723 106.96173,408.99823 C 106.96173,408.99823 106.89373,408.99823 106.77173,408.99823 C 106.65073,408.78223 106.52973,408.62023 106.40773,408.51223 C 105.92373,408.08023 105.73473,406.41123 105.85573,403.50023 L 105.85573,402.37023 C 105.85573,401.72323 106.96173,400.21423 109.15773,397.84323 L 115.74373,394.28723 C 117.21173,396.87223 118.78973,401.34623 120.49973,407.70423 z M 109.33173,361.47123 L 114.46373,358.56023 C 114.58573,358.56023 116.22973,358.18323 119.40773,357.43023 C 120.13573,359.04623 120.49973,360.07023 120.49973,360.50023 C 120.49973,362.22423 120.04173,363.41123 119.12573,364.05823 C 118.20973,364.70323 117.14573,365.78223 115.93373,367.29023 C 114.34273,365.78223 112.14773,363.84223 109.33173,361.47123 z"
       inkscape:connector-curvature="0"
       style="fill:#000000;stroke:#000000;stroke-width:2.66667008" />
  </g>
</svg>
