<?xml version="1.0" encoding="UTF-8" standalone="no"?>
<!-- Created with Inkscape (http://www.inkscape.org/) -->

<svg
   xmlns:dc="http://purl.org/dc/elements/1.1/"
   xmlns:cc="http://creativecommons.org/ns#"
   xmlns:rdf="http://www.w3.org/1999/02/22-rdf-syntax-ns#"
   xmlns:svg="http://www.w3.org/2000/svg"
   xmlns="http://www.w3.org/2000/svg"
   xmlns:sodipodi="http://sodipodi.sourceforge.net/DTD/sodipodi-0.dtd"
   xmlns:inkscape="http://www.inkscape.org/namespaces/inkscape"
   width="240"
   height="160"
   id="svg3249"
   version="1.1"
   inkscape:version="0.48.0 r9654"
   sodipodi:docname="BSL letter Y.svg">
  <defs
     id="defs3251" />
  <sodipodi:namedview
     id="base"
     pagecolor="#ffffff"
     bordercolor="#666666"
     borderopacity="1.0"
     inkscape:pageopacity="0.0"
     inkscape:pageshadow="2"
     inkscape:zoom="0.77472527"
     inkscape:cx="105.7305"
     inkscape:cy="240"
     inkscape:current-layer="layer1"
     inkscape:document-units="px"
     showgrid="false"
     inkscape:window-width="1024"
     inkscape:window-height="745"
     inkscape:window-x="-8"
     inkscape:window-y="-8"
     inkscape:window-maximized="1" />
  <metadata
     id="metadata3254">
    <rdf:RDF>
      <cc:Work
         rdf:about="">
        <dc:format>image/svg+xml</dc:format>
        <dc:type
           rdf:resource="http://purl.org/dc/dcmitype/StillImage" />
        <dc:title></dc:title>
      </cc:Work>
    </rdf:RDF>
  </metadata>
  <g
     id="layer1"
     inkscape:label="Layer 1"
     inkscape:groupmode="layer"
     transform="translate(0,-320)">
    <text
       xml:space="preserve"
       style="font-size:40px;font-style:normal;font-weight:normal;line-height:125%;letter-spacing:0px;word-spacing:0px;fill:#000000;fill-opacity:1;stroke:none;font-family:Sans"
       x="172.96454"
       y="23.177303"
       id="text3264"
       sodipodi:linespacing="125%"
       transform="translate(0,320)"><tspan
         sodipodi:role="line"
         id="tspan3266"
         x="172.96454"
         y="23.177303" /></text>
    <text
       xml:space="preserve"
       style="font-size:64px;font-style:normal;font-weight:bold;line-height:125%;letter-spacing:0px;word-spacing:0px;fill:#000000;fill-opacity:1;stroke:none;font-family:Sans;-inkscape-font-specification:Sans Bold"
       x="179.41844"
       y="55.446808"
       id="text3268"
       sodipodi:linespacing="125%"
       transform="translate(0,320)"><tspan
         sodipodi:role="line"
         id="tspan3270"
         x="179.41844"
         y="55.446808" /></text>
    <flowRoot
       xml:space="preserve"
       id="flowRoot3272"
       style="font-size:64px;font-style:normal;font-weight:bold;line-height:125%;letter-spacing:0px;word-spacing:0px;fill:#404040;fill-opacity:1;stroke:none;font-family:Sans;-inkscape-font-specification:Sans Bold"
       transform="translate(16.780142,313.5461)"><flowRegion
         id="flowRegion3274"><rect
           id="rect3276"
           width="73.574471"
           height="67.120567"
           x="160.05673"
           y="15.432623"
           style="fill:#404040;fill-opacity:1" /></flowRegion><flowPara
         id="flowPara3278">Z</flowPara><flowPara
         id="flowPara4551" /></flowRoot>    <path
       id="dp_path091"
       d="M 162.30563,394.7019 C 161.82163,395.34791 161.26963,395.4019 160.66263,394.8629 C 158.70963,393.5699 155.83963,391.6299 152.05463,389.0439 C 150.72163,388.18191 148.51163,387.26591 145.46663,386.29491 C 140.83363,384.7869 138.51563,384.0319 138.51563,384.0319 L 133.57163,382.0919 C 131.49763,381.33791 128.93763,380.3149 125.87963,379.0219 L 125.34163,378.8589 C 121.43463,377.1349 118.86163,376.4349 117.64963,376.7579 C 116.66563,377.2959 114.96763,377.8899 112.51563,378.5359 C 107.63963,379.9379 104.35363,380.7459 102.64163,380.9599 C 98.85563,381.3919 94.518625,382.1999 89.642625,383.38591 L 87.634625,383.8709 C 85.182625,384.40991 83.634625,384.5709 82.959625,384.3559 C 82.286625,384.1399 80.063625,384.3559 76.278625,385.0029 C 74.082625,385.43391 69.690625,385.5949 63.103625,385.48691 L 63.103625,385.48691 C 62.982625,386.24191 63.035625,387.21091 63.291625,388.3979 C 65.730625,390.7679 67.683625,391.8459 69.138625,391.6299 C 73.045625,391.30691 77.558625,391.46791 82.690625,392.1149 C 85.007625,392.5459 86.961625,392.6539 88.550625,392.43891 C 90.369625,392.22291 92.390625,392.22291 94.586625,392.43891 L 95.677625,392.43891 C 96.175625,392.43891 96.539625,392.59991 96.781625,392.9229 L 97.509625,392.59991 C 98.73463,391.9539 101.72563,390.8219 106.48163,389.20591 L 108.31363,388.7199 C 111.35763,388.18191 115.57463,387.31891 120.93563,386.13391 C 120.93563,385.70291 121.12363,385.37891 121.48763,385.1639 C 122.71463,384.6259 123.31963,385.0029 123.31963,386.29491 C 123.31963,387.26591 122.59363,387.9119 121.12363,388.23491 C 118.44363,388.55891 114.41563,389.36691 109.04163,390.65991 L 107.20763,391.14591 C 105.01363,391.8989 102.14363,392.9779 98.614625,394.3779 C 97.387625,395.2399 95.434625,396.5339 92.754625,398.2579 C 92.874625,398.4739 92.942625,398.6349 92.942625,398.7429 C 92.942625,398.9589 92.821625,399.1739 92.565625,399.3899 L 88.726625,402.7839 C 88.605625,402.8919 88.550625,402.9999 88.550625,403.1079 C 88.550625,403.2149 88.605625,403.3229 88.726625,403.4309 L 89.466625,404.2389 C 90.315625,405.2099 91.406625,405.3709 92.754625,404.7239 C 95.313625,404.2939 98.493625,403.3229 102.27863,401.8149 C 103.97563,400.0899 106.11763,399.1739 108.67763,399.0659 C 109.04163,399.0659 109.28263,399.1199 109.40363,399.2279 C 110.26663,399.33591 111.61363,399.3899 113.43163,399.3899 C 114.29463,399.3899 114.87363,399.2819 115.17063,399.0659 C 115.47963,398.8509 115.74963,398.7429 116.00563,398.7429 C 116.49063,398.5269 116.97463,398.6899 117.45963,399.2279 C 117.95863,399.7669 119.48163,400.7909 122.03963,402.2989 C 123.01063,402.9459 125.39463,404.88591 129.17963,408.1189 C 131.61863,410.3819 134.36663,411.89091 137.41063,412.64591 C 142.54363,413.93891 146.01863,415.01591 147.85063,415.87891 C 147.97163,415.77091 148.09363,415.7159 148.21463,415.7159 C 149.54963,415.1779 150.22263,415.6629 150.22263,417.1709 C 150.22263,417.3869 150.10163,417.6559 149.85863,417.97991 C 149.97963,418.6269 150.16763,419.3799 150.41063,420.2429 L 151.13863,423.6379 C 154.31763,437.32391 155.90663,446.10791 155.90663,449.98691 C 155.90663,453.11191 155.23363,454.35191 153.88663,453.70591 C 153.40163,453.59791 153.15863,453.32791 153.15863,452.89791 C 153.15863,452.57391 153.21363,452.11591 153.33463,451.52291 C 153.45563,450.93091 153.52263,450.47191 153.52263,450.14991 C 153.52263,446.37791 151.93363,437.7019 148.76763,424.1229 L 148.02663,420.7279 C 147.78363,419.7579 147.59563,418.89591 147.47463,418.1419 L 147.11063,417.97991 C 146.13963,417.4419 142.66563,416.3099 136.68363,414.58591 C 133.26163,413.72291 130.33863,412.2139 127.89963,410.05891 C 124.23563,406.71791 121.79763,404.7239 120.57163,404.07791 C 118.61863,402.7839 117.16363,401.7599 116.17963,401.00591 C 115.57463,401.3299 114.65863,401.4909 113.43163,401.4909 C 110.50963,401.4909 108.74363,401.3829 108.12563,401.1679 C 106.54763,401.3829 105.22763,402.02991 104.19063,403.1079 C 103.15363,404.1859 101.48363,404.88591 99.16663,405.2099 C 96.471625,405.6399 94.679625,406.09791 93.763625,406.58291 C 92.847625,407.0679 91.905625,407.3109 90.921625,407.3109 C 89.830625,407.3109 88.726625,406.71791 87.634625,405.5319 L 87.082625,404.88591 C 86.475625,404.3469 86.166625,403.8079 86.166625,403.2699 C 86.166625,402.5149 86.475625,401.8679 87.082625,401.3299 L 90.369625,398.41991 C 90.247625,398.3119 90.194625,398.2039 90.194625,398.0959 C 90.194625,397.6659 90.989625,396.8579 92.565625,395.6709 C 93.306625,395.1319 93.911625,394.7549 94.397625,394.53991 C 92.322625,394.32391 90.437625,394.32391 88.726625,394.53991 C 86.894625,394.7549 84.698625,394.5939 82.138625,394.0549 C 75.671625,393.62391 71.523625,393.51591 69.690625,393.73191 C 67.858625,393.9469 65.783625,393.1919 63.467625,391.46791 C 63.467625,392.0069 63.291625,392.7879 62.914625,393.8119 C 62.551625,394.83591 62.375625,395.7789 62.375625,396.6419 C 62.375625,397.5029 62.309625,398.1499 62.187625,398.5819 C 62.309625,399.0119 62.861625,400.6829 63.830625,403.5919 C 65.421625,407.79491 66.337625,410.7189 66.579625,412.3349 L 66.942625,414.4359 C 67.926625,420.0419 68.222625,423.75891 67.858625,425.5909 C 67.374625,427.3149 66.390625,430.0099 64.935625,433.67391 C 63.225625,437.7699 62.039625,440.1669 61.366625,440.86691 C 60.691625,441.5679 59.775625,444.16791 58.617625,448.63991 C 57.459625,453.11191 56.879625,455.75391 56.879625,456.56191 C 56.879625,457.36991 56.449625,457.77391 55.599625,457.77391 C 54.873625,457.77391 54.495625,457.39591 54.495625,456.64191 C 54.495625,455.67191 55.047625,452.92391 56.153625,448.39791 C 57.486625,443.3319 58.523625,440.4759 59.263625,439.8159 C 59.991625,439.16991 61.082625,437.0149 62.551625,433.3509 C 64.019625,429.6869 64.989625,426.9379 65.487625,425.1059 C 65.851625,423.4899 65.542625,420.0419 64.571625,414.7599 L 64.194625,412.6589 C 63.951625,411.14991 63.103625,408.34791 61.635625,404.2519 C 60.301625,400.5749 59.749625,398.4739 59.991625,397.9349 C 59.870625,396.9639 60.166625,395.1869 60.907625,392.59991 C 61.150625,391.9539 61.150625,390.8219 60.894625,389.20591 C 60.651625,388.8819 60.651625,388.50391 60.907625,388.07391 C 60.665625,386.77991 60.598625,385.5419 60.719625,384.3559 C 60.841625,382.5229 60.301625,381.33791 59.075625,380.7989 C 58.469625,380.7989 58.038625,380.52991 57.795625,379.9909 C 57.310625,379.7749 56.273625,379.9379 54.683625,380.4759 C 54.078625,381.2309 53.458625,382.4159 52.851625,384.0319 C 51.262625,388.23491 50.467625,391.6299 50.467625,394.2159 C 50.467625,394.43191 50.467625,394.8099 50.467625,395.34791 C 50.602625,395.8869 50.655625,396.2639 50.655625,396.47991 C 50.655625,397.2339 50.467625,398.3119 50.103625,399.7119 L 49.739625,401.00591 C 48.649625,404.77791 47.733625,408.01091 46.991625,410.70591 C 46.749625,411.35191 46.265625,411.62191 45.537625,411.5139 C 44.674625,411.2979 44.378625,410.86691 44.621625,410.2199 C 46.197625,404.9399 47.113625,401.7069 47.355625,400.5219 L 47.733625,399.2279 C 48.218625,397.6109 48.339625,396.3179 48.097625,395.34791 C 47.733625,392.7619 48.514625,388.7739 50.467625,383.38591 C 51.330625,381.1229 52.273625,379.5339 53.310625,378.6159 C 54.347625,377.6999 55.963625,377.5119 58.159625,378.0509 C 58.281625,376.9739 58.347625,375.7339 58.347625,374.3339 C 58.226625,373.5789 58.159625,372.82391 58.159625,372.0699 C 58.159625,371.6389 58.226625,371.0189 58.347625,370.21091 C 58.469625,369.40291 58.523625,368.83591 58.523625,368.5139 C 58.645625,366.3579 59.007625,364.4719 59.627625,362.85491 C 59.870625,362.1019 59.991625,361.3469 59.991625,360.5919 C 59.991625,359.9459 59.843625,359.0029 59.534625,357.7629 C 59.223625,356.5239 59.075625,355.5819 59.075625,354.9349 C 59.075625,353.2099 58.590625,350.9999 57.607625,348.30691 C 57.365625,347.65991 56.515625,347.22991 55.047625,347.0139 L 53.943625,353.6419 C 53.943625,353.9639 53.767625,354.2339 53.403625,354.4499 L 52.299625,354.9349 C 52.299625,355.2579 51.693625,358.6519 50.467625,365.1189 L 50.103625,367.3819 C 49.861625,368.6749 49.739625,369.69891 49.739625,370.4539 C 49.739625,371.5309 49.430625,372.3939 48.823625,373.03991 C 48.218625,373.6869 47.611625,375.4109 46.991625,378.2119 L 46.075625,381.7699 C 45.470625,384.7869 44.674625,387.7509 43.705625,390.65991 C 43.705625,390.7679 43.637625,390.8759 43.517625,390.9829 L 42.601625,392.1149 C 42.479625,392.43891 42.237625,392.6539 41.873625,392.7619 L 39.125625,397.1269 C 40.094625,400.6829 40.593625,403.1619 40.593625,404.5629 C 40.593625,405.3159 40.526625,406.52991 40.405625,408.1999 C 40.283625,409.8699 40.229625,411.0559 40.229625,411.75591 C 40.229625,412.45591 39.919625,415.3389 39.313625,420.4039 C 38.694625,426.4399 38.397625,429.9429 38.397625,430.9119 C 38.397625,432.31391 37.238625,435.5999 34.907625,440.7739 C 33.089625,444.86791 31.675625,447.77791 30.705625,449.50291 C 30.341625,450.14991 29.789625,450.31091 29.062625,449.98691 C 28.442625,449.66391 28.266625,449.17891 28.509625,448.53191 C 29.493625,446.80791 30.894625,443.89891 32.726625,439.8029 C 34.922625,434.9539 36.013625,432.01591 36.013625,430.9939 C 36.013625,429.9699 36.377625,426.3319 37.103625,420.0819 C 37.602625,415.23191 37.845625,412.45591 37.845625,411.75591 C 37.845625,411.0559 37.939625,409.8699 38.114625,408.1999 C 38.303625,406.52991 38.397625,405.3159 38.397625,404.5629 C 38.397625,403.2699 37.845625,400.7909 36.741625,397.1269 C 36.741625,396.9109 36.807625,396.6419 36.929625,396.3179 L 40.229625,391.46791 L 40.405625,391.14591 C 40.405625,390.9299 40.405625,390.74191 40.405625,390.5789 C 40.405625,390.4179 40.405625,390.0949 40.405625,389.60991 C 40.405625,389.12391 40.405625,388.7199 40.405625,388.3979 C 40.405625,387.31891 40.526625,386.34991 40.767625,385.48691 C 41.266625,380.7459 42.303625,373.6319 43.879625,364.14791 C 44.122625,362.6399 44.433625,361.6979 44.795625,361.3199 C 45.159625,360.9429 45.658625,359.5149 46.265625,357.0359 L 47.355625,351.8629 C 47.355625,351.7549 47.423625,351.6469 47.543625,351.53991 L 51.019625,346.6899 C 51.505625,346.0429 52.057625,345.9359 52.663625,346.36691 L 52.851625,346.36691 L 52.851625,345.71991 C 52.973625,345.07391 53.337625,344.7509 53.957625,344.7509 C 55.047625,344.8579 55.963625,345.0199 56.691625,345.23491 C 58.402625,345.6669 59.439625,346.47491 59.803625,347.65991 C 60.301625,349.59991 60.961625,352.7789 61.823625,357.1979 C 62.430625,359.6759 62.430625,361.77791 61.823625,363.5019 C 61.702625,365.1189 61.338625,367.5429 60.719625,370.7759 C 60.598625,371.20791 60.598625,372.3939 60.719625,374.3339 L 60.543625,377.0819 C 60.530625,377.9429 60.530625,378.5899 60.543625,379.0219 C 61.635625,379.6679 62.375625,380.6379 62.739625,381.9309 C 69.570625,380.52991 73.894625,379.8299 75.726625,379.8299 C 78.419625,379.8299 82.381625,379.2909 87.634625,378.2119 L 90.194625,377.5659 C 93.359625,376.9189 96.418625,376.7579 99.34163,377.0819 C 101.53763,377.4039 104.47363,377.2959 108.12563,376.7579 C 109.95763,376.4349 111.18263,376.3269 111.78963,376.4349 C 111.91063,376.4349 112.03163,376.4349 112.15163,376.4349 L 112.34163,376.4349 C 112.46263,376.4349 112.63763,376.4349 112.89363,376.4349 C 113.37863,376.3269 114.19963,375.9759 115.35863,375.38391 C 116.51763,374.7909 117.52763,374.4949 118.37563,374.4949 C 120.08663,374.4949 122.76763,375.3029 126.43163,376.9189 L 126.98363,377.2429 C 127.59063,377.5659 130.09563,378.5359 134.48763,380.1519 L 139.43163,382.0919 C 142.96163,383.16991 147.66263,384.9479 153.52263,387.42691 C 155.35463,388.50391 158.22363,390.44391 162.11763,393.24691 C 162.73763,393.6779 162.79063,394.1629 162.30563,394.7019 z M 99.70563,379.1829 L 99.16663,379.1829 C 96.350625,378.8589 93.602625,379.0219 90.921625,379.6679 L 88.173625,380.1519 C 82.811625,381.33791 78.662625,381.9309 75.726625,381.9309 C 74.393625,381.9309 71.213625,382.4159 66.215625,383.38591 C 71.711625,383.27791 74.945625,383.16991 75.914625,383.0629 C 79.942625,382.3079 82.502625,382.0919 83.606625,382.4159 C 83.849625,382.5229 84.941625,382.3079 86.894625,381.7699 L 89.089625,381.2839 C 92.026625,380.6379 95.555625,379.9379 99.70563,379.1829 z M 52.487625,348.6299 L 49.565625,352.5099 L 48.459625,357.5219 C 47.733625,361.0779 47.059625,363.0179 46.439625,363.3399 C 46.197625,364.3109 45.658625,367.86691 44.795625,374.0099 C 44.311625,377.6739 43.947625,380.3149 43.705625,381.9309 L 43.879625,381.4459 L 44.621625,377.7279 C 44.863625,376.8659 45.281625,375.5189 45.901625,373.6869 C 46.143625,372.93191 46.506625,372.2859 46.991625,371.74691 C 47.113625,370.5619 47.355625,368.99891 47.733625,367.05891 L 48.097625,364.79491 L 50.103625,353.9639 C 50.225625,353.6419 50.467625,353.4259 50.845625,353.3179 L 51.747625,352.8339 z M 62.187625,398.5819 L 62.187625,398.41991 z"
       inkscape:connector-curvature="0"
       style="fill:#000000;stroke:#000000;stroke-width:2.66667008" />
  </g>
</svg>
