<?xml version="1.0" encoding="UTF-8" standalone="no"?>
<!DOCTYPE svg PUBLIC "-//W3C//DTD SVG 1.1//EN" "http://www.w3.org/Graphics/SVG/1.1/DTD/svg11.dtd">
<svg width="100%" height="100%" viewBox="0 0 512 512" version="1.1" xmlns="http://www.w3.org/2000/svg" xmlns:xlink="http://www.w3.org/1999/xlink" xml:space="preserve" xmlns:serif="http://www.serif.com/" style="fill-rule:evenodd;clip-rule:evenodd;stroke-linejoin:round;stroke-miterlimit:2;">
    <g>
        <path d="M417.5,160L355.8,160C323.7,124 313.6,112 301.3,112L212.8,112C200.5,112 190.6,124 158.3,160L145,160L145,144L111,144L111,160L97.5,160C79.9,160 64,173.2 64,190.7L64,366.7C64,384.2 79.9,400 97.5,400L417.5,400C435.1,400 448,384.2 448,366.7L448,190.7C448,173.2 435.1,160 417.5,160ZM432,366.7C432,376 425.8,384 417.5,384L97.5,384C88.8,384 80,375.3 80,366.7L80,190.7C80,182.5 88.1,176 97.5,176L165.3,176L170.1,172.8C174.1,168.3 177.8,162.8 181.2,159C192.5,146.3 200.7,137.3 206.5,132.1C211.2,127.9 212.7,128 212.7,128L301.2,128C301.2,128 302.8,127.9 307.9,132.5C314,138 322.6,149 334.5,162.3C337.4,165.6 340.5,169.1 343.8,172.8L348.6,176L417.5,176C426.3,176 432,182 432,190.7L432,366.7Z" style="fill:rgb(254,255,254);fill-rule:nonzero;"/>
        <path d="M256,189.5C208.9,189.5 170.5,227.9 170.5,275C170.5,322.1 208.9,360.5 256,360.5C303.1,360.5 341.5,322.1 341.5,275C341.5,227.9 303.1,189.5 256,189.5ZM256,344.5C217.6,344.5 186.5,313.4 186.5,275C186.5,236.6 217.6,205.5 256,205.5C294.4,205.5 325.5,236.6 325.5,275C325.5,313.4 294.4,344.5 256,344.5Z" style="fill:rgb(254,255,254);fill-rule:nonzero;"/>
        <rect x="352" y="192" width="17" height="17" style="fill:rgb(254,255,254);"/>
        <circle cx="256" cy="275" r="32" style="fill:rgb(254,255,254);"/>
        <g transform="matrix(0.931402,0.804856,-0.653835,0.756637,80.5037,-56.1338)">
            <rect x="48.302" y="93.384" width="442.767" height="27.371" style="fill:rgb(254,255,254);"/>
        </g>
    </g>
</svg>
